%TF.GenerationSoftware,KiCad,Pcbnew,(6.0.5)*%
%TF.CreationDate,2022-06-21T07:34:41+08:00*%
%TF.ProjectId,unnamed-3k-v2,756e6e61-6d65-4642-9d33-6b2d76322e6b,rev?*%
%TF.SameCoordinates,Original*%
%TF.FileFunction,Copper,L2,Bot*%
%TF.FilePolarity,Positive*%
%FSLAX46Y46*%
G04 Gerber Fmt 4.6, Leading zero omitted, Abs format (unit mm)*
G04 Created by KiCad (PCBNEW (6.0.5)) date 2022-06-21 07:34:41*
%MOMM*%
%LPD*%
G01*
G04 APERTURE LIST*
G04 Aperture macros list*
%AMRoundRect*
0 Rectangle with rounded corners*
0 $1 Rounding radius*
0 $2 $3 $4 $5 $6 $7 $8 $9 X,Y pos of 4 corners*
0 Add a 4 corners polygon primitive as box body*
4,1,4,$2,$3,$4,$5,$6,$7,$8,$9,$2,$3,0*
0 Add four circle primitives for the rounded corners*
1,1,$1+$1,$2,$3*
1,1,$1+$1,$4,$5*
1,1,$1+$1,$6,$7*
1,1,$1+$1,$8,$9*
0 Add four rect primitives between the rounded corners*
20,1,$1+$1,$2,$3,$4,$5,0*
20,1,$1+$1,$4,$5,$6,$7,0*
20,1,$1+$1,$6,$7,$8,$9,0*
20,1,$1+$1,$8,$9,$2,$3,0*%
%AMRotRect*
0 Rectangle, with rotation*
0 The origin of the aperture is its center*
0 $1 length*
0 $2 width*
0 $3 Rotation angle, in degrees counterclockwise*
0 Add horizontal line*
21,1,$1,$2,0,0,$3*%
G04 Aperture macros list end*
%TA.AperFunction,SMDPad,CuDef*%
%ADD10R,2.550000X2.500000*%
%TD*%
%TA.AperFunction,SMDPad,CuDef*%
%ADD11RoundRect,0.250000X0.088388X-0.548008X0.548008X-0.088388X-0.088388X0.548008X-0.548008X0.088388X0*%
%TD*%
%TA.AperFunction,SMDPad,CuDef*%
%ADD12RoundRect,0.250000X0.325000X0.450000X-0.325000X0.450000X-0.325000X-0.450000X0.325000X-0.450000X0*%
%TD*%
%TA.AperFunction,SMDPad,CuDef*%
%ADD13RoundRect,0.250000X0.450000X-0.325000X0.450000X0.325000X-0.450000X0.325000X-0.450000X-0.325000X0*%
%TD*%
%TA.AperFunction,SMDPad,CuDef*%
%ADD14RoundRect,0.250000X-0.450000X0.325000X-0.450000X-0.325000X0.450000X-0.325000X0.450000X0.325000X0*%
%TD*%
%TA.AperFunction,SMDPad,CuDef*%
%ADD15RoundRect,0.250000X0.548008X0.088388X0.088388X0.548008X-0.548008X-0.088388X-0.088388X-0.548008X0*%
%TD*%
%TA.AperFunction,SMDPad,CuDef*%
%ADD16R,0.700000X1.000000*%
%TD*%
%TA.AperFunction,SMDPad,CuDef*%
%ADD17R,0.700000X0.600000*%
%TD*%
%TA.AperFunction,SMDPad,CuDef*%
%ADD18R,0.600000X2.450000*%
%TD*%
%TA.AperFunction,SMDPad,CuDef*%
%ADD19R,0.300000X2.450000*%
%TD*%
%TA.AperFunction,ComponentPad*%
%ADD20O,1.000000X2.100000*%
%TD*%
%TA.AperFunction,ComponentPad*%
%ADD21O,1.000000X1.600000*%
%TD*%
%TA.AperFunction,SMDPad,CuDef*%
%ADD22RotRect,1.600000X0.550000X135.000000*%
%TD*%
%TA.AperFunction,SMDPad,CuDef*%
%ADD23RotRect,1.600000X0.550000X45.000000*%
%TD*%
%TA.AperFunction,SMDPad,CuDef*%
%ADD24RoundRect,0.250001X0.462499X0.624999X-0.462499X0.624999X-0.462499X-0.624999X0.462499X-0.624999X0*%
%TD*%
%TA.AperFunction,SMDPad,CuDef*%
%ADD25R,1.800000X1.100000*%
%TD*%
%TA.AperFunction,SMDPad,CuDef*%
%ADD26R,1.500000X1.000000*%
%TD*%
%TA.AperFunction,SMDPad,CuDef*%
%ADD27RotRect,2.100000X1.800000X225.000000*%
%TD*%
%TA.AperFunction,SMDPad,CuDef*%
%ADD28RoundRect,0.250000X-0.548008X-0.088388X-0.088388X-0.548008X0.548008X0.088388X0.088388X0.548008X0*%
%TD*%
%TA.AperFunction,SMDPad,CuDef*%
%ADD29RoundRect,0.250000X-0.088388X0.548008X-0.548008X0.088388X0.088388X-0.548008X0.548008X-0.088388X0*%
%TD*%
%TA.AperFunction,ViaPad*%
%ADD30C,0.800000*%
%TD*%
%TA.AperFunction,Conductor*%
%ADD31C,0.381000*%
%TD*%
%TA.AperFunction,Conductor*%
%ADD32C,0.254000*%
%TD*%
%TA.AperFunction,Conductor*%
%ADD33C,0.279400*%
%TD*%
G04 APERTURE END LIST*
D10*
%TO.P,MX2,1,COL*%
%TO.N,COL1*%
X86036000Y-85090000D03*
%TO.P,MX2,2,ROW*%
%TO.N,GND*%
X98963000Y-82550000D03*
%TD*%
%TO.P,MX3,1,COL*%
%TO.N,COL2*%
X66987000Y-85100000D03*
%TO.P,MX3,2,ROW*%
%TO.N,GND*%
X79914000Y-82560000D03*
%TD*%
%TO.P,MX1,1,COL*%
%TO.N,COL0*%
X105087000Y-85090000D03*
%TO.P,MX1,2,ROW*%
%TO.N,GND*%
X118014000Y-82550000D03*
%TD*%
D11*
%TO.P,C1,1*%
%TO.N,Net-(C1-Pad1)*%
X96647000Y-100965000D03*
%TO.P,C1,2*%
%TO.N,GND*%
X98096568Y-99515432D03*
%TD*%
D12*
%TO.P,C6,1*%
%TO.N,+5V*%
X102616000Y-76073000D03*
%TO.P,C6,2*%
%TO.N,GND*%
X100566000Y-76073000D03*
%TD*%
D13*
%TO.P,C11,1*%
%TO.N,+5V*%
X72517000Y-99568001D03*
%TO.P,C11,2*%
%TO.N,GND*%
X72517000Y-97518001D03*
%TD*%
D14*
%TO.P,R3,1*%
%TO.N,+5V*%
X79121000Y-108440001D03*
%TO.P,R3,2*%
%TO.N,Net-(R3-Pad2)*%
X79121000Y-110490001D03*
%TD*%
D15*
%TO.P,R4,1*%
%TO.N,GND*%
X88265000Y-116459000D03*
%TO.P,R4,2*%
%TO.N,Net-(R4-Pad2)*%
X86815432Y-115009432D03*
%TD*%
D13*
%TO.P,R5,1*%
%TO.N,GND*%
X89408000Y-73170000D03*
%TO.P,R5,2*%
%TO.N,Net-(R5-Pad2)*%
X89408000Y-71120000D03*
%TD*%
%TO.P,R6,1*%
%TO.N,GND*%
X96647000Y-73297000D03*
%TO.P,R6,2*%
%TO.N,Net-(R6-Pad2)*%
X96647000Y-71247000D03*
%TD*%
D16*
%TO.P,U2,1,GND*%
%TO.N,GND*%
X92091000Y-72759000D03*
D17*
%TO.P,U2,2,IO1*%
%TO.N,D+*%
X92091000Y-71059000D03*
%TO.P,U2,3,IO2*%
%TO.N,D-*%
X94091000Y-71059000D03*
%TO.P,U2,4,VCC*%
%TO.N,VCC*%
X94091000Y-72959000D03*
%TD*%
D18*
%TO.P,USB1,1,GND*%
%TO.N,GND*%
X89896000Y-67184000D03*
%TO.P,USB1,2,VBUS*%
%TO.N,VCC*%
X90671000Y-67184000D03*
D19*
%TO.P,USB1,3,SBU2*%
%TO.N,unconnected-(USB1-Pad3)*%
X91371000Y-67184000D03*
%TO.P,USB1,4,CC1*%
%TO.N,Net-(R5-Pad2)*%
X91871000Y-67184000D03*
%TO.P,USB1,5,DN2*%
%TO.N,D-*%
X92371000Y-67184000D03*
%TO.P,USB1,6,DP1*%
%TO.N,D+*%
X92871000Y-67184000D03*
%TO.P,USB1,7,DN1*%
%TO.N,D-*%
X93371000Y-67184000D03*
%TO.P,USB1,8,DP2*%
%TO.N,D+*%
X93871000Y-67184000D03*
%TO.P,USB1,9,SBU1*%
%TO.N,unconnected-(USB1-Pad9)*%
X94371000Y-67184000D03*
%TO.P,USB1,10,CC2*%
%TO.N,Net-(R6-Pad2)*%
X94871000Y-67184000D03*
D18*
%TO.P,USB1,11,VBUS*%
%TO.N,VCC*%
X95571000Y-67184000D03*
%TO.P,USB1,12,GND*%
%TO.N,GND*%
X96346000Y-67184000D03*
D20*
%TO.P,USB1,13,SHIELD*%
X97441000Y-65769000D03*
X88801000Y-65769000D03*
D21*
X97441000Y-61589000D03*
X88801000Y-61589000D03*
%TD*%
D22*
%TO.P,U1,1,XTAL1*%
%TO.N,XTAL1*%
X98237658Y-110218870D03*
%TO.P,U1,2,PC0/XTAL2*%
%TO.N,XTAL2*%
X97671972Y-110784555D03*
%TO.P,U1,3,GND*%
%TO.N,GND*%
X97106287Y-111350241D03*
%TO.P,U1,4,VCC*%
%TO.N,+5V*%
X96540602Y-111915926D03*
%TO.P,U1,5,PC2*%
%TO.N,unconnected-(U1-Pad5)*%
X95974916Y-112481612D03*
%TO.P,U1,6,PD0*%
%TO.N,unconnected-(U1-Pad6)*%
X95409231Y-113047297D03*
%TO.P,U1,7,PD1*%
%TO.N,unconnected-(U1-Pad7)*%
X94843545Y-113612982D03*
%TO.P,U1,8,PD2*%
%TO.N,unconnected-(U1-Pad8)*%
X94277860Y-114178668D03*
D23*
%TO.P,U1,9,PD3*%
%TO.N,unconnected-(U1-Pad9)*%
X92227250Y-114178668D03*
%TO.P,U1,10,PD4*%
%TO.N,unconnected-(U1-Pad10)*%
X91661565Y-113612982D03*
%TO.P,U1,11,PD5*%
%TO.N,unconnected-(U1-Pad11)*%
X91095879Y-113047297D03*
%TO.P,U1,12,PD6*%
%TO.N,unconnected-(U1-Pad12)*%
X90530194Y-112481612D03*
%TO.P,U1,13,~{HWB}/PD7*%
%TO.N,Net-(R4-Pad2)*%
X89964508Y-111915926D03*
%TO.P,U1,14,PB0*%
%TO.N,unconnected-(U1-Pad14)*%
X89398823Y-111350241D03*
%TO.P,U1,15,PB1*%
%TO.N,unconnected-(U1-Pad15)*%
X88833138Y-110784555D03*
%TO.P,U1,16,PB2*%
%TO.N,unconnected-(U1-Pad16)*%
X88267452Y-110218870D03*
D22*
%TO.P,U1,17,PB3*%
%TO.N,UNDERGLOWLED*%
X88267452Y-108168260D03*
%TO.P,U1,18,PB4*%
%TO.N,unconnected-(U1-Pad18)*%
X88833138Y-107602575D03*
%TO.P,U1,19,PB5*%
%TO.N,unconnected-(U1-Pad19)*%
X89398823Y-107036889D03*
%TO.P,U1,20,PB6*%
%TO.N,unconnected-(U1-Pad20)*%
X89964508Y-106471204D03*
%TO.P,U1,21,PB7*%
%TO.N,COL2*%
X90530194Y-105905518D03*
%TO.P,U1,22,PC7*%
%TO.N,COL1*%
X91095879Y-105339833D03*
%TO.P,U1,23,PC6*%
%TO.N,COL0*%
X91661565Y-104774148D03*
%TO.P,U1,24,PC1/~{RESET}*%
%TO.N,Net-(R3-Pad2)*%
X92227250Y-104208462D03*
D23*
%TO.P,U1,25,PC5*%
%TO.N,unconnected-(U1-Pad25)*%
X94277860Y-104208462D03*
%TO.P,U1,26,PC4*%
%TO.N,unconnected-(U1-Pad26)*%
X94843545Y-104774148D03*
%TO.P,U1,27,UCAP*%
%TO.N,Net-(C1-Pad1)*%
X95409231Y-105339833D03*
%TO.P,U1,28,UGND*%
%TO.N,GND*%
X95974916Y-105905518D03*
%TO.P,U1,29,D+*%
%TO.N,Net-(R2-Pad1)*%
X96540602Y-106471204D03*
%TO.P,U1,30,D-*%
%TO.N,Net-(R1-Pad1)*%
X97106287Y-107036889D03*
%TO.P,U1,31,UVCC*%
%TO.N,+5V*%
X97671972Y-107602575D03*
%TO.P,U1,32,AVCC*%
X98237658Y-108168260D03*
%TD*%
D24*
%TO.P,F1,1*%
%TO.N,+5V*%
X102743000Y-72644000D03*
%TO.P,F1,2*%
%TO.N,VCC*%
X99768000Y-72644000D03*
%TD*%
D25*
%TO.P,SW1,1,1*%
%TO.N,GND*%
X70127000Y-112158000D03*
%TO.P,SW1,2,2*%
%TO.N,Net-(R3-Pad2)*%
X76327000Y-108458000D03*
%TO.P,SW1,3*%
%TO.N,N/C*%
X70127000Y-108458000D03*
%TO.P,SW1,4*%
X76327000Y-112158000D03*
%TD*%
D11*
%TO.P,C5,1*%
%TO.N,+5V*%
X102944432Y-107240568D03*
%TO.P,C5,2*%
%TO.N,GND*%
X104394000Y-105791000D03*
%TD*%
D26*
%TO.P,D5,1,VDD*%
%TO.N,+5V*%
X106135000Y-99517000D03*
%TO.P,D5,2,DOUT*%
%TO.N,unconnected-(D5-Pad2)*%
X106135000Y-96317000D03*
%TO.P,D5,3,VSS*%
%TO.N,GND*%
X111035000Y-96317000D03*
%TO.P,D5,4,DIN*%
%TO.N,Net-(D4-Pad2)*%
X111035000Y-99517000D03*
%TD*%
D13*
%TO.P,C10,1*%
%TO.N,+5V*%
X113538000Y-98425000D03*
%TO.P,C10,2*%
%TO.N,GND*%
X113538000Y-96375000D03*
%TD*%
D26*
%TO.P,D4,1,VDD*%
%TO.N,+5V*%
X75147000Y-99517000D03*
%TO.P,D4,2,DOUT*%
%TO.N,Net-(D4-Pad2)*%
X75147000Y-96317000D03*
%TO.P,D4,3,VSS*%
%TO.N,GND*%
X80047000Y-96317000D03*
%TO.P,D4,4,DIN*%
%TO.N,UNDERGLOWLED*%
X80047000Y-99517000D03*
%TD*%
D27*
%TO.P,Y1,1,1*%
%TO.N,XTAL1*%
X103613726Y-114475645D03*
%TO.P,Y1,2,2*%
%TO.N,GND*%
X101563116Y-116526255D03*
%TO.P,Y1,3,3*%
%TO.N,XTAL2*%
X99936770Y-114899909D03*
%TO.P,Y1,4,4*%
%TO.N,GND*%
X101987380Y-112849299D03*
%TD*%
D28*
%TO.P,C3,1*%
%TO.N,XTAL2*%
X97610432Y-117168432D03*
%TO.P,C3,2*%
%TO.N,GND*%
X99060000Y-118618000D03*
%TD*%
D15*
%TO.P,C2,1*%
%TO.N,XTAL1*%
X106097568Y-111939568D03*
%TO.P,C2,2*%
%TO.N,GND*%
X104648000Y-110490000D03*
%TD*%
D29*
%TO.P,C4,1*%
%TO.N,+5V*%
X92329000Y-118491000D03*
%TO.P,C4,2*%
%TO.N,GND*%
X90879432Y-119940568D03*
%TD*%
D11*
%TO.P,R2,1*%
%TO.N,Net-(R2-Pad1)*%
X99388432Y-102922568D03*
%TO.P,R2,2*%
%TO.N,D+*%
X100838000Y-101473000D03*
%TD*%
%TO.P,R1,1*%
%TO.N,Net-(R1-Pad1)*%
X100912432Y-104446568D03*
%TO.P,R1,2*%
%TO.N,D-*%
X102362000Y-102997000D03*
%TD*%
D30*
%TO.N,COL0*%
X105780000Y-90490000D03*
%TO.N,COL1*%
X86770000Y-90160000D03*
%TO.N,COL2*%
X84970000Y-90240000D03*
X88220000Y-98980000D03*
%TO.N,COL1*%
X89320497Y-98920000D03*
%TO.N,COL0*%
X90320000Y-98920000D03*
%TO.N,GND*%
X97536000Y-114935000D03*
%TO.N,+5V*%
X101600000Y-106045000D03*
X87503000Y-111887000D03*
X95885000Y-114935000D03*
%TO.N,Net-(D4-Pad2)*%
X100965000Y-99187000D03*
X85471000Y-97917000D03*
X108458000Y-99187000D03*
X80010000Y-97917000D03*
%TO.N,VCC*%
X98679000Y-69342000D03*
X96392061Y-69342939D03*
%TO.N,D+*%
X94361000Y-69342000D03*
X92329000Y-69342000D03*
%TO.N,Net-(R3-Pad2)*%
X91059000Y-102997000D03*
X83693000Y-110490000D03*
%TD*%
D31*
%TO.N,+5V*%
X102944432Y-107240568D02*
X102016740Y-108168260D01*
X102016740Y-108168260D02*
X98237658Y-108168260D01*
X104112500Y-100732500D02*
X104112500Y-103532500D01*
X106135000Y-99517000D02*
X105328000Y-99517000D01*
X104112500Y-89362500D02*
X104112500Y-100732500D01*
X105328000Y-99517000D02*
X104112500Y-100732500D01*
X102616000Y-76073000D02*
X102616000Y-87866000D01*
X104112500Y-103532500D02*
X101600000Y-106045000D01*
X102616000Y-87866000D02*
X104112500Y-89362500D01*
D32*
%TO.N,D-*%
X102561510Y-89287990D02*
X102562010Y-89287990D01*
X101453520Y-88180000D02*
X102561510Y-89287990D01*
X101453520Y-80433520D02*
X101453520Y-88180000D01*
X99633000Y-78613000D02*
X101453520Y-80433520D01*
X99633000Y-78613000D02*
X98044000Y-78613000D01*
X102562010Y-101526990D02*
X102562010Y-89287990D01*
%TO.N,D+*%
X92768001Y-71686001D02*
X92141000Y-71059000D01*
X92768001Y-73982999D02*
X92768001Y-71686001D01*
X92771933Y-73982999D02*
X92768001Y-73982999D01*
X99337010Y-79067010D02*
X97855943Y-79067010D01*
X101000000Y-80730000D02*
X99337010Y-79067010D01*
X101000000Y-88370000D02*
X101000000Y-80730000D01*
X102108000Y-89478000D02*
X101000000Y-88370000D01*
X100838000Y-101473000D02*
X101973933Y-101473000D01*
X101973933Y-101473000D02*
X102108000Y-101338933D01*
X102108000Y-101338933D02*
X102108000Y-89478000D01*
X97855943Y-79067010D02*
X92771933Y-73982999D01*
%TO.N,COL0*%
X105780000Y-90490000D02*
X105130519Y-89840519D01*
X105130519Y-89840519D02*
X105130519Y-85090000D01*
%TO.N,COL2*%
X84970000Y-90240000D02*
X69150000Y-90240000D01*
X69150000Y-90240000D02*
X66987000Y-88077000D01*
X66987000Y-88077000D02*
X66987000Y-85100000D01*
%TO.N,COL1*%
X86770000Y-89970000D02*
X86770000Y-90160000D01*
X86036000Y-89236000D02*
X86770000Y-89970000D01*
%TO.N,COL2*%
X88220000Y-103595324D02*
X88220000Y-98980000D01*
X90530194Y-105905518D02*
X88220000Y-103595324D01*
%TO.N,COL1*%
X86036000Y-89236000D02*
X86036000Y-85090000D01*
X89320497Y-103564451D02*
X89320497Y-98920000D01*
X91095879Y-105339833D02*
X89320497Y-103564451D01*
%TO.N,COL0*%
X91661565Y-104774148D02*
X90320000Y-103432583D01*
X90320000Y-103432583D02*
X90320000Y-98920000D01*
D31*
%TO.N,VCC*%
X91663924Y-64887980D02*
X94578076Y-64887980D01*
X94578076Y-64887980D02*
X95571000Y-65880904D01*
X90671000Y-65880904D02*
X91663924Y-64887980D01*
X90671000Y-67184000D02*
X90671000Y-65880904D01*
X95571000Y-67184000D02*
X95571000Y-68521878D01*
X95571000Y-65880904D02*
X95571000Y-67184000D01*
D32*
%TO.N,XTAL1*%
X104426898Y-113662473D02*
X103613726Y-114475645D01*
X104426898Y-112935898D02*
X104426898Y-113662473D01*
X106097568Y-111991803D02*
X106097568Y-111939568D01*
X103613726Y-114475645D02*
X106097568Y-111991803D01*
D31*
%TO.N,GND*%
X96346000Y-67184000D02*
X96346000Y-68178942D01*
X95338521Y-106541913D02*
X95338521Y-109582475D01*
X77849000Y-95250000D02*
X73533000Y-95250000D01*
X101737841Y-113098839D02*
X101987380Y-112849300D01*
X97737510Y-72206490D02*
X97270372Y-72673628D01*
X89766000Y-63373000D02*
X89916000Y-63373000D01*
X97737510Y-69570452D02*
X97737510Y-72206490D01*
D33*
X101737841Y-116351530D02*
X101737841Y-113098839D01*
D31*
X89404000Y-63373000D02*
X89916000Y-63373000D01*
X96346000Y-67184000D02*
X96346000Y-66864000D01*
X88801000Y-64338000D02*
X89766000Y-63373000D01*
X97536000Y-104344434D02*
X95974916Y-105905518D01*
X97441000Y-64294000D02*
X97441000Y-65769000D01*
X96838000Y-63373000D02*
X96266000Y-63373000D01*
X111035000Y-96317000D02*
X113480000Y-96317000D01*
X98532046Y-113938954D02*
X97536000Y-114935000D01*
X89408000Y-73170000D02*
X91680000Y-73170000D01*
X101563116Y-116526255D02*
X101737841Y-116351530D01*
X96346000Y-68178942D02*
X97737510Y-69570452D01*
X101346000Y-75293000D02*
X101189372Y-75449628D01*
X89896000Y-67184000D02*
X89896000Y-66864000D01*
X89916000Y-63373000D02*
X96266000Y-63373000D01*
X96346000Y-66864000D02*
X97441000Y-65769000D01*
X96266000Y-63373000D02*
X96520000Y-63373000D01*
X89896000Y-68790000D02*
X88317490Y-70368510D01*
X88317490Y-72079490D02*
X88784628Y-72546628D01*
X113480000Y-96317000D02*
X113538000Y-96375000D01*
X97441000Y-61589000D02*
X97441000Y-62770000D01*
X97441000Y-62770000D02*
X96838000Y-63373000D01*
X98096568Y-101801432D02*
X97536000Y-102362000D01*
X101151745Y-116526255D02*
X99060000Y-118618000D01*
X96346000Y-67184000D02*
X97690942Y-67184000D01*
X96520000Y-63373000D02*
X97441000Y-64294000D01*
X88801000Y-62770000D02*
X89404000Y-63373000D01*
X97690942Y-67184000D02*
X101346000Y-70839058D01*
X101563116Y-116526255D02*
X101151745Y-116526255D01*
X97106287Y-111350241D02*
X98532046Y-112776000D01*
X88784628Y-72546628D02*
X89408000Y-73170000D01*
X95974916Y-105905518D02*
X95338521Y-106541913D01*
X95338521Y-109582475D02*
X96469892Y-110713846D01*
X91680000Y-73170000D02*
X92091000Y-72759000D01*
X96469892Y-110713846D02*
X97106287Y-111350241D01*
X88801000Y-65769000D02*
X88801000Y-64338000D01*
X72517000Y-96266000D02*
X72517000Y-97518001D01*
X80047000Y-96317000D02*
X78916000Y-96317000D01*
X98532046Y-112776000D02*
X98532046Y-113938954D01*
X88317490Y-70368510D02*
X88317490Y-72079490D01*
X98096568Y-99515432D02*
X98096568Y-101801432D01*
X73533000Y-95250000D02*
X72517000Y-96266000D01*
X101189372Y-75449628D02*
X100566000Y-76073000D01*
X89896000Y-67184000D02*
X89896000Y-68790000D01*
X88801000Y-61589000D02*
X88801000Y-62770000D01*
X78916000Y-96317000D02*
X77849000Y-95250000D01*
X101346000Y-70839058D02*
X101346000Y-75293000D01*
X89896000Y-66864000D02*
X88801000Y-65769000D01*
X97536000Y-102362000D02*
X97536000Y-104344434D01*
X97270372Y-72673628D02*
X96647000Y-73297000D01*
D32*
%TO.N,Net-(C1-Pad1)*%
X96169704Y-101442296D02*
X96169704Y-102392704D01*
X96169704Y-102392704D02*
X96901000Y-103124000D01*
X96901000Y-103848064D02*
X95409231Y-105339833D01*
X96647000Y-100965000D02*
X96169704Y-101442296D01*
X96901000Y-103124000D02*
X96901000Y-103848064D01*
%TO.N,XTAL1*%
X104426898Y-112935898D02*
X102616000Y-111125000D01*
X100457000Y-111760000D02*
X101092000Y-111125000D01*
X98237658Y-110218870D02*
X99778788Y-111760000D01*
X99778788Y-111760000D02*
X100457000Y-111760000D01*
X106045000Y-112044371D02*
X106045000Y-111887000D01*
X101092000Y-111125000D02*
X102616000Y-111125000D01*
%TO.N,XTAL2*%
X97671972Y-110784555D02*
X98308367Y-111420950D01*
X99878955Y-114899909D02*
X99936770Y-114899909D01*
X98308367Y-111420950D02*
X98311616Y-111420950D01*
X97610432Y-117168432D02*
X99878955Y-114899909D01*
X98311616Y-111420950D02*
X99187000Y-112296334D01*
X99187000Y-112296334D02*
X99187000Y-114150139D01*
X99187000Y-114150139D02*
X99936770Y-114899909D01*
D31*
%TO.N,+5V*%
X107505501Y-98396499D02*
X106385000Y-99517000D01*
X101748864Y-106045000D02*
X102944432Y-107240568D01*
X95485001Y-115334999D02*
X92329000Y-118491000D01*
X102743000Y-75946000D02*
X102616000Y-76073000D01*
X75095999Y-99568001D02*
X75147000Y-99517000D01*
X96540602Y-111915926D02*
X97176997Y-112552321D01*
X101581001Y-106063999D02*
X101600000Y-106045000D01*
X101581001Y-106063999D02*
X99210548Y-106063999D01*
X106385000Y-99517000D02*
X106135000Y-99517000D01*
X99210548Y-106063999D02*
X97671972Y-107602575D01*
X113538000Y-98425000D02*
X112738000Y-98425000D01*
X84056001Y-108440001D02*
X87503000Y-111887000D01*
X101600000Y-106045000D02*
X101748864Y-106045000D01*
X75147000Y-104466001D02*
X79121000Y-108440001D01*
X97176997Y-112552321D02*
X97176997Y-113643003D01*
X95885000Y-114935000D02*
X95485001Y-115334999D01*
X112709499Y-98396499D02*
X107505501Y-98396499D01*
X75147000Y-99517000D02*
X75147000Y-104466001D01*
X72517000Y-99568001D02*
X75095999Y-99568001D01*
X96284999Y-114535001D02*
X95885000Y-114935000D01*
X102743000Y-72644000D02*
X102743000Y-75946000D01*
X97176997Y-113643003D02*
X96284999Y-114535001D01*
X112738000Y-98425000D02*
X112709499Y-98396499D01*
X79121000Y-108440001D02*
X84056001Y-108440001D01*
D32*
%TO.N,Net-(D4-Pad2)*%
X75147000Y-96317000D02*
X76151000Y-96317000D01*
X110705000Y-99187000D02*
X111035000Y-99517000D01*
X99695000Y-97917000D02*
X100965000Y-99187000D01*
X85471000Y-97917000D02*
X99695000Y-97917000D01*
X77751000Y-97917000D02*
X80010000Y-97917000D01*
X108458000Y-99187000D02*
X110705000Y-99187000D01*
X76151000Y-96317000D02*
X77751000Y-97917000D01*
%TO.N,UNDERGLOWLED*%
X86741000Y-105961000D02*
X86741000Y-106680000D01*
X88267452Y-108168260D02*
X88229260Y-108168260D01*
X80047000Y-99517000D02*
X80297000Y-99517000D01*
X88229260Y-108168260D02*
X86741000Y-106680000D01*
X80297000Y-99517000D02*
X86741000Y-105961000D01*
D31*
%TO.N,VCC*%
X99187000Y-75057000D02*
X99768000Y-74476000D01*
X95571000Y-68521878D02*
X96392061Y-69342939D01*
X98679000Y-69342000D02*
X99768000Y-70431000D01*
X94091000Y-73640000D02*
X95508000Y-75057000D01*
X95508000Y-75057000D02*
X99187000Y-75057000D01*
X99768000Y-70431000D02*
X99768000Y-72644000D01*
X94091000Y-72959000D02*
X94091000Y-73640000D01*
X99768000Y-74476000D02*
X99768000Y-72644000D01*
D32*
%TO.N,D-*%
X102362000Y-102997000D02*
X102362000Y-101727000D01*
X93345000Y-71755000D02*
X94041000Y-71059000D01*
X92686398Y-65405000D02*
X93071000Y-65405000D01*
X93071000Y-65405000D02*
X93371000Y-65705000D01*
X98044000Y-78613000D02*
X93345000Y-73914000D01*
X102362000Y-101727000D02*
X102562010Y-101526990D01*
X93345000Y-73914000D02*
X93345000Y-71755000D01*
X92371000Y-65720398D02*
X92686398Y-65405000D01*
X92371000Y-67184000D02*
X92371000Y-65720398D01*
X93371000Y-65705000D02*
X93371000Y-67184000D01*
X93371000Y-67184000D02*
X93371000Y-70389000D01*
X93371000Y-70389000D02*
X94041000Y-71059000D01*
X94041000Y-71059000D02*
X94091000Y-71059000D01*
%TO.N,Net-(R1-Pad1)*%
X100012500Y-105346500D02*
X100912432Y-104446568D01*
X97106287Y-107036889D02*
X98488686Y-105654490D01*
X98493152Y-105654490D02*
X98801142Y-105346500D01*
X98801142Y-105346500D02*
X100012500Y-105346500D01*
X98488686Y-105654490D02*
X98493152Y-105654490D01*
%TO.N,D+*%
X92141000Y-71059000D02*
X92091000Y-71059000D01*
X94361000Y-69342000D02*
X93871000Y-68852000D01*
X93871000Y-68852000D02*
X93871000Y-67184000D01*
X92329000Y-69342000D02*
X92837000Y-69850000D01*
X92837000Y-69850000D02*
X92837000Y-70363000D01*
X92837000Y-70363000D02*
X92141000Y-71059000D01*
X92871000Y-68800000D02*
X92329000Y-69342000D01*
X92871000Y-67184000D02*
X92871000Y-68800000D01*
%TO.N,Net-(R2-Pad1)*%
X96820600Y-106471204D02*
X96540602Y-106471204D01*
X98365194Y-104926610D02*
X96820600Y-106471204D01*
X98365194Y-103945806D02*
X98365194Y-104926610D01*
X99388432Y-102922568D02*
X98365194Y-103945806D01*
%TO.N,Net-(R3-Pad2)*%
X78321000Y-110490001D02*
X79121000Y-110490001D01*
X76327000Y-108458000D02*
X76327000Y-109262000D01*
X77555001Y-110490001D02*
X78321000Y-110490001D01*
X79921001Y-110490000D02*
X83693000Y-110490000D01*
X76327000Y-109262000D02*
X77555001Y-110490001D01*
X79121000Y-110490001D02*
X79921001Y-110490000D01*
X91059000Y-103040212D02*
X92227250Y-104208462D01*
X91059000Y-102997000D02*
X91059000Y-103040212D01*
%TO.N,Net-(R4-Pad2)*%
X89964508Y-111915926D02*
X86871002Y-115009432D01*
X86871002Y-115009432D02*
X86815432Y-115009432D01*
%TO.N,Net-(R5-Pad2)*%
X91871000Y-68663000D02*
X89414000Y-71120000D01*
X89414000Y-71120000D02*
X89408000Y-71120000D01*
X91871000Y-67184000D02*
X91871000Y-68663000D01*
%TO.N,Net-(R6-Pad2)*%
X95538999Y-69444037D02*
X95538999Y-70138999D01*
X95538999Y-70138999D02*
X96023628Y-70623628D01*
X94871000Y-68776038D02*
X95538999Y-69444037D01*
X96023628Y-70623628D02*
X96647000Y-71247000D01*
X94871000Y-67184000D02*
X94871000Y-68776038D01*
%TD*%
%TA.AperFunction,Conductor*%
%TO.N,GND*%
G36*
X87895787Y-60599502D02*
G01*
X87942280Y-60653158D01*
X87952384Y-60723432D01*
X87938081Y-60766201D01*
X87872994Y-60884593D01*
X87868166Y-60895858D01*
X87812120Y-61072538D01*
X87809570Y-61084532D01*
X87793393Y-61228761D01*
X87793000Y-61235785D01*
X87793000Y-61316885D01*
X87797475Y-61332124D01*
X87798865Y-61333329D01*
X87806548Y-61335000D01*
X89790885Y-61335000D01*
X89806124Y-61330525D01*
X89807329Y-61329135D01*
X89809000Y-61321452D01*
X89809000Y-61242343D01*
X89808699Y-61236195D01*
X89795188Y-61098397D01*
X89792805Y-61086362D01*
X89739233Y-60908924D01*
X89734559Y-60897584D01*
X89663879Y-60764653D01*
X89649560Y-60695116D01*
X89675108Y-60628875D01*
X89732413Y-60586962D01*
X89775131Y-60579500D01*
X96467666Y-60579500D01*
X96535787Y-60599502D01*
X96582280Y-60653158D01*
X96592384Y-60723432D01*
X96578081Y-60766201D01*
X96512994Y-60884593D01*
X96508166Y-60895858D01*
X96452120Y-61072538D01*
X96449570Y-61084532D01*
X96433393Y-61228761D01*
X96433000Y-61235785D01*
X96433000Y-61316885D01*
X96437475Y-61332124D01*
X96438865Y-61333329D01*
X96446548Y-61335000D01*
X98430885Y-61335000D01*
X98446124Y-61330525D01*
X98447329Y-61329135D01*
X98449000Y-61321452D01*
X98449000Y-61242343D01*
X98448699Y-61236195D01*
X98435188Y-61098397D01*
X98432805Y-61086362D01*
X98379233Y-60908924D01*
X98374559Y-60897584D01*
X98303879Y-60764653D01*
X98289560Y-60695116D01*
X98315108Y-60628875D01*
X98372413Y-60586962D01*
X98415131Y-60579500D01*
X98806500Y-60579500D01*
X98874621Y-60599502D01*
X98921114Y-60653158D01*
X98932500Y-60705500D01*
X98932500Y-64761377D01*
X98932498Y-64762147D01*
X98932024Y-64839721D01*
X98934491Y-64848352D01*
X98940150Y-64868153D01*
X98943728Y-64884915D01*
X98947920Y-64914187D01*
X98951634Y-64922355D01*
X98951634Y-64922356D01*
X98958548Y-64937562D01*
X98964996Y-64955086D01*
X98972051Y-64979771D01*
X98976843Y-64987365D01*
X98976844Y-64987368D01*
X98987830Y-65004780D01*
X98995969Y-65019863D01*
X99008208Y-65046782D01*
X99014069Y-65053584D01*
X99024970Y-65066235D01*
X99036073Y-65081239D01*
X99049776Y-65102958D01*
X99056501Y-65108897D01*
X99056504Y-65108901D01*
X99071938Y-65122532D01*
X99083982Y-65134724D01*
X99097427Y-65150327D01*
X99097430Y-65150329D01*
X99103287Y-65157127D01*
X99110816Y-65162007D01*
X99110817Y-65162008D01*
X99124835Y-65171094D01*
X99139709Y-65182385D01*
X99150821Y-65192198D01*
X99158951Y-65199378D01*
X99185711Y-65211942D01*
X99200691Y-65220263D01*
X99217983Y-65231471D01*
X99217988Y-65231473D01*
X99225515Y-65236352D01*
X99234108Y-65238922D01*
X99234113Y-65238924D01*
X99250120Y-65243711D01*
X99267564Y-65250372D01*
X99282676Y-65257467D01*
X99282678Y-65257468D01*
X99290800Y-65261281D01*
X99299667Y-65262662D01*
X99299668Y-65262662D01*
X99302353Y-65263080D01*
X99320017Y-65265830D01*
X99336732Y-65269613D01*
X99356466Y-65275515D01*
X99356472Y-65275516D01*
X99365066Y-65278086D01*
X99374037Y-65278141D01*
X99374038Y-65278141D01*
X99384097Y-65278202D01*
X99399506Y-65278296D01*
X99400289Y-65278329D01*
X99401386Y-65278500D01*
X99432377Y-65278500D01*
X99433147Y-65278502D01*
X99506785Y-65278952D01*
X99506786Y-65278952D01*
X99510721Y-65278976D01*
X99512065Y-65278592D01*
X99513410Y-65278500D01*
X122174500Y-65278500D01*
X122242621Y-65298502D01*
X122289114Y-65352158D01*
X122300500Y-65404500D01*
X122300500Y-122435500D01*
X122280498Y-122503621D01*
X122226842Y-122550114D01*
X122174500Y-122561500D01*
X64134500Y-122561500D01*
X64066379Y-122541498D01*
X64019886Y-122487842D01*
X64008500Y-122435500D01*
X64008500Y-120887101D01*
X90298439Y-120887101D01*
X90298570Y-120888934D01*
X90302821Y-120895549D01*
X90465142Y-121057870D01*
X90469965Y-121062219D01*
X90544595Y-121122818D01*
X90556106Y-121130240D01*
X90701503Y-121202891D01*
X90715185Y-121207845D01*
X90872982Y-121245001D01*
X90887424Y-121246672D01*
X91049543Y-121246530D01*
X91063978Y-121244835D01*
X91221717Y-121207401D01*
X91235380Y-121202428D01*
X91380664Y-121129517D01*
X91392147Y-121122089D01*
X91465701Y-121062206D01*
X91470474Y-121057896D01*
X91541200Y-120987170D01*
X91548814Y-120973226D01*
X91548683Y-120971393D01*
X91544432Y-120964778D01*
X90892244Y-120312590D01*
X90878300Y-120304976D01*
X90876467Y-120305107D01*
X90869852Y-120309358D01*
X90306053Y-120873157D01*
X90298439Y-120887101D01*
X64008500Y-120887101D01*
X64008500Y-119771783D01*
X89573328Y-119771783D01*
X89573470Y-119933902D01*
X89575165Y-119948337D01*
X89612599Y-120106076D01*
X89617572Y-120119739D01*
X89690482Y-120265021D01*
X89697912Y-120276507D01*
X89757795Y-120350062D01*
X89762103Y-120354833D01*
X89921218Y-120513948D01*
X89935162Y-120521562D01*
X89936995Y-120521431D01*
X89943610Y-120517180D01*
X90507410Y-119953380D01*
X90515024Y-119939436D01*
X90514893Y-119937603D01*
X90510642Y-119930988D01*
X89858455Y-119278801D01*
X89844511Y-119271187D01*
X89842678Y-119271318D01*
X89836063Y-119275569D01*
X89762137Y-119349495D01*
X89757769Y-119354339D01*
X89697188Y-119428946D01*
X89689757Y-119440471D01*
X89617109Y-119585862D01*
X89612155Y-119599544D01*
X89574999Y-119757341D01*
X89573328Y-119771783D01*
X64008500Y-119771783D01*
X64008500Y-117493921D01*
X87595619Y-117493921D01*
X87595750Y-117495754D01*
X87600001Y-117502369D01*
X87673927Y-117576295D01*
X87678771Y-117580663D01*
X87753378Y-117641244D01*
X87764903Y-117648675D01*
X87910294Y-117721323D01*
X87923976Y-117726277D01*
X88081773Y-117763433D01*
X88096215Y-117765104D01*
X88258334Y-117764962D01*
X88272769Y-117763267D01*
X88430508Y-117725833D01*
X88444171Y-117720860D01*
X88589453Y-117647950D01*
X88600939Y-117640520D01*
X88674494Y-117580637D01*
X88679265Y-117576329D01*
X88838380Y-117417214D01*
X88845994Y-117403270D01*
X88845863Y-117401437D01*
X88841612Y-117394822D01*
X88277812Y-116831022D01*
X88263868Y-116823408D01*
X88262035Y-116823539D01*
X88255420Y-116827790D01*
X87603233Y-117479977D01*
X87595619Y-117493921D01*
X64008500Y-117493921D01*
X64008500Y-112752669D01*
X68719001Y-112752669D01*
X68719371Y-112759490D01*
X68724895Y-112810352D01*
X68728521Y-112825604D01*
X68773676Y-112946054D01*
X68782214Y-112961649D01*
X68858715Y-113063724D01*
X68871276Y-113076285D01*
X68973351Y-113152786D01*
X68988946Y-113161324D01*
X69109394Y-113206478D01*
X69124649Y-113210105D01*
X69175514Y-113215631D01*
X69182328Y-113216000D01*
X69854885Y-113216000D01*
X69870124Y-113211525D01*
X69871329Y-113210135D01*
X69873000Y-113202452D01*
X69873000Y-113197884D01*
X70381000Y-113197884D01*
X70385475Y-113213123D01*
X70386865Y-113214328D01*
X70394548Y-113215999D01*
X71071669Y-113215999D01*
X71078490Y-113215629D01*
X71129352Y-113210105D01*
X71144604Y-113206479D01*
X71265054Y-113161324D01*
X71280649Y-113152786D01*
X71382724Y-113076285D01*
X71395285Y-113063724D01*
X71471786Y-112961649D01*
X71480324Y-112946054D01*
X71525478Y-112825606D01*
X71529105Y-112810351D01*
X71534631Y-112759486D01*
X71535000Y-112752672D01*
X71535000Y-112430115D01*
X71530525Y-112414876D01*
X71529135Y-112413671D01*
X71521452Y-112412000D01*
X70399115Y-112412000D01*
X70383876Y-112416475D01*
X70382671Y-112417865D01*
X70381000Y-112425548D01*
X70381000Y-113197884D01*
X69873000Y-113197884D01*
X69873000Y-112430115D01*
X69868525Y-112414876D01*
X69867135Y-112413671D01*
X69859452Y-112412000D01*
X68737116Y-112412000D01*
X68721877Y-112416475D01*
X68720672Y-112417865D01*
X68719001Y-112425548D01*
X68719001Y-112752669D01*
X64008500Y-112752669D01*
X64008500Y-111885885D01*
X68719000Y-111885885D01*
X68723475Y-111901124D01*
X68724865Y-111902329D01*
X68732548Y-111904000D01*
X69854885Y-111904000D01*
X69870124Y-111899525D01*
X69871329Y-111898135D01*
X69873000Y-111890452D01*
X69873000Y-111885885D01*
X70381000Y-111885885D01*
X70385475Y-111901124D01*
X70386865Y-111902329D01*
X70394548Y-111904000D01*
X71516884Y-111904000D01*
X71532123Y-111899525D01*
X71533328Y-111898135D01*
X71534999Y-111890452D01*
X71534999Y-111563331D01*
X71534629Y-111556510D01*
X71529105Y-111505648D01*
X71525479Y-111490396D01*
X71480324Y-111369946D01*
X71471786Y-111354351D01*
X71395285Y-111252276D01*
X71382724Y-111239715D01*
X71280649Y-111163214D01*
X71265054Y-111154676D01*
X71144606Y-111109522D01*
X71129351Y-111105895D01*
X71078486Y-111100369D01*
X71071672Y-111100000D01*
X70399115Y-111100000D01*
X70383876Y-111104475D01*
X70382671Y-111105865D01*
X70381000Y-111113548D01*
X70381000Y-111885885D01*
X69873000Y-111885885D01*
X69873000Y-111118116D01*
X69868525Y-111102877D01*
X69867135Y-111101672D01*
X69859452Y-111100001D01*
X69182331Y-111100001D01*
X69175510Y-111100371D01*
X69124648Y-111105895D01*
X69109396Y-111109521D01*
X68988946Y-111154676D01*
X68973351Y-111163214D01*
X68871276Y-111239715D01*
X68858715Y-111252276D01*
X68782214Y-111354351D01*
X68773676Y-111369946D01*
X68728522Y-111490394D01*
X68724895Y-111505649D01*
X68719369Y-111556514D01*
X68719000Y-111563328D01*
X68719000Y-111885885D01*
X64008500Y-111885885D01*
X64008500Y-109056134D01*
X68718500Y-109056134D01*
X68725255Y-109118316D01*
X68776385Y-109254705D01*
X68863739Y-109371261D01*
X68980295Y-109458615D01*
X69116684Y-109509745D01*
X69178866Y-109516500D01*
X71075134Y-109516500D01*
X71137316Y-109509745D01*
X71273705Y-109458615D01*
X71390261Y-109371261D01*
X71477615Y-109254705D01*
X71528745Y-109118316D01*
X71535500Y-109056134D01*
X71535500Y-107859866D01*
X71528745Y-107797684D01*
X71477615Y-107661295D01*
X71390261Y-107544739D01*
X71273705Y-107457385D01*
X71137316Y-107406255D01*
X71075134Y-107399500D01*
X69178866Y-107399500D01*
X69116684Y-107406255D01*
X68980295Y-107457385D01*
X68863739Y-107544739D01*
X68776385Y-107661295D01*
X68725255Y-107797684D01*
X68718500Y-107859866D01*
X68718500Y-109056134D01*
X64008500Y-109056134D01*
X64008500Y-99943401D01*
X71308500Y-99943401D01*
X71308837Y-99946647D01*
X71308837Y-99946651D01*
X71317573Y-100030841D01*
X71319474Y-100049167D01*
X71321655Y-100055703D01*
X71321655Y-100055705D01*
X71342926Y-100119460D01*
X71375450Y-100216947D01*
X71468522Y-100367349D01*
X71593697Y-100492306D01*
X71599927Y-100496146D01*
X71599928Y-100496147D01*
X71737090Y-100580695D01*
X71744262Y-100585116D01*
X71818275Y-100609665D01*
X71905611Y-100638633D01*
X71905613Y-100638633D01*
X71912139Y-100640798D01*
X71918975Y-100641498D01*
X71918978Y-100641499D01*
X71962031Y-100645910D01*
X72016600Y-100651501D01*
X73017400Y-100651501D01*
X73020646Y-100651164D01*
X73020650Y-100651164D01*
X73116308Y-100641239D01*
X73116312Y-100641238D01*
X73123166Y-100640527D01*
X73129702Y-100638346D01*
X73129704Y-100638346D01*
X73261806Y-100594273D01*
X73290946Y-100584551D01*
X73441348Y-100491479D01*
X73474313Y-100458457D01*
X73561137Y-100371481D01*
X73566305Y-100366304D01*
X73573093Y-100355292D01*
X73590604Y-100326885D01*
X73643377Y-100279391D01*
X73697864Y-100267001D01*
X73885828Y-100267001D01*
X73953949Y-100287003D01*
X73986654Y-100317436D01*
X74033739Y-100380261D01*
X74150295Y-100467615D01*
X74286684Y-100518745D01*
X74320152Y-100522381D01*
X74335608Y-100524060D01*
X74401170Y-100551302D01*
X74441596Y-100609665D01*
X74448000Y-100649323D01*
X74448000Y-104437402D01*
X74447708Y-104445972D01*
X74447134Y-104454398D01*
X74443830Y-104502853D01*
X74445135Y-104510329D01*
X74445135Y-104510333D01*
X74454663Y-104564925D01*
X74455626Y-104571450D01*
X74463191Y-104633961D01*
X74465875Y-104641063D01*
X74466719Y-104644501D01*
X74470583Y-104658624D01*
X74471613Y-104662035D01*
X74472919Y-104669518D01*
X74475972Y-104676473D01*
X74498239Y-104727199D01*
X74500730Y-104733305D01*
X74522994Y-104792223D01*
X74527293Y-104798478D01*
X74528935Y-104801619D01*
X74536033Y-104814373D01*
X74537870Y-104817479D01*
X74540923Y-104824434D01*
X74545548Y-104830461D01*
X74545550Y-104830465D01*
X74579265Y-104874403D01*
X74583129Y-104879721D01*
X74618821Y-104931653D01*
X74624491Y-104936705D01*
X74624492Y-104936706D01*
X74664688Y-104972519D01*
X74669964Y-104977500D01*
X76876868Y-107184405D01*
X76910894Y-107246717D01*
X76905829Y-107317533D01*
X76863282Y-107374368D01*
X76796762Y-107399179D01*
X76787773Y-107399500D01*
X75378866Y-107399500D01*
X75316684Y-107406255D01*
X75180295Y-107457385D01*
X75063739Y-107544739D01*
X74976385Y-107661295D01*
X74925255Y-107797684D01*
X74918500Y-107859866D01*
X74918500Y-109056134D01*
X74925255Y-109118316D01*
X74976385Y-109254705D01*
X75063739Y-109371261D01*
X75180295Y-109458615D01*
X75316684Y-109509745D01*
X75378866Y-109516500D01*
X75662564Y-109516500D01*
X75730685Y-109536502D01*
X75763789Y-109571962D01*
X75765681Y-109570588D01*
X75791764Y-109606488D01*
X75798281Y-109616410D01*
X75816826Y-109647768D01*
X75816829Y-109647772D01*
X75820866Y-109654598D01*
X75835250Y-109668982D01*
X75848091Y-109684016D01*
X75860058Y-109700487D01*
X75866166Y-109705540D01*
X75894255Y-109728777D01*
X75903035Y-109736767D01*
X77049751Y-110883484D01*
X77057324Y-110891805D01*
X77059131Y-110894653D01*
X77086512Y-110958416D01*
X77074809Y-111028441D01*
X77027105Y-111081023D01*
X76961418Y-111099500D01*
X75378866Y-111099500D01*
X75316684Y-111106255D01*
X75180295Y-111157385D01*
X75063739Y-111244739D01*
X74976385Y-111361295D01*
X74925255Y-111497684D01*
X74918500Y-111559866D01*
X74918500Y-112756134D01*
X74925255Y-112818316D01*
X74976385Y-112954705D01*
X75063739Y-113071261D01*
X75180295Y-113158615D01*
X75316684Y-113209745D01*
X75378866Y-113216500D01*
X77275134Y-113216500D01*
X77337316Y-113209745D01*
X77473705Y-113158615D01*
X77590261Y-113071261D01*
X77677615Y-112954705D01*
X77728745Y-112818316D01*
X77735500Y-112756134D01*
X77735500Y-111559866D01*
X77728745Y-111497684D01*
X77677615Y-111361295D01*
X77651960Y-111327064D01*
X77627114Y-111260559D01*
X77642167Y-111191177D01*
X77692342Y-111140947D01*
X77752788Y-111125501D01*
X77900927Y-111125501D01*
X77969048Y-111145503D01*
X78008071Y-111185198D01*
X78049580Y-111252276D01*
X78072522Y-111289349D01*
X78197697Y-111414306D01*
X78203927Y-111418146D01*
X78203928Y-111418147D01*
X78341090Y-111502695D01*
X78348262Y-111507116D01*
X78408977Y-111527254D01*
X78509611Y-111560633D01*
X78509613Y-111560633D01*
X78516139Y-111562798D01*
X78522975Y-111563498D01*
X78522978Y-111563499D01*
X78566031Y-111567910D01*
X78620600Y-111573501D01*
X79621400Y-111573501D01*
X79624646Y-111573164D01*
X79624650Y-111573164D01*
X79720308Y-111563239D01*
X79720312Y-111563238D01*
X79727166Y-111562527D01*
X79733702Y-111560346D01*
X79733704Y-111560346D01*
X79865806Y-111516273D01*
X79894946Y-111506551D01*
X80045348Y-111413479D01*
X80170305Y-111288304D01*
X80233746Y-111185384D01*
X80286518Y-111137891D01*
X80341006Y-111125500D01*
X82986601Y-111125500D01*
X83054722Y-111145502D01*
X83071908Y-111160109D01*
X83072420Y-111159540D01*
X83077332Y-111163963D01*
X83081747Y-111168866D01*
X83103329Y-111184546D01*
X83196551Y-111252276D01*
X83236248Y-111281118D01*
X83242276Y-111283802D01*
X83242278Y-111283803D01*
X83404681Y-111356109D01*
X83410712Y-111358794D01*
X83504112Y-111378647D01*
X83591056Y-111397128D01*
X83591061Y-111397128D01*
X83597513Y-111398500D01*
X83788487Y-111398500D01*
X83794939Y-111397128D01*
X83794944Y-111397128D01*
X83881888Y-111378647D01*
X83975288Y-111358794D01*
X83981319Y-111356109D01*
X84143722Y-111283803D01*
X84143724Y-111283802D01*
X84149752Y-111281118D01*
X84189450Y-111252276D01*
X84238345Y-111216751D01*
X84304253Y-111168866D01*
X84346793Y-111121621D01*
X84427621Y-111031852D01*
X84427622Y-111031851D01*
X84432040Y-111026944D01*
X84490314Y-110926010D01*
X84524223Y-110867279D01*
X84524224Y-110867278D01*
X84527527Y-110861556D01*
X84586542Y-110679928D01*
X84587395Y-110671817D01*
X84605814Y-110496565D01*
X84606504Y-110490000D01*
X84593007Y-110361584D01*
X84587232Y-110306635D01*
X84587232Y-110306633D01*
X84586542Y-110300072D01*
X84584503Y-110293795D01*
X84583129Y-110287334D01*
X84584398Y-110287064D01*
X84582574Y-110223120D01*
X84619240Y-110162324D01*
X84682954Y-110131002D01*
X84753488Y-110139099D01*
X84793527Y-110166062D01*
X85688798Y-111061334D01*
X86566757Y-111939293D01*
X86600783Y-112001605D01*
X86602972Y-112015217D01*
X86609458Y-112076928D01*
X86611498Y-112083205D01*
X86611498Y-112083207D01*
X86622696Y-112117669D01*
X86668473Y-112258556D01*
X86671776Y-112264278D01*
X86671777Y-112264279D01*
X86704709Y-112321319D01*
X86763960Y-112423944D01*
X86891747Y-112565866D01*
X87046248Y-112678118D01*
X87052276Y-112680802D01*
X87052278Y-112680803D01*
X87213801Y-112752717D01*
X87220712Y-112755794D01*
X87314112Y-112775647D01*
X87401056Y-112794128D01*
X87401061Y-112794128D01*
X87407513Y-112795500D01*
X87598487Y-112795500D01*
X87604939Y-112794128D01*
X87604944Y-112794128D01*
X87691888Y-112775647D01*
X87785288Y-112755794D01*
X87792301Y-112752672D01*
X87835267Y-112733542D01*
X87958465Y-112678691D01*
X88028831Y-112669257D01*
X88093128Y-112699363D01*
X88130942Y-112759452D01*
X88130266Y-112830446D01*
X88098808Y-112882893D01*
X87273767Y-113707934D01*
X87211455Y-113741960D01*
X87155793Y-113741485D01*
X86998718Y-113704499D01*
X86998714Y-113704499D01*
X86991594Y-113702822D01*
X86984278Y-113702828D01*
X86984275Y-113702828D01*
X86902967Y-113702899D01*
X86814723Y-113702976D01*
X86728677Y-113723395D01*
X86649752Y-113742125D01*
X86649751Y-113742125D01*
X86642631Y-113743815D01*
X86636092Y-113747097D01*
X86636091Y-113747097D01*
X86619003Y-113755673D01*
X86484551Y-113823149D01*
X86479218Y-113827491D01*
X86479216Y-113827492D01*
X86405612Y-113887415D01*
X86405606Y-113887421D01*
X86403118Y-113889446D01*
X85695446Y-114597118D01*
X85693400Y-114599638D01*
X85632760Y-114674318D01*
X85632758Y-114674321D01*
X85628418Y-114679666D01*
X85549360Y-114837885D01*
X85547682Y-114845011D01*
X85547681Y-114845014D01*
X85511360Y-114999269D01*
X85508822Y-115010047D01*
X85508828Y-115017363D01*
X85508828Y-115017366D01*
X85508836Y-115025970D01*
X85508976Y-115186917D01*
X85510666Y-115194038D01*
X85545709Y-115341705D01*
X85549815Y-115359009D01*
X85553097Y-115365548D01*
X85553097Y-115365549D01*
X85626062Y-115510939D01*
X85626065Y-115510943D01*
X85629149Y-115517089D01*
X85633492Y-115522424D01*
X85633493Y-115522425D01*
X85670347Y-115567693D01*
X85695446Y-115598523D01*
X86226341Y-116129418D01*
X86228861Y-116131464D01*
X86303541Y-116192104D01*
X86303544Y-116192106D01*
X86308889Y-116196446D01*
X86467108Y-116275504D01*
X86474234Y-116277182D01*
X86474237Y-116277183D01*
X86632146Y-116314365D01*
X86632150Y-116314365D01*
X86639270Y-116316042D01*
X86646586Y-116316036D01*
X86646589Y-116316036D01*
X86727326Y-116315965D01*
X86816141Y-116315888D01*
X86821326Y-116314658D01*
X86890507Y-116326439D01*
X86942942Y-116374304D01*
X86961176Y-116442919D01*
X86960383Y-116454140D01*
X86958896Y-116466990D01*
X86959038Y-116629111D01*
X86960733Y-116643546D01*
X86998167Y-116801285D01*
X87003140Y-116814948D01*
X87076051Y-116960232D01*
X87083479Y-116971715D01*
X87143362Y-117045269D01*
X87147672Y-117050042D01*
X87218398Y-117120768D01*
X87232342Y-117128382D01*
X87234175Y-117128251D01*
X87240790Y-117124000D01*
X87904658Y-116460132D01*
X88629408Y-116460132D01*
X88629539Y-116461965D01*
X88633790Y-116468580D01*
X89197589Y-117032379D01*
X89211533Y-117039993D01*
X89213366Y-117039862D01*
X89219981Y-117035611D01*
X89382302Y-116873290D01*
X89386651Y-116868467D01*
X89447250Y-116793837D01*
X89454672Y-116782326D01*
X89527323Y-116636929D01*
X89532277Y-116623247D01*
X89569433Y-116465450D01*
X89571104Y-116451008D01*
X89570962Y-116288889D01*
X89569267Y-116274454D01*
X89531833Y-116116715D01*
X89526860Y-116103052D01*
X89453949Y-115957768D01*
X89446521Y-115946285D01*
X89386638Y-115872731D01*
X89382328Y-115867958D01*
X89311602Y-115797232D01*
X89297658Y-115789618D01*
X89295825Y-115789749D01*
X89289210Y-115794000D01*
X88637022Y-116446188D01*
X88629408Y-116460132D01*
X87904658Y-116460132D01*
X88926767Y-115438023D01*
X88934381Y-115424079D01*
X88934250Y-115422246D01*
X88929999Y-115415631D01*
X88856073Y-115341705D01*
X88851229Y-115337337D01*
X88776622Y-115276756D01*
X88765097Y-115269325D01*
X88619706Y-115196677D01*
X88606024Y-115191723D01*
X88448227Y-115154567D01*
X88433785Y-115152896D01*
X88271668Y-115153038D01*
X88260370Y-115154365D01*
X88190381Y-115142449D01*
X88137945Y-115094585D01*
X88119710Y-115025970D01*
X88120442Y-115015614D01*
X88122042Y-115008817D01*
X88122033Y-114997560D01*
X88121965Y-114920191D01*
X88121888Y-114831947D01*
X88104630Y-114759224D01*
X88108362Y-114688326D01*
X88138130Y-114641036D01*
X89399530Y-113379636D01*
X89461842Y-113345610D01*
X89532657Y-113350675D01*
X89577720Y-113379636D01*
X89833435Y-113635351D01*
X89836097Y-113637491D01*
X89882181Y-113674544D01*
X89880652Y-113676446D01*
X89901045Y-113696839D01*
X89902947Y-113695310D01*
X89942140Y-113744056D01*
X90399120Y-114201036D01*
X90401782Y-114203176D01*
X90447866Y-114240229D01*
X90446334Y-114242135D01*
X90466725Y-114262529D01*
X90468633Y-114260995D01*
X90507826Y-114309741D01*
X90964806Y-114766721D01*
X90967468Y-114768861D01*
X91013552Y-114805914D01*
X91012018Y-114807822D01*
X91032412Y-114828213D01*
X91034318Y-114826681D01*
X91073511Y-114875427D01*
X91530491Y-115332407D01*
X91533153Y-115334547D01*
X91573081Y-115366651D01*
X91573084Y-115366653D01*
X91579237Y-115371600D01*
X91586425Y-115374868D01*
X91689529Y-115421746D01*
X91711833Y-115431887D01*
X91720716Y-115433159D01*
X91720719Y-115433160D01*
X91847130Y-115451263D01*
X91856019Y-115452536D01*
X91864908Y-115451263D01*
X91991319Y-115433160D01*
X91991322Y-115433159D01*
X92000205Y-115431887D01*
X92022510Y-115421746D01*
X92125613Y-115374868D01*
X92132801Y-115371600D01*
X92138954Y-115366653D01*
X92138957Y-115366651D01*
X92178885Y-115334547D01*
X92181547Y-115332407D01*
X93163460Y-114350494D01*
X93225772Y-114316468D01*
X93296587Y-114321533D01*
X93341650Y-114350494D01*
X94322215Y-115331059D01*
X94356241Y-115393371D01*
X94351176Y-115464186D01*
X94322215Y-115509249D01*
X92634356Y-117197109D01*
X92572044Y-117231134D01*
X92503875Y-117226591D01*
X92500547Y-117224928D01*
X92453015Y-117213736D01*
X92335509Y-117186067D01*
X92335505Y-117186067D01*
X92328385Y-117184390D01*
X92321069Y-117184396D01*
X92321066Y-117184396D01*
X92239759Y-117184467D01*
X92151515Y-117184544D01*
X92098567Y-117197109D01*
X91986544Y-117223693D01*
X91986543Y-117223693D01*
X91979423Y-117225383D01*
X91972884Y-117228665D01*
X91972883Y-117228665D01*
X91827493Y-117301630D01*
X91827489Y-117301633D01*
X91821343Y-117304717D01*
X91816008Y-117309060D01*
X91816007Y-117309061D01*
X91758748Y-117355677D01*
X91739909Y-117371014D01*
X91209014Y-117901909D01*
X91206968Y-117904429D01*
X91146328Y-117979109D01*
X91146326Y-117979112D01*
X91141986Y-117984457D01*
X91062928Y-118142676D01*
X91061250Y-118149802D01*
X91061249Y-118149805D01*
X91025774Y-118300468D01*
X91022390Y-118314838D01*
X91022396Y-118322154D01*
X91022396Y-118322157D01*
X91022425Y-118355446D01*
X91022544Y-118491709D01*
X91023774Y-118496894D01*
X91011993Y-118566075D01*
X90964128Y-118618510D01*
X90895513Y-118636744D01*
X90884292Y-118635951D01*
X90871442Y-118634464D01*
X90709321Y-118634606D01*
X90694886Y-118636301D01*
X90537147Y-118673735D01*
X90523484Y-118678708D01*
X90378200Y-118751619D01*
X90366717Y-118759047D01*
X90293163Y-118818930D01*
X90288390Y-118823240D01*
X90217664Y-118893966D01*
X90210050Y-118907910D01*
X90210181Y-118909743D01*
X90214432Y-118916358D01*
X91900409Y-120602335D01*
X91914353Y-120609949D01*
X91916186Y-120609818D01*
X91922801Y-120605567D01*
X91996727Y-120531641D01*
X92001095Y-120526797D01*
X92061676Y-120452190D01*
X92069107Y-120440665D01*
X92141755Y-120295274D01*
X92146709Y-120281592D01*
X92183865Y-120123795D01*
X92185536Y-120109353D01*
X92185394Y-119947236D01*
X92184067Y-119935938D01*
X92195983Y-119865949D01*
X92243847Y-119813513D01*
X92312462Y-119795278D01*
X92322818Y-119796010D01*
X92329615Y-119797610D01*
X92336931Y-119797604D01*
X92336934Y-119797604D01*
X92418241Y-119797533D01*
X92506485Y-119797456D01*
X92614669Y-119771783D01*
X92671456Y-119758307D01*
X92671457Y-119758307D01*
X92678577Y-119756617D01*
X92685117Y-119753335D01*
X92830507Y-119680370D01*
X92830511Y-119680367D01*
X92836657Y-119677283D01*
X92864330Y-119654754D01*
X92866582Y-119652921D01*
X98390619Y-119652921D01*
X98390750Y-119654754D01*
X98395001Y-119661369D01*
X98468927Y-119735295D01*
X98473771Y-119739663D01*
X98548378Y-119800244D01*
X98559903Y-119807675D01*
X98705294Y-119880323D01*
X98718976Y-119885277D01*
X98876773Y-119922433D01*
X98891215Y-119924104D01*
X99053334Y-119923962D01*
X99067769Y-119922267D01*
X99225508Y-119884833D01*
X99239171Y-119879860D01*
X99384453Y-119806950D01*
X99395939Y-119799520D01*
X99469494Y-119739637D01*
X99474265Y-119735329D01*
X99633380Y-119576214D01*
X99640994Y-119562270D01*
X99640863Y-119560437D01*
X99636612Y-119553822D01*
X99072812Y-118990022D01*
X99058868Y-118982408D01*
X99057035Y-118982539D01*
X99050420Y-118986790D01*
X98398233Y-119638977D01*
X98390619Y-119652921D01*
X92866582Y-119652921D01*
X92915598Y-119613016D01*
X92915603Y-119613012D01*
X92918091Y-119610986D01*
X93448986Y-119080091D01*
X93491716Y-119027467D01*
X93511672Y-119002891D01*
X93511674Y-119002888D01*
X93516014Y-118997543D01*
X93595072Y-118839324D01*
X93596751Y-118832195D01*
X93633933Y-118674286D01*
X93633933Y-118674282D01*
X93635610Y-118667162D01*
X93635456Y-118490291D01*
X93594617Y-118318199D01*
X93593459Y-118315891D01*
X93589081Y-118246979D01*
X93622889Y-118185646D01*
X95934472Y-115874063D01*
X95997369Y-115839912D01*
X96167288Y-115803794D01*
X96199128Y-115789618D01*
X96335722Y-115728803D01*
X96335724Y-115728802D01*
X96341752Y-115726118D01*
X96496253Y-115613866D01*
X96588929Y-115510939D01*
X96619621Y-115476852D01*
X96619622Y-115476851D01*
X96624040Y-115471944D01*
X96719527Y-115306556D01*
X96768977Y-115154365D01*
X96776502Y-115131207D01*
X96776502Y-115131205D01*
X96778542Y-115124928D01*
X96785028Y-115063217D01*
X96812041Y-114997560D01*
X96821234Y-114987301D01*
X97651058Y-114157478D01*
X97657309Y-114151639D01*
X97694544Y-114119157D01*
X97700271Y-114114161D01*
X97736495Y-114062620D01*
X97740420Y-114057335D01*
X97774604Y-114013738D01*
X97779289Y-114007763D01*
X97782413Y-114000845D01*
X97784242Y-113997824D01*
X97791497Y-113985105D01*
X97793185Y-113981957D01*
X97797553Y-113975742D01*
X97820435Y-113917053D01*
X97822975Y-113911008D01*
X97848910Y-113853568D01*
X97850295Y-113846095D01*
X97851366Y-113842677D01*
X97855351Y-113828688D01*
X97856248Y-113825196D01*
X97859009Y-113818114D01*
X97867230Y-113755673D01*
X97868262Y-113749160D01*
X97878358Y-113694685D01*
X97878358Y-113694683D01*
X97879742Y-113687216D01*
X97876206Y-113625890D01*
X97875997Y-113618638D01*
X97875997Y-112580910D01*
X97876289Y-112572340D01*
X97879650Y-112523045D01*
X97879650Y-112523041D01*
X97880166Y-112515469D01*
X97869330Y-112453379D01*
X97868372Y-112446885D01*
X97861719Y-112391903D01*
X97861718Y-112391900D01*
X97860806Y-112384361D01*
X97858120Y-112377252D01*
X97857274Y-112373809D01*
X97853411Y-112359684D01*
X97852383Y-112356278D01*
X97851078Y-112348803D01*
X97848027Y-112341853D01*
X97848025Y-112341846D01*
X97825760Y-112291126D01*
X97823275Y-112285038D01*
X97813504Y-112259182D01*
X97806644Y-112232510D01*
X97800071Y-112186614D01*
X97810213Y-112116345D01*
X97856736Y-112062715D01*
X97924868Y-112042751D01*
X97942657Y-112044024D01*
X98010001Y-112053668D01*
X98074598Y-112083125D01*
X98081234Y-112089300D01*
X98514596Y-112522663D01*
X98548621Y-112584975D01*
X98551500Y-112611758D01*
X98551500Y-114071119D01*
X98550970Y-114082353D01*
X98549292Y-114089858D01*
X98550056Y-114114161D01*
X98551438Y-114158151D01*
X98551500Y-114162108D01*
X98551500Y-114190122D01*
X98551996Y-114194047D01*
X98551996Y-114194048D01*
X98552008Y-114194143D01*
X98552941Y-114205988D01*
X98553844Y-114234707D01*
X98535991Y-114303422D01*
X98517001Y-114327758D01*
X98164312Y-114680447D01*
X98162172Y-114683109D01*
X98130068Y-114723037D01*
X98130066Y-114723040D01*
X98125119Y-114729193D01*
X98121851Y-114736381D01*
X98090237Y-114805914D01*
X98064832Y-114861789D01*
X98063560Y-114870672D01*
X98063559Y-114870675D01*
X98046859Y-114987291D01*
X98044183Y-115005975D01*
X98045456Y-115014864D01*
X98062118Y-115131207D01*
X98064832Y-115150161D01*
X98125119Y-115282757D01*
X98130066Y-115288910D01*
X98130068Y-115288913D01*
X98144254Y-115306556D01*
X98164312Y-115331503D01*
X98267375Y-115434566D01*
X98301401Y-115496878D01*
X98296336Y-115567693D01*
X98267375Y-115612756D01*
X98023788Y-115856343D01*
X97961476Y-115890369D01*
X97905814Y-115889894D01*
X97793718Y-115863499D01*
X97793714Y-115863499D01*
X97786594Y-115861822D01*
X97779278Y-115861828D01*
X97779275Y-115861828D01*
X97697967Y-115861899D01*
X97609723Y-115861976D01*
X97523677Y-115882395D01*
X97444752Y-115901125D01*
X97444751Y-115901125D01*
X97437631Y-115902815D01*
X97431092Y-115906097D01*
X97431091Y-115906097D01*
X97351013Y-115946285D01*
X97279551Y-115982149D01*
X97274218Y-115986491D01*
X97274216Y-115986492D01*
X97200612Y-116046415D01*
X97200606Y-116046421D01*
X97198118Y-116048446D01*
X96490446Y-116756118D01*
X96488400Y-116758638D01*
X96427760Y-116833318D01*
X96427758Y-116833321D01*
X96423418Y-116838666D01*
X96344360Y-116996885D01*
X96342682Y-117004011D01*
X96342681Y-117004014D01*
X96334210Y-117039993D01*
X96303822Y-117169047D01*
X96303828Y-117176363D01*
X96303828Y-117176366D01*
X96303871Y-117224928D01*
X96303976Y-117345917D01*
X96305666Y-117353038D01*
X96340709Y-117500705D01*
X96344815Y-117518009D01*
X96348097Y-117524548D01*
X96348097Y-117524549D01*
X96421062Y-117669939D01*
X96421065Y-117669943D01*
X96424149Y-117676089D01*
X96428492Y-117681424D01*
X96428493Y-117681425D01*
X96464647Y-117725833D01*
X96490446Y-117757523D01*
X97021341Y-118288418D01*
X97036174Y-118300462D01*
X97098541Y-118351104D01*
X97098544Y-118351106D01*
X97103889Y-118355446D01*
X97262108Y-118434504D01*
X97269234Y-118436182D01*
X97269237Y-118436183D01*
X97427146Y-118473365D01*
X97427150Y-118473365D01*
X97434270Y-118475042D01*
X97441586Y-118475036D01*
X97441589Y-118475036D01*
X97522326Y-118474965D01*
X97611141Y-118474888D01*
X97616326Y-118473658D01*
X97685507Y-118485439D01*
X97737942Y-118533304D01*
X97756176Y-118601919D01*
X97755383Y-118613140D01*
X97753896Y-118625990D01*
X97754038Y-118788111D01*
X97755733Y-118802546D01*
X97793167Y-118960285D01*
X97798140Y-118973948D01*
X97871051Y-119119232D01*
X97878479Y-119130715D01*
X97938362Y-119204269D01*
X97942672Y-119209042D01*
X98013398Y-119279768D01*
X98027342Y-119287382D01*
X98029175Y-119287251D01*
X98035790Y-119283000D01*
X98699658Y-118619132D01*
X99424408Y-118619132D01*
X99424539Y-118620965D01*
X99428790Y-118627580D01*
X99992589Y-119191379D01*
X100006533Y-119198993D01*
X100008366Y-119198862D01*
X100014981Y-119194611D01*
X100177302Y-119032290D01*
X100181651Y-119027467D01*
X100242250Y-118952837D01*
X100249672Y-118941326D01*
X100322323Y-118795929D01*
X100327277Y-118782247D01*
X100364433Y-118624450D01*
X100366104Y-118610008D01*
X100365962Y-118447889D01*
X100364267Y-118433454D01*
X100326833Y-118275715D01*
X100321860Y-118262052D01*
X100248949Y-118116768D01*
X100241521Y-118105285D01*
X100181638Y-118031731D01*
X100177328Y-118026958D01*
X100106602Y-117956232D01*
X100092658Y-117948618D01*
X100090825Y-117948749D01*
X100084210Y-117953000D01*
X99432022Y-118605188D01*
X99424408Y-118619132D01*
X98699658Y-118619132D01*
X99510126Y-117808664D01*
X100646247Y-117808664D01*
X100646378Y-117810497D01*
X100650629Y-117817112D01*
X101129435Y-118295917D01*
X101134501Y-118300462D01*
X101174381Y-118332528D01*
X101187731Y-118340750D01*
X101304836Y-118393994D01*
X101321891Y-118398981D01*
X101448161Y-118417064D01*
X101465939Y-118417064D01*
X101592209Y-118398981D01*
X101609264Y-118393994D01*
X101726373Y-118340748D01*
X101739717Y-118332531D01*
X101779594Y-118300468D01*
X101784672Y-118295912D01*
X102366305Y-117714279D01*
X102373919Y-117700335D01*
X102373788Y-117698500D01*
X102369540Y-117691890D01*
X101575927Y-116898276D01*
X101561984Y-116890663D01*
X101560150Y-116890794D01*
X101553536Y-116895045D01*
X100653861Y-117794720D01*
X100646247Y-117808664D01*
X99510126Y-117808664D01*
X99721767Y-117597023D01*
X99729381Y-117583079D01*
X99729250Y-117581246D01*
X99724999Y-117574631D01*
X99651073Y-117500705D01*
X99646229Y-117496337D01*
X99571622Y-117435756D01*
X99560097Y-117428325D01*
X99414706Y-117355677D01*
X99401024Y-117350723D01*
X99243227Y-117313567D01*
X99228785Y-117311896D01*
X99066668Y-117312038D01*
X99055370Y-117313365D01*
X98985381Y-117301449D01*
X98932945Y-117253585D01*
X98914710Y-117184970D01*
X98915442Y-117174614D01*
X98917042Y-117167817D01*
X98916888Y-116990947D01*
X98888972Y-116873312D01*
X98892704Y-116802415D01*
X98922472Y-116755125D01*
X99166108Y-116511489D01*
X99228420Y-116477463D01*
X99299235Y-116482528D01*
X99344298Y-116511489D01*
X99505176Y-116672367D01*
X99507838Y-116674507D01*
X99547766Y-116706611D01*
X99547769Y-116706613D01*
X99553922Y-116711560D01*
X99561110Y-116714828D01*
X99647414Y-116754068D01*
X99701147Y-116800472D01*
X99709964Y-116816618D01*
X99748623Y-116901644D01*
X99756840Y-116914988D01*
X99788909Y-116954873D01*
X99793448Y-116959932D01*
X100269031Y-117435514D01*
X100282969Y-117443125D01*
X100284805Y-117442993D01*
X100291417Y-117438744D01*
X101474021Y-116256140D01*
X101536333Y-116222114D01*
X101607148Y-116227179D01*
X101652211Y-116256140D01*
X102725515Y-117329443D01*
X102739459Y-117337057D01*
X102741293Y-117336926D01*
X102747905Y-117332677D01*
X103332767Y-116747815D01*
X103337329Y-116742731D01*
X103369389Y-116702858D01*
X103377611Y-116689508D01*
X103430855Y-116572403D01*
X103435842Y-116555348D01*
X103448309Y-116468292D01*
X103477766Y-116403694D01*
X103537471Y-116365278D01*
X103555154Y-116361430D01*
X103651846Y-116347583D01*
X103698351Y-116326439D01*
X103777254Y-116290564D01*
X103784442Y-116287296D01*
X103790595Y-116282349D01*
X103790598Y-116282347D01*
X103830526Y-116250243D01*
X103833188Y-116248103D01*
X105386184Y-114695107D01*
X105402899Y-114674318D01*
X105420428Y-114652517D01*
X105420430Y-114652514D01*
X105425377Y-114646361D01*
X105485664Y-114513765D01*
X105496583Y-114437525D01*
X105505040Y-114378468D01*
X105506313Y-114369579D01*
X105497744Y-114309741D01*
X105486937Y-114234279D01*
X105486936Y-114234276D01*
X105485664Y-114225393D01*
X105476845Y-114205995D01*
X105452940Y-114153420D01*
X105425377Y-114092797D01*
X105420430Y-114086644D01*
X105420428Y-114086641D01*
X105388324Y-114046713D01*
X105386184Y-114044051D01*
X105254213Y-113912080D01*
X105220187Y-113849768D01*
X105225252Y-113778953D01*
X105254213Y-113733890D01*
X105726491Y-113261612D01*
X105788803Y-113227586D01*
X105844465Y-113228061D01*
X105914282Y-113244501D01*
X105914286Y-113244501D01*
X105921406Y-113246178D01*
X105928722Y-113246172D01*
X105928725Y-113246172D01*
X106010033Y-113246101D01*
X106098277Y-113246024D01*
X106224800Y-113215999D01*
X106263248Y-113206875D01*
X106263249Y-113206875D01*
X106270369Y-113205185D01*
X106428449Y-113125851D01*
X106488893Y-113076642D01*
X106507388Y-113061585D01*
X106507394Y-113061579D01*
X106509882Y-113059554D01*
X107217554Y-112351882D01*
X107242371Y-112321319D01*
X107280240Y-112274682D01*
X107280242Y-112274679D01*
X107284582Y-112269334D01*
X107363640Y-112111115D01*
X107368777Y-112089300D01*
X107402501Y-111946077D01*
X107402501Y-111946073D01*
X107404178Y-111938953D01*
X107404143Y-111898135D01*
X107404054Y-111796415D01*
X107404024Y-111762083D01*
X107363185Y-111589991D01*
X107359903Y-111583451D01*
X107286938Y-111438061D01*
X107286935Y-111438057D01*
X107283851Y-111431911D01*
X107279507Y-111426575D01*
X107219584Y-111352970D01*
X107219580Y-111352965D01*
X107217554Y-111350477D01*
X106686659Y-110819582D01*
X106655327Y-110794141D01*
X106609459Y-110756896D01*
X106609456Y-110756894D01*
X106604111Y-110752554D01*
X106445892Y-110673496D01*
X106438766Y-110671818D01*
X106438763Y-110671817D01*
X106280854Y-110634635D01*
X106280850Y-110634635D01*
X106273730Y-110632958D01*
X106266414Y-110632964D01*
X106266411Y-110632964D01*
X106185674Y-110633035D01*
X106096859Y-110633112D01*
X106091674Y-110634342D01*
X106022493Y-110622561D01*
X105970058Y-110574696D01*
X105951824Y-110506081D01*
X105952617Y-110494860D01*
X105954104Y-110482010D01*
X105953962Y-110319889D01*
X105952267Y-110305454D01*
X105914833Y-110147715D01*
X105909860Y-110134052D01*
X105836949Y-109988768D01*
X105829521Y-109977285D01*
X105769638Y-109903731D01*
X105765328Y-109898958D01*
X105694602Y-109828232D01*
X105680658Y-109820618D01*
X105678825Y-109820749D01*
X105672210Y-109825000D01*
X104737095Y-110760115D01*
X104674783Y-110794141D01*
X104603968Y-110789076D01*
X104558905Y-110760115D01*
X103715411Y-109916621D01*
X103701467Y-109909007D01*
X103699634Y-109909138D01*
X103693019Y-109913389D01*
X103530698Y-110075710D01*
X103526349Y-110080533D01*
X103465750Y-110155163D01*
X103458328Y-110166674D01*
X103385677Y-110312071D01*
X103380723Y-110325753D01*
X103343567Y-110483550D01*
X103341896Y-110497992D01*
X103342027Y-110647994D01*
X103322084Y-110716132D01*
X103268469Y-110762672D01*
X103198204Y-110772837D01*
X103133598Y-110743400D01*
X103126932Y-110737199D01*
X103121250Y-110731517D01*
X103113674Y-110723191D01*
X103109553Y-110716697D01*
X103059734Y-110669914D01*
X103056893Y-110667160D01*
X103037094Y-110647361D01*
X103033969Y-110644937D01*
X103033960Y-110644929D01*
X103033874Y-110644863D01*
X103024849Y-110637155D01*
X102998285Y-110612210D01*
X102992506Y-110606783D01*
X102974669Y-110596977D01*
X102958153Y-110586127D01*
X102942067Y-110573650D01*
X102901334Y-110556024D01*
X102890686Y-110550807D01*
X102861787Y-110534920D01*
X102851803Y-110529431D01*
X102844128Y-110527460D01*
X102844122Y-110527458D01*
X102832089Y-110524369D01*
X102813387Y-110517966D01*
X102794708Y-110509883D01*
X102754913Y-110503580D01*
X102750873Y-110502940D01*
X102739260Y-110500535D01*
X102696282Y-110489500D01*
X102675935Y-110489500D01*
X102656224Y-110487949D01*
X102643950Y-110486005D01*
X102636121Y-110484765D01*
X102628229Y-110485511D01*
X102591944Y-110488941D01*
X102580086Y-110489500D01*
X101171032Y-110489500D01*
X101159793Y-110488970D01*
X101152281Y-110487291D01*
X101144356Y-110487540D01*
X101144355Y-110487540D01*
X101083970Y-110489438D01*
X101080012Y-110489500D01*
X101052017Y-110489500D01*
X101048083Y-110489997D01*
X101048081Y-110489997D01*
X101047994Y-110490008D01*
X101036160Y-110490940D01*
X100991795Y-110492335D01*
X100984182Y-110494547D01*
X100984181Y-110494547D01*
X100972252Y-110498013D01*
X100952888Y-110502023D01*
X100940560Y-110503580D01*
X100940558Y-110503580D01*
X100932701Y-110504573D01*
X100925337Y-110507489D01*
X100925332Y-110507490D01*
X100891444Y-110520907D01*
X100880215Y-110524752D01*
X100870902Y-110527458D01*
X100837607Y-110537131D01*
X100830781Y-110541168D01*
X100820091Y-110547490D01*
X100802341Y-110556187D01*
X100783412Y-110563681D01*
X100776998Y-110568341D01*
X100747514Y-110589762D01*
X100737594Y-110596278D01*
X100706229Y-110614827D01*
X100706226Y-110614829D01*
X100699402Y-110618865D01*
X100685014Y-110633253D01*
X100669980Y-110646094D01*
X100653513Y-110658058D01*
X100648460Y-110664166D01*
X100625228Y-110692249D01*
X100617238Y-110701029D01*
X100230672Y-111087595D01*
X100168360Y-111121621D01*
X100141577Y-111124500D01*
X100094211Y-111124500D01*
X100026090Y-111104498D01*
X100005115Y-111087595D01*
X99541859Y-110624338D01*
X99507834Y-110562026D01*
X99506228Y-110553106D01*
X99501195Y-110517963D01*
X99490877Y-110445915D01*
X99480101Y-110422213D01*
X99433858Y-110320507D01*
X99430590Y-110313319D01*
X99425643Y-110307166D01*
X99425641Y-110307163D01*
X99393537Y-110267235D01*
X99391397Y-110264573D01*
X98672554Y-109545730D01*
X104067006Y-109545730D01*
X104067137Y-109547563D01*
X104071388Y-109554178D01*
X104635188Y-110117978D01*
X104649132Y-110125592D01*
X104650965Y-110125461D01*
X104657580Y-110121210D01*
X105309767Y-109469023D01*
X105317381Y-109455079D01*
X105317250Y-109453246D01*
X105312999Y-109446631D01*
X105239073Y-109372705D01*
X105234229Y-109368337D01*
X105159622Y-109307756D01*
X105148097Y-109300325D01*
X105002706Y-109227677D01*
X104989024Y-109222723D01*
X104831227Y-109185567D01*
X104816785Y-109183896D01*
X104654666Y-109184038D01*
X104640231Y-109185733D01*
X104482492Y-109223167D01*
X104468829Y-109228140D01*
X104323547Y-109301050D01*
X104312061Y-109308480D01*
X104238506Y-109368363D01*
X104233735Y-109372671D01*
X104074620Y-109531786D01*
X104067006Y-109545730D01*
X98672554Y-109545730D01*
X98409484Y-109282660D01*
X98375458Y-109220348D01*
X98380523Y-109149533D01*
X98409484Y-109104470D01*
X98609789Y-108904165D01*
X98672101Y-108870139D01*
X98698884Y-108867260D01*
X101988141Y-108867260D01*
X101996711Y-108867552D01*
X102046017Y-108870914D01*
X102046021Y-108870914D01*
X102053592Y-108871430D01*
X102061068Y-108870125D01*
X102061072Y-108870125D01*
X102115664Y-108860597D01*
X102122189Y-108859634D01*
X102177158Y-108852982D01*
X102177160Y-108852981D01*
X102184700Y-108852069D01*
X102191802Y-108849385D01*
X102195240Y-108848541D01*
X102209363Y-108844677D01*
X102212774Y-108843647D01*
X102220257Y-108842341D01*
X102277937Y-108817021D01*
X102284044Y-108814530D01*
X102335857Y-108794951D01*
X102335858Y-108794950D01*
X102342962Y-108792266D01*
X102349217Y-108787967D01*
X102352358Y-108786325D01*
X102365112Y-108779227D01*
X102368218Y-108777390D01*
X102375173Y-108774337D01*
X102381200Y-108769712D01*
X102381204Y-108769710D01*
X102425142Y-108735995D01*
X102430460Y-108732131D01*
X102482392Y-108696439D01*
X102523275Y-108650553D01*
X102528238Y-108645297D01*
X102639076Y-108534459D01*
X102701388Y-108500433D01*
X102769557Y-108504977D01*
X102772885Y-108506640D01*
X102820417Y-108517832D01*
X102937923Y-108545501D01*
X102937927Y-108545501D01*
X102945047Y-108547178D01*
X102952363Y-108547172D01*
X102952366Y-108547172D01*
X103033673Y-108547101D01*
X103121917Y-108547024D01*
X103285021Y-108508318D01*
X103286888Y-108507875D01*
X103286889Y-108507875D01*
X103294009Y-108506185D01*
X103300549Y-108502903D01*
X103445939Y-108429938D01*
X103445943Y-108429935D01*
X103452089Y-108426851D01*
X103533523Y-108360554D01*
X104064418Y-107829659D01*
X104114413Y-107768088D01*
X104127104Y-107752459D01*
X104127106Y-107752456D01*
X104131446Y-107747111D01*
X104210504Y-107588892D01*
X104219210Y-107551919D01*
X104249365Y-107423854D01*
X104249365Y-107423850D01*
X104251042Y-107416730D01*
X104251036Y-107409029D01*
X104250894Y-107247182D01*
X104250888Y-107239859D01*
X104249658Y-107234674D01*
X104261439Y-107165493D01*
X104309304Y-107113058D01*
X104377919Y-107094824D01*
X104389140Y-107095617D01*
X104401990Y-107097104D01*
X104564111Y-107096962D01*
X104578546Y-107095267D01*
X104736285Y-107057833D01*
X104749948Y-107052860D01*
X104895232Y-106979949D01*
X104906715Y-106972521D01*
X104980269Y-106912638D01*
X104985042Y-106908328D01*
X105055768Y-106837602D01*
X105063382Y-106823658D01*
X105063251Y-106821825D01*
X105059000Y-106815210D01*
X104123885Y-105880095D01*
X104089859Y-105817783D01*
X104091694Y-105792132D01*
X104758408Y-105792132D01*
X104758539Y-105793965D01*
X104762790Y-105800580D01*
X105414977Y-106452767D01*
X105428921Y-106460381D01*
X105430754Y-106460250D01*
X105437369Y-106455999D01*
X105511295Y-106382073D01*
X105515663Y-106377229D01*
X105576244Y-106302622D01*
X105583675Y-106291097D01*
X105656323Y-106145706D01*
X105661277Y-106132024D01*
X105698433Y-105974227D01*
X105700104Y-105959785D01*
X105699962Y-105797666D01*
X105698267Y-105783231D01*
X105660833Y-105625492D01*
X105655860Y-105611829D01*
X105582950Y-105466547D01*
X105575520Y-105455061D01*
X105515637Y-105381506D01*
X105511329Y-105376735D01*
X105352214Y-105217620D01*
X105338270Y-105210006D01*
X105336437Y-105210137D01*
X105329822Y-105214388D01*
X104766022Y-105778188D01*
X104758408Y-105792132D01*
X104091694Y-105792132D01*
X104094924Y-105746968D01*
X104123885Y-105701905D01*
X104967379Y-104858411D01*
X104974993Y-104844467D01*
X104974862Y-104842634D01*
X104970611Y-104836019D01*
X104808290Y-104673698D01*
X104803467Y-104669349D01*
X104728837Y-104608750D01*
X104717326Y-104601328D01*
X104571929Y-104528677D01*
X104558247Y-104523723D01*
X104415404Y-104490089D01*
X104353681Y-104455006D01*
X104320724Y-104392123D01*
X104326995Y-104321404D01*
X104355188Y-104278348D01*
X104586546Y-104046990D01*
X104592812Y-104041136D01*
X104597971Y-104036636D01*
X104635774Y-104003658D01*
X104671998Y-103952117D01*
X104675923Y-103946832D01*
X104710107Y-103903235D01*
X104714792Y-103897260D01*
X104717916Y-103890342D01*
X104719745Y-103887321D01*
X104727000Y-103874602D01*
X104728688Y-103871454D01*
X104733056Y-103865239D01*
X104755938Y-103806550D01*
X104758478Y-103800505D01*
X104784413Y-103743065D01*
X104785798Y-103735592D01*
X104786869Y-103732174D01*
X104790854Y-103718185D01*
X104791751Y-103714693D01*
X104794512Y-103707611D01*
X104797224Y-103687013D01*
X104802733Y-103645170D01*
X104803765Y-103638657D01*
X104813861Y-103584182D01*
X104813861Y-103584180D01*
X104815245Y-103576713D01*
X104811709Y-103515387D01*
X104811500Y-103508135D01*
X104811500Y-101074226D01*
X104831502Y-101006105D01*
X104848405Y-100985130D01*
X105271132Y-100562404D01*
X105333444Y-100528379D01*
X105360227Y-100525500D01*
X106933134Y-100525500D01*
X106995316Y-100518745D01*
X107131705Y-100467615D01*
X107248261Y-100380261D01*
X107335615Y-100263705D01*
X107386745Y-100127316D01*
X107393500Y-100065134D01*
X107393500Y-99630469D01*
X107413502Y-99562348D01*
X107467158Y-99515855D01*
X107537432Y-99505751D01*
X107602012Y-99535245D01*
X107628619Y-99567469D01*
X107718960Y-99723944D01*
X107723378Y-99728851D01*
X107723379Y-99728852D01*
X107768278Y-99778717D01*
X107846747Y-99865866D01*
X107945843Y-99937864D01*
X107957938Y-99946651D01*
X108001248Y-99978118D01*
X108007276Y-99980802D01*
X108007278Y-99980803D01*
X108119666Y-100030841D01*
X108175712Y-100055794D01*
X108235635Y-100068531D01*
X108356056Y-100094128D01*
X108356061Y-100094128D01*
X108362513Y-100095500D01*
X108553487Y-100095500D01*
X108559939Y-100094128D01*
X108559944Y-100094128D01*
X108680365Y-100068531D01*
X108740288Y-100055794D01*
X108796334Y-100030841D01*
X108908722Y-99980803D01*
X108908724Y-99980802D01*
X108914752Y-99978118D01*
X108958063Y-99946651D01*
X109063373Y-99870138D01*
X109069253Y-99865866D01*
X109073668Y-99860963D01*
X109078580Y-99856540D01*
X109080221Y-99858362D01*
X109131210Y-99826950D01*
X109164399Y-99822500D01*
X109650500Y-99822500D01*
X109718621Y-99842502D01*
X109765114Y-99896158D01*
X109776500Y-99948500D01*
X109776500Y-100065134D01*
X109783255Y-100127316D01*
X109834385Y-100263705D01*
X109921739Y-100380261D01*
X110038295Y-100467615D01*
X110174684Y-100518745D01*
X110236866Y-100525500D01*
X111833134Y-100525500D01*
X111895316Y-100518745D01*
X112031705Y-100467615D01*
X112148261Y-100380261D01*
X112235615Y-100263705D01*
X112286745Y-100127316D01*
X112293500Y-100065134D01*
X112293500Y-99332484D01*
X112313502Y-99264363D01*
X112367158Y-99217870D01*
X112437432Y-99207766D01*
X112502012Y-99237260D01*
X112508518Y-99243311D01*
X112614697Y-99349305D01*
X112620927Y-99353145D01*
X112620928Y-99353146D01*
X112758090Y-99437694D01*
X112765262Y-99442115D01*
X112824768Y-99461852D01*
X112926611Y-99495632D01*
X112926613Y-99495632D01*
X112933139Y-99497797D01*
X112939975Y-99498497D01*
X112939978Y-99498498D01*
X112980211Y-99502620D01*
X113037600Y-99508500D01*
X114038400Y-99508500D01*
X114041646Y-99508163D01*
X114041650Y-99508163D01*
X114137308Y-99498238D01*
X114137312Y-99498237D01*
X114144166Y-99497526D01*
X114150702Y-99495345D01*
X114150704Y-99495345D01*
X114282944Y-99451226D01*
X114311946Y-99441550D01*
X114462348Y-99348478D01*
X114587305Y-99223303D01*
X114607230Y-99190979D01*
X114676275Y-99078968D01*
X114676276Y-99078966D01*
X114680115Y-99072738D01*
X114715694Y-98965469D01*
X114733632Y-98911389D01*
X114733632Y-98911387D01*
X114735797Y-98904861D01*
X114746500Y-98800400D01*
X114746500Y-98049600D01*
X114735526Y-97943834D01*
X114726574Y-97917000D01*
X114681868Y-97783002D01*
X114679550Y-97776054D01*
X114586478Y-97625652D01*
X114461303Y-97500695D01*
X114456765Y-97497898D01*
X114416176Y-97440647D01*
X114412946Y-97369724D01*
X114448572Y-97308313D01*
X114457068Y-97300938D01*
X114467207Y-97292902D01*
X114581739Y-97178171D01*
X114590751Y-97166760D01*
X114675816Y-97028757D01*
X114681963Y-97015576D01*
X114733138Y-96861290D01*
X114736005Y-96847914D01*
X114745672Y-96753562D01*
X114746000Y-96747146D01*
X114746000Y-96647115D01*
X114741525Y-96631876D01*
X114740135Y-96630671D01*
X114732452Y-96629000D01*
X112396034Y-96629000D01*
X112327913Y-96608998D01*
X112315980Y-96595226D01*
X112313486Y-96598104D01*
X112284135Y-96572671D01*
X112276452Y-96571000D01*
X111307115Y-96571000D01*
X111291876Y-96575475D01*
X111290671Y-96576865D01*
X111289000Y-96584548D01*
X111289000Y-97306884D01*
X111293475Y-97322123D01*
X111294865Y-97323328D01*
X111302548Y-97324999D01*
X111829669Y-97324999D01*
X111836490Y-97324629D01*
X111887352Y-97319105D01*
X111902604Y-97315479D01*
X112023054Y-97270324D01*
X112038649Y-97261786D01*
X112140724Y-97185285D01*
X112153285Y-97172724D01*
X112226453Y-97075096D01*
X112283312Y-97032581D01*
X112354130Y-97027555D01*
X112416424Y-97061615D01*
X112434423Y-97084358D01*
X112486063Y-97167807D01*
X112495099Y-97179208D01*
X112609828Y-97293738D01*
X112618762Y-97300794D01*
X112659823Y-97358712D01*
X112663053Y-97429635D01*
X112627426Y-97491046D01*
X112619593Y-97497846D01*
X112613652Y-97501522D01*
X112488695Y-97626697D01*
X112484855Y-97632927D01*
X112484854Y-97632928D01*
X112481965Y-97637615D01*
X112429192Y-97685109D01*
X112374705Y-97697499D01*
X107534101Y-97697499D01*
X107525530Y-97697207D01*
X107468650Y-97693329D01*
X107406566Y-97704165D01*
X107400087Y-97705121D01*
X107337541Y-97712690D01*
X107330439Y-97715374D01*
X107326957Y-97716229D01*
X107312922Y-97720069D01*
X107309474Y-97721110D01*
X107301984Y-97722417D01*
X107295023Y-97725473D01*
X107295022Y-97725473D01*
X107244306Y-97747736D01*
X107238198Y-97750229D01*
X107186387Y-97769807D01*
X107179279Y-97772493D01*
X107173013Y-97776799D01*
X107169858Y-97778449D01*
X107157066Y-97785568D01*
X107154022Y-97787368D01*
X107147068Y-97790421D01*
X107141040Y-97795046D01*
X107141039Y-97795047D01*
X107097105Y-97828759D01*
X107091768Y-97832637D01*
X107039849Y-97868320D01*
X107034797Y-97873990D01*
X107034796Y-97873991D01*
X106998983Y-97914187D01*
X106994002Y-97919463D01*
X106441870Y-98471595D01*
X106379558Y-98505621D01*
X106352775Y-98508500D01*
X105336866Y-98508500D01*
X105274684Y-98515255D01*
X105138295Y-98566385D01*
X105021739Y-98653739D01*
X105021523Y-98653451D01*
X104964283Y-98684708D01*
X104893468Y-98679643D01*
X104836632Y-98637096D01*
X104811821Y-98570576D01*
X104811500Y-98561587D01*
X104811500Y-97272413D01*
X104831502Y-97204292D01*
X104885158Y-97157799D01*
X104955432Y-97147695D01*
X105019137Y-97176789D01*
X105021739Y-97180261D01*
X105138295Y-97267615D01*
X105274684Y-97318745D01*
X105336866Y-97325500D01*
X106933134Y-97325500D01*
X106995316Y-97318745D01*
X107131705Y-97267615D01*
X107248261Y-97180261D01*
X107335615Y-97063705D01*
X107386745Y-96927316D01*
X107393500Y-96865134D01*
X107393500Y-96861669D01*
X109777001Y-96861669D01*
X109777371Y-96868490D01*
X109782895Y-96919352D01*
X109786521Y-96934604D01*
X109831676Y-97055054D01*
X109840214Y-97070649D01*
X109916715Y-97172724D01*
X109929276Y-97185285D01*
X110031351Y-97261786D01*
X110046946Y-97270324D01*
X110167394Y-97315478D01*
X110182649Y-97319105D01*
X110233514Y-97324631D01*
X110240328Y-97325000D01*
X110762885Y-97325000D01*
X110778124Y-97320525D01*
X110779329Y-97319135D01*
X110781000Y-97311452D01*
X110781000Y-96589115D01*
X110776525Y-96573876D01*
X110775135Y-96572671D01*
X110767452Y-96571000D01*
X109795116Y-96571000D01*
X109779877Y-96575475D01*
X109778672Y-96576865D01*
X109777001Y-96584548D01*
X109777001Y-96861669D01*
X107393500Y-96861669D01*
X107393500Y-96044885D01*
X109777000Y-96044885D01*
X109781475Y-96060124D01*
X109782865Y-96061329D01*
X109790548Y-96063000D01*
X110762885Y-96063000D01*
X110778124Y-96058525D01*
X110779329Y-96057135D01*
X110781000Y-96049452D01*
X110781000Y-96044885D01*
X111289000Y-96044885D01*
X111293475Y-96060124D01*
X111294865Y-96061329D01*
X111302548Y-96063000D01*
X112226966Y-96063000D01*
X112295087Y-96083002D01*
X112307020Y-96096774D01*
X112309514Y-96093896D01*
X112338865Y-96119329D01*
X112346548Y-96121000D01*
X113265885Y-96121000D01*
X113281124Y-96116525D01*
X113282329Y-96115135D01*
X113284000Y-96107452D01*
X113284000Y-96102885D01*
X113792000Y-96102885D01*
X113796475Y-96118124D01*
X113797865Y-96119329D01*
X113805548Y-96121000D01*
X114727884Y-96121000D01*
X114743123Y-96116525D01*
X114744328Y-96115135D01*
X114745999Y-96107452D01*
X114745999Y-96002905D01*
X114745662Y-95996386D01*
X114735743Y-95900794D01*
X114732851Y-95887400D01*
X114681412Y-95733216D01*
X114675239Y-95720038D01*
X114589937Y-95582193D01*
X114580901Y-95570792D01*
X114466171Y-95456261D01*
X114454760Y-95447249D01*
X114316757Y-95362184D01*
X114303576Y-95356037D01*
X114149290Y-95304862D01*
X114135914Y-95301995D01*
X114041562Y-95292328D01*
X114035145Y-95292000D01*
X113810115Y-95292000D01*
X113794876Y-95296475D01*
X113793671Y-95297865D01*
X113792000Y-95305548D01*
X113792000Y-96102885D01*
X113284000Y-96102885D01*
X113284000Y-95310116D01*
X113279525Y-95294877D01*
X113278135Y-95293672D01*
X113270452Y-95292001D01*
X113040905Y-95292001D01*
X113034386Y-95292338D01*
X112938794Y-95302257D01*
X112925400Y-95305149D01*
X112771216Y-95356588D01*
X112758038Y-95362761D01*
X112620193Y-95448063D01*
X112608792Y-95457099D01*
X112494261Y-95571829D01*
X112485249Y-95583240D01*
X112467665Y-95611767D01*
X112414893Y-95659260D01*
X112344822Y-95670684D01*
X112279698Y-95642410D01*
X112242422Y-95589879D01*
X112238323Y-95578943D01*
X112229786Y-95563351D01*
X112153285Y-95461276D01*
X112140724Y-95448715D01*
X112038649Y-95372214D01*
X112023054Y-95363676D01*
X111902606Y-95318522D01*
X111887351Y-95314895D01*
X111836486Y-95309369D01*
X111829672Y-95309000D01*
X111307115Y-95309000D01*
X111291876Y-95313475D01*
X111290671Y-95314865D01*
X111289000Y-95322548D01*
X111289000Y-96044885D01*
X110781000Y-96044885D01*
X110781000Y-95327116D01*
X110776525Y-95311877D01*
X110775135Y-95310672D01*
X110767452Y-95309001D01*
X110240331Y-95309001D01*
X110233510Y-95309371D01*
X110182648Y-95314895D01*
X110167396Y-95318521D01*
X110046946Y-95363676D01*
X110031351Y-95372214D01*
X109929276Y-95448715D01*
X109916715Y-95461276D01*
X109840214Y-95563351D01*
X109831676Y-95578946D01*
X109786522Y-95699394D01*
X109782895Y-95714649D01*
X109777369Y-95765514D01*
X109777000Y-95772328D01*
X109777000Y-96044885D01*
X107393500Y-96044885D01*
X107393500Y-95768866D01*
X107386745Y-95706684D01*
X107335615Y-95570295D01*
X107248261Y-95453739D01*
X107131705Y-95366385D01*
X106995316Y-95315255D01*
X106933134Y-95308500D01*
X105336866Y-95308500D01*
X105274684Y-95315255D01*
X105138295Y-95366385D01*
X105021739Y-95453739D01*
X105021523Y-95453451D01*
X104964283Y-95484708D01*
X104893468Y-95479643D01*
X104836632Y-95437096D01*
X104811821Y-95370576D01*
X104811500Y-95361587D01*
X104811500Y-91097733D01*
X104831502Y-91029612D01*
X104885158Y-90983119D01*
X104955432Y-90973015D01*
X105020012Y-91002509D01*
X105038450Y-91022597D01*
X105040960Y-91026944D01*
X105168747Y-91168866D01*
X105323248Y-91281118D01*
X105329276Y-91283802D01*
X105329278Y-91283803D01*
X105491681Y-91356109D01*
X105497712Y-91358794D01*
X105591112Y-91378647D01*
X105678056Y-91397128D01*
X105678061Y-91397128D01*
X105684513Y-91398500D01*
X105875487Y-91398500D01*
X105881939Y-91397128D01*
X105881944Y-91397128D01*
X105968888Y-91378647D01*
X106062288Y-91358794D01*
X106068319Y-91356109D01*
X106230722Y-91283803D01*
X106230724Y-91283802D01*
X106236752Y-91281118D01*
X106391253Y-91168866D01*
X106447760Y-91106109D01*
X106514621Y-91031852D01*
X106514622Y-91031851D01*
X106519040Y-91026944D01*
X106603743Y-90880235D01*
X106611223Y-90867279D01*
X106611224Y-90867278D01*
X106614527Y-90861556D01*
X106673542Y-90679928D01*
X106693504Y-90490000D01*
X106673542Y-90300072D01*
X106614527Y-90118444D01*
X106519040Y-89953056D01*
X106391253Y-89811134D01*
X106236752Y-89698882D01*
X106230724Y-89696198D01*
X106230722Y-89696197D01*
X106068319Y-89623891D01*
X106068318Y-89623891D01*
X106062288Y-89621206D01*
X105877173Y-89581858D01*
X105877172Y-89581858D01*
X105875487Y-89581500D01*
X105875552Y-89581192D01*
X105813190Y-89555532D01*
X105772561Y-89497310D01*
X105766019Y-89457237D01*
X105766019Y-88550363D01*
X105786021Y-88482242D01*
X105839677Y-88435749D01*
X105909951Y-88425645D01*
X105974531Y-88455139D01*
X105987184Y-88467783D01*
X106032856Y-88520415D01*
X106123985Y-88625432D01*
X106128117Y-88628820D01*
X106301416Y-88770917D01*
X106301422Y-88770921D01*
X106305544Y-88774301D01*
X106310180Y-88776940D01*
X106310183Y-88776942D01*
X106354332Y-88802073D01*
X106509590Y-88890451D01*
X106730289Y-88970561D01*
X106735538Y-88971510D01*
X106735541Y-88971511D01*
X106816615Y-88986171D01*
X106961330Y-89012340D01*
X106965469Y-89012535D01*
X106965476Y-89012536D01*
X106984440Y-89013430D01*
X106984449Y-89013430D01*
X106985929Y-89013500D01*
X107150950Y-89013500D01*
X107232299Y-89006597D01*
X107320637Y-88999102D01*
X107320641Y-88999101D01*
X107325948Y-88998651D01*
X107331103Y-88997313D01*
X107331109Y-88997312D01*
X107514677Y-88949667D01*
X107553206Y-88939667D01*
X107558072Y-88937475D01*
X107558075Y-88937474D01*
X107762417Y-88845424D01*
X107762420Y-88845423D01*
X107767278Y-88843234D01*
X107962041Y-88712112D01*
X107970646Y-88703904D01*
X108103662Y-88577012D01*
X108131927Y-88550049D01*
X108136594Y-88543777D01*
X108224803Y-88425219D01*
X108272078Y-88361679D01*
X108278573Y-88348906D01*
X108376069Y-88157144D01*
X108376069Y-88157143D01*
X108378487Y-88152388D01*
X108448111Y-87928160D01*
X108465202Y-87799216D01*
X108478261Y-87700690D01*
X108478261Y-87700687D01*
X108478961Y-87695407D01*
X108470152Y-87460784D01*
X108445195Y-87341840D01*
X108424373Y-87242602D01*
X108429960Y-87171826D01*
X108472925Y-87115305D01*
X108538898Y-87091035D01*
X108572355Y-87088696D01*
X108637828Y-87084118D01*
X108637834Y-87084117D01*
X108642212Y-87083811D01*
X108916970Y-87025409D01*
X108921099Y-87023906D01*
X108921103Y-87023905D01*
X109176781Y-86930846D01*
X109176785Y-86930844D01*
X109180926Y-86929337D01*
X109428942Y-86797464D01*
X109613327Y-86663501D01*
X109680195Y-86639642D01*
X109749347Y-86655723D01*
X109798827Y-86706637D01*
X109812926Y-86776220D01*
X109804540Y-86811820D01*
X109787370Y-86855187D01*
X109709064Y-87160170D01*
X109669600Y-87472562D01*
X109669600Y-87787438D01*
X109709064Y-88099830D01*
X109787370Y-88404813D01*
X109903284Y-88697577D01*
X109905186Y-88701036D01*
X109905187Y-88701039D01*
X110041872Y-88949667D01*
X110054976Y-88973504D01*
X110240055Y-89228244D01*
X110455602Y-89457778D01*
X110698218Y-89658487D01*
X110964076Y-89827206D01*
X110967655Y-89828890D01*
X110967662Y-89828894D01*
X111245394Y-89959584D01*
X111245398Y-89959586D01*
X111248984Y-89961273D01*
X111548448Y-90058575D01*
X111857746Y-90117577D01*
X111951300Y-90123463D01*
X112091358Y-90132275D01*
X112091374Y-90132276D01*
X112093353Y-90132400D01*
X112250647Y-90132400D01*
X112252626Y-90132276D01*
X112252642Y-90132275D01*
X112392700Y-90123463D01*
X112486254Y-90117577D01*
X112795552Y-90058575D01*
X113095016Y-89961273D01*
X113098602Y-89959586D01*
X113098606Y-89959584D01*
X113376338Y-89828894D01*
X113376345Y-89828890D01*
X113379924Y-89827206D01*
X113645782Y-89658487D01*
X113888398Y-89457778D01*
X114103945Y-89228244D01*
X114289024Y-88973504D01*
X114302129Y-88949667D01*
X114438813Y-88701039D01*
X114438814Y-88701036D01*
X114440716Y-88697577D01*
X114556630Y-88404813D01*
X114634936Y-88099830D01*
X114674400Y-87787438D01*
X114674400Y-87564593D01*
X115865039Y-87564593D01*
X115865239Y-87569922D01*
X115865239Y-87569923D01*
X115866870Y-87613370D01*
X115873848Y-87799216D01*
X115874943Y-87804434D01*
X115904071Y-87943255D01*
X115922062Y-88029001D01*
X116008302Y-88247377D01*
X116011071Y-88251940D01*
X116098101Y-88395360D01*
X116130104Y-88448100D01*
X116283985Y-88625432D01*
X116288117Y-88628820D01*
X116461416Y-88770917D01*
X116461422Y-88770921D01*
X116465544Y-88774301D01*
X116470180Y-88776940D01*
X116470183Y-88776942D01*
X116514332Y-88802073D01*
X116669590Y-88890451D01*
X116890289Y-88970561D01*
X116895538Y-88971510D01*
X116895541Y-88971511D01*
X116976615Y-88986171D01*
X117121330Y-89012340D01*
X117125469Y-89012535D01*
X117125476Y-89012536D01*
X117144440Y-89013430D01*
X117144449Y-89013430D01*
X117145929Y-89013500D01*
X117310950Y-89013500D01*
X117392299Y-89006597D01*
X117480637Y-88999102D01*
X117480641Y-88999101D01*
X117485948Y-88998651D01*
X117491103Y-88997313D01*
X117491109Y-88997312D01*
X117674677Y-88949667D01*
X117713206Y-88939667D01*
X117718072Y-88937475D01*
X117718075Y-88937474D01*
X117922417Y-88845424D01*
X117922420Y-88845423D01*
X117927278Y-88843234D01*
X118122041Y-88712112D01*
X118130646Y-88703904D01*
X118263662Y-88577012D01*
X118291927Y-88550049D01*
X118296594Y-88543777D01*
X118384803Y-88425219D01*
X118432078Y-88361679D01*
X118438573Y-88348906D01*
X118536069Y-88157144D01*
X118536069Y-88157143D01*
X118538487Y-88152388D01*
X118608111Y-87928160D01*
X118625202Y-87799216D01*
X118638261Y-87700690D01*
X118638261Y-87700687D01*
X118638961Y-87695407D01*
X118630152Y-87460784D01*
X118605195Y-87341840D01*
X118583035Y-87236226D01*
X118583034Y-87236223D01*
X118581938Y-87230999D01*
X118495698Y-87012623D01*
X118432406Y-86908321D01*
X118376664Y-86816461D01*
X118376662Y-86816458D01*
X118373896Y-86811900D01*
X118220015Y-86634568D01*
X118170406Y-86593891D01*
X118042584Y-86489083D01*
X118042578Y-86489079D01*
X118038456Y-86485699D01*
X118033820Y-86483060D01*
X118033817Y-86483058D01*
X117839053Y-86372192D01*
X117834410Y-86369549D01*
X117613711Y-86289439D01*
X117608462Y-86288490D01*
X117608459Y-86288489D01*
X117511178Y-86270898D01*
X117382670Y-86247660D01*
X117378531Y-86247465D01*
X117378524Y-86247464D01*
X117359560Y-86246570D01*
X117359551Y-86246570D01*
X117358071Y-86246500D01*
X117193050Y-86246500D01*
X117111701Y-86253403D01*
X117023363Y-86260898D01*
X117023359Y-86260899D01*
X117018052Y-86261349D01*
X117012897Y-86262687D01*
X117012891Y-86262688D01*
X116864280Y-86301260D01*
X116790794Y-86320333D01*
X116785928Y-86322525D01*
X116785925Y-86322526D01*
X116581583Y-86414576D01*
X116581580Y-86414577D01*
X116576722Y-86416766D01*
X116572298Y-86419745D01*
X116572297Y-86419745D01*
X116546324Y-86437231D01*
X116381959Y-86547888D01*
X116378102Y-86551567D01*
X116378100Y-86551569D01*
X116323253Y-86603891D01*
X116212073Y-86709951D01*
X116071922Y-86898321D01*
X116069506Y-86903072D01*
X116069504Y-86903076D01*
X116002223Y-87035409D01*
X115965513Y-87107612D01*
X115895889Y-87331840D01*
X115895188Y-87337129D01*
X115878092Y-87466116D01*
X115865039Y-87564593D01*
X114674400Y-87564593D01*
X114674400Y-87472562D01*
X114634936Y-87160170D01*
X114556630Y-86855187D01*
X114440716Y-86562423D01*
X114434749Y-86551569D01*
X114290933Y-86289968D01*
X114290931Y-86289965D01*
X114289024Y-86286496D01*
X114113538Y-86044960D01*
X114106273Y-86034960D01*
X114106272Y-86034958D01*
X114103945Y-86031756D01*
X113888398Y-85802222D01*
X113645782Y-85601513D01*
X113397413Y-85443893D01*
X113383271Y-85434918D01*
X113383270Y-85434918D01*
X113379924Y-85432794D01*
X113376345Y-85431110D01*
X113376338Y-85431106D01*
X113098606Y-85300416D01*
X113098602Y-85300414D01*
X113095016Y-85298727D01*
X112795552Y-85201425D01*
X112486254Y-85142423D01*
X112392700Y-85136537D01*
X112252642Y-85127725D01*
X112252626Y-85127724D01*
X112250647Y-85127600D01*
X112093353Y-85127600D01*
X112091374Y-85127724D01*
X112091358Y-85127725D01*
X111951300Y-85136537D01*
X111857746Y-85142423D01*
X111548448Y-85201425D01*
X111248984Y-85298727D01*
X111245398Y-85300414D01*
X111245394Y-85300416D01*
X110967662Y-85431106D01*
X110967655Y-85431110D01*
X110964076Y-85432794D01*
X110960730Y-85434918D01*
X110960729Y-85434918D01*
X110946587Y-85443893D01*
X110698218Y-85601513D01*
X110618249Y-85667669D01*
X110497413Y-85767633D01*
X110432176Y-85795643D01*
X110362151Y-85783936D01*
X110309571Y-85736229D01*
X110291131Y-85667669D01*
X110294841Y-85640066D01*
X110343753Y-85443893D01*
X110343754Y-85443888D01*
X110344817Y-85439624D01*
X110345713Y-85431106D01*
X110373719Y-85164636D01*
X110373719Y-85164633D01*
X110374178Y-85160267D01*
X110374025Y-85155873D01*
X110364529Y-84883939D01*
X110364528Y-84883933D01*
X110364375Y-84879542D01*
X110315598Y-84602913D01*
X110228797Y-84335765D01*
X110225750Y-84329516D01*
X110158293Y-84191211D01*
X110105660Y-84083298D01*
X110103205Y-84079659D01*
X110103202Y-84079653D01*
X110000645Y-83927606D01*
X109948585Y-83850424D01*
X109901805Y-83798469D01*
X109828474Y-83717027D01*
X109760629Y-83641678D01*
X109735828Y-83620867D01*
X109659359Y-83556702D01*
X109545450Y-83461121D01*
X109307236Y-83312269D01*
X109077099Y-83209805D01*
X109054639Y-83199805D01*
X109054637Y-83199804D01*
X109050625Y-83198018D01*
X108819711Y-83131805D01*
X108784837Y-83121805D01*
X108784836Y-83121805D01*
X108780610Y-83120593D01*
X108776260Y-83119982D01*
X108776257Y-83119981D01*
X108673310Y-83105513D01*
X108502448Y-83081500D01*
X108291854Y-83081500D01*
X108289668Y-83081653D01*
X108289664Y-83081653D01*
X108086173Y-83095882D01*
X108086168Y-83095883D01*
X108081788Y-83096189D01*
X107807030Y-83154591D01*
X107802901Y-83156094D01*
X107802897Y-83156095D01*
X107547219Y-83249154D01*
X107547215Y-83249156D01*
X107543074Y-83250663D01*
X107295058Y-83382536D01*
X107291499Y-83385122D01*
X107291497Y-83385123D01*
X107141752Y-83493919D01*
X107067808Y-83547642D01*
X107064644Y-83550698D01*
X107064641Y-83550700D01*
X107002337Y-83610867D01*
X106939441Y-83643799D01*
X106868724Y-83637499D01*
X106812960Y-83594215D01*
X106812615Y-83593295D01*
X106725261Y-83476739D01*
X106608705Y-83389385D01*
X106472316Y-83338255D01*
X106410134Y-83331500D01*
X103763866Y-83331500D01*
X103701684Y-83338255D01*
X103565295Y-83389385D01*
X103558110Y-83394770D01*
X103558108Y-83394771D01*
X103516565Y-83425906D01*
X103450058Y-83450754D01*
X103380676Y-83435701D01*
X103330446Y-83385527D01*
X103315000Y-83325080D01*
X103315000Y-82479733D01*
X112699822Y-82479733D01*
X112699975Y-82484121D01*
X112699975Y-82484127D01*
X112705079Y-82630267D01*
X112709625Y-82760458D01*
X112710387Y-82764781D01*
X112710388Y-82764788D01*
X112722260Y-82832115D01*
X112758402Y-83037087D01*
X112845203Y-83304235D01*
X112847131Y-83308188D01*
X112847133Y-83308193D01*
X112889532Y-83395123D01*
X112968340Y-83556702D01*
X112970795Y-83560341D01*
X112970798Y-83560347D01*
X113034602Y-83654940D01*
X113125415Y-83789576D01*
X113128360Y-83792847D01*
X113128361Y-83792848D01*
X113131132Y-83795925D01*
X113313371Y-83998322D01*
X113316733Y-84001143D01*
X113316734Y-84001144D01*
X113328652Y-84011144D01*
X113528550Y-84178879D01*
X113766764Y-84327731D01*
X114023375Y-84441982D01*
X114293390Y-84519407D01*
X114297740Y-84520018D01*
X114297743Y-84520019D01*
X114400690Y-84534487D01*
X114571552Y-84558500D01*
X114782146Y-84558500D01*
X114784332Y-84558347D01*
X114784336Y-84558347D01*
X114987827Y-84544118D01*
X114987832Y-84544117D01*
X114992212Y-84543811D01*
X115266970Y-84485409D01*
X115271099Y-84483906D01*
X115271103Y-84483905D01*
X115526781Y-84390846D01*
X115526785Y-84390844D01*
X115530926Y-84389337D01*
X115778942Y-84257464D01*
X115782628Y-84254786D01*
X116002629Y-84094947D01*
X116002632Y-84094944D01*
X116006192Y-84092358D01*
X116011482Y-84087250D01*
X116058504Y-84041841D01*
X116089703Y-84011713D01*
X116152598Y-83978781D01*
X116223315Y-83985081D01*
X116279399Y-84028613D01*
X116287749Y-84041841D01*
X116294212Y-84053646D01*
X116370715Y-84155724D01*
X116383276Y-84168285D01*
X116485351Y-84244786D01*
X116500946Y-84253324D01*
X116621394Y-84298478D01*
X116636649Y-84302105D01*
X116687514Y-84307631D01*
X116694328Y-84308000D01*
X117741885Y-84308000D01*
X117757124Y-84303525D01*
X117758329Y-84302135D01*
X117760000Y-84294452D01*
X117760000Y-84289884D01*
X118268000Y-84289884D01*
X118272475Y-84305123D01*
X118273865Y-84306328D01*
X118281548Y-84307999D01*
X119333669Y-84307999D01*
X119340490Y-84307629D01*
X119391352Y-84302105D01*
X119406604Y-84298479D01*
X119527054Y-84253324D01*
X119542649Y-84244786D01*
X119644724Y-84168285D01*
X119657285Y-84155724D01*
X119733786Y-84053649D01*
X119742324Y-84038054D01*
X119787478Y-83917606D01*
X119791105Y-83902351D01*
X119796631Y-83851486D01*
X119797000Y-83844672D01*
X119797000Y-82822115D01*
X119792525Y-82806876D01*
X119791135Y-82805671D01*
X119783452Y-82804000D01*
X118286115Y-82804000D01*
X118270876Y-82808475D01*
X118269671Y-82809865D01*
X118268000Y-82817548D01*
X118268000Y-84289884D01*
X117760000Y-84289884D01*
X117760000Y-82277885D01*
X118268000Y-82277885D01*
X118272475Y-82293124D01*
X118273865Y-82294329D01*
X118281548Y-82296000D01*
X119778884Y-82296000D01*
X119794123Y-82291525D01*
X119795328Y-82290135D01*
X119796999Y-82282452D01*
X119796999Y-81255331D01*
X119796629Y-81248510D01*
X119791105Y-81197648D01*
X119787479Y-81182396D01*
X119742324Y-81061946D01*
X119733786Y-81046351D01*
X119657285Y-80944276D01*
X119644724Y-80931715D01*
X119542649Y-80855214D01*
X119527054Y-80846676D01*
X119406606Y-80801522D01*
X119391351Y-80797895D01*
X119340486Y-80792369D01*
X119333672Y-80792000D01*
X118286115Y-80792000D01*
X118270876Y-80796475D01*
X118269671Y-80797865D01*
X118268000Y-80805548D01*
X118268000Y-82277885D01*
X117760000Y-82277885D01*
X117760000Y-80810116D01*
X117755525Y-80794877D01*
X117754135Y-80793672D01*
X117746452Y-80792001D01*
X116694331Y-80792001D01*
X116687510Y-80792371D01*
X116636648Y-80797895D01*
X116621396Y-80801521D01*
X116500946Y-80846676D01*
X116485351Y-80855214D01*
X116383276Y-80931715D01*
X116370715Y-80944276D01*
X116294210Y-81046356D01*
X116289462Y-81055029D01*
X116239204Y-81105174D01*
X116169813Y-81120188D01*
X116097952Y-81091040D01*
X115898829Y-80923956D01*
X115898826Y-80923954D01*
X115895450Y-80921121D01*
X115657236Y-80772269D01*
X115427099Y-80669805D01*
X115404639Y-80659805D01*
X115404637Y-80659804D01*
X115400625Y-80658018D01*
X115169711Y-80591805D01*
X115134837Y-80581805D01*
X115134836Y-80581805D01*
X115130610Y-80580593D01*
X115126260Y-80579982D01*
X115126257Y-80579981D01*
X115023310Y-80565513D01*
X114852448Y-80541500D01*
X114641854Y-80541500D01*
X114639668Y-80541653D01*
X114639664Y-80541653D01*
X114436173Y-80555882D01*
X114436168Y-80555883D01*
X114431788Y-80556189D01*
X114157030Y-80614591D01*
X114152901Y-80616094D01*
X114152897Y-80616095D01*
X113897219Y-80709154D01*
X113897215Y-80709156D01*
X113893074Y-80710663D01*
X113645058Y-80842536D01*
X113641499Y-80845122D01*
X113641497Y-80845123D01*
X113519229Y-80933956D01*
X113417808Y-81007642D01*
X113414644Y-81010698D01*
X113414641Y-81010700D01*
X113358382Y-81065029D01*
X113215748Y-81202769D01*
X113042812Y-81424118D01*
X113040616Y-81427922D01*
X113040611Y-81427929D01*
X113037038Y-81434118D01*
X112902364Y-81667381D01*
X112797138Y-81927824D01*
X112729183Y-82200376D01*
X112728724Y-82204744D01*
X112728723Y-82204749D01*
X112714556Y-82339542D01*
X112699822Y-82479733D01*
X103315000Y-82479733D01*
X103315000Y-77253779D01*
X103335002Y-77185658D01*
X103374696Y-77146636D01*
X103409119Y-77125334D01*
X103409127Y-77125328D01*
X103415348Y-77121478D01*
X103540305Y-76996303D01*
X103633115Y-76845738D01*
X103688797Y-76677861D01*
X103699500Y-76573400D01*
X103699500Y-75572600D01*
X103699163Y-75569350D01*
X103689238Y-75473692D01*
X103689237Y-75473688D01*
X103688526Y-75466834D01*
X103632550Y-75299054D01*
X103539478Y-75148652D01*
X103478982Y-75088262D01*
X103444903Y-75025980D01*
X103442000Y-74999089D01*
X103442000Y-74080515D01*
X103462002Y-74012394D01*
X103515658Y-73965901D01*
X103517951Y-73964998D01*
X103522498Y-73962868D01*
X103529445Y-73960550D01*
X103679848Y-73867478D01*
X103804805Y-73742303D01*
X103808646Y-73736072D01*
X103893775Y-73597968D01*
X103893776Y-73597966D01*
X103897615Y-73591738D01*
X103940729Y-73461753D01*
X103951132Y-73430389D01*
X103951132Y-73430387D01*
X103953297Y-73423861D01*
X103964000Y-73319400D01*
X103964000Y-71968600D01*
X103960556Y-71935405D01*
X103953738Y-71869693D01*
X103953737Y-71869689D01*
X103953026Y-71862835D01*
X103935271Y-71809615D01*
X103899368Y-71702003D01*
X103897050Y-71695055D01*
X103803978Y-71544652D01*
X103678803Y-71419695D01*
X103672572Y-71415854D01*
X103534468Y-71330725D01*
X103534466Y-71330724D01*
X103528238Y-71326885D01*
X103373636Y-71275606D01*
X103366889Y-71273368D01*
X103366887Y-71273368D01*
X103360361Y-71271203D01*
X103353525Y-71270503D01*
X103353522Y-71270502D01*
X103310469Y-71266091D01*
X103255900Y-71260500D01*
X102230100Y-71260500D01*
X102226854Y-71260837D01*
X102226850Y-71260837D01*
X102131193Y-71270762D01*
X102131189Y-71270763D01*
X102124335Y-71271474D01*
X102117799Y-71273655D01*
X102117797Y-71273655D01*
X102044000Y-71298276D01*
X101956555Y-71327450D01*
X101806152Y-71420522D01*
X101681195Y-71545697D01*
X101677355Y-71551927D01*
X101677354Y-71551928D01*
X101635928Y-71619134D01*
X101588385Y-71696262D01*
X101564678Y-71767738D01*
X101536269Y-71853389D01*
X101532703Y-71864139D01*
X101532003Y-71870975D01*
X101532002Y-71870978D01*
X101528806Y-71902176D01*
X101522000Y-71968600D01*
X101522000Y-73319400D01*
X101522337Y-73322646D01*
X101522337Y-73322650D01*
X101526365Y-73361466D01*
X101532974Y-73425165D01*
X101535155Y-73431701D01*
X101535155Y-73431703D01*
X101576449Y-73555475D01*
X101588950Y-73592945D01*
X101682022Y-73743348D01*
X101807197Y-73868305D01*
X101957762Y-73961115D01*
X101964713Y-73963420D01*
X101971250Y-73966469D01*
X102024535Y-74013386D01*
X102044000Y-74080664D01*
X102044000Y-74816226D01*
X102023998Y-74884347D01*
X101972085Y-74929772D01*
X101967054Y-74931450D01*
X101816652Y-75024522D01*
X101691695Y-75149697D01*
X101688898Y-75154235D01*
X101631647Y-75194824D01*
X101560724Y-75198054D01*
X101499313Y-75162428D01*
X101491938Y-75153932D01*
X101483902Y-75143793D01*
X101369171Y-75029261D01*
X101357760Y-75020249D01*
X101219757Y-74935184D01*
X101206576Y-74929037D01*
X101052290Y-74877862D01*
X101038914Y-74874995D01*
X100944562Y-74865328D01*
X100938145Y-74865000D01*
X100838115Y-74865000D01*
X100822876Y-74869475D01*
X100821671Y-74870865D01*
X100820000Y-74878548D01*
X100820000Y-77262884D01*
X100824475Y-77278123D01*
X100825865Y-77279328D01*
X100833548Y-77280999D01*
X100938095Y-77280999D01*
X100944614Y-77280662D01*
X101040206Y-77270743D01*
X101053600Y-77267851D01*
X101207784Y-77216412D01*
X101220962Y-77210239D01*
X101358807Y-77124937D01*
X101370208Y-77115901D01*
X101484738Y-77001172D01*
X101491794Y-76992238D01*
X101549712Y-76951177D01*
X101620635Y-76947947D01*
X101682046Y-76983574D01*
X101688846Y-76991407D01*
X101692522Y-76997348D01*
X101817697Y-77122305D01*
X101823924Y-77126143D01*
X101823926Y-77126145D01*
X101857116Y-77146604D01*
X101904610Y-77199377D01*
X101917000Y-77253864D01*
X101917000Y-79694078D01*
X101896998Y-79762199D01*
X101843342Y-79808692D01*
X101773068Y-79818796D01*
X101708488Y-79789302D01*
X101701905Y-79783173D01*
X100138250Y-78219517D01*
X100130674Y-78211191D01*
X100126553Y-78204697D01*
X100076734Y-78157914D01*
X100073893Y-78155160D01*
X100054094Y-78135361D01*
X100050969Y-78132937D01*
X100050960Y-78132929D01*
X100050874Y-78132863D01*
X100041849Y-78125155D01*
X100015285Y-78100210D01*
X100009506Y-78094783D01*
X99991669Y-78084977D01*
X99975153Y-78074127D01*
X99959067Y-78061650D01*
X99918334Y-78044024D01*
X99907686Y-78038807D01*
X99896058Y-78032415D01*
X99868803Y-78017431D01*
X99861128Y-78015460D01*
X99861122Y-78015458D01*
X99849089Y-78012369D01*
X99830387Y-78005966D01*
X99811708Y-77997883D01*
X99777872Y-77992524D01*
X99767873Y-77990940D01*
X99756260Y-77988535D01*
X99713282Y-77977500D01*
X99692935Y-77977500D01*
X99673224Y-77975949D01*
X99660950Y-77974005D01*
X99653121Y-77972765D01*
X99645229Y-77973511D01*
X99608944Y-77976941D01*
X99597086Y-77977500D01*
X98359423Y-77977500D01*
X98291302Y-77957498D01*
X98270328Y-77940595D01*
X96899828Y-76570095D01*
X99483001Y-76570095D01*
X99483338Y-76576614D01*
X99493257Y-76672206D01*
X99496149Y-76685600D01*
X99547588Y-76839784D01*
X99553761Y-76852962D01*
X99639063Y-76990807D01*
X99648099Y-77002208D01*
X99762829Y-77116739D01*
X99774240Y-77125751D01*
X99912243Y-77210816D01*
X99925424Y-77216963D01*
X100079710Y-77268138D01*
X100093086Y-77271005D01*
X100187438Y-77280672D01*
X100193854Y-77281000D01*
X100293885Y-77281000D01*
X100309124Y-77276525D01*
X100310329Y-77275135D01*
X100312000Y-77267452D01*
X100312000Y-76345115D01*
X100307525Y-76329876D01*
X100306135Y-76328671D01*
X100298452Y-76327000D01*
X99501116Y-76327000D01*
X99485877Y-76331475D01*
X99484672Y-76332865D01*
X99483001Y-76340548D01*
X99483001Y-76570095D01*
X96899828Y-76570095D01*
X96300828Y-75971095D01*
X96266802Y-75908783D01*
X96271867Y-75837968D01*
X96314414Y-75781132D01*
X96380934Y-75756321D01*
X96389923Y-75756000D01*
X99158401Y-75756000D01*
X99166971Y-75756292D01*
X99216277Y-75759654D01*
X99216281Y-75759654D01*
X99223852Y-75760170D01*
X99231328Y-75758865D01*
X99231332Y-75758865D01*
X99285924Y-75749337D01*
X99292449Y-75748374D01*
X99335048Y-75743219D01*
X99354959Y-75740809D01*
X99355349Y-75744029D01*
X99411640Y-75746570D01*
X99469574Y-75787609D01*
X99481758Y-75811170D01*
X99488865Y-75817329D01*
X99496548Y-75819000D01*
X100293885Y-75819000D01*
X100309124Y-75814525D01*
X100310329Y-75813135D01*
X100312000Y-75805452D01*
X100312000Y-74958611D01*
X100332002Y-74890490D01*
X100338847Y-74880864D01*
X100365602Y-74846742D01*
X100365604Y-74846739D01*
X100370292Y-74840760D01*
X100373419Y-74833835D01*
X100375256Y-74830801D01*
X100382500Y-74818102D01*
X100384188Y-74814954D01*
X100388556Y-74808739D01*
X100411438Y-74750050D01*
X100413978Y-74744005D01*
X100439913Y-74686565D01*
X100441298Y-74679092D01*
X100442369Y-74675674D01*
X100446354Y-74661685D01*
X100447251Y-74658193D01*
X100450012Y-74651111D01*
X100458233Y-74588670D01*
X100459265Y-74582157D01*
X100469361Y-74527682D01*
X100469361Y-74527680D01*
X100470745Y-74520213D01*
X100467209Y-74458887D01*
X100467000Y-74451635D01*
X100467000Y-74080515D01*
X100487002Y-74012394D01*
X100540658Y-73965901D01*
X100542951Y-73964998D01*
X100547498Y-73962868D01*
X100554445Y-73960550D01*
X100704848Y-73867478D01*
X100829805Y-73742303D01*
X100833646Y-73736072D01*
X100918775Y-73597968D01*
X100918776Y-73597966D01*
X100922615Y-73591738D01*
X100965729Y-73461753D01*
X100976132Y-73430389D01*
X100976132Y-73430387D01*
X100978297Y-73423861D01*
X100989000Y-73319400D01*
X100989000Y-71968600D01*
X100985556Y-71935405D01*
X100978738Y-71869693D01*
X100978737Y-71869689D01*
X100978026Y-71862835D01*
X100960271Y-71809615D01*
X100924368Y-71702003D01*
X100922050Y-71695055D01*
X100828978Y-71544652D01*
X100703803Y-71419695D01*
X100553238Y-71326885D01*
X100546287Y-71324580D01*
X100539750Y-71321531D01*
X100486465Y-71274614D01*
X100467000Y-71207336D01*
X100467000Y-70459600D01*
X100467292Y-70451029D01*
X100470653Y-70401725D01*
X100471170Y-70394149D01*
X100460334Y-70332065D01*
X100459378Y-70325586D01*
X100451809Y-70263040D01*
X100449125Y-70255938D01*
X100448270Y-70252456D01*
X100444430Y-70238421D01*
X100443389Y-70234973D01*
X100442082Y-70227483D01*
X100437085Y-70216099D01*
X100416763Y-70169805D01*
X100414270Y-70163697D01*
X100394692Y-70111886D01*
X100394692Y-70111885D01*
X100392006Y-70104778D01*
X100387700Y-70098512D01*
X100386050Y-70095357D01*
X100378931Y-70082565D01*
X100377131Y-70079521D01*
X100374078Y-70072567D01*
X100356497Y-70049655D01*
X100335740Y-70022604D01*
X100331862Y-70017267D01*
X100300481Y-69971607D01*
X100300479Y-69971605D01*
X100296179Y-69965348D01*
X100283215Y-69953797D01*
X100250312Y-69924482D01*
X100245036Y-69919501D01*
X99615243Y-69289708D01*
X99581217Y-69227396D01*
X99579028Y-69213783D01*
X99573232Y-69158637D01*
X99573232Y-69158635D01*
X99572542Y-69152072D01*
X99566214Y-69132595D01*
X99515569Y-68976729D01*
X99513527Y-68970444D01*
X99418040Y-68805056D01*
X99382047Y-68765081D01*
X99294675Y-68668045D01*
X99294674Y-68668044D01*
X99290253Y-68663134D01*
X99135752Y-68550882D01*
X99129724Y-68548198D01*
X99129722Y-68548197D01*
X98967319Y-68475891D01*
X98967318Y-68475891D01*
X98961288Y-68473206D01*
X98867888Y-68453353D01*
X98780944Y-68434872D01*
X98780939Y-68434872D01*
X98774487Y-68433500D01*
X98583513Y-68433500D01*
X98577061Y-68434872D01*
X98577056Y-68434872D01*
X98490112Y-68453353D01*
X98396712Y-68473206D01*
X98390682Y-68475891D01*
X98390681Y-68475891D01*
X98228278Y-68548197D01*
X98228276Y-68548198D01*
X98222248Y-68550882D01*
X98067747Y-68663134D01*
X98063326Y-68668044D01*
X98063325Y-68668045D01*
X97975954Y-68765081D01*
X97939960Y-68805056D01*
X97844473Y-68970444D01*
X97785458Y-69152072D01*
X97784768Y-69158633D01*
X97784768Y-69158635D01*
X97778972Y-69213783D01*
X97765496Y-69342000D01*
X97785458Y-69531928D01*
X97844473Y-69713556D01*
X97939960Y-69878944D01*
X97944378Y-69883851D01*
X97944379Y-69883852D01*
X98063325Y-70015955D01*
X98067747Y-70020866D01*
X98222248Y-70133118D01*
X98228276Y-70135802D01*
X98228278Y-70135803D01*
X98347568Y-70188914D01*
X98396712Y-70210794D01*
X98566630Y-70246911D01*
X98629528Y-70281063D01*
X99032096Y-70683632D01*
X99066121Y-70745944D01*
X99069000Y-70772727D01*
X99069000Y-71207485D01*
X99048998Y-71275606D01*
X98995342Y-71322099D01*
X98993049Y-71323002D01*
X98988502Y-71325132D01*
X98981555Y-71327450D01*
X98831152Y-71420522D01*
X98706195Y-71545697D01*
X98702355Y-71551927D01*
X98702354Y-71551928D01*
X98660928Y-71619134D01*
X98613385Y-71696262D01*
X98589678Y-71767738D01*
X98561269Y-71853389D01*
X98557703Y-71864139D01*
X98557003Y-71870975D01*
X98557002Y-71870978D01*
X98553806Y-71902176D01*
X98547000Y-71968600D01*
X98547000Y-73319400D01*
X98547337Y-73322646D01*
X98547337Y-73322650D01*
X98551365Y-73361466D01*
X98557974Y-73425165D01*
X98560155Y-73431701D01*
X98560155Y-73431703D01*
X98601449Y-73555475D01*
X98613950Y-73592945D01*
X98707022Y-73743348D01*
X98832197Y-73868305D01*
X98982762Y-73961115D01*
X98989713Y-73963420D01*
X98996250Y-73966469D01*
X99049535Y-74013386D01*
X99069000Y-74080664D01*
X99069000Y-74134275D01*
X99048998Y-74202396D01*
X99032095Y-74223370D01*
X98934370Y-74321095D01*
X98872058Y-74355121D01*
X98845275Y-74358000D01*
X97737175Y-74358000D01*
X97669054Y-74337998D01*
X97622561Y-74284342D01*
X97612457Y-74214068D01*
X97641951Y-74149488D01*
X97648002Y-74142982D01*
X97690739Y-74100171D01*
X97699751Y-74088760D01*
X97784816Y-73950757D01*
X97790963Y-73937576D01*
X97842138Y-73783290D01*
X97845005Y-73769914D01*
X97854672Y-73675562D01*
X97855000Y-73669146D01*
X97855000Y-73569115D01*
X97850525Y-73553876D01*
X97849135Y-73552671D01*
X97841452Y-73551000D01*
X95457116Y-73551000D01*
X95441877Y-73555475D01*
X95440672Y-73556865D01*
X95439001Y-73564548D01*
X95439001Y-73669095D01*
X95439339Y-73675619D01*
X95440226Y-73684173D01*
X95427360Y-73753994D01*
X95378788Y-73805775D01*
X95309931Y-73823076D01*
X95242652Y-73800404D01*
X95225804Y-73786269D01*
X94963600Y-73524065D01*
X94929574Y-73461753D01*
X94934713Y-73390742D01*
X94942745Y-73369316D01*
X94947815Y-73322650D01*
X94949131Y-73310531D01*
X94949500Y-73307134D01*
X94949500Y-72610866D01*
X94942745Y-72548684D01*
X94891615Y-72412295D01*
X94804261Y-72295739D01*
X94687705Y-72208385D01*
X94551316Y-72157255D01*
X94489134Y-72150500D01*
X94152424Y-72150500D01*
X94084303Y-72130498D01*
X94037810Y-72076842D01*
X94027706Y-72006568D01*
X94057200Y-71941988D01*
X94063329Y-71935405D01*
X94094329Y-71904405D01*
X94156641Y-71870379D01*
X94183424Y-71867500D01*
X94489134Y-71867500D01*
X94551316Y-71860745D01*
X94687705Y-71809615D01*
X94804261Y-71722261D01*
X94891615Y-71605705D01*
X94942745Y-71469316D01*
X94949500Y-71407134D01*
X94949500Y-70752423D01*
X94969502Y-70684302D01*
X95023158Y-70637809D01*
X95093432Y-70627705D01*
X95158012Y-70657199D01*
X95164594Y-70663326D01*
X95301568Y-70800301D01*
X95401596Y-70900329D01*
X95435621Y-70962641D01*
X95438500Y-70989424D01*
X95438500Y-71622400D01*
X95438837Y-71625646D01*
X95438837Y-71625650D01*
X95448654Y-71720262D01*
X95449474Y-71728166D01*
X95451655Y-71734702D01*
X95451655Y-71734704D01*
X95493706Y-71860745D01*
X95505450Y-71895946D01*
X95598522Y-72046348D01*
X95723697Y-72171305D01*
X95728235Y-72174102D01*
X95768824Y-72231353D01*
X95772054Y-72302276D01*
X95736428Y-72363687D01*
X95727932Y-72371062D01*
X95717793Y-72379098D01*
X95603261Y-72493829D01*
X95594249Y-72505240D01*
X95509184Y-72643243D01*
X95503037Y-72656424D01*
X95451862Y-72810710D01*
X95448995Y-72824086D01*
X95439328Y-72918438D01*
X95439000Y-72924855D01*
X95439000Y-73024885D01*
X95443475Y-73040124D01*
X95444865Y-73041329D01*
X95452548Y-73043000D01*
X97836884Y-73043000D01*
X97852123Y-73038525D01*
X97853328Y-73037135D01*
X97854999Y-73029452D01*
X97854999Y-72924905D01*
X97854662Y-72918386D01*
X97844743Y-72822794D01*
X97841851Y-72809400D01*
X97790412Y-72655216D01*
X97784239Y-72642038D01*
X97698937Y-72504193D01*
X97689901Y-72492792D01*
X97575172Y-72378262D01*
X97566238Y-72371206D01*
X97525177Y-72313288D01*
X97521947Y-72242365D01*
X97557574Y-72180954D01*
X97565407Y-72174154D01*
X97571348Y-72170478D01*
X97585400Y-72156402D01*
X97691134Y-72050483D01*
X97696305Y-72045303D01*
X97720932Y-72005351D01*
X97785275Y-71900968D01*
X97785276Y-71900966D01*
X97789115Y-71894738D01*
X97828772Y-71775176D01*
X97842632Y-71733389D01*
X97842632Y-71733387D01*
X97844797Y-71726861D01*
X97847221Y-71703209D01*
X97855172Y-71625598D01*
X97855500Y-71622400D01*
X97855500Y-70871600D01*
X97849755Y-70816232D01*
X97845238Y-70772692D01*
X97845237Y-70772688D01*
X97844526Y-70765834D01*
X97829414Y-70720536D01*
X97790868Y-70605002D01*
X97788550Y-70598054D01*
X97695478Y-70447652D01*
X97570303Y-70322695D01*
X97564072Y-70318854D01*
X97425968Y-70233725D01*
X97425966Y-70233724D01*
X97419738Y-70229885D01*
X97296214Y-70188914D01*
X97258389Y-70176368D01*
X97258387Y-70176368D01*
X97251861Y-70174203D01*
X97245025Y-70173503D01*
X97245022Y-70173502D01*
X97147400Y-70163500D01*
X97147513Y-70162392D01*
X97084777Y-70140426D01*
X97041091Y-70084461D01*
X97034597Y-70013762D01*
X97064596Y-69953745D01*
X97131101Y-69879883D01*
X97226588Y-69714495D01*
X97285603Y-69532867D01*
X97286392Y-69525365D01*
X97304875Y-69349504D01*
X97305565Y-69342939D01*
X97285603Y-69153011D01*
X97226588Y-68971383D01*
X97131101Y-68805995D01*
X97117031Y-68790368D01*
X97086315Y-68726364D01*
X97095078Y-68655910D01*
X97099035Y-68647825D01*
X97144478Y-68526606D01*
X97148105Y-68511351D01*
X97153631Y-68460486D01*
X97154000Y-68453672D01*
X97154000Y-67456115D01*
X97149525Y-67440876D01*
X97148135Y-67439671D01*
X97140452Y-67438000D01*
X96505500Y-67438000D01*
X96437379Y-67417998D01*
X96390886Y-67364342D01*
X96379500Y-67312000D01*
X96379500Y-67276924D01*
X97695000Y-67276924D01*
X97698973Y-67290455D01*
X97706768Y-67291575D01*
X97814521Y-67259862D01*
X97825889Y-67255269D01*
X97990154Y-67169393D01*
X98000415Y-67162679D01*
X98144873Y-67046532D01*
X98153632Y-67037954D01*
X98272778Y-66895961D01*
X98279708Y-66885841D01*
X98369002Y-66723415D01*
X98373834Y-66712142D01*
X98429880Y-66535462D01*
X98432430Y-66523468D01*
X98448607Y-66379239D01*
X98449000Y-66372215D01*
X98449000Y-66041115D01*
X98444525Y-66025876D01*
X98443135Y-66024671D01*
X98435452Y-66023000D01*
X97713115Y-66023000D01*
X97697876Y-66027475D01*
X97696671Y-66028865D01*
X97695000Y-66036548D01*
X97695000Y-67276924D01*
X96379500Y-67276924D01*
X96379500Y-67056000D01*
X96399502Y-66987879D01*
X96453158Y-66941386D01*
X96505500Y-66930000D01*
X97168885Y-66930000D01*
X97184124Y-66925525D01*
X97185329Y-66924135D01*
X97187000Y-66916452D01*
X97187000Y-66041115D01*
X97182525Y-66025876D01*
X97181135Y-66024671D01*
X97173452Y-66023000D01*
X96711674Y-66023000D01*
X96643553Y-66002998D01*
X96597060Y-65949342D01*
X96586956Y-65879068D01*
X96616450Y-65814488D01*
X96625101Y-65805452D01*
X96644527Y-65787082D01*
X96644529Y-65787080D01*
X96649485Y-65782393D01*
X96653317Y-65776755D01*
X96653320Y-65776751D01*
X96747442Y-65638255D01*
X96751277Y-65632612D01*
X96766638Y-65594206D01*
X96810505Y-65538387D01*
X96883626Y-65515000D01*
X97168885Y-65515000D01*
X97184124Y-65510525D01*
X97185329Y-65509135D01*
X97187000Y-65501452D01*
X97187000Y-65496885D01*
X97695000Y-65496885D01*
X97699475Y-65512124D01*
X97700865Y-65513329D01*
X97708548Y-65515000D01*
X98430885Y-65515000D01*
X98446124Y-65510525D01*
X98447329Y-65509135D01*
X98449000Y-65501452D01*
X98449000Y-65172343D01*
X98448699Y-65166195D01*
X98435188Y-65028397D01*
X98432805Y-65016362D01*
X98379233Y-64838924D01*
X98374559Y-64827584D01*
X98287540Y-64663923D01*
X98280751Y-64653706D01*
X98163603Y-64510067D01*
X98154959Y-64501363D01*
X98012144Y-64383216D01*
X98001973Y-64376356D01*
X97838924Y-64288196D01*
X97827619Y-64283444D01*
X97712308Y-64247750D01*
X97698205Y-64247544D01*
X97695000Y-64254299D01*
X97695000Y-65496885D01*
X97187000Y-65496885D01*
X97187000Y-64261076D01*
X97183027Y-64247545D01*
X97175232Y-64246425D01*
X97067479Y-64278138D01*
X97056111Y-64282731D01*
X96891846Y-64368607D01*
X96881585Y-64375321D01*
X96737127Y-64491468D01*
X96728368Y-64500046D01*
X96684000Y-64552921D01*
X96624890Y-64592248D01*
X96553902Y-64593374D01*
X96510952Y-64572028D01*
X96445322Y-64521850D01*
X96326997Y-64466674D01*
X96287369Y-64448195D01*
X96287366Y-64448194D01*
X96281192Y-64445315D01*
X96274544Y-64443829D01*
X96274541Y-64443828D01*
X96127246Y-64410904D01*
X96104457Y-64405810D01*
X96098912Y-64405500D01*
X95965756Y-64405500D01*
X95830963Y-64420143D01*
X95747609Y-64448195D01*
X95665796Y-64475728D01*
X95665794Y-64475729D01*
X95659325Y-64477906D01*
X95504095Y-64571177D01*
X95499139Y-64575864D01*
X95499136Y-64575866D01*
X95495358Y-64579439D01*
X95462427Y-64610581D01*
X95399191Y-64642853D01*
X95328545Y-64635814D01*
X95286759Y-64608128D01*
X95092573Y-64413942D01*
X95086719Y-64407676D01*
X95086458Y-64407377D01*
X95049234Y-64364706D01*
X94997698Y-64328486D01*
X94992402Y-64324553D01*
X94948813Y-64290374D01*
X94948810Y-64290372D01*
X94942836Y-64285688D01*
X94935912Y-64282562D01*
X94932877Y-64280724D01*
X94920178Y-64273480D01*
X94917030Y-64271792D01*
X94910815Y-64267424D01*
X94852126Y-64244542D01*
X94846081Y-64242002D01*
X94788641Y-64216067D01*
X94781168Y-64214682D01*
X94777750Y-64213611D01*
X94763761Y-64209626D01*
X94760269Y-64208729D01*
X94753187Y-64205968D01*
X94745654Y-64204976D01*
X94745653Y-64204976D01*
X94690746Y-64197747D01*
X94684233Y-64196715D01*
X94629758Y-64186619D01*
X94629756Y-64186619D01*
X94622289Y-64185235D01*
X94614709Y-64185672D01*
X94614708Y-64185672D01*
X94560964Y-64188771D01*
X94553711Y-64188980D01*
X91692524Y-64188980D01*
X91683953Y-64188688D01*
X91627073Y-64184810D01*
X91564989Y-64195646D01*
X91558510Y-64196602D01*
X91495964Y-64204171D01*
X91488862Y-64206855D01*
X91485380Y-64207710D01*
X91471345Y-64211550D01*
X91467897Y-64212591D01*
X91460407Y-64213898D01*
X91453446Y-64216954D01*
X91453445Y-64216954D01*
X91402729Y-64239217D01*
X91396621Y-64241710D01*
X91380637Y-64247750D01*
X91337702Y-64263974D01*
X91331436Y-64268280D01*
X91328281Y-64269930D01*
X91315489Y-64277049D01*
X91312445Y-64278849D01*
X91305491Y-64281902D01*
X91299463Y-64286527D01*
X91299462Y-64286528D01*
X91255528Y-64320240D01*
X91250191Y-64324118D01*
X91226178Y-64340622D01*
X91198272Y-64359801D01*
X91193220Y-64365471D01*
X91193219Y-64365472D01*
X91157406Y-64405668D01*
X91152425Y-64410944D01*
X90956515Y-64606854D01*
X90894203Y-64640880D01*
X90823388Y-64635815D01*
X90790891Y-64617855D01*
X90776503Y-64606854D01*
X90729077Y-64570594D01*
X90670743Y-64525994D01*
X90670739Y-64525991D01*
X90665322Y-64521850D01*
X90546997Y-64466674D01*
X90507369Y-64448195D01*
X90507366Y-64448194D01*
X90501192Y-64445315D01*
X90494544Y-64443829D01*
X90494541Y-64443828D01*
X90347246Y-64410904D01*
X90324457Y-64405810D01*
X90318912Y-64405500D01*
X90185756Y-64405500D01*
X90050963Y-64420143D01*
X89967609Y-64448195D01*
X89885796Y-64475728D01*
X89885794Y-64475729D01*
X89879325Y-64477906D01*
X89727349Y-64569222D01*
X89727346Y-64569223D01*
X89724095Y-64571177D01*
X89723745Y-64570594D01*
X89662083Y-64594065D01*
X89592609Y-64579439D01*
X89554609Y-64548085D01*
X89523603Y-64510067D01*
X89514959Y-64501363D01*
X89372144Y-64383216D01*
X89361973Y-64376356D01*
X89198924Y-64288196D01*
X89187619Y-64283444D01*
X89072308Y-64247750D01*
X89058205Y-64247544D01*
X89055000Y-64254299D01*
X89055000Y-65496885D01*
X89059475Y-65512124D01*
X89060865Y-65513329D01*
X89068548Y-65515000D01*
X89358243Y-65515000D01*
X89426364Y-65535002D01*
X89469700Y-65582235D01*
X89535922Y-65707836D01*
X89540327Y-65713049D01*
X89540330Y-65713053D01*
X89627051Y-65815672D01*
X89655743Y-65880613D01*
X89644770Y-65950756D01*
X89597617Y-66003833D01*
X89530813Y-66023000D01*
X89073115Y-66023000D01*
X89057876Y-66027475D01*
X89056671Y-66028865D01*
X89055000Y-66036548D01*
X89055000Y-66911885D01*
X89059475Y-66927124D01*
X89060865Y-66928329D01*
X89068548Y-66930000D01*
X89736500Y-66930000D01*
X89804621Y-66950002D01*
X89851114Y-67003658D01*
X89862500Y-67056000D01*
X89862500Y-67359916D01*
X89842498Y-67428037D01*
X89788842Y-67474530D01*
X89718568Y-67484634D01*
X89653988Y-67455141D01*
X89636135Y-67439671D01*
X89628452Y-67438000D01*
X89106116Y-67438000D01*
X89090877Y-67442475D01*
X89089672Y-67443865D01*
X89088001Y-67451548D01*
X89088001Y-68453669D01*
X89088371Y-68460490D01*
X89093895Y-68511352D01*
X89097521Y-68526604D01*
X89142676Y-68647054D01*
X89151214Y-68662649D01*
X89227715Y-68764724D01*
X89240276Y-68777285D01*
X89342351Y-68853786D01*
X89357946Y-68862324D01*
X89478394Y-68907478D01*
X89493649Y-68911105D01*
X89544514Y-68916631D01*
X89551328Y-68917000D01*
X89623885Y-68917000D01*
X89639124Y-68912525D01*
X89640329Y-68911135D01*
X89642000Y-68903452D01*
X89642000Y-68608165D01*
X89662002Y-68540044D01*
X89715658Y-68493551D01*
X89785932Y-68483447D01*
X89850512Y-68512941D01*
X89885982Y-68563936D01*
X89920385Y-68655705D01*
X90007739Y-68772261D01*
X90014919Y-68777642D01*
X90014920Y-68777643D01*
X90108942Y-68848109D01*
X90151457Y-68904969D01*
X90154273Y-68913436D01*
X90154475Y-68914123D01*
X90155865Y-68915328D01*
X90163548Y-68916999D01*
X90240669Y-68916999D01*
X90247491Y-68916629D01*
X90267567Y-68914449D01*
X90294779Y-68914449D01*
X90319467Y-68917131D01*
X90319471Y-68917131D01*
X90322866Y-68917500D01*
X90413577Y-68917500D01*
X90481698Y-68937502D01*
X90528191Y-68991158D01*
X90538295Y-69061432D01*
X90508801Y-69126012D01*
X90502672Y-69132595D01*
X89635672Y-69999595D01*
X89573360Y-70033621D01*
X89546577Y-70036500D01*
X88907600Y-70036500D01*
X88904354Y-70036837D01*
X88904350Y-70036837D01*
X88808692Y-70046762D01*
X88808688Y-70046763D01*
X88801834Y-70047474D01*
X88795298Y-70049655D01*
X88795296Y-70049655D01*
X88696654Y-70082565D01*
X88634054Y-70103450D01*
X88483652Y-70196522D01*
X88358695Y-70321697D01*
X88354855Y-70327927D01*
X88354854Y-70327928D01*
X88284244Y-70442479D01*
X88265885Y-70472262D01*
X88210203Y-70640139D01*
X88209503Y-70646975D01*
X88209502Y-70646978D01*
X88208455Y-70657199D01*
X88199500Y-70744600D01*
X88199500Y-71495400D01*
X88199837Y-71498646D01*
X88199837Y-71498650D01*
X88204719Y-71545697D01*
X88210474Y-71601166D01*
X88212655Y-71607702D01*
X88212655Y-71607704D01*
X88239719Y-71688824D01*
X88266450Y-71768946D01*
X88359522Y-71919348D01*
X88484697Y-72044305D01*
X88489235Y-72047102D01*
X88529824Y-72104353D01*
X88533054Y-72175276D01*
X88497428Y-72236687D01*
X88488932Y-72244062D01*
X88478793Y-72252098D01*
X88364261Y-72366829D01*
X88355249Y-72378240D01*
X88270184Y-72516243D01*
X88264037Y-72529424D01*
X88212862Y-72683710D01*
X88209995Y-72697086D01*
X88200328Y-72791438D01*
X88200000Y-72797855D01*
X88200000Y-72897885D01*
X88204475Y-72913124D01*
X88205865Y-72914329D01*
X88213548Y-72916000D01*
X90597884Y-72916000D01*
X90613123Y-72911525D01*
X90614328Y-72910135D01*
X90615999Y-72902452D01*
X90615999Y-72797905D01*
X90615662Y-72791386D01*
X90605743Y-72695794D01*
X90602851Y-72682400D01*
X90551412Y-72528216D01*
X90545239Y-72515038D01*
X90459937Y-72377193D01*
X90450901Y-72365792D01*
X90336172Y-72251262D01*
X90327238Y-72244206D01*
X90286177Y-72186288D01*
X90282947Y-72115365D01*
X90318574Y-72053954D01*
X90326407Y-72047154D01*
X90332348Y-72043478D01*
X90457305Y-71918303D01*
X90467246Y-71902176D01*
X90546275Y-71773968D01*
X90546276Y-71773966D01*
X90550115Y-71767738D01*
X90597243Y-71625650D01*
X90603632Y-71606389D01*
X90603632Y-71606387D01*
X90605797Y-71599861D01*
X90616500Y-71495400D01*
X90616500Y-70868422D01*
X90636502Y-70800301D01*
X90653405Y-70779327D01*
X91146432Y-70286300D01*
X91208744Y-70252274D01*
X91233774Y-70254064D01*
X91231711Y-70244608D01*
X91256485Y-70178074D01*
X91268300Y-70164432D01*
X91478935Y-69953797D01*
X91541247Y-69919771D01*
X91612062Y-69924836D01*
X91661664Y-69958580D01*
X91717747Y-70020866D01*
X91723093Y-70024750D01*
X91723094Y-70024751D01*
X91725293Y-70026349D01*
X91726257Y-70027600D01*
X91727998Y-70029167D01*
X91727711Y-70029485D01*
X91768645Y-70082572D01*
X91774717Y-70153309D01*
X91741583Y-70216099D01*
X91679762Y-70251009D01*
X91664836Y-70253545D01*
X91630684Y-70257255D01*
X91494295Y-70308385D01*
X91468302Y-70327866D01*
X91432960Y-70354353D01*
X91366454Y-70379201D01*
X91358785Y-70377537D01*
X91346115Y-70435780D01*
X91336353Y-70450960D01*
X91290385Y-70512295D01*
X91239255Y-70648684D01*
X91232500Y-70710866D01*
X91232500Y-71407134D01*
X91239255Y-71469316D01*
X91290385Y-71605705D01*
X91377739Y-71722261D01*
X91379248Y-71723392D01*
X91411565Y-71782574D01*
X91406500Y-71853389D01*
X91377539Y-71898452D01*
X91372715Y-71903276D01*
X91296214Y-72005351D01*
X91287676Y-72020946D01*
X91242522Y-72141394D01*
X91238895Y-72156649D01*
X91233369Y-72207514D01*
X91233000Y-72214328D01*
X91233000Y-72486885D01*
X91237475Y-72502124D01*
X91238865Y-72503329D01*
X91246548Y-72505000D01*
X92006501Y-72505000D01*
X92074622Y-72525002D01*
X92121115Y-72578658D01*
X92132501Y-72631000D01*
X92132501Y-73911016D01*
X92130269Y-73934625D01*
X92130199Y-73934990D01*
X92130199Y-73934995D01*
X92128714Y-73942778D01*
X92131667Y-73989719D01*
X92132252Y-73999012D01*
X92132501Y-74006924D01*
X92132501Y-74022982D01*
X92132998Y-74026916D01*
X92132998Y-74026917D01*
X92134514Y-74038922D01*
X92135258Y-74046798D01*
X92137389Y-74080664D01*
X92138796Y-74103026D01*
X92141245Y-74110564D01*
X92141246Y-74110568D01*
X92141360Y-74110919D01*
X92146532Y-74134055D01*
X92146580Y-74134434D01*
X92146581Y-74134439D01*
X92147574Y-74142298D01*
X92150490Y-74149663D01*
X92150491Y-74149667D01*
X92168321Y-74194699D01*
X92171003Y-74202149D01*
X92185620Y-74247135D01*
X92188413Y-74255732D01*
X92192656Y-74262419D01*
X92192658Y-74262422D01*
X92192861Y-74262741D01*
X92203627Y-74283871D01*
X92206682Y-74291587D01*
X92211342Y-74298001D01*
X92239804Y-74337176D01*
X92244252Y-74343722D01*
X92270196Y-74384603D01*
X92270199Y-74384606D01*
X92274448Y-74391302D01*
X92280495Y-74396980D01*
X92296183Y-74414775D01*
X92301059Y-74421486D01*
X92337503Y-74451635D01*
X92344475Y-74457403D01*
X92350409Y-74462635D01*
X92388803Y-74498688D01*
X92391647Y-74501445D01*
X97350693Y-79460493D01*
X97358269Y-79468819D01*
X97362390Y-79475313D01*
X97368165Y-79480736D01*
X97412208Y-79522095D01*
X97415050Y-79524850D01*
X97434849Y-79544649D01*
X97437974Y-79547073D01*
X97437983Y-79547081D01*
X97438069Y-79547147D01*
X97447094Y-79554855D01*
X97479437Y-79585227D01*
X97486381Y-79589045D01*
X97486383Y-79589046D01*
X97497272Y-79595032D01*
X97513790Y-79605883D01*
X97529876Y-79618360D01*
X97570609Y-79635986D01*
X97581257Y-79641203D01*
X97620140Y-79662579D01*
X97627815Y-79664550D01*
X97627821Y-79664552D01*
X97639854Y-79667641D01*
X97658556Y-79674044D01*
X97677235Y-79682127D01*
X97711071Y-79687486D01*
X97721070Y-79689070D01*
X97732683Y-79691475D01*
X97775661Y-79702510D01*
X97796008Y-79702510D01*
X97815720Y-79704061D01*
X97835822Y-79707245D01*
X97843714Y-79706499D01*
X97879999Y-79703069D01*
X97891857Y-79702510D01*
X99021588Y-79702510D01*
X99089709Y-79722512D01*
X99110679Y-79739411D01*
X99948174Y-80576906D01*
X99982198Y-80639217D01*
X99977133Y-80710033D01*
X99934586Y-80766868D01*
X99868066Y-80791679D01*
X99859077Y-80792000D01*
X99235115Y-80792000D01*
X99219876Y-80796475D01*
X99218671Y-80797865D01*
X99217000Y-80805548D01*
X99217000Y-84289884D01*
X99221475Y-84305123D01*
X99222865Y-84306328D01*
X99230548Y-84307999D01*
X100238500Y-84307999D01*
X100306621Y-84328001D01*
X100353114Y-84381657D01*
X100364500Y-84433999D01*
X100364500Y-88290980D01*
X100363970Y-88302214D01*
X100362292Y-88309719D01*
X100362541Y-88317638D01*
X100364438Y-88378012D01*
X100364500Y-88381969D01*
X100364500Y-88409983D01*
X100364996Y-88413908D01*
X100364996Y-88413909D01*
X100365008Y-88414004D01*
X100365941Y-88425849D01*
X100367335Y-88470205D01*
X100369547Y-88477817D01*
X100373013Y-88489748D01*
X100377023Y-88509112D01*
X100378467Y-88520540D01*
X100379573Y-88529299D01*
X100382489Y-88536663D01*
X100382490Y-88536668D01*
X100395907Y-88570556D01*
X100399752Y-88581785D01*
X100412131Y-88624393D01*
X100416169Y-88631220D01*
X100416170Y-88631223D01*
X100422488Y-88641906D01*
X100431188Y-88659664D01*
X100435761Y-88671215D01*
X100435765Y-88671221D01*
X100438681Y-88678588D01*
X100443339Y-88684999D01*
X100443340Y-88685001D01*
X100464764Y-88714488D01*
X100471281Y-88724410D01*
X100489826Y-88755768D01*
X100489829Y-88755772D01*
X100493866Y-88762598D01*
X100508250Y-88776982D01*
X100521091Y-88792016D01*
X100533058Y-88808487D01*
X100565264Y-88835130D01*
X100567250Y-88836773D01*
X100576031Y-88844763D01*
X101435596Y-89704329D01*
X101469621Y-89766641D01*
X101472500Y-89793424D01*
X101472500Y-98224453D01*
X101452498Y-98292574D01*
X101398842Y-98339067D01*
X101328568Y-98349171D01*
X101295252Y-98339560D01*
X101253323Y-98320892D01*
X101253315Y-98320889D01*
X101247288Y-98318206D01*
X101126700Y-98292574D01*
X101066944Y-98279872D01*
X101066939Y-98279872D01*
X101060487Y-98278500D01*
X101007423Y-98278500D01*
X100939302Y-98258498D01*
X100918328Y-98241595D01*
X100200250Y-97523517D01*
X100192674Y-97515191D01*
X100188553Y-97508697D01*
X100138734Y-97461914D01*
X100135893Y-97459160D01*
X100116094Y-97439361D01*
X100112969Y-97436937D01*
X100112960Y-97436929D01*
X100112874Y-97436863D01*
X100103849Y-97429155D01*
X100077285Y-97404210D01*
X100071506Y-97398783D01*
X100053669Y-97388977D01*
X100037153Y-97378127D01*
X100021067Y-97365650D01*
X99980334Y-97348024D01*
X99969686Y-97342807D01*
X99938204Y-97325500D01*
X99930803Y-97321431D01*
X99923128Y-97319460D01*
X99923122Y-97319458D01*
X99911089Y-97316369D01*
X99892387Y-97309966D01*
X99873708Y-97301883D01*
X99839872Y-97296524D01*
X99829873Y-97294940D01*
X99818260Y-97292535D01*
X99775282Y-97281500D01*
X99754935Y-97281500D01*
X99735224Y-97279949D01*
X99722950Y-97278005D01*
X99715121Y-97276765D01*
X99707229Y-97277511D01*
X99670944Y-97280941D01*
X99659086Y-97281500D01*
X86177399Y-97281500D01*
X86109278Y-97261498D01*
X86092092Y-97246891D01*
X86091580Y-97247460D01*
X86086668Y-97243037D01*
X86082253Y-97238134D01*
X85927752Y-97125882D01*
X85921724Y-97123198D01*
X85921722Y-97123197D01*
X85759319Y-97050891D01*
X85759318Y-97050891D01*
X85753288Y-97048206D01*
X85656133Y-97027555D01*
X85572944Y-97009872D01*
X85572939Y-97009872D01*
X85566487Y-97008500D01*
X85375513Y-97008500D01*
X85369061Y-97009872D01*
X85369056Y-97009872D01*
X85285867Y-97027555D01*
X85188712Y-97048206D01*
X85182682Y-97050891D01*
X85182681Y-97050891D01*
X85020278Y-97123197D01*
X85020276Y-97123198D01*
X85014248Y-97125882D01*
X84859747Y-97238134D01*
X84855326Y-97243044D01*
X84855325Y-97243045D01*
X84742578Y-97368264D01*
X84731960Y-97380056D01*
X84699124Y-97436929D01*
X84649133Y-97523517D01*
X84636473Y-97545444D01*
X84577458Y-97727072D01*
X84576768Y-97733633D01*
X84576768Y-97733635D01*
X84566770Y-97828759D01*
X84557496Y-97917000D01*
X84558186Y-97923565D01*
X84566671Y-98004291D01*
X84577458Y-98106928D01*
X84636473Y-98288556D01*
X84639776Y-98294278D01*
X84639777Y-98294279D01*
X84649320Y-98310808D01*
X84731960Y-98453944D01*
X84736378Y-98458851D01*
X84736379Y-98458852D01*
X84828882Y-98561587D01*
X84859747Y-98595866D01*
X84937346Y-98652245D01*
X84998164Y-98696432D01*
X85014248Y-98708118D01*
X85020276Y-98710802D01*
X85020278Y-98710803D01*
X85172776Y-98778699D01*
X85188712Y-98785794D01*
X85272473Y-98803598D01*
X85369056Y-98824128D01*
X85369061Y-98824128D01*
X85375513Y-98825500D01*
X85566487Y-98825500D01*
X85572939Y-98824128D01*
X85572944Y-98824128D01*
X85669527Y-98803598D01*
X85753288Y-98785794D01*
X85769224Y-98778699D01*
X85921722Y-98710803D01*
X85921724Y-98710802D01*
X85927752Y-98708118D01*
X85943837Y-98696432D01*
X86064941Y-98608444D01*
X86082253Y-98595866D01*
X86086668Y-98590963D01*
X86091580Y-98586540D01*
X86093221Y-98588362D01*
X86144210Y-98556950D01*
X86177399Y-98552500D01*
X87230226Y-98552500D01*
X87298347Y-98572502D01*
X87344840Y-98626158D01*
X87354944Y-98696432D01*
X87350059Y-98717436D01*
X87326458Y-98790072D01*
X87325768Y-98796633D01*
X87325768Y-98796635D01*
X87312345Y-98924351D01*
X87306496Y-98980000D01*
X87307186Y-98986565D01*
X87308999Y-99003810D01*
X87326458Y-99169928D01*
X87385473Y-99351556D01*
X87388776Y-99357278D01*
X87388777Y-99357279D01*
X87403746Y-99383206D01*
X87480960Y-99516944D01*
X87485378Y-99521851D01*
X87485379Y-99521852D01*
X87552136Y-99595993D01*
X87582854Y-99660000D01*
X87584500Y-99680303D01*
X87584500Y-103516304D01*
X87583970Y-103527538D01*
X87582292Y-103535043D01*
X87583539Y-103574726D01*
X87584438Y-103603336D01*
X87584500Y-103607293D01*
X87584500Y-103635307D01*
X87584996Y-103639232D01*
X87584996Y-103639233D01*
X87585008Y-103639328D01*
X87585941Y-103651173D01*
X87587335Y-103695529D01*
X87591540Y-103710003D01*
X87593013Y-103715072D01*
X87597023Y-103734436D01*
X87599573Y-103754623D01*
X87602489Y-103761987D01*
X87602490Y-103761992D01*
X87615907Y-103795880D01*
X87619752Y-103807109D01*
X87632131Y-103849717D01*
X87636169Y-103856544D01*
X87636170Y-103856547D01*
X87642488Y-103867230D01*
X87651188Y-103884988D01*
X87655761Y-103896539D01*
X87655765Y-103896545D01*
X87658681Y-103903912D01*
X87663339Y-103910323D01*
X87663340Y-103910325D01*
X87684764Y-103939812D01*
X87691281Y-103949734D01*
X87709826Y-103981092D01*
X87709829Y-103981096D01*
X87713866Y-103987922D01*
X87728250Y-104002306D01*
X87741091Y-104017340D01*
X87753058Y-104033811D01*
X87778129Y-104054551D01*
X87787255Y-104062101D01*
X87796035Y-104070091D01*
X89066484Y-105340540D01*
X89100510Y-105402852D01*
X89095445Y-105473667D01*
X89066484Y-105518730D01*
X88810769Y-105774445D01*
X88771576Y-105823191D01*
X88769674Y-105821662D01*
X88749281Y-105842055D01*
X88750810Y-105843957D01*
X88702064Y-105883150D01*
X88245084Y-106340130D01*
X88205891Y-106388876D01*
X88203985Y-106387344D01*
X88183591Y-106407735D01*
X88185125Y-106409643D01*
X88136379Y-106448836D01*
X87861569Y-106723646D01*
X87799257Y-106757672D01*
X87728442Y-106752607D01*
X87683379Y-106723646D01*
X87413405Y-106453672D01*
X87379379Y-106391360D01*
X87376500Y-106364577D01*
X87376500Y-106040020D01*
X87377030Y-106028786D01*
X87378708Y-106021281D01*
X87376562Y-105952988D01*
X87376500Y-105949031D01*
X87376500Y-105921017D01*
X87375992Y-105916996D01*
X87375058Y-105905144D01*
X87373914Y-105868718D01*
X87373914Y-105868717D01*
X87373665Y-105860795D01*
X87367987Y-105841251D01*
X87363977Y-105821888D01*
X87362420Y-105809560D01*
X87362420Y-105809558D01*
X87361427Y-105801701D01*
X87358511Y-105794337D01*
X87358510Y-105794332D01*
X87345093Y-105760444D01*
X87341248Y-105749215D01*
X87331080Y-105714219D01*
X87328869Y-105706607D01*
X87318510Y-105689091D01*
X87309813Y-105671341D01*
X87302319Y-105652412D01*
X87276240Y-105616517D01*
X87269722Y-105606595D01*
X87251170Y-105575224D01*
X87251166Y-105575219D01*
X87247134Y-105568401D01*
X87232747Y-105554014D01*
X87219906Y-105538980D01*
X87212602Y-105528927D01*
X87207942Y-105522513D01*
X87173750Y-105494227D01*
X87164971Y-105486238D01*
X81342405Y-99663672D01*
X81308379Y-99601360D01*
X81305500Y-99574577D01*
X81305500Y-98968866D01*
X81298745Y-98906684D01*
X81247615Y-98770295D01*
X81160261Y-98653739D01*
X81043705Y-98566385D01*
X81029022Y-98560880D01*
X80914714Y-98518028D01*
X80914711Y-98518027D01*
X80907316Y-98515255D01*
X80900598Y-98514525D01*
X80839392Y-98479560D01*
X80806571Y-98416605D01*
X80812997Y-98345900D01*
X80821064Y-98329195D01*
X80826798Y-98319264D01*
X80844527Y-98288556D01*
X80903542Y-98106928D01*
X80914330Y-98004291D01*
X80922814Y-97923565D01*
X80923504Y-97917000D01*
X80914230Y-97828759D01*
X80904232Y-97733635D01*
X80904232Y-97733633D01*
X80903542Y-97727072D01*
X80844527Y-97545444D01*
X80820800Y-97504348D01*
X80804063Y-97435356D01*
X80827283Y-97368264D01*
X80883090Y-97324376D01*
X80900774Y-97318767D01*
X80914606Y-97315478D01*
X81035054Y-97270324D01*
X81050649Y-97261786D01*
X81152724Y-97185285D01*
X81165285Y-97172724D01*
X81241786Y-97070649D01*
X81250324Y-97055054D01*
X81295478Y-96934606D01*
X81299105Y-96919351D01*
X81304631Y-96868486D01*
X81305000Y-96861672D01*
X81305000Y-96589115D01*
X81300525Y-96573876D01*
X81299135Y-96572671D01*
X81291452Y-96571000D01*
X78807116Y-96571000D01*
X78791877Y-96575475D01*
X78790672Y-96576865D01*
X78789001Y-96584548D01*
X78789001Y-96861669D01*
X78789371Y-96868490D01*
X78794895Y-96919352D01*
X78798521Y-96934604D01*
X78843676Y-97055054D01*
X78852212Y-97070644D01*
X78859174Y-97079934D01*
X78884022Y-97146441D01*
X78868970Y-97215823D01*
X78818796Y-97266054D01*
X78758348Y-97281500D01*
X78066423Y-97281500D01*
X77998302Y-97261498D01*
X77977328Y-97244595D01*
X76777618Y-96044885D01*
X78789000Y-96044885D01*
X78793475Y-96060124D01*
X78794865Y-96061329D01*
X78802548Y-96063000D01*
X79774885Y-96063000D01*
X79790124Y-96058525D01*
X79791329Y-96057135D01*
X79793000Y-96049452D01*
X79793000Y-96044885D01*
X80301000Y-96044885D01*
X80305475Y-96060124D01*
X80306865Y-96061329D01*
X80314548Y-96063000D01*
X81286884Y-96063000D01*
X81302123Y-96058525D01*
X81303328Y-96057135D01*
X81304999Y-96049452D01*
X81304999Y-95772331D01*
X81304629Y-95765510D01*
X81299105Y-95714648D01*
X81295479Y-95699396D01*
X81250324Y-95578946D01*
X81241786Y-95563351D01*
X81165285Y-95461276D01*
X81152724Y-95448715D01*
X81050649Y-95372214D01*
X81035054Y-95363676D01*
X80914606Y-95318522D01*
X80899351Y-95314895D01*
X80848486Y-95309369D01*
X80841672Y-95309000D01*
X80319115Y-95309000D01*
X80303876Y-95313475D01*
X80302671Y-95314865D01*
X80301000Y-95322548D01*
X80301000Y-96044885D01*
X79793000Y-96044885D01*
X79793000Y-95327116D01*
X79788525Y-95311877D01*
X79787135Y-95310672D01*
X79779452Y-95309001D01*
X79252331Y-95309001D01*
X79245510Y-95309371D01*
X79194648Y-95314895D01*
X79179396Y-95318521D01*
X79058946Y-95363676D01*
X79043351Y-95372214D01*
X78941276Y-95448715D01*
X78928715Y-95461276D01*
X78852214Y-95563351D01*
X78843676Y-95578946D01*
X78798522Y-95699394D01*
X78794895Y-95714649D01*
X78789369Y-95765514D01*
X78789000Y-95772328D01*
X78789000Y-96044885D01*
X76777618Y-96044885D01*
X76656250Y-95923517D01*
X76648674Y-95915191D01*
X76644553Y-95908697D01*
X76594734Y-95861914D01*
X76591893Y-95859160D01*
X76572094Y-95839361D01*
X76568969Y-95836937D01*
X76568960Y-95836929D01*
X76568874Y-95836863D01*
X76559849Y-95829155D01*
X76533285Y-95804210D01*
X76527506Y-95798783D01*
X76509669Y-95788977D01*
X76493153Y-95778127D01*
X76477067Y-95765650D01*
X76467883Y-95761676D01*
X76459108Y-95757878D01*
X76404534Y-95712467D01*
X76391168Y-95686472D01*
X76350767Y-95578703D01*
X76347615Y-95570295D01*
X76260261Y-95453739D01*
X76143705Y-95366385D01*
X76007316Y-95315255D01*
X75945134Y-95308500D01*
X74348866Y-95308500D01*
X74286684Y-95315255D01*
X74150295Y-95366385D01*
X74033739Y-95453739D01*
X73946385Y-95570295D01*
X73895255Y-95706684D01*
X73888500Y-95768866D01*
X73888500Y-96798541D01*
X73868498Y-96866662D01*
X73814842Y-96913155D01*
X73744568Y-96923259D01*
X73679988Y-96893765D01*
X73655356Y-96864844D01*
X73568937Y-96725194D01*
X73559901Y-96713793D01*
X73445171Y-96599262D01*
X73433760Y-96590250D01*
X73295757Y-96505185D01*
X73282576Y-96499038D01*
X73128290Y-96447863D01*
X73114914Y-96444996D01*
X73020562Y-96435329D01*
X73014145Y-96435001D01*
X72789115Y-96435001D01*
X72773876Y-96439476D01*
X72772671Y-96440866D01*
X72771000Y-96448549D01*
X72771000Y-97245886D01*
X72775475Y-97261125D01*
X72776865Y-97262330D01*
X72784548Y-97264001D01*
X73706884Y-97264001D01*
X73722123Y-97259526D01*
X73723328Y-97258136D01*
X73724999Y-97250453D01*
X73724999Y-97146529D01*
X73745001Y-97078408D01*
X73798657Y-97031915D01*
X73868931Y-97021811D01*
X73933511Y-97051305D01*
X73951825Y-97070964D01*
X74024405Y-97167807D01*
X74033739Y-97180261D01*
X74150295Y-97267615D01*
X74286684Y-97318745D01*
X74348866Y-97325500D01*
X75945134Y-97325500D01*
X76007316Y-97318745D01*
X76110786Y-97279956D01*
X76181592Y-97274773D01*
X76244110Y-97308843D01*
X77245750Y-98310483D01*
X77253326Y-98318809D01*
X77257447Y-98325303D01*
X77263222Y-98330726D01*
X77307265Y-98372085D01*
X77310107Y-98374840D01*
X77329906Y-98394639D01*
X77333031Y-98397063D01*
X77333040Y-98397071D01*
X77333126Y-98397137D01*
X77342151Y-98404845D01*
X77374494Y-98435217D01*
X77381438Y-98439035D01*
X77381440Y-98439036D01*
X77392329Y-98445022D01*
X77408847Y-98455873D01*
X77424933Y-98468350D01*
X77465666Y-98485976D01*
X77476314Y-98491193D01*
X77515197Y-98512569D01*
X77522872Y-98514540D01*
X77522878Y-98514542D01*
X77534911Y-98517631D01*
X77553613Y-98524034D01*
X77572292Y-98532117D01*
X77606128Y-98537476D01*
X77616127Y-98539060D01*
X77627740Y-98541465D01*
X77670718Y-98552500D01*
X77691065Y-98552500D01*
X77710777Y-98554051D01*
X77730879Y-98557235D01*
X77738771Y-98556489D01*
X77775056Y-98553059D01*
X77786914Y-98552500D01*
X78757723Y-98552500D01*
X78825844Y-98572502D01*
X78872337Y-98626158D01*
X78882441Y-98696432D01*
X78858548Y-98754066D01*
X78851771Y-98763108D01*
X78851770Y-98763110D01*
X78846385Y-98770295D01*
X78795255Y-98906684D01*
X78788500Y-98968866D01*
X78788500Y-100065134D01*
X78795255Y-100127316D01*
X78846385Y-100263705D01*
X78933739Y-100380261D01*
X79050295Y-100467615D01*
X79186684Y-100518745D01*
X79248866Y-100525500D01*
X80354578Y-100525500D01*
X80422699Y-100545502D01*
X80443673Y-100562405D01*
X86068595Y-106187327D01*
X86102621Y-106249639D01*
X86105500Y-106276422D01*
X86105500Y-106600980D01*
X86104970Y-106612214D01*
X86103292Y-106619719D01*
X86104106Y-106645610D01*
X86105438Y-106688012D01*
X86105500Y-106691969D01*
X86105500Y-106719983D01*
X86105996Y-106723908D01*
X86105996Y-106723909D01*
X86106008Y-106724004D01*
X86106941Y-106735849D01*
X86108335Y-106780205D01*
X86110547Y-106787817D01*
X86114013Y-106799748D01*
X86118023Y-106819112D01*
X86120573Y-106839299D01*
X86123489Y-106846663D01*
X86123490Y-106846668D01*
X86136907Y-106880556D01*
X86140752Y-106891785D01*
X86153131Y-106934393D01*
X86157169Y-106941220D01*
X86157170Y-106941223D01*
X86163488Y-106951906D01*
X86172188Y-106969664D01*
X86176761Y-106981215D01*
X86176765Y-106981221D01*
X86179681Y-106988588D01*
X86184339Y-106994999D01*
X86184340Y-106995001D01*
X86205764Y-107024488D01*
X86212281Y-107034410D01*
X86230826Y-107065768D01*
X86230829Y-107065772D01*
X86234866Y-107072598D01*
X86249250Y-107086982D01*
X86262091Y-107102016D01*
X86274058Y-107118487D01*
X86280166Y-107123540D01*
X86308255Y-107146777D01*
X86317035Y-107154767D01*
X86969634Y-107807366D01*
X87003660Y-107869678D01*
X87005261Y-107878564D01*
X87014233Y-107941215D01*
X87074520Y-108073811D01*
X87079467Y-108079964D01*
X87079469Y-108079967D01*
X87100257Y-108105821D01*
X87113713Y-108122557D01*
X88095626Y-109104470D01*
X88129652Y-109166782D01*
X88124587Y-109237597D01*
X88095626Y-109282660D01*
X87113713Y-110264573D01*
X87092688Y-110290723D01*
X87034419Y-110331276D01*
X86963471Y-110333890D01*
X86905399Y-110300864D01*
X84570498Y-107965963D01*
X84564644Y-107959697D01*
X84548521Y-107941215D01*
X84527159Y-107916727D01*
X84475623Y-107880507D01*
X84470327Y-107876574D01*
X84426738Y-107842395D01*
X84426735Y-107842393D01*
X84420761Y-107837709D01*
X84413837Y-107834583D01*
X84410802Y-107832745D01*
X84398103Y-107825501D01*
X84394955Y-107823813D01*
X84388740Y-107819445D01*
X84330051Y-107796563D01*
X84324006Y-107794023D01*
X84266566Y-107768088D01*
X84259093Y-107766703D01*
X84255675Y-107765632D01*
X84241686Y-107761647D01*
X84238194Y-107760750D01*
X84231112Y-107757989D01*
X84223579Y-107756997D01*
X84223578Y-107756997D01*
X84168671Y-107749768D01*
X84162158Y-107748736D01*
X84107683Y-107738640D01*
X84107681Y-107738640D01*
X84100214Y-107737256D01*
X84092634Y-107737693D01*
X84092633Y-107737693D01*
X84038889Y-107740792D01*
X84031636Y-107741001D01*
X80301779Y-107741001D01*
X80233658Y-107720999D01*
X80194636Y-107681305D01*
X80173334Y-107646882D01*
X80173328Y-107646874D01*
X80169478Y-107640653D01*
X80044303Y-107515696D01*
X80038072Y-107511855D01*
X79899968Y-107426726D01*
X79899966Y-107426725D01*
X79893738Y-107422886D01*
X79747460Y-107374368D01*
X79732389Y-107369369D01*
X79732387Y-107369369D01*
X79725861Y-107367204D01*
X79719025Y-107366504D01*
X79719022Y-107366503D01*
X79675969Y-107362092D01*
X79621400Y-107356501D01*
X79078225Y-107356501D01*
X79010104Y-107336499D01*
X78989130Y-107319596D01*
X75882905Y-104213371D01*
X75848879Y-104151059D01*
X75846000Y-104124276D01*
X75846000Y-100649323D01*
X75866002Y-100581202D01*
X75919658Y-100534709D01*
X75958392Y-100524060D01*
X75973848Y-100522381D01*
X76007316Y-100518745D01*
X76143705Y-100467615D01*
X76260261Y-100380261D01*
X76347615Y-100263705D01*
X76398745Y-100127316D01*
X76405500Y-100065134D01*
X76405500Y-98968866D01*
X76398745Y-98906684D01*
X76347615Y-98770295D01*
X76260261Y-98653739D01*
X76143705Y-98566385D01*
X76007316Y-98515255D01*
X75945134Y-98508500D01*
X74348866Y-98508500D01*
X74286684Y-98515255D01*
X74150295Y-98566385D01*
X74033739Y-98653739D01*
X74028358Y-98660919D01*
X73951767Y-98763113D01*
X73951765Y-98763116D01*
X73946385Y-98770295D01*
X73943236Y-98778696D01*
X73943234Y-98778699D01*
X73940035Y-98787233D01*
X73897393Y-98843996D01*
X73830831Y-98868695D01*
X73822054Y-98869001D01*
X73697779Y-98869001D01*
X73629658Y-98848999D01*
X73590636Y-98809305D01*
X73569334Y-98774882D01*
X73569328Y-98774874D01*
X73565478Y-98768653D01*
X73440303Y-98643696D01*
X73435765Y-98640899D01*
X73395176Y-98583648D01*
X73391946Y-98512725D01*
X73427572Y-98451314D01*
X73436068Y-98443939D01*
X73446207Y-98435903D01*
X73560739Y-98321172D01*
X73569751Y-98309761D01*
X73654816Y-98171758D01*
X73660963Y-98158577D01*
X73712138Y-98004291D01*
X73715005Y-97990915D01*
X73724672Y-97896563D01*
X73725000Y-97890147D01*
X73725000Y-97790116D01*
X73720525Y-97774877D01*
X73719135Y-97773672D01*
X73711452Y-97772001D01*
X71327116Y-97772001D01*
X71311877Y-97776476D01*
X71310672Y-97777866D01*
X71309001Y-97785549D01*
X71309001Y-97890096D01*
X71309338Y-97896615D01*
X71319257Y-97992207D01*
X71322149Y-98005601D01*
X71373588Y-98159785D01*
X71379761Y-98172963D01*
X71465063Y-98310808D01*
X71474099Y-98322209D01*
X71588828Y-98436739D01*
X71597762Y-98443795D01*
X71638823Y-98501713D01*
X71642053Y-98572636D01*
X71606426Y-98634047D01*
X71598593Y-98640847D01*
X71592652Y-98644523D01*
X71467695Y-98769698D01*
X71463855Y-98775928D01*
X71463854Y-98775929D01*
X71388595Y-98898022D01*
X71374885Y-98920263D01*
X71370140Y-98934569D01*
X71324312Y-99072738D01*
X71319203Y-99088140D01*
X71318503Y-99094976D01*
X71318502Y-99094979D01*
X71316327Y-99116206D01*
X71308500Y-99192601D01*
X71308500Y-99943401D01*
X64008500Y-99943401D01*
X64008500Y-97245886D01*
X71309000Y-97245886D01*
X71313475Y-97261125D01*
X71314865Y-97262330D01*
X71322548Y-97264001D01*
X72244885Y-97264001D01*
X72260124Y-97259526D01*
X72261329Y-97258136D01*
X72263000Y-97250453D01*
X72263000Y-96453117D01*
X72258525Y-96437878D01*
X72257135Y-96436673D01*
X72249452Y-96435002D01*
X72019905Y-96435002D01*
X72013386Y-96435339D01*
X71917794Y-96445258D01*
X71904400Y-96448150D01*
X71750216Y-96499589D01*
X71737038Y-96505762D01*
X71599193Y-96591064D01*
X71587792Y-96600100D01*
X71473261Y-96714830D01*
X71464249Y-96726241D01*
X71379184Y-96864244D01*
X71373037Y-96877425D01*
X71321862Y-97031711D01*
X71318995Y-97045087D01*
X71309328Y-97139439D01*
X71309000Y-97145856D01*
X71309000Y-97245886D01*
X64008500Y-97245886D01*
X64008500Y-86398134D01*
X65203500Y-86398134D01*
X65210255Y-86460316D01*
X65261385Y-86596705D01*
X65348739Y-86713261D01*
X65465295Y-86800615D01*
X65601684Y-86851745D01*
X65663866Y-86858500D01*
X66225500Y-86858500D01*
X66293621Y-86878502D01*
X66340114Y-86932158D01*
X66351500Y-86984500D01*
X66351500Y-87997980D01*
X66350970Y-88009214D01*
X66349292Y-88016719D01*
X66349541Y-88024638D01*
X66351438Y-88085012D01*
X66351500Y-88088969D01*
X66351500Y-88116983D01*
X66351996Y-88120908D01*
X66351996Y-88120909D01*
X66352008Y-88121004D01*
X66352941Y-88132849D01*
X66354335Y-88177205D01*
X66356547Y-88184817D01*
X66360013Y-88196748D01*
X66364023Y-88216112D01*
X66366573Y-88236299D01*
X66369489Y-88243663D01*
X66369490Y-88243668D01*
X66382907Y-88277556D01*
X66386752Y-88288785D01*
X66399131Y-88331393D01*
X66403169Y-88338220D01*
X66403170Y-88338223D01*
X66409488Y-88348906D01*
X66418188Y-88366664D01*
X66422761Y-88378215D01*
X66422765Y-88378221D01*
X66425681Y-88385588D01*
X66430339Y-88391999D01*
X66430340Y-88392001D01*
X66451764Y-88421488D01*
X66458281Y-88431410D01*
X66476826Y-88462768D01*
X66476829Y-88462772D01*
X66480866Y-88469598D01*
X66495250Y-88483982D01*
X66508091Y-88499016D01*
X66520058Y-88515487D01*
X66526166Y-88520540D01*
X66554255Y-88543777D01*
X66563035Y-88551767D01*
X68644750Y-90633483D01*
X68652326Y-90641809D01*
X68656447Y-90648303D01*
X68662222Y-90653726D01*
X68706265Y-90695085D01*
X68709107Y-90697840D01*
X68728906Y-90717639D01*
X68732031Y-90720063D01*
X68732040Y-90720071D01*
X68732126Y-90720137D01*
X68741151Y-90727845D01*
X68773494Y-90758217D01*
X68780438Y-90762035D01*
X68780440Y-90762036D01*
X68791329Y-90768022D01*
X68807847Y-90778873D01*
X68823933Y-90791350D01*
X68864666Y-90808976D01*
X68875314Y-90814193D01*
X68914197Y-90835569D01*
X68921872Y-90837540D01*
X68921878Y-90837542D01*
X68933911Y-90840631D01*
X68952613Y-90847034D01*
X68971292Y-90855117D01*
X69005128Y-90860476D01*
X69015127Y-90862060D01*
X69026740Y-90864465D01*
X69069718Y-90875500D01*
X69090065Y-90875500D01*
X69109777Y-90877051D01*
X69129879Y-90880235D01*
X69137771Y-90879489D01*
X69174056Y-90876059D01*
X69185914Y-90875500D01*
X84263601Y-90875500D01*
X84331722Y-90895502D01*
X84348908Y-90910109D01*
X84349420Y-90909540D01*
X84354332Y-90913963D01*
X84358747Y-90918866D01*
X84380329Y-90934546D01*
X84506354Y-91026109D01*
X84513248Y-91031118D01*
X84519276Y-91033802D01*
X84519278Y-91033803D01*
X84662868Y-91097733D01*
X84687712Y-91108794D01*
X84781112Y-91128647D01*
X84868056Y-91147128D01*
X84868061Y-91147128D01*
X84874513Y-91148500D01*
X85065487Y-91148500D01*
X85071939Y-91147128D01*
X85071944Y-91147128D01*
X85158888Y-91128647D01*
X85252288Y-91108794D01*
X85277132Y-91097733D01*
X85420722Y-91033803D01*
X85420724Y-91033802D01*
X85426752Y-91031118D01*
X85433647Y-91026109D01*
X85492817Y-90983119D01*
X85581253Y-90918866D01*
X85602290Y-90895502D01*
X85704621Y-90781852D01*
X85704622Y-90781851D01*
X85709040Y-90776944D01*
X85783975Y-90647153D01*
X85835358Y-90598160D01*
X85905071Y-90584724D01*
X85970982Y-90611110D01*
X86002213Y-90647153D01*
X86030960Y-90696944D01*
X86035378Y-90701851D01*
X86035379Y-90701852D01*
X86107411Y-90781852D01*
X86158747Y-90838866D01*
X86256021Y-90909540D01*
X86274202Y-90922749D01*
X86313248Y-90951118D01*
X86319276Y-90953802D01*
X86319278Y-90953803D01*
X86470714Y-91021226D01*
X86487712Y-91028794D01*
X86581112Y-91048647D01*
X86668056Y-91067128D01*
X86668061Y-91067128D01*
X86674513Y-91068500D01*
X86865487Y-91068500D01*
X86871939Y-91067128D01*
X86871944Y-91067128D01*
X86958888Y-91048647D01*
X87052288Y-91028794D01*
X87069286Y-91021226D01*
X87220722Y-90953803D01*
X87220724Y-90953802D01*
X87226752Y-90951118D01*
X87265799Y-90922749D01*
X87283979Y-90909540D01*
X87381253Y-90838866D01*
X87432589Y-90781852D01*
X87504621Y-90701852D01*
X87504622Y-90701851D01*
X87509040Y-90696944D01*
X87604527Y-90531556D01*
X87663542Y-90349928D01*
X87683504Y-90160000D01*
X87663542Y-89970072D01*
X87604527Y-89788444D01*
X87509040Y-89623056D01*
X87461683Y-89570460D01*
X87385675Y-89486045D01*
X87385674Y-89486044D01*
X87381253Y-89481134D01*
X87258911Y-89392247D01*
X87232094Y-89372763D01*
X87232093Y-89372762D01*
X87226752Y-89368882D01*
X87220724Y-89366198D01*
X87220722Y-89366197D01*
X87058319Y-89293891D01*
X87058318Y-89293891D01*
X87052288Y-89291206D01*
X87045833Y-89289834D01*
X87045830Y-89289833D01*
X87009616Y-89282136D01*
X86946716Y-89247984D01*
X86708404Y-89009671D01*
X86674379Y-88947359D01*
X86671500Y-88920576D01*
X86671500Y-88490584D01*
X86691502Y-88422463D01*
X86745158Y-88375970D01*
X86815432Y-88365866D01*
X86880012Y-88395360D01*
X86905219Y-88425219D01*
X86919104Y-88448100D01*
X87072985Y-88625432D01*
X87077117Y-88628820D01*
X87250416Y-88770917D01*
X87250422Y-88770921D01*
X87254544Y-88774301D01*
X87259180Y-88776940D01*
X87259183Y-88776942D01*
X87303332Y-88802073D01*
X87458590Y-88890451D01*
X87679289Y-88970561D01*
X87684538Y-88971510D01*
X87684541Y-88971511D01*
X87765615Y-88986171D01*
X87910330Y-89012340D01*
X87914469Y-89012535D01*
X87914476Y-89012536D01*
X87933440Y-89013430D01*
X87933449Y-89013430D01*
X87934929Y-89013500D01*
X88099950Y-89013500D01*
X88181299Y-89006597D01*
X88269637Y-88999102D01*
X88269641Y-88999101D01*
X88274948Y-88998651D01*
X88280103Y-88997313D01*
X88280109Y-88997312D01*
X88463677Y-88949667D01*
X88502206Y-88939667D01*
X88507072Y-88937475D01*
X88507075Y-88937474D01*
X88711417Y-88845424D01*
X88711420Y-88845423D01*
X88716278Y-88843234D01*
X88911041Y-88712112D01*
X88919646Y-88703904D01*
X89052662Y-88577012D01*
X89080927Y-88550049D01*
X89085594Y-88543777D01*
X89173803Y-88425219D01*
X89221078Y-88361679D01*
X89227573Y-88348906D01*
X89325069Y-88157144D01*
X89325069Y-88157143D01*
X89327487Y-88152388D01*
X89397111Y-87928160D01*
X89414202Y-87799216D01*
X89427261Y-87700690D01*
X89427261Y-87700687D01*
X89427961Y-87695407D01*
X89419152Y-87460784D01*
X89394195Y-87341840D01*
X89373373Y-87242602D01*
X89378960Y-87171826D01*
X89421925Y-87115305D01*
X89487898Y-87091035D01*
X89521355Y-87088696D01*
X89586828Y-87084118D01*
X89586834Y-87084117D01*
X89591212Y-87083811D01*
X89865970Y-87025409D01*
X89870099Y-87023906D01*
X89870103Y-87023905D01*
X90125781Y-86930846D01*
X90125785Y-86930844D01*
X90129926Y-86929337D01*
X90377942Y-86797464D01*
X90562327Y-86663501D01*
X90629195Y-86639642D01*
X90698347Y-86655723D01*
X90747827Y-86706637D01*
X90761926Y-86776220D01*
X90753540Y-86811820D01*
X90736370Y-86855187D01*
X90658064Y-87160170D01*
X90618600Y-87472562D01*
X90618600Y-87787438D01*
X90658064Y-88099830D01*
X90736370Y-88404813D01*
X90852284Y-88697577D01*
X90854186Y-88701036D01*
X90854187Y-88701039D01*
X90990872Y-88949667D01*
X91003976Y-88973504D01*
X91189055Y-89228244D01*
X91404602Y-89457778D01*
X91647218Y-89658487D01*
X91913076Y-89827206D01*
X91916655Y-89828890D01*
X91916662Y-89828894D01*
X92194394Y-89959584D01*
X92194398Y-89959586D01*
X92197984Y-89961273D01*
X92497448Y-90058575D01*
X92806746Y-90117577D01*
X92900300Y-90123463D01*
X93040358Y-90132275D01*
X93040374Y-90132276D01*
X93042353Y-90132400D01*
X93199647Y-90132400D01*
X93201626Y-90132276D01*
X93201642Y-90132275D01*
X93341700Y-90123463D01*
X93435254Y-90117577D01*
X93744552Y-90058575D01*
X94044016Y-89961273D01*
X94047602Y-89959586D01*
X94047606Y-89959584D01*
X94325338Y-89828894D01*
X94325345Y-89828890D01*
X94328924Y-89827206D01*
X94594782Y-89658487D01*
X94837398Y-89457778D01*
X95052945Y-89228244D01*
X95238024Y-88973504D01*
X95251129Y-88949667D01*
X95387813Y-88701039D01*
X95387814Y-88701036D01*
X95389716Y-88697577D01*
X95505630Y-88404813D01*
X95583936Y-88099830D01*
X95623400Y-87787438D01*
X95623400Y-87564593D01*
X96814039Y-87564593D01*
X96814239Y-87569922D01*
X96814239Y-87569923D01*
X96815870Y-87613370D01*
X96822848Y-87799216D01*
X96823943Y-87804434D01*
X96853071Y-87943255D01*
X96871062Y-88029001D01*
X96957302Y-88247377D01*
X96960071Y-88251940D01*
X97047101Y-88395360D01*
X97079104Y-88448100D01*
X97232985Y-88625432D01*
X97237117Y-88628820D01*
X97410416Y-88770917D01*
X97410422Y-88770921D01*
X97414544Y-88774301D01*
X97419180Y-88776940D01*
X97419183Y-88776942D01*
X97463332Y-88802073D01*
X97618590Y-88890451D01*
X97839289Y-88970561D01*
X97844538Y-88971510D01*
X97844541Y-88971511D01*
X97925615Y-88986171D01*
X98070330Y-89012340D01*
X98074469Y-89012535D01*
X98074476Y-89012536D01*
X98093440Y-89013430D01*
X98093449Y-89013430D01*
X98094929Y-89013500D01*
X98259950Y-89013500D01*
X98341299Y-89006597D01*
X98429637Y-88999102D01*
X98429641Y-88999101D01*
X98434948Y-88998651D01*
X98440103Y-88997313D01*
X98440109Y-88997312D01*
X98623677Y-88949667D01*
X98662206Y-88939667D01*
X98667072Y-88937475D01*
X98667075Y-88937474D01*
X98871417Y-88845424D01*
X98871420Y-88845423D01*
X98876278Y-88843234D01*
X99071041Y-88712112D01*
X99079646Y-88703904D01*
X99212662Y-88577012D01*
X99240927Y-88550049D01*
X99245594Y-88543777D01*
X99333803Y-88425219D01*
X99381078Y-88361679D01*
X99387573Y-88348906D01*
X99485069Y-88157144D01*
X99485069Y-88157143D01*
X99487487Y-88152388D01*
X99557111Y-87928160D01*
X99574202Y-87799216D01*
X99587261Y-87700690D01*
X99587261Y-87700687D01*
X99587961Y-87695407D01*
X99579152Y-87460784D01*
X99554195Y-87341840D01*
X99532035Y-87236226D01*
X99532034Y-87236223D01*
X99530938Y-87230999D01*
X99444698Y-87012623D01*
X99381406Y-86908321D01*
X99325664Y-86816461D01*
X99325662Y-86816458D01*
X99322896Y-86811900D01*
X99169015Y-86634568D01*
X99119406Y-86593891D01*
X98991584Y-86489083D01*
X98991578Y-86489079D01*
X98987456Y-86485699D01*
X98982820Y-86483060D01*
X98982817Y-86483058D01*
X98788053Y-86372192D01*
X98783410Y-86369549D01*
X98562711Y-86289439D01*
X98557462Y-86288490D01*
X98557459Y-86288489D01*
X98460178Y-86270898D01*
X98331670Y-86247660D01*
X98327531Y-86247465D01*
X98327524Y-86247464D01*
X98308560Y-86246570D01*
X98308551Y-86246570D01*
X98307071Y-86246500D01*
X98142050Y-86246500D01*
X98060701Y-86253403D01*
X97972363Y-86260898D01*
X97972359Y-86260899D01*
X97967052Y-86261349D01*
X97961897Y-86262687D01*
X97961891Y-86262688D01*
X97813280Y-86301260D01*
X97739794Y-86320333D01*
X97734928Y-86322525D01*
X97734925Y-86322526D01*
X97530583Y-86414576D01*
X97530580Y-86414577D01*
X97525722Y-86416766D01*
X97521298Y-86419745D01*
X97521297Y-86419745D01*
X97495324Y-86437231D01*
X97330959Y-86547888D01*
X97327102Y-86551567D01*
X97327100Y-86551569D01*
X97272253Y-86603891D01*
X97161073Y-86709951D01*
X97020922Y-86898321D01*
X97018506Y-86903072D01*
X97018504Y-86903076D01*
X96951223Y-87035409D01*
X96914513Y-87107612D01*
X96844889Y-87331840D01*
X96844188Y-87337129D01*
X96827092Y-87466116D01*
X96814039Y-87564593D01*
X95623400Y-87564593D01*
X95623400Y-87472562D01*
X95583936Y-87160170D01*
X95505630Y-86855187D01*
X95389716Y-86562423D01*
X95383749Y-86551569D01*
X95239933Y-86289968D01*
X95239931Y-86289965D01*
X95238024Y-86286496D01*
X95062538Y-86044960D01*
X95055273Y-86034960D01*
X95055272Y-86034958D01*
X95052945Y-86031756D01*
X94837398Y-85802222D01*
X94594782Y-85601513D01*
X94346413Y-85443893D01*
X94332271Y-85434918D01*
X94332270Y-85434918D01*
X94328924Y-85432794D01*
X94325345Y-85431110D01*
X94325338Y-85431106D01*
X94047606Y-85300416D01*
X94047602Y-85300414D01*
X94044016Y-85298727D01*
X93744552Y-85201425D01*
X93435254Y-85142423D01*
X93341700Y-85136537D01*
X93201642Y-85127725D01*
X93201626Y-85127724D01*
X93199647Y-85127600D01*
X93042353Y-85127600D01*
X93040374Y-85127724D01*
X93040358Y-85127725D01*
X92900300Y-85136537D01*
X92806746Y-85142423D01*
X92497448Y-85201425D01*
X92197984Y-85298727D01*
X92194398Y-85300414D01*
X92194394Y-85300416D01*
X91916662Y-85431106D01*
X91916655Y-85431110D01*
X91913076Y-85432794D01*
X91909730Y-85434918D01*
X91909729Y-85434918D01*
X91895587Y-85443893D01*
X91647218Y-85601513D01*
X91567249Y-85667669D01*
X91446413Y-85767633D01*
X91381176Y-85795643D01*
X91311151Y-85783936D01*
X91258571Y-85736229D01*
X91240131Y-85667669D01*
X91243841Y-85640066D01*
X91292753Y-85443893D01*
X91292754Y-85443888D01*
X91293817Y-85439624D01*
X91294713Y-85431106D01*
X91322719Y-85164636D01*
X91322719Y-85164633D01*
X91323178Y-85160267D01*
X91323025Y-85155873D01*
X91313529Y-84883939D01*
X91313528Y-84883933D01*
X91313375Y-84879542D01*
X91264598Y-84602913D01*
X91177797Y-84335765D01*
X91174750Y-84329516D01*
X91107293Y-84191211D01*
X91054660Y-84083298D01*
X91052205Y-84079659D01*
X91052202Y-84079653D01*
X90949645Y-83927606D01*
X90897585Y-83850424D01*
X90850805Y-83798469D01*
X90777474Y-83717027D01*
X90709629Y-83641678D01*
X90684828Y-83620867D01*
X90608359Y-83556702D01*
X90494450Y-83461121D01*
X90256236Y-83312269D01*
X90026099Y-83209805D01*
X90003639Y-83199805D01*
X90003637Y-83199804D01*
X89999625Y-83198018D01*
X89768711Y-83131805D01*
X89733837Y-83121805D01*
X89733836Y-83121805D01*
X89729610Y-83120593D01*
X89725260Y-83119982D01*
X89725257Y-83119981D01*
X89622310Y-83105513D01*
X89451448Y-83081500D01*
X89240854Y-83081500D01*
X89238668Y-83081653D01*
X89238664Y-83081653D01*
X89035173Y-83095882D01*
X89035168Y-83095883D01*
X89030788Y-83096189D01*
X88756030Y-83154591D01*
X88751901Y-83156094D01*
X88751897Y-83156095D01*
X88496219Y-83249154D01*
X88496215Y-83249156D01*
X88492074Y-83250663D01*
X88244058Y-83382536D01*
X88240499Y-83385122D01*
X88240497Y-83385123D01*
X88090752Y-83493919D01*
X88016808Y-83547642D01*
X88013644Y-83550698D01*
X88013641Y-83550700D01*
X87951337Y-83610867D01*
X87888441Y-83643799D01*
X87817724Y-83637499D01*
X87761960Y-83594215D01*
X87761615Y-83593295D01*
X87674261Y-83476739D01*
X87557705Y-83389385D01*
X87421316Y-83338255D01*
X87359134Y-83331500D01*
X84712866Y-83331500D01*
X84650684Y-83338255D01*
X84514295Y-83389385D01*
X84397739Y-83476739D01*
X84310385Y-83593295D01*
X84259255Y-83729684D01*
X84252500Y-83791866D01*
X84252500Y-86388134D01*
X84259255Y-86450316D01*
X84310385Y-86586705D01*
X84397739Y-86703261D01*
X84514295Y-86790615D01*
X84650684Y-86841745D01*
X84712866Y-86848500D01*
X85274500Y-86848500D01*
X85342621Y-86868502D01*
X85389114Y-86922158D01*
X85400500Y-86974500D01*
X85400500Y-89156980D01*
X85399970Y-89168214D01*
X85398292Y-89175719D01*
X85400411Y-89243148D01*
X85382558Y-89311864D01*
X85330389Y-89360019D01*
X85260468Y-89372325D01*
X85248276Y-89370353D01*
X85071944Y-89332872D01*
X85071939Y-89332872D01*
X85065487Y-89331500D01*
X84874513Y-89331500D01*
X84868061Y-89332872D01*
X84868056Y-89332872D01*
X84781113Y-89351353D01*
X84687712Y-89371206D01*
X84681682Y-89373891D01*
X84681681Y-89373891D01*
X84519278Y-89446197D01*
X84519276Y-89446198D01*
X84513248Y-89448882D01*
X84507907Y-89452762D01*
X84507906Y-89452763D01*
X84468857Y-89481134D01*
X84358747Y-89561134D01*
X84354332Y-89566037D01*
X84349420Y-89570460D01*
X84347779Y-89568638D01*
X84296790Y-89600050D01*
X84263601Y-89604500D01*
X75951176Y-89604500D01*
X75883055Y-89584498D01*
X75836562Y-89530842D01*
X75826458Y-89460568D01*
X75859326Y-89392247D01*
X76003945Y-89238244D01*
X76011211Y-89228244D01*
X76160129Y-89023275D01*
X76189024Y-88983504D01*
X76196140Y-88970561D01*
X76338813Y-88711039D01*
X76338814Y-88711036D01*
X76340716Y-88707577D01*
X76445257Y-88443539D01*
X76455177Y-88418483D01*
X76455177Y-88418482D01*
X76456630Y-88414813D01*
X76534936Y-88109830D01*
X76574400Y-87797438D01*
X76574400Y-87574593D01*
X77765039Y-87574593D01*
X77773848Y-87809216D01*
X77774943Y-87814434D01*
X77815944Y-88009841D01*
X77822062Y-88039001D01*
X77908302Y-88257377D01*
X77911071Y-88261940D01*
X78026484Y-88452134D01*
X78030104Y-88458100D01*
X78183985Y-88635432D01*
X78188117Y-88638820D01*
X78361416Y-88780917D01*
X78361422Y-88780921D01*
X78365544Y-88784301D01*
X78370180Y-88786940D01*
X78370183Y-88786942D01*
X78481408Y-88850255D01*
X78569590Y-88900451D01*
X78790289Y-88980561D01*
X78795538Y-88981510D01*
X78795541Y-88981511D01*
X78876615Y-88996171D01*
X79021330Y-89022340D01*
X79025469Y-89022535D01*
X79025476Y-89022536D01*
X79044440Y-89023430D01*
X79044449Y-89023430D01*
X79045929Y-89023500D01*
X79210950Y-89023500D01*
X79303334Y-89015661D01*
X79380637Y-89009102D01*
X79380641Y-89009101D01*
X79385948Y-89008651D01*
X79391103Y-89007313D01*
X79391109Y-89007312D01*
X79608035Y-88951009D01*
X79608034Y-88951009D01*
X79613206Y-88949667D01*
X79618072Y-88947475D01*
X79618075Y-88947474D01*
X79822417Y-88855424D01*
X79822420Y-88855423D01*
X79827278Y-88853234D01*
X79839861Y-88844763D01*
X79903270Y-88802073D01*
X80022041Y-88722112D01*
X80036383Y-88708431D01*
X80127621Y-88621394D01*
X80191927Y-88560049D01*
X80221323Y-88520540D01*
X80307426Y-88404813D01*
X80332078Y-88371679D01*
X80334986Y-88365961D01*
X80436069Y-88167144D01*
X80436069Y-88167143D01*
X80438487Y-88162388D01*
X80508111Y-87938160D01*
X80525836Y-87804434D01*
X80538261Y-87710690D01*
X80538261Y-87710687D01*
X80538961Y-87705407D01*
X80538386Y-87690077D01*
X80534120Y-87576465D01*
X80530152Y-87470784D01*
X80512358Y-87385978D01*
X80483035Y-87246226D01*
X80483034Y-87246223D01*
X80481938Y-87240999D01*
X80395698Y-87022623D01*
X80339091Y-86929337D01*
X80276664Y-86826461D01*
X80276662Y-86826458D01*
X80273896Y-86821900D01*
X80120015Y-86644568D01*
X80039192Y-86578297D01*
X79942584Y-86499083D01*
X79942578Y-86499079D01*
X79938456Y-86495699D01*
X79933820Y-86493060D01*
X79933817Y-86493058D01*
X79739053Y-86382192D01*
X79734410Y-86379549D01*
X79513711Y-86299439D01*
X79508462Y-86298490D01*
X79508459Y-86298489D01*
X79424395Y-86283288D01*
X79282670Y-86257660D01*
X79278531Y-86257465D01*
X79278524Y-86257464D01*
X79259560Y-86256570D01*
X79259551Y-86256570D01*
X79258071Y-86256500D01*
X79093050Y-86256500D01*
X79011701Y-86263403D01*
X78923363Y-86270898D01*
X78923359Y-86270899D01*
X78918052Y-86271349D01*
X78912897Y-86272687D01*
X78912891Y-86272688D01*
X78735177Y-86318814D01*
X78690794Y-86330333D01*
X78685928Y-86332525D01*
X78685925Y-86332526D01*
X78481583Y-86424576D01*
X78481580Y-86424577D01*
X78476722Y-86426766D01*
X78281959Y-86557888D01*
X78278102Y-86561567D01*
X78278100Y-86561569D01*
X78270351Y-86568961D01*
X78112073Y-86719951D01*
X77971922Y-86908321D01*
X77969506Y-86913072D01*
X77969504Y-86913076D01*
X77882698Y-87083811D01*
X77865513Y-87117612D01*
X77795889Y-87341840D01*
X77795188Y-87347129D01*
X77767065Y-87559310D01*
X77765039Y-87574593D01*
X76574400Y-87574593D01*
X76574400Y-87482562D01*
X76534936Y-87170170D01*
X76456630Y-86865187D01*
X76340716Y-86572423D01*
X76337238Y-86566096D01*
X76190933Y-86299968D01*
X76190931Y-86299965D01*
X76189024Y-86296496D01*
X76003945Y-86041756D01*
X75788398Y-85812222D01*
X75545782Y-85611513D01*
X75279924Y-85442794D01*
X75276345Y-85441110D01*
X75276338Y-85441106D01*
X74998606Y-85310416D01*
X74998602Y-85310414D01*
X74995016Y-85308727D01*
X74969438Y-85300416D01*
X74699328Y-85212652D01*
X74699329Y-85212652D01*
X74695552Y-85211425D01*
X74386254Y-85152423D01*
X74292700Y-85146537D01*
X74152642Y-85137725D01*
X74152626Y-85137724D01*
X74150647Y-85137600D01*
X73993353Y-85137600D01*
X73991374Y-85137724D01*
X73991358Y-85137725D01*
X73851300Y-85146537D01*
X73757746Y-85152423D01*
X73448448Y-85211425D01*
X73444671Y-85212652D01*
X73444672Y-85212652D01*
X73174563Y-85300416D01*
X73148984Y-85308727D01*
X73145398Y-85310414D01*
X73145394Y-85310416D01*
X72867662Y-85441106D01*
X72867655Y-85441110D01*
X72864076Y-85442794D01*
X72598218Y-85611513D01*
X72530337Y-85667669D01*
X72397413Y-85777633D01*
X72332176Y-85805643D01*
X72262151Y-85793936D01*
X72209571Y-85746229D01*
X72191131Y-85677669D01*
X72194841Y-85650066D01*
X72243753Y-85453893D01*
X72243754Y-85453888D01*
X72244817Y-85449624D01*
X72245420Y-85443893D01*
X72273719Y-85174636D01*
X72273719Y-85174633D01*
X72274178Y-85170267D01*
X72274025Y-85165873D01*
X72264529Y-84893939D01*
X72264528Y-84893933D01*
X72264375Y-84889542D01*
X72263388Y-84883939D01*
X72216360Y-84617236D01*
X72215598Y-84612913D01*
X72128797Y-84345765D01*
X72125750Y-84339516D01*
X72071687Y-84228672D01*
X72005660Y-84093298D01*
X72003205Y-84089659D01*
X72003202Y-84089653D01*
X71928418Y-83978781D01*
X71848585Y-83860424D01*
X71660629Y-83651678D01*
X71648712Y-83641678D01*
X71536644Y-83547642D01*
X71445450Y-83471121D01*
X71207236Y-83322269D01*
X70950625Y-83208018D01*
X70680610Y-83130593D01*
X70676260Y-83129982D01*
X70676257Y-83129981D01*
X70573310Y-83115513D01*
X70402448Y-83091500D01*
X70191854Y-83091500D01*
X70189668Y-83091653D01*
X70189664Y-83091653D01*
X69986173Y-83105882D01*
X69986168Y-83105883D01*
X69981788Y-83106189D01*
X69707030Y-83164591D01*
X69702901Y-83166094D01*
X69702897Y-83166095D01*
X69447219Y-83259154D01*
X69447215Y-83259156D01*
X69443074Y-83260663D01*
X69195058Y-83392536D01*
X69191499Y-83395122D01*
X69191497Y-83395123D01*
X68977363Y-83550700D01*
X68967808Y-83557642D01*
X68964644Y-83560698D01*
X68964641Y-83560700D01*
X68938330Y-83586109D01*
X68922182Y-83601703D01*
X68902337Y-83620867D01*
X68839441Y-83653799D01*
X68768724Y-83647499D01*
X68712960Y-83604215D01*
X68712615Y-83603295D01*
X68625261Y-83486739D01*
X68508705Y-83399385D01*
X68372316Y-83348255D01*
X68310134Y-83341500D01*
X65663866Y-83341500D01*
X65601684Y-83348255D01*
X65465295Y-83399385D01*
X65348739Y-83486739D01*
X65261385Y-83603295D01*
X65210255Y-83739684D01*
X65203500Y-83801866D01*
X65203500Y-86398134D01*
X64008500Y-86398134D01*
X64008500Y-82489733D01*
X74599822Y-82489733D01*
X74599975Y-82494121D01*
X74599975Y-82494127D01*
X74609276Y-82760458D01*
X74609625Y-82770458D01*
X74610387Y-82774781D01*
X74610388Y-82774788D01*
X74632400Y-82899624D01*
X74658402Y-83047087D01*
X74745203Y-83314235D01*
X74747131Y-83318188D01*
X74747133Y-83318193D01*
X74799669Y-83425906D01*
X74868340Y-83566702D01*
X74870795Y-83570341D01*
X74870798Y-83570347D01*
X74916093Y-83637499D01*
X75025415Y-83799576D01*
X75028360Y-83802847D01*
X75028361Y-83802848D01*
X75066020Y-83844672D01*
X75213371Y-84008322D01*
X75216733Y-84011143D01*
X75216734Y-84011144D01*
X75279303Y-84063646D01*
X75428550Y-84188879D01*
X75666764Y-84337731D01*
X75782673Y-84389337D01*
X75900915Y-84441982D01*
X75923375Y-84451982D01*
X75927603Y-84453194D01*
X75927602Y-84453194D01*
X76158516Y-84519407D01*
X76193390Y-84529407D01*
X76197740Y-84530018D01*
X76197743Y-84530019D01*
X76300690Y-84544487D01*
X76471552Y-84568500D01*
X76682146Y-84568500D01*
X76684332Y-84568347D01*
X76684336Y-84568347D01*
X76887827Y-84554118D01*
X76887832Y-84554117D01*
X76892212Y-84553811D01*
X77166970Y-84495409D01*
X77171099Y-84493906D01*
X77171103Y-84493905D01*
X77426781Y-84400846D01*
X77426785Y-84400844D01*
X77430926Y-84399337D01*
X77678942Y-84267464D01*
X77682503Y-84264877D01*
X77902629Y-84104947D01*
X77902632Y-84104944D01*
X77906192Y-84102358D01*
X77911482Y-84097250D01*
X77989702Y-84021713D01*
X78052598Y-83988781D01*
X78123315Y-83995081D01*
X78179399Y-84038613D01*
X78187749Y-84051841D01*
X78194212Y-84063646D01*
X78270715Y-84165724D01*
X78283276Y-84178285D01*
X78385351Y-84254786D01*
X78400946Y-84263324D01*
X78521394Y-84308478D01*
X78536649Y-84312105D01*
X78587514Y-84317631D01*
X78594328Y-84318000D01*
X79641885Y-84318000D01*
X79657124Y-84313525D01*
X79658329Y-84312135D01*
X79660000Y-84304452D01*
X79660000Y-84299884D01*
X80168000Y-84299884D01*
X80172475Y-84315123D01*
X80173865Y-84316328D01*
X80181548Y-84317999D01*
X81233669Y-84317999D01*
X81240490Y-84317629D01*
X81291352Y-84312105D01*
X81306604Y-84308479D01*
X81427054Y-84263324D01*
X81442649Y-84254786D01*
X81544724Y-84178285D01*
X81557285Y-84165724D01*
X81633786Y-84063649D01*
X81642324Y-84048054D01*
X81687478Y-83927606D01*
X81691105Y-83912351D01*
X81696631Y-83861486D01*
X81697000Y-83854672D01*
X81697000Y-82832115D01*
X81692525Y-82816876D01*
X81691135Y-82815671D01*
X81683452Y-82814000D01*
X80186115Y-82814000D01*
X80170876Y-82818475D01*
X80169671Y-82819865D01*
X80168000Y-82827548D01*
X80168000Y-84299884D01*
X79660000Y-84299884D01*
X79660000Y-82479733D01*
X93648822Y-82479733D01*
X93648975Y-82484121D01*
X93648975Y-82484127D01*
X93654079Y-82630267D01*
X93658625Y-82760458D01*
X93659387Y-82764781D01*
X93659388Y-82764788D01*
X93671260Y-82832115D01*
X93707402Y-83037087D01*
X93794203Y-83304235D01*
X93796131Y-83308188D01*
X93796133Y-83308193D01*
X93838532Y-83395123D01*
X93917340Y-83556702D01*
X93919795Y-83560341D01*
X93919798Y-83560347D01*
X93983602Y-83654940D01*
X94074415Y-83789576D01*
X94077360Y-83792847D01*
X94077361Y-83792848D01*
X94080132Y-83795925D01*
X94262371Y-83998322D01*
X94265733Y-84001143D01*
X94265734Y-84001144D01*
X94277652Y-84011144D01*
X94477550Y-84178879D01*
X94715764Y-84327731D01*
X94972375Y-84441982D01*
X95242390Y-84519407D01*
X95246740Y-84520018D01*
X95246743Y-84520019D01*
X95349690Y-84534487D01*
X95520552Y-84558500D01*
X95731146Y-84558500D01*
X95733332Y-84558347D01*
X95733336Y-84558347D01*
X95936827Y-84544118D01*
X95936832Y-84544117D01*
X95941212Y-84543811D01*
X96215970Y-84485409D01*
X96220099Y-84483906D01*
X96220103Y-84483905D01*
X96475781Y-84390846D01*
X96475785Y-84390844D01*
X96479926Y-84389337D01*
X96727942Y-84257464D01*
X96731628Y-84254786D01*
X96951629Y-84094947D01*
X96951632Y-84094944D01*
X96955192Y-84092358D01*
X96960482Y-84087250D01*
X97007504Y-84041841D01*
X97038703Y-84011713D01*
X97101598Y-83978781D01*
X97172315Y-83985081D01*
X97228399Y-84028613D01*
X97236749Y-84041841D01*
X97243212Y-84053646D01*
X97319715Y-84155724D01*
X97332276Y-84168285D01*
X97434351Y-84244786D01*
X97449946Y-84253324D01*
X97570394Y-84298478D01*
X97585649Y-84302105D01*
X97636514Y-84307631D01*
X97643328Y-84308000D01*
X98690885Y-84308000D01*
X98706124Y-84303525D01*
X98707329Y-84302135D01*
X98709000Y-84294452D01*
X98709000Y-80810116D01*
X98704525Y-80794877D01*
X98703135Y-80793672D01*
X98695452Y-80792001D01*
X97643331Y-80792001D01*
X97636510Y-80792371D01*
X97585648Y-80797895D01*
X97570396Y-80801521D01*
X97449946Y-80846676D01*
X97434351Y-80855214D01*
X97332276Y-80931715D01*
X97319715Y-80944276D01*
X97243210Y-81046356D01*
X97238462Y-81055029D01*
X97188204Y-81105174D01*
X97118813Y-81120188D01*
X97046952Y-81091040D01*
X96847829Y-80923956D01*
X96847826Y-80923954D01*
X96844450Y-80921121D01*
X96606236Y-80772269D01*
X96376099Y-80669805D01*
X96353639Y-80659805D01*
X96353637Y-80659804D01*
X96349625Y-80658018D01*
X96118711Y-80591805D01*
X96083837Y-80581805D01*
X96083836Y-80581805D01*
X96079610Y-80580593D01*
X96075260Y-80579982D01*
X96075257Y-80579981D01*
X95972310Y-80565513D01*
X95801448Y-80541500D01*
X95590854Y-80541500D01*
X95588668Y-80541653D01*
X95588664Y-80541653D01*
X95385173Y-80555882D01*
X95385168Y-80555883D01*
X95380788Y-80556189D01*
X95106030Y-80614591D01*
X95101901Y-80616094D01*
X95101897Y-80616095D01*
X94846219Y-80709154D01*
X94846215Y-80709156D01*
X94842074Y-80710663D01*
X94594058Y-80842536D01*
X94590499Y-80845122D01*
X94590497Y-80845123D01*
X94468229Y-80933956D01*
X94366808Y-81007642D01*
X94363644Y-81010698D01*
X94363641Y-81010700D01*
X94307382Y-81065029D01*
X94164748Y-81202769D01*
X93991812Y-81424118D01*
X93989616Y-81427922D01*
X93989611Y-81427929D01*
X93986038Y-81434118D01*
X93851364Y-81667381D01*
X93746138Y-81927824D01*
X93678183Y-82200376D01*
X93677724Y-82204744D01*
X93677723Y-82204749D01*
X93663556Y-82339542D01*
X93648822Y-82479733D01*
X79660000Y-82479733D01*
X79660000Y-82287885D01*
X80168000Y-82287885D01*
X80172475Y-82303124D01*
X80173865Y-82304329D01*
X80181548Y-82306000D01*
X81678884Y-82306000D01*
X81694123Y-82301525D01*
X81695328Y-82300135D01*
X81696999Y-82292452D01*
X81696999Y-81265331D01*
X81696629Y-81258510D01*
X81691105Y-81207648D01*
X81687479Y-81192396D01*
X81642324Y-81071946D01*
X81633786Y-81056351D01*
X81557285Y-80954276D01*
X81544724Y-80941715D01*
X81442649Y-80865214D01*
X81427054Y-80856676D01*
X81306606Y-80811522D01*
X81291351Y-80807895D01*
X81240486Y-80802369D01*
X81233672Y-80802000D01*
X80186115Y-80802000D01*
X80170876Y-80806475D01*
X80169671Y-80807865D01*
X80168000Y-80815548D01*
X80168000Y-82287885D01*
X79660000Y-82287885D01*
X79660000Y-80820116D01*
X79655525Y-80804877D01*
X79654135Y-80803672D01*
X79646452Y-80802001D01*
X78594331Y-80802001D01*
X78587510Y-80802371D01*
X78536648Y-80807895D01*
X78521396Y-80811521D01*
X78400946Y-80856676D01*
X78385351Y-80865214D01*
X78283276Y-80941715D01*
X78270715Y-80954276D01*
X78194210Y-81056356D01*
X78189462Y-81065029D01*
X78139204Y-81115174D01*
X78069813Y-81130188D01*
X77997952Y-81101040D01*
X77798829Y-80933956D01*
X77798826Y-80933954D01*
X77795450Y-80931121D01*
X77557236Y-80782269D01*
X77300625Y-80668018D01*
X77030610Y-80590593D01*
X77026260Y-80589982D01*
X77026257Y-80589981D01*
X76923310Y-80575513D01*
X76752448Y-80551500D01*
X76541854Y-80551500D01*
X76539668Y-80551653D01*
X76539664Y-80551653D01*
X76336173Y-80565882D01*
X76336168Y-80565883D01*
X76331788Y-80566189D01*
X76057030Y-80624591D01*
X76052901Y-80626094D01*
X76052897Y-80626095D01*
X75797219Y-80719154D01*
X75797215Y-80719156D01*
X75793074Y-80720663D01*
X75545058Y-80852536D01*
X75541499Y-80855122D01*
X75541497Y-80855123D01*
X75327363Y-81010700D01*
X75317808Y-81017642D01*
X75314644Y-81020698D01*
X75314641Y-81020700D01*
X75241802Y-81091040D01*
X75115748Y-81212769D01*
X74942812Y-81434118D01*
X74940616Y-81437922D01*
X74940611Y-81437929D01*
X74879777Y-81543298D01*
X74802364Y-81677381D01*
X74697138Y-81937824D01*
X74696073Y-81942097D01*
X74696072Y-81942099D01*
X74632741Y-82196107D01*
X74629183Y-82210376D01*
X74628724Y-82214744D01*
X74628723Y-82214749D01*
X74615607Y-82339542D01*
X74599822Y-82489733D01*
X64008500Y-82489733D01*
X64008500Y-73542095D01*
X88200001Y-73542095D01*
X88200338Y-73548614D01*
X88210257Y-73644206D01*
X88213149Y-73657600D01*
X88264588Y-73811784D01*
X88270761Y-73824962D01*
X88356063Y-73962807D01*
X88365099Y-73974208D01*
X88479829Y-74088739D01*
X88491240Y-74097751D01*
X88629243Y-74182816D01*
X88642424Y-74188963D01*
X88796710Y-74240138D01*
X88810086Y-74243005D01*
X88904438Y-74252672D01*
X88910854Y-74253000D01*
X89135885Y-74253000D01*
X89151124Y-74248525D01*
X89152329Y-74247135D01*
X89154000Y-74239452D01*
X89154000Y-74234884D01*
X89662000Y-74234884D01*
X89666475Y-74250123D01*
X89667865Y-74251328D01*
X89675548Y-74252999D01*
X89905095Y-74252999D01*
X89911614Y-74252662D01*
X90007206Y-74242743D01*
X90020600Y-74239851D01*
X90174784Y-74188412D01*
X90187962Y-74182239D01*
X90325807Y-74096937D01*
X90337208Y-74087901D01*
X90451739Y-73973171D01*
X90460751Y-73961760D01*
X90545816Y-73823757D01*
X90551963Y-73810576D01*
X90603138Y-73656290D01*
X90606005Y-73642914D01*
X90615672Y-73548562D01*
X90616000Y-73542146D01*
X90616000Y-73442115D01*
X90611525Y-73426876D01*
X90610135Y-73425671D01*
X90602452Y-73424000D01*
X89680115Y-73424000D01*
X89664876Y-73428475D01*
X89663671Y-73429865D01*
X89662000Y-73437548D01*
X89662000Y-74234884D01*
X89154000Y-74234884D01*
X89154000Y-73442115D01*
X89149525Y-73426876D01*
X89148135Y-73425671D01*
X89140452Y-73424000D01*
X88218116Y-73424000D01*
X88202877Y-73428475D01*
X88201672Y-73429865D01*
X88200001Y-73437548D01*
X88200001Y-73542095D01*
X64008500Y-73542095D01*
X64008500Y-73303669D01*
X91233001Y-73303669D01*
X91233371Y-73310490D01*
X91238895Y-73361352D01*
X91242521Y-73376604D01*
X91287676Y-73497054D01*
X91296214Y-73512649D01*
X91372715Y-73614724D01*
X91385276Y-73627285D01*
X91487351Y-73703786D01*
X91502946Y-73712324D01*
X91623394Y-73757478D01*
X91638649Y-73761105D01*
X91689514Y-73766631D01*
X91696328Y-73767000D01*
X91818885Y-73767000D01*
X91834124Y-73762525D01*
X91835329Y-73761135D01*
X91837000Y-73753452D01*
X91837000Y-73031115D01*
X91832525Y-73015876D01*
X91831135Y-73014671D01*
X91823452Y-73013000D01*
X91251116Y-73013000D01*
X91235877Y-73017475D01*
X91234672Y-73018865D01*
X91233001Y-73026548D01*
X91233001Y-73303669D01*
X64008500Y-73303669D01*
X64008500Y-66365657D01*
X87793000Y-66365657D01*
X87793301Y-66371805D01*
X87806812Y-66509603D01*
X87809195Y-66521638D01*
X87862767Y-66699076D01*
X87867441Y-66710416D01*
X87954460Y-66874077D01*
X87961249Y-66884294D01*
X88078397Y-67027933D01*
X88087041Y-67036637D01*
X88229856Y-67154784D01*
X88240027Y-67161644D01*
X88403076Y-67249804D01*
X88414381Y-67254556D01*
X88529692Y-67290250D01*
X88543795Y-67290456D01*
X88547000Y-67283701D01*
X88547000Y-66041115D01*
X88542525Y-66025876D01*
X88541135Y-66024671D01*
X88533452Y-66023000D01*
X87811115Y-66023000D01*
X87795876Y-66027475D01*
X87794671Y-66028865D01*
X87793000Y-66036548D01*
X87793000Y-66365657D01*
X64008500Y-66365657D01*
X64008500Y-65496885D01*
X87793000Y-65496885D01*
X87797475Y-65512124D01*
X87798865Y-65513329D01*
X87806548Y-65515000D01*
X88528885Y-65515000D01*
X88544124Y-65510525D01*
X88545329Y-65509135D01*
X88547000Y-65501452D01*
X88547000Y-64261076D01*
X88543027Y-64247545D01*
X88535232Y-64246425D01*
X88427479Y-64278138D01*
X88416111Y-64282731D01*
X88251846Y-64368607D01*
X88241585Y-64375321D01*
X88097127Y-64491468D01*
X88088368Y-64500046D01*
X87969222Y-64642039D01*
X87962292Y-64652159D01*
X87872998Y-64814585D01*
X87868166Y-64825858D01*
X87812120Y-65002538D01*
X87809570Y-65014532D01*
X87793393Y-65158761D01*
X87793000Y-65165785D01*
X87793000Y-65496885D01*
X64008500Y-65496885D01*
X64008500Y-65404500D01*
X64028502Y-65336379D01*
X64082158Y-65289886D01*
X64134500Y-65278500D01*
X86859377Y-65278500D01*
X86860148Y-65278502D01*
X86937721Y-65278976D01*
X86966152Y-65270850D01*
X86982915Y-65267272D01*
X86983753Y-65267152D01*
X87012187Y-65263080D01*
X87035564Y-65252451D01*
X87053087Y-65246004D01*
X87077771Y-65238949D01*
X87085365Y-65234157D01*
X87085368Y-65234156D01*
X87102780Y-65223170D01*
X87117865Y-65215030D01*
X87144782Y-65202792D01*
X87164235Y-65186030D01*
X87179239Y-65174927D01*
X87200958Y-65161224D01*
X87206897Y-65154499D01*
X87206901Y-65154496D01*
X87220532Y-65139062D01*
X87232724Y-65127018D01*
X87248327Y-65113573D01*
X87248329Y-65113570D01*
X87255127Y-65107713D01*
X87269094Y-65086165D01*
X87280385Y-65071291D01*
X87291431Y-65058783D01*
X87291432Y-65058782D01*
X87297378Y-65052049D01*
X87309943Y-65025287D01*
X87318263Y-65010309D01*
X87329471Y-64993017D01*
X87329473Y-64993012D01*
X87334352Y-64985485D01*
X87336922Y-64976892D01*
X87336924Y-64976887D01*
X87341711Y-64960880D01*
X87348372Y-64943436D01*
X87355467Y-64928324D01*
X87355468Y-64928322D01*
X87359281Y-64920200D01*
X87363830Y-64890983D01*
X87367613Y-64874268D01*
X87373515Y-64854534D01*
X87373516Y-64854528D01*
X87376086Y-64845934D01*
X87376296Y-64811494D01*
X87376329Y-64810711D01*
X87376500Y-64809614D01*
X87376500Y-64778623D01*
X87376502Y-64777853D01*
X87376952Y-64704215D01*
X87376952Y-64704214D01*
X87376976Y-64700279D01*
X87376592Y-64698935D01*
X87376500Y-64697590D01*
X87376500Y-61935657D01*
X87793000Y-61935657D01*
X87793301Y-61941805D01*
X87806812Y-62079603D01*
X87809195Y-62091638D01*
X87862767Y-62269076D01*
X87867441Y-62280416D01*
X87954460Y-62444077D01*
X87961249Y-62454294D01*
X88078397Y-62597933D01*
X88087041Y-62606637D01*
X88229856Y-62724784D01*
X88240027Y-62731644D01*
X88403076Y-62819804D01*
X88414381Y-62824556D01*
X88529692Y-62860250D01*
X88543795Y-62860456D01*
X88547000Y-62853701D01*
X88547000Y-62846924D01*
X89055000Y-62846924D01*
X89058973Y-62860455D01*
X89066768Y-62861575D01*
X89174521Y-62829862D01*
X89185889Y-62825269D01*
X89350154Y-62739393D01*
X89360415Y-62732679D01*
X89504873Y-62616532D01*
X89513632Y-62607954D01*
X89632778Y-62465961D01*
X89639708Y-62455841D01*
X89729002Y-62293415D01*
X89733834Y-62282142D01*
X89789880Y-62105462D01*
X89792430Y-62093468D01*
X89808607Y-61949239D01*
X89809000Y-61942215D01*
X89809000Y-61935657D01*
X96433000Y-61935657D01*
X96433301Y-61941805D01*
X96446812Y-62079603D01*
X96449195Y-62091638D01*
X96502767Y-62269076D01*
X96507441Y-62280416D01*
X96594460Y-62444077D01*
X96601249Y-62454294D01*
X96718397Y-62597933D01*
X96727041Y-62606637D01*
X96869856Y-62724784D01*
X96880027Y-62731644D01*
X97043076Y-62819804D01*
X97054381Y-62824556D01*
X97169692Y-62860250D01*
X97183795Y-62860456D01*
X97187000Y-62853701D01*
X97187000Y-62846924D01*
X97695000Y-62846924D01*
X97698973Y-62860455D01*
X97706768Y-62861575D01*
X97814521Y-62829862D01*
X97825889Y-62825269D01*
X97990154Y-62739393D01*
X98000415Y-62732679D01*
X98144873Y-62616532D01*
X98153632Y-62607954D01*
X98272778Y-62465961D01*
X98279708Y-62455841D01*
X98369002Y-62293415D01*
X98373834Y-62282142D01*
X98429880Y-62105462D01*
X98432430Y-62093468D01*
X98448607Y-61949239D01*
X98449000Y-61942215D01*
X98449000Y-61861115D01*
X98444525Y-61845876D01*
X98443135Y-61844671D01*
X98435452Y-61843000D01*
X97713115Y-61843000D01*
X97697876Y-61847475D01*
X97696671Y-61848865D01*
X97695000Y-61856548D01*
X97695000Y-62846924D01*
X97187000Y-62846924D01*
X97187000Y-61861115D01*
X97182525Y-61845876D01*
X97181135Y-61844671D01*
X97173452Y-61843000D01*
X96451115Y-61843000D01*
X96435876Y-61847475D01*
X96434671Y-61848865D01*
X96433000Y-61856548D01*
X96433000Y-61935657D01*
X89809000Y-61935657D01*
X89809000Y-61861115D01*
X89804525Y-61845876D01*
X89803135Y-61844671D01*
X89795452Y-61843000D01*
X89073115Y-61843000D01*
X89057876Y-61847475D01*
X89056671Y-61848865D01*
X89055000Y-61856548D01*
X89055000Y-62846924D01*
X88547000Y-62846924D01*
X88547000Y-61861115D01*
X88542525Y-61845876D01*
X88541135Y-61844671D01*
X88533452Y-61843000D01*
X87811115Y-61843000D01*
X87795876Y-61847475D01*
X87794671Y-61848865D01*
X87793000Y-61856548D01*
X87793000Y-61935657D01*
X87376500Y-61935657D01*
X87376500Y-60705500D01*
X87396502Y-60637379D01*
X87450158Y-60590886D01*
X87502500Y-60579500D01*
X87827666Y-60579500D01*
X87895787Y-60599502D01*
G37*
%TD.AperFunction*%
%TA.AperFunction,Conductor*%
G36*
X93296587Y-105093789D02*
G01*
X93341650Y-105122750D01*
X93581101Y-105362201D01*
X93629847Y-105401394D01*
X93628313Y-105403302D01*
X93648707Y-105423693D01*
X93650613Y-105422161D01*
X93689806Y-105470907D01*
X94146786Y-105927887D01*
X94173084Y-105949031D01*
X94195532Y-105967080D01*
X94194000Y-105968986D01*
X94214391Y-105989380D01*
X94216299Y-105987846D01*
X94255492Y-106036592D01*
X94712472Y-106493572D01*
X94715134Y-106495712D01*
X94761218Y-106532765D01*
X94759855Y-106534460D01*
X94780332Y-106554930D01*
X94782409Y-106553260D01*
X94819427Y-106599300D01*
X94823970Y-106604363D01*
X94857605Y-106637998D01*
X94871547Y-106645610D01*
X94873382Y-106645479D01*
X94891389Y-106633906D01*
X94892063Y-106634954D01*
X94941613Y-106607897D01*
X94986258Y-106606291D01*
X95038000Y-106613701D01*
X95138544Y-106599302D01*
X95208812Y-106609444D01*
X95262442Y-106655967D01*
X95282406Y-106724099D01*
X95281133Y-106741891D01*
X95266734Y-106842435D01*
X95273802Y-106891785D01*
X95274144Y-106894174D01*
X95264002Y-106964442D01*
X95246839Y-106989146D01*
X95234824Y-107011150D01*
X95234955Y-107012983D01*
X95239206Y-107019598D01*
X95276059Y-107056451D01*
X95281143Y-107061013D01*
X95327174Y-107098025D01*
X95325547Y-107100048D01*
X95345995Y-107120564D01*
X95347670Y-107119217D01*
X95386863Y-107167963D01*
X95843843Y-107624943D01*
X95880118Y-107654109D01*
X95892589Y-107664136D01*
X95891060Y-107666038D01*
X95911453Y-107686431D01*
X95913355Y-107684902D01*
X95952548Y-107733648D01*
X96409528Y-108190628D01*
X96412190Y-108192768D01*
X96458274Y-108229821D01*
X96456740Y-108231729D01*
X96477134Y-108252120D01*
X96479040Y-108250588D01*
X96518233Y-108299334D01*
X96975213Y-108756314D01*
X96977875Y-108758454D01*
X97023959Y-108795507D01*
X97022427Y-108797413D01*
X97042818Y-108817807D01*
X97044726Y-108816273D01*
X97083919Y-108865019D01*
X97323370Y-109104470D01*
X97357396Y-109166782D01*
X97352331Y-109237597D01*
X97323370Y-109282660D01*
X97083919Y-109522111D01*
X97044726Y-109570857D01*
X97042818Y-109569323D01*
X97022427Y-109589717D01*
X97023959Y-109591623D01*
X96975213Y-109630816D01*
X96518233Y-110087796D01*
X96479040Y-110136542D01*
X96477326Y-110135164D01*
X96456830Y-110155601D01*
X96458545Y-110157734D01*
X96412505Y-110194752D01*
X96407442Y-110199295D01*
X96373807Y-110232930D01*
X96366195Y-110246872D01*
X96366326Y-110248707D01*
X96377899Y-110266714D01*
X96376851Y-110267388D01*
X96403908Y-110316938D01*
X96405514Y-110361582D01*
X96398104Y-110413324D01*
X96409296Y-110491471D01*
X96412503Y-110513868D01*
X96402361Y-110584136D01*
X96355838Y-110637766D01*
X96287706Y-110657730D01*
X96269917Y-110656457D01*
X96169371Y-110642058D01*
X96117629Y-110649468D01*
X96047361Y-110639325D01*
X96022661Y-110622165D01*
X96000655Y-110610149D01*
X95998822Y-110610280D01*
X95992207Y-110614531D01*
X95955354Y-110651384D01*
X95950792Y-110656468D01*
X95913780Y-110702499D01*
X95911616Y-110700759D01*
X95891201Y-110721268D01*
X95892589Y-110722994D01*
X95843843Y-110762187D01*
X95386863Y-111219167D01*
X95347670Y-111267913D01*
X95345758Y-111266376D01*
X95325366Y-111286768D01*
X95326903Y-111288680D01*
X95278157Y-111327873D01*
X94821177Y-111784853D01*
X94781984Y-111833599D01*
X94780082Y-111832070D01*
X94759689Y-111852463D01*
X94761218Y-111854365D01*
X94712472Y-111893558D01*
X94255492Y-112350538D01*
X94216299Y-112399284D01*
X94214391Y-112397750D01*
X94194000Y-112418144D01*
X94195532Y-112420050D01*
X94146786Y-112459243D01*
X93689806Y-112916223D01*
X93650613Y-112964969D01*
X93648707Y-112963437D01*
X93628313Y-112983828D01*
X93629847Y-112985736D01*
X93581101Y-113024929D01*
X93341650Y-113264380D01*
X93279338Y-113298406D01*
X93208523Y-113293341D01*
X93163460Y-113264380D01*
X92924009Y-113024929D01*
X92875263Y-112985736D01*
X92876797Y-112983828D01*
X92856403Y-112963437D01*
X92854497Y-112964969D01*
X92817444Y-112918885D01*
X92815304Y-112916223D01*
X92358324Y-112459243D01*
X92309578Y-112420050D01*
X92311110Y-112418144D01*
X92290719Y-112397750D01*
X92288811Y-112399284D01*
X92285769Y-112395500D01*
X92249618Y-112350538D01*
X91792638Y-111893558D01*
X91743892Y-111854365D01*
X91745421Y-111852463D01*
X91725028Y-111832070D01*
X91723126Y-111833599D01*
X91686073Y-111787515D01*
X91683933Y-111784853D01*
X91226953Y-111327873D01*
X91178207Y-111288680D01*
X91179744Y-111286768D01*
X91159352Y-111266376D01*
X91157440Y-111267913D01*
X91144580Y-111251919D01*
X91118247Y-111219167D01*
X90661267Y-110762187D01*
X90612521Y-110722994D01*
X90614050Y-110721092D01*
X90593657Y-110700699D01*
X90591755Y-110702228D01*
X90571287Y-110676771D01*
X90552562Y-110653482D01*
X90095582Y-110196502D01*
X90046836Y-110157309D01*
X90048370Y-110155401D01*
X90027976Y-110135010D01*
X90026070Y-110136542D01*
X89989017Y-110090458D01*
X89986877Y-110087796D01*
X89529897Y-109630816D01*
X89481151Y-109591623D01*
X89482683Y-109589717D01*
X89462292Y-109569323D01*
X89460384Y-109570857D01*
X89437540Y-109542445D01*
X89421191Y-109522111D01*
X89181740Y-109282660D01*
X89147714Y-109220348D01*
X89152779Y-109149533D01*
X89181740Y-109104470D01*
X89421191Y-108865019D01*
X89460384Y-108816273D01*
X89462292Y-108817807D01*
X89482683Y-108797413D01*
X89481151Y-108795507D01*
X89527235Y-108758454D01*
X89529897Y-108756314D01*
X89986877Y-108299334D01*
X90026070Y-108250588D01*
X90027976Y-108252120D01*
X90048370Y-108231729D01*
X90046836Y-108229821D01*
X90092920Y-108192768D01*
X90095582Y-108190628D01*
X90552562Y-107733648D01*
X90591755Y-107684902D01*
X90593657Y-107686431D01*
X90614050Y-107666038D01*
X90612521Y-107664136D01*
X90624992Y-107654109D01*
X90661267Y-107624943D01*
X91118247Y-107167963D01*
X91157440Y-107119217D01*
X91159352Y-107120754D01*
X91179744Y-107100362D01*
X91178207Y-107098450D01*
X91180058Y-107096962D01*
X91226953Y-107059257D01*
X91683933Y-106602277D01*
X91723126Y-106553531D01*
X91725028Y-106555060D01*
X91745421Y-106534667D01*
X91743892Y-106532765D01*
X91789976Y-106495712D01*
X91792638Y-106493572D01*
X92249618Y-106036592D01*
X92288811Y-105987846D01*
X92290719Y-105989380D01*
X92311110Y-105968986D01*
X92309578Y-105967080D01*
X92332026Y-105949031D01*
X92358324Y-105927887D01*
X92815304Y-105470907D01*
X92854497Y-105422161D01*
X92856403Y-105423693D01*
X92876797Y-105403302D01*
X92875263Y-105401394D01*
X92924009Y-105362201D01*
X93163460Y-105122750D01*
X93225772Y-105088724D01*
X93296587Y-105093789D01*
G37*
%TD.AperFunction*%
%TA.AperFunction,Conductor*%
G36*
X97679491Y-104049900D02*
G01*
X97721875Y-104106857D01*
X97729694Y-104150552D01*
X97729694Y-104611187D01*
X97709692Y-104679308D01*
X97692789Y-104700283D01*
X97241589Y-105151482D01*
X97179277Y-105185507D01*
X97108461Y-105180442D01*
X97092110Y-105172974D01*
X97078286Y-105165426D01*
X97076450Y-105165557D01*
X97058443Y-105177130D01*
X97057769Y-105176082D01*
X97008218Y-105203140D01*
X96963574Y-105204746D01*
X96911833Y-105197336D01*
X96811289Y-105211735D01*
X96741021Y-105201593D01*
X96687391Y-105155070D01*
X96667427Y-105086938D01*
X96668700Y-105069145D01*
X96677801Y-105005596D01*
X96707258Y-104940999D01*
X96713433Y-104934364D01*
X97294483Y-104353314D01*
X97302809Y-104345738D01*
X97309303Y-104341617D01*
X97356086Y-104291798D01*
X97358840Y-104288957D01*
X97378639Y-104269158D01*
X97381063Y-104266033D01*
X97381071Y-104266024D01*
X97381137Y-104265938D01*
X97388845Y-104256913D01*
X97413790Y-104230349D01*
X97419217Y-104224570D01*
X97429023Y-104206733D01*
X97439873Y-104190217D01*
X97452350Y-104174131D01*
X97469976Y-104133398D01*
X97475192Y-104122751D01*
X97493279Y-104089851D01*
X97543625Y-104039792D01*
X97613042Y-104024899D01*
X97679491Y-104049900D01*
G37*
%TD.AperFunction*%
%TA.AperFunction,Conductor*%
G36*
X99447699Y-98572502D02*
G01*
X99468673Y-98589405D01*
X100018210Y-99138942D01*
X100052236Y-99201254D01*
X100054425Y-99214865D01*
X100071458Y-99376928D01*
X100130473Y-99558556D01*
X100133776Y-99564278D01*
X100133777Y-99564279D01*
X100139723Y-99574577D01*
X100225960Y-99723944D01*
X100230378Y-99728851D01*
X100230379Y-99728852D01*
X100275278Y-99778717D01*
X100353747Y-99865866D01*
X100452843Y-99937864D01*
X100464938Y-99946651D01*
X100508248Y-99978118D01*
X100512453Y-99979990D01*
X100560933Y-100030841D01*
X100574366Y-100100555D01*
X100547975Y-100166464D01*
X100492945Y-100206310D01*
X100488423Y-100207383D01*
X100469366Y-100216947D01*
X100336493Y-100283630D01*
X100336489Y-100283633D01*
X100330343Y-100286717D01*
X100325008Y-100291060D01*
X100325007Y-100291061D01*
X100281004Y-100326885D01*
X100248909Y-100353014D01*
X99718014Y-100883909D01*
X99715968Y-100886429D01*
X99655328Y-100961109D01*
X99655326Y-100961112D01*
X99650986Y-100966457D01*
X99571928Y-101124676D01*
X99570250Y-101131802D01*
X99570249Y-101131805D01*
X99566369Y-101148286D01*
X99531390Y-101296838D01*
X99531544Y-101473709D01*
X99532688Y-101478529D01*
X99520934Y-101547561D01*
X99473070Y-101599997D01*
X99404455Y-101618231D01*
X99394477Y-101617526D01*
X99387817Y-101615958D01*
X99380497Y-101615964D01*
X99380494Y-101615964D01*
X99298812Y-101616035D01*
X99210947Y-101616112D01*
X99202018Y-101618231D01*
X99045976Y-101655261D01*
X99045975Y-101655261D01*
X99038855Y-101656951D01*
X99032316Y-101660233D01*
X99032315Y-101660233D01*
X98886925Y-101733198D01*
X98886921Y-101733201D01*
X98880775Y-101736285D01*
X98875440Y-101740628D01*
X98875439Y-101740629D01*
X98848215Y-101762793D01*
X98799341Y-101802582D01*
X98268446Y-102333477D01*
X98266400Y-102335997D01*
X98205760Y-102410677D01*
X98205758Y-102410680D01*
X98201418Y-102416025D01*
X98122360Y-102574244D01*
X98120682Y-102581370D01*
X98120681Y-102581373D01*
X98083549Y-102739072D01*
X98081822Y-102746406D01*
X98081828Y-102753722D01*
X98081828Y-102753725D01*
X98081881Y-102814720D01*
X98081976Y-102923277D01*
X98083666Y-102930398D01*
X98107711Y-103031720D01*
X98122815Y-103095369D01*
X98126098Y-103101911D01*
X98126100Y-103101916D01*
X98146871Y-103143304D01*
X98159549Y-103213159D01*
X98132447Y-103278780D01*
X98123355Y-103288913D01*
X98025034Y-103387233D01*
X97971706Y-103440561D01*
X97963387Y-103448131D01*
X97956891Y-103452253D01*
X97951465Y-103458031D01*
X97951464Y-103458032D01*
X97910109Y-103502071D01*
X97907354Y-103504913D01*
X97887555Y-103524712D01*
X97885131Y-103527837D01*
X97885123Y-103527846D01*
X97885057Y-103527932D01*
X97877349Y-103536957D01*
X97846977Y-103569300D01*
X97843159Y-103576244D01*
X97843158Y-103576246D01*
X97837172Y-103587135D01*
X97826321Y-103603653D01*
X97813844Y-103619739D01*
X97796218Y-103660472D01*
X97791004Y-103671114D01*
X97772915Y-103704019D01*
X97722569Y-103754078D01*
X97653152Y-103768971D01*
X97586703Y-103743970D01*
X97544319Y-103687013D01*
X97536500Y-103643318D01*
X97536500Y-103203032D01*
X97537030Y-103191793D01*
X97538709Y-103184281D01*
X97536562Y-103115969D01*
X97536500Y-103112012D01*
X97536500Y-103084017D01*
X97535992Y-103079994D01*
X97535059Y-103068152D01*
X97533914Y-103031720D01*
X97533665Y-103023795D01*
X97527987Y-103004251D01*
X97523977Y-102984888D01*
X97522420Y-102972560D01*
X97522420Y-102972558D01*
X97521427Y-102964701D01*
X97518511Y-102957337D01*
X97518510Y-102957332D01*
X97505093Y-102923444D01*
X97501248Y-102912215D01*
X97491080Y-102877219D01*
X97488869Y-102869607D01*
X97478510Y-102852091D01*
X97469813Y-102834341D01*
X97462319Y-102815412D01*
X97436238Y-102779514D01*
X97429722Y-102769594D01*
X97411173Y-102738229D01*
X97411171Y-102738226D01*
X97407135Y-102731402D01*
X97392747Y-102717014D01*
X97379906Y-102701980D01*
X97372602Y-102691927D01*
X97367942Y-102685513D01*
X97333750Y-102657227D01*
X97324971Y-102649238D01*
X97059920Y-102384187D01*
X97025894Y-102321875D01*
X97030959Y-102251060D01*
X97073506Y-102194224D01*
X97092498Y-102182478D01*
X97148510Y-102154368D01*
X97154657Y-102151283D01*
X97183003Y-102128206D01*
X97233598Y-102087016D01*
X97233603Y-102087012D01*
X97236091Y-102084986D01*
X97766986Y-101554091D01*
X97813326Y-101497021D01*
X97829672Y-101476891D01*
X97829674Y-101476888D01*
X97834014Y-101471543D01*
X97913072Y-101313324D01*
X97915231Y-101304157D01*
X97951933Y-101148286D01*
X97951933Y-101148282D01*
X97953610Y-101141162D01*
X97953456Y-100964291D01*
X97952226Y-100959106D01*
X97964007Y-100889925D01*
X98011872Y-100837490D01*
X98080487Y-100819256D01*
X98091708Y-100820049D01*
X98104558Y-100821536D01*
X98266679Y-100821394D01*
X98281114Y-100819699D01*
X98438853Y-100782265D01*
X98452516Y-100777292D01*
X98597800Y-100704381D01*
X98609283Y-100696953D01*
X98682837Y-100637070D01*
X98687610Y-100632760D01*
X98758336Y-100562034D01*
X98765950Y-100548090D01*
X98765819Y-100546257D01*
X98761568Y-100539642D01*
X97826453Y-99604527D01*
X97792427Y-99542215D01*
X97794262Y-99516564D01*
X98460976Y-99516564D01*
X98461107Y-99518397D01*
X98465358Y-99525012D01*
X99117545Y-100177199D01*
X99131489Y-100184813D01*
X99133322Y-100184682D01*
X99139937Y-100180431D01*
X99213863Y-100106505D01*
X99218231Y-100101661D01*
X99278812Y-100027054D01*
X99286243Y-100015529D01*
X99358891Y-99870138D01*
X99363845Y-99856456D01*
X99401001Y-99698659D01*
X99402672Y-99684217D01*
X99402530Y-99522098D01*
X99400835Y-99507663D01*
X99363401Y-99349924D01*
X99358428Y-99336261D01*
X99285518Y-99190979D01*
X99278088Y-99179493D01*
X99218205Y-99105938D01*
X99213897Y-99101167D01*
X99054782Y-98942052D01*
X99040838Y-98934438D01*
X99039005Y-98934569D01*
X99032390Y-98938820D01*
X98468590Y-99502620D01*
X98460976Y-99516564D01*
X97794262Y-99516564D01*
X97797492Y-99471400D01*
X97826453Y-99426337D01*
X98663385Y-98589405D01*
X98725697Y-98555379D01*
X98752480Y-98552500D01*
X99379578Y-98552500D01*
X99447699Y-98572502D01*
G37*
%TD.AperFunction*%
%TD*%
M02*
