%TF.GenerationSoftware,KiCad,Pcbnew,(6.0.5)*%
%TF.CreationDate,2022-06-21T07:34:41+08:00*%
%TF.ProjectId,unnamed-3k-v2,756e6e61-6d65-4642-9d33-6b2d76322e6b,rev?*%
%TF.SameCoordinates,Original*%
%TF.FileFunction,Paste,Bot*%
%TF.FilePolarity,Positive*%
%FSLAX46Y46*%
G04 Gerber Fmt 4.6, Leading zero omitted, Abs format (unit mm)*
G04 Created by KiCad (PCBNEW (6.0.5)) date 2022-06-21 07:34:41*
%MOMM*%
%LPD*%
G01*
G04 APERTURE LIST*
G04 Aperture macros list*
%AMRoundRect*
0 Rectangle with rounded corners*
0 $1 Rounding radius*
0 $2 $3 $4 $5 $6 $7 $8 $9 X,Y pos of 4 corners*
0 Add a 4 corners polygon primitive as box body*
4,1,4,$2,$3,$4,$5,$6,$7,$8,$9,$2,$3,0*
0 Add four circle primitives for the rounded corners*
1,1,$1+$1,$2,$3*
1,1,$1+$1,$4,$5*
1,1,$1+$1,$6,$7*
1,1,$1+$1,$8,$9*
0 Add four rect primitives between the rounded corners*
20,1,$1+$1,$2,$3,$4,$5,0*
20,1,$1+$1,$4,$5,$6,$7,0*
20,1,$1+$1,$6,$7,$8,$9,0*
20,1,$1+$1,$8,$9,$2,$3,0*%
%AMRotRect*
0 Rectangle, with rotation*
0 The origin of the aperture is its center*
0 $1 length*
0 $2 width*
0 $3 Rotation angle, in degrees counterclockwise*
0 Add horizontal line*
21,1,$1,$2,0,0,$3*%
G04 Aperture macros list end*
%ADD10R,2.550000X2.500000*%
%ADD11RoundRect,0.250000X0.088388X-0.548008X0.548008X-0.088388X-0.088388X0.548008X-0.548008X0.088388X0*%
%ADD12RoundRect,0.250000X0.325000X0.450000X-0.325000X0.450000X-0.325000X-0.450000X0.325000X-0.450000X0*%
%ADD13RoundRect,0.250000X0.450000X-0.325000X0.450000X0.325000X-0.450000X0.325000X-0.450000X-0.325000X0*%
%ADD14RoundRect,0.250000X-0.450000X0.325000X-0.450000X-0.325000X0.450000X-0.325000X0.450000X0.325000X0*%
%ADD15RoundRect,0.250000X0.548008X0.088388X0.088388X0.548008X-0.548008X-0.088388X-0.088388X-0.548008X0*%
%ADD16R,0.700000X1.000000*%
%ADD17R,0.700000X0.600000*%
%ADD18R,0.600000X2.450000*%
%ADD19R,0.300000X2.450000*%
%ADD20RotRect,1.600000X0.550000X135.000000*%
%ADD21RotRect,1.600000X0.550000X45.000000*%
%ADD22RoundRect,0.250001X0.462499X0.624999X-0.462499X0.624999X-0.462499X-0.624999X0.462499X-0.624999X0*%
%ADD23R,1.800000X1.100000*%
%ADD24R,1.500000X1.000000*%
%ADD25RotRect,2.100000X1.800000X225.000000*%
%ADD26RoundRect,0.250000X-0.548008X-0.088388X-0.088388X-0.548008X0.548008X0.088388X0.088388X0.548008X0*%
%ADD27RoundRect,0.250000X-0.088388X0.548008X-0.548008X0.088388X0.088388X-0.548008X0.548008X-0.088388X0*%
G04 APERTURE END LIST*
D10*
%TO.C,MX2*%
X86036000Y-85090000D03*
X98963000Y-82550000D03*
%TD*%
%TO.C,MX3*%
X66987000Y-85100000D03*
X79914000Y-82560000D03*
%TD*%
%TO.C,MX1*%
X105087000Y-85090000D03*
X118014000Y-82550000D03*
%TD*%
D11*
%TO.C,C1*%
X96647000Y-100965000D03*
X98096568Y-99515432D03*
%TD*%
D12*
%TO.C,C6*%
X102616000Y-76073000D03*
X100566000Y-76073000D03*
%TD*%
D13*
%TO.C,C11*%
X72517000Y-99568001D03*
X72517000Y-97518001D03*
%TD*%
D14*
%TO.C,R3*%
X79121000Y-108440001D03*
X79121000Y-110490001D03*
%TD*%
D15*
%TO.C,R4*%
X88265000Y-116459000D03*
X86815432Y-115009432D03*
%TD*%
D13*
%TO.C,R5*%
X89408000Y-73170000D03*
X89408000Y-71120000D03*
%TD*%
%TO.C,R6*%
X96647000Y-73297000D03*
X96647000Y-71247000D03*
%TD*%
D16*
%TO.C,U2*%
X92091000Y-72759000D03*
D17*
X92091000Y-71059000D03*
X94091000Y-71059000D03*
X94091000Y-72959000D03*
%TD*%
D18*
%TO.C,USB1*%
X89896000Y-67184000D03*
X90671000Y-67184000D03*
D19*
X91371000Y-67184000D03*
X91871000Y-67184000D03*
X92371000Y-67184000D03*
X92871000Y-67184000D03*
X93371000Y-67184000D03*
X93871000Y-67184000D03*
X94371000Y-67184000D03*
X94871000Y-67184000D03*
D18*
X95571000Y-67184000D03*
X96346000Y-67184000D03*
%TD*%
D20*
%TO.C,U1*%
X98237658Y-110218870D03*
X97671972Y-110784555D03*
X97106287Y-111350241D03*
X96540602Y-111915926D03*
X95974916Y-112481612D03*
X95409231Y-113047297D03*
X94843545Y-113612982D03*
X94277860Y-114178668D03*
D21*
X92227250Y-114178668D03*
X91661565Y-113612982D03*
X91095879Y-113047297D03*
X90530194Y-112481612D03*
X89964508Y-111915926D03*
X89398823Y-111350241D03*
X88833138Y-110784555D03*
X88267452Y-110218870D03*
D20*
X88267452Y-108168260D03*
X88833138Y-107602575D03*
X89398823Y-107036889D03*
X89964508Y-106471204D03*
X90530194Y-105905518D03*
X91095879Y-105339833D03*
X91661565Y-104774148D03*
X92227250Y-104208462D03*
D21*
X94277860Y-104208462D03*
X94843545Y-104774148D03*
X95409231Y-105339833D03*
X95974916Y-105905518D03*
X96540602Y-106471204D03*
X97106287Y-107036889D03*
X97671972Y-107602575D03*
X98237658Y-108168260D03*
%TD*%
D22*
%TO.C,F1*%
X102743000Y-72644000D03*
X99768000Y-72644000D03*
%TD*%
D23*
%TO.C,SW1*%
X70127000Y-112158000D03*
X76327000Y-108458000D03*
X70127000Y-108458000D03*
X76327000Y-112158000D03*
%TD*%
D11*
%TO.C,C5*%
X102944432Y-107240568D03*
X104394000Y-105791000D03*
%TD*%
D24*
%TO.C,D5*%
X106135000Y-99517000D03*
X106135000Y-96317000D03*
X111035000Y-96317000D03*
X111035000Y-99517000D03*
%TD*%
D13*
%TO.C,C10*%
X113538000Y-98425000D03*
X113538000Y-96375000D03*
%TD*%
D24*
%TO.C,D4*%
X75147000Y-99517000D03*
X75147000Y-96317000D03*
X80047000Y-96317000D03*
X80047000Y-99517000D03*
%TD*%
D25*
%TO.C,Y1*%
X103613726Y-114475645D03*
X101563116Y-116526255D03*
X99936770Y-114899909D03*
X101987380Y-112849299D03*
%TD*%
D26*
%TO.C,C3*%
X97610432Y-117168432D03*
X99060000Y-118618000D03*
%TD*%
D15*
%TO.C,C2*%
X106097568Y-111939568D03*
X104648000Y-110490000D03*
%TD*%
D27*
%TO.C,C4*%
X92329000Y-118491000D03*
X90879432Y-119940568D03*
%TD*%
D11*
%TO.C,R2*%
X99388432Y-102922568D03*
X100838000Y-101473000D03*
%TD*%
%TO.C,R1*%
X100912432Y-104446568D03*
X102362000Y-102997000D03*
%TD*%
M02*
