%TF.GenerationSoftware,KiCad,Pcbnew,(6.0.5)*%
%TF.CreationDate,2022-06-21T07:34:41+08:00*%
%TF.ProjectId,unnamed-3k-v2,756e6e61-6d65-4642-9d33-6b2d76322e6b,rev?*%
%TF.SameCoordinates,Original*%
%TF.FileFunction,Legend,Bot*%
%TF.FilePolarity,Positive*%
%FSLAX46Y46*%
G04 Gerber Fmt 4.6, Leading zero omitted, Abs format (unit mm)*
G04 Created by KiCad (PCBNEW (6.0.5)) date 2022-06-21 07:34:41*
%MOMM*%
%LPD*%
G01*
G04 APERTURE LIST*
G04 Aperture macros list*
%AMRoundRect*
0 Rectangle with rounded corners*
0 $1 Rounding radius*
0 $2 $3 $4 $5 $6 $7 $8 $9 X,Y pos of 4 corners*
0 Add a 4 corners polygon primitive as box body*
4,1,4,$2,$3,$4,$5,$6,$7,$8,$9,$2,$3,0*
0 Add four circle primitives for the rounded corners*
1,1,$1+$1,$2,$3*
1,1,$1+$1,$4,$5*
1,1,$1+$1,$6,$7*
1,1,$1+$1,$8,$9*
0 Add four rect primitives between the rounded corners*
20,1,$1+$1,$2,$3,$4,$5,0*
20,1,$1+$1,$4,$5,$6,$7,0*
20,1,$1+$1,$6,$7,$8,$9,0*
20,1,$1+$1,$8,$9,$2,$3,0*%
G04 Aperture macros list end*
%ADD10C,0.150000*%
%ADD11C,0.120000*%
%ADD12C,3.102000*%
%ADD13C,4.089800*%
%ADD14C,1.852000*%
%ADD15RoundRect,0.051000X-1.275000X-1.250000X1.275000X-1.250000X1.275000X1.250000X-1.275000X1.250000X0*%
%ADD16RoundRect,0.301000X0.088388X-0.548008X0.548008X-0.088388X-0.088388X0.548008X-0.548008X0.088388X0*%
%ADD17RoundRect,0.301000X0.325000X0.450000X-0.325000X0.450000X-0.325000X-0.450000X0.325000X-0.450000X0*%
%ADD18RoundRect,0.301000X0.450000X-0.325000X0.450000X0.325000X-0.450000X0.325000X-0.450000X-0.325000X0*%
%ADD19RoundRect,0.301000X-0.450000X0.325000X-0.450000X-0.325000X0.450000X-0.325000X0.450000X0.325000X0*%
%ADD20RoundRect,0.301000X0.548008X0.088388X0.088388X0.548008X-0.548008X-0.088388X-0.088388X-0.548008X0*%
%ADD21RoundRect,0.051000X0.350000X-0.500000X0.350000X0.500000X-0.350000X0.500000X-0.350000X-0.500000X0*%
%ADD22RoundRect,0.051000X0.350000X-0.300000X0.350000X0.300000X-0.350000X0.300000X-0.350000X-0.300000X0*%
%ADD23C,0.752000*%
%ADD24RoundRect,0.051000X-0.300000X-1.225000X0.300000X-1.225000X0.300000X1.225000X-0.300000X1.225000X0*%
%ADD25RoundRect,0.051000X-0.150000X-1.225000X0.150000X-1.225000X0.150000X1.225000X-0.150000X1.225000X0*%
%ADD26RoundRect,0.051000X0.760140X-0.371231X-0.371231X0.760140X-0.760140X0.371231X0.371231X-0.760140X0*%
%ADD27RoundRect,0.051000X-0.371231X-0.760140X0.760140X0.371231X0.371231X0.760140X-0.760140X-0.371231X0*%
%ADD28RoundRect,0.301001X0.462499X0.624999X-0.462499X0.624999X-0.462499X-0.624999X0.462499X-0.624999X0*%
%ADD29RoundRect,0.051000X0.900000X0.550000X-0.900000X0.550000X-0.900000X-0.550000X0.900000X-0.550000X0*%
%ADD30RoundRect,0.051000X-0.750000X-0.500000X0.750000X-0.500000X0.750000X0.500000X-0.750000X0.500000X0*%
%ADD31RoundRect,0.051000X0.106066X1.378858X-1.378858X-0.106066X-0.106066X-1.378858X1.378858X0.106066X0*%
%ADD32RoundRect,0.301000X-0.548008X-0.088388X-0.088388X-0.548008X0.548008X0.088388X0.088388X0.548008X0*%
%ADD33RoundRect,0.301000X-0.088388X0.548008X-0.548008X0.088388X0.088388X-0.548008X0.548008X-0.088388X0*%
G04 APERTURE END LIST*
D10*
%TO.C,C1*%
X99811389Y-98432687D02*
X99878732Y-98432687D01*
X100013419Y-98365343D01*
X100080763Y-98298000D01*
X100148106Y-98163312D01*
X100148106Y-98028625D01*
X100114435Y-97927610D01*
X100013419Y-97759251D01*
X99912404Y-97658236D01*
X99744045Y-97557221D01*
X99643030Y-97523549D01*
X99508343Y-97523549D01*
X99373656Y-97590893D01*
X99306312Y-97658236D01*
X99238969Y-97792923D01*
X99238969Y-97860267D01*
X99205297Y-99173465D02*
X99609358Y-98769404D01*
X99407328Y-98971435D02*
X98700221Y-98264328D01*
X98868580Y-98298000D01*
X99003267Y-98298000D01*
X99104282Y-98264328D01*
%TO.C,C6*%
X101893666Y-78081142D02*
X101941285Y-78128761D01*
X102084142Y-78176380D01*
X102179380Y-78176380D01*
X102322238Y-78128761D01*
X102417476Y-78033523D01*
X102465095Y-77938285D01*
X102512714Y-77747809D01*
X102512714Y-77604952D01*
X102465095Y-77414476D01*
X102417476Y-77319238D01*
X102322238Y-77224000D01*
X102179380Y-77176380D01*
X102084142Y-77176380D01*
X101941285Y-77224000D01*
X101893666Y-77271619D01*
X101036523Y-77176380D02*
X101227000Y-77176380D01*
X101322238Y-77224000D01*
X101369857Y-77271619D01*
X101465095Y-77414476D01*
X101512714Y-77604952D01*
X101512714Y-77985904D01*
X101465095Y-78081142D01*
X101417476Y-78128761D01*
X101322238Y-78176380D01*
X101131761Y-78176380D01*
X101036523Y-78128761D01*
X100988904Y-78081142D01*
X100941285Y-77985904D01*
X100941285Y-77747809D01*
X100988904Y-77652571D01*
X101036523Y-77604952D01*
X101131761Y-77557333D01*
X101322238Y-77557333D01*
X101417476Y-77604952D01*
X101465095Y-77652571D01*
X101512714Y-77747809D01*
%TO.C,C11*%
X71223142Y-97909142D02*
X71270761Y-97861523D01*
X71318380Y-97718666D01*
X71318380Y-97623428D01*
X71270761Y-97480571D01*
X71175523Y-97385333D01*
X71080285Y-97337714D01*
X70889809Y-97290095D01*
X70746952Y-97290095D01*
X70556476Y-97337714D01*
X70461238Y-97385333D01*
X70366000Y-97480571D01*
X70318380Y-97623428D01*
X70318380Y-97718666D01*
X70366000Y-97861523D01*
X70413619Y-97909142D01*
X71318380Y-98861523D02*
X71318380Y-98290095D01*
X71318380Y-98575809D02*
X70318380Y-98575809D01*
X70461238Y-98480571D01*
X70556476Y-98385333D01*
X70604095Y-98290095D01*
X71318380Y-99813904D02*
X71318380Y-99242476D01*
X71318380Y-99528190D02*
X70318380Y-99528190D01*
X70461238Y-99432952D01*
X70556476Y-99337714D01*
X70604095Y-99242476D01*
%TO.C,R3*%
X81351380Y-109307333D02*
X80875190Y-108974000D01*
X81351380Y-108735904D02*
X80351380Y-108735904D01*
X80351380Y-109116857D01*
X80399000Y-109212095D01*
X80446619Y-109259714D01*
X80541857Y-109307333D01*
X80684714Y-109307333D01*
X80779952Y-109259714D01*
X80827571Y-109212095D01*
X80875190Y-109116857D01*
X80875190Y-108735904D01*
X80351380Y-109640666D02*
X80351380Y-110259714D01*
X80732333Y-109926380D01*
X80732333Y-110069238D01*
X80779952Y-110164476D01*
X80827571Y-110212095D01*
X80922809Y-110259714D01*
X81160904Y-110259714D01*
X81256142Y-110212095D01*
X81303761Y-110164476D01*
X81351380Y-110069238D01*
X81351380Y-109783523D01*
X81303761Y-109688285D01*
X81256142Y-109640666D01*
%TO.C,R4*%
X88908972Y-114129757D02*
X88336552Y-114230772D01*
X88504911Y-113725696D02*
X87797804Y-114432802D01*
X88067178Y-114702177D01*
X88168193Y-114735848D01*
X88235537Y-114735848D01*
X88336552Y-114702177D01*
X88437567Y-114601161D01*
X88471239Y-114500146D01*
X88471239Y-114432802D01*
X88437567Y-114331787D01*
X88168193Y-114062413D01*
X89043659Y-115207253D02*
X89515064Y-114735848D01*
X88605926Y-115308268D02*
X88942644Y-114634833D01*
X89380377Y-115072566D01*
%TO.C,R5*%
X89574666Y-75128380D02*
X89908000Y-74652190D01*
X90146095Y-75128380D02*
X90146095Y-74128380D01*
X89765142Y-74128380D01*
X89669904Y-74176000D01*
X89622285Y-74223619D01*
X89574666Y-74318857D01*
X89574666Y-74461714D01*
X89622285Y-74556952D01*
X89669904Y-74604571D01*
X89765142Y-74652190D01*
X90146095Y-74652190D01*
X88669904Y-74128380D02*
X89146095Y-74128380D01*
X89193714Y-74604571D01*
X89146095Y-74556952D01*
X89050857Y-74509333D01*
X88812761Y-74509333D01*
X88717523Y-74556952D01*
X88669904Y-74604571D01*
X88622285Y-74699809D01*
X88622285Y-74937904D01*
X88669904Y-75033142D01*
X88717523Y-75080761D01*
X88812761Y-75128380D01*
X89050857Y-75128380D01*
X89146095Y-75080761D01*
X89193714Y-75033142D01*
%TO.C,R6*%
X96813666Y-75255380D02*
X97147000Y-74779190D01*
X97385095Y-75255380D02*
X97385095Y-74255380D01*
X97004142Y-74255380D01*
X96908904Y-74303000D01*
X96861285Y-74350619D01*
X96813666Y-74445857D01*
X96813666Y-74588714D01*
X96861285Y-74683952D01*
X96908904Y-74731571D01*
X97004142Y-74779190D01*
X97385095Y-74779190D01*
X95956523Y-74255380D02*
X96147000Y-74255380D01*
X96242238Y-74303000D01*
X96289857Y-74350619D01*
X96385095Y-74493476D01*
X96432714Y-74683952D01*
X96432714Y-75064904D01*
X96385095Y-75160142D01*
X96337476Y-75207761D01*
X96242238Y-75255380D01*
X96051761Y-75255380D01*
X95956523Y-75207761D01*
X95908904Y-75160142D01*
X95861285Y-75064904D01*
X95861285Y-74826809D01*
X95908904Y-74731571D01*
X95956523Y-74683952D01*
X96051761Y-74636333D01*
X96242238Y-74636333D01*
X96337476Y-74683952D01*
X96385095Y-74731571D01*
X96432714Y-74826809D01*
%TO.C,U2*%
X93725904Y-73874380D02*
X93725904Y-74683904D01*
X93678285Y-74779142D01*
X93630666Y-74826761D01*
X93535428Y-74874380D01*
X93344952Y-74874380D01*
X93249714Y-74826761D01*
X93202095Y-74779142D01*
X93154476Y-74683904D01*
X93154476Y-73874380D01*
X92725904Y-73969619D02*
X92678285Y-73922000D01*
X92583047Y-73874380D01*
X92344952Y-73874380D01*
X92249714Y-73922000D01*
X92202095Y-73969619D01*
X92154476Y-74064857D01*
X92154476Y-74160095D01*
X92202095Y-74302952D01*
X92773523Y-74874380D01*
X92154476Y-74874380D01*
%TO.C,USB1*%
X94859095Y-68641380D02*
X94859095Y-69450904D01*
X94811476Y-69546142D01*
X94763857Y-69593761D01*
X94668619Y-69641380D01*
X94478142Y-69641380D01*
X94382904Y-69593761D01*
X94335285Y-69546142D01*
X94287666Y-69450904D01*
X94287666Y-68641380D01*
X93859095Y-69593761D02*
X93716238Y-69641380D01*
X93478142Y-69641380D01*
X93382904Y-69593761D01*
X93335285Y-69546142D01*
X93287666Y-69450904D01*
X93287666Y-69355666D01*
X93335285Y-69260428D01*
X93382904Y-69212809D01*
X93478142Y-69165190D01*
X93668619Y-69117571D01*
X93763857Y-69069952D01*
X93811476Y-69022333D01*
X93859095Y-68927095D01*
X93859095Y-68831857D01*
X93811476Y-68736619D01*
X93763857Y-68689000D01*
X93668619Y-68641380D01*
X93430523Y-68641380D01*
X93287666Y-68689000D01*
X92525761Y-69117571D02*
X92382904Y-69165190D01*
X92335285Y-69212809D01*
X92287666Y-69308047D01*
X92287666Y-69450904D01*
X92335285Y-69546142D01*
X92382904Y-69593761D01*
X92478142Y-69641380D01*
X92859095Y-69641380D01*
X92859095Y-68641380D01*
X92525761Y-68641380D01*
X92430523Y-68689000D01*
X92382904Y-68736619D01*
X92335285Y-68831857D01*
X92335285Y-68927095D01*
X92382904Y-69022333D01*
X92430523Y-69069952D01*
X92525761Y-69117571D01*
X92859095Y-69117571D01*
X91335285Y-69641380D02*
X91906714Y-69641380D01*
X91621000Y-69641380D02*
X91621000Y-68641380D01*
X91716238Y-68784238D01*
X91811476Y-68879476D01*
X91906714Y-68927095D01*
%TO.C,U1*%
X96604577Y-104764046D02*
X97176997Y-104191626D01*
X97278012Y-104157954D01*
X97345356Y-104157954D01*
X97446371Y-104191626D01*
X97581058Y-104326313D01*
X97614730Y-104427328D01*
X97614730Y-104494672D01*
X97581058Y-104595687D01*
X97008638Y-105168107D01*
X98422852Y-105168107D02*
X98018791Y-104764046D01*
X98220821Y-104966076D02*
X97513715Y-105673183D01*
X97547386Y-105504824D01*
X97547386Y-105370137D01*
X97513715Y-105269122D01*
%TO.C,F1*%
X101588833Y-70752571D02*
X101922166Y-70752571D01*
X101922166Y-71276380D02*
X101922166Y-70276380D01*
X101445976Y-70276380D01*
X100541214Y-71276380D02*
X101112642Y-71276380D01*
X100826928Y-71276380D02*
X100826928Y-70276380D01*
X100922166Y-70419238D01*
X101017404Y-70514476D01*
X101112642Y-70562095D01*
%TO.C,SW1*%
X74560333Y-114776761D02*
X74417476Y-114824380D01*
X74179380Y-114824380D01*
X74084142Y-114776761D01*
X74036523Y-114729142D01*
X73988904Y-114633904D01*
X73988904Y-114538666D01*
X74036523Y-114443428D01*
X74084142Y-114395809D01*
X74179380Y-114348190D01*
X74369857Y-114300571D01*
X74465095Y-114252952D01*
X74512714Y-114205333D01*
X74560333Y-114110095D01*
X74560333Y-114014857D01*
X74512714Y-113919619D01*
X74465095Y-113872000D01*
X74369857Y-113824380D01*
X74131761Y-113824380D01*
X73988904Y-113872000D01*
X73655571Y-113824380D02*
X73417476Y-114824380D01*
X73227000Y-114110095D01*
X73036523Y-114824380D01*
X72798428Y-113824380D01*
X71893666Y-114824380D02*
X72465095Y-114824380D01*
X72179380Y-114824380D02*
X72179380Y-113824380D01*
X72274619Y-113967238D01*
X72369857Y-114062476D01*
X72465095Y-114110095D01*
%TO.C,C5*%
X106161389Y-104655687D02*
X106228732Y-104655687D01*
X106363419Y-104588343D01*
X106430763Y-104521000D01*
X106498106Y-104386312D01*
X106498106Y-104251625D01*
X106464435Y-104150610D01*
X106363419Y-103982251D01*
X106262404Y-103881236D01*
X106094045Y-103780221D01*
X105993030Y-103746549D01*
X105858343Y-103746549D01*
X105723656Y-103813893D01*
X105656312Y-103881236D01*
X105588969Y-104015923D01*
X105588969Y-104083267D01*
X104881862Y-104655687D02*
X105218580Y-104318969D01*
X105588969Y-104622015D01*
X105521625Y-104622015D01*
X105420610Y-104655687D01*
X105252251Y-104824045D01*
X105218580Y-104925061D01*
X105218580Y-104992404D01*
X105252251Y-105093419D01*
X105420610Y-105261778D01*
X105521625Y-105295450D01*
X105588969Y-105295450D01*
X105689984Y-105261778D01*
X105858343Y-105093419D01*
X105892015Y-104992404D01*
X105892015Y-104925061D01*
%TO.C,D5*%
X109323095Y-101869380D02*
X109323095Y-100869380D01*
X109085000Y-100869380D01*
X108942142Y-100917000D01*
X108846904Y-101012238D01*
X108799285Y-101107476D01*
X108751666Y-101297952D01*
X108751666Y-101440809D01*
X108799285Y-101631285D01*
X108846904Y-101726523D01*
X108942142Y-101821761D01*
X109085000Y-101869380D01*
X109323095Y-101869380D01*
X107846904Y-100869380D02*
X108323095Y-100869380D01*
X108370714Y-101345571D01*
X108323095Y-101297952D01*
X108227857Y-101250333D01*
X107989761Y-101250333D01*
X107894523Y-101297952D01*
X107846904Y-101345571D01*
X107799285Y-101440809D01*
X107799285Y-101678904D01*
X107846904Y-101774142D01*
X107894523Y-101821761D01*
X107989761Y-101869380D01*
X108227857Y-101869380D01*
X108323095Y-101821761D01*
X108370714Y-101774142D01*
%TO.C,C10*%
X115545142Y-96757142D02*
X115592761Y-96709523D01*
X115640380Y-96566666D01*
X115640380Y-96471428D01*
X115592761Y-96328571D01*
X115497523Y-96233333D01*
X115402285Y-96185714D01*
X115211809Y-96138095D01*
X115068952Y-96138095D01*
X114878476Y-96185714D01*
X114783238Y-96233333D01*
X114688000Y-96328571D01*
X114640380Y-96471428D01*
X114640380Y-96566666D01*
X114688000Y-96709523D01*
X114735619Y-96757142D01*
X115640380Y-97709523D02*
X115640380Y-97138095D01*
X115640380Y-97423809D02*
X114640380Y-97423809D01*
X114783238Y-97328571D01*
X114878476Y-97233333D01*
X114926095Y-97138095D01*
X114640380Y-98328571D02*
X114640380Y-98423809D01*
X114688000Y-98519047D01*
X114735619Y-98566666D01*
X114830857Y-98614285D01*
X115021333Y-98661904D01*
X115259428Y-98661904D01*
X115449904Y-98614285D01*
X115545142Y-98566666D01*
X115592761Y-98519047D01*
X115640380Y-98423809D01*
X115640380Y-98328571D01*
X115592761Y-98233333D01*
X115545142Y-98185714D01*
X115449904Y-98138095D01*
X115259428Y-98090476D01*
X115021333Y-98090476D01*
X114830857Y-98138095D01*
X114735619Y-98185714D01*
X114688000Y-98233333D01*
X114640380Y-98328571D01*
%TO.C,D4*%
X78335095Y-101869380D02*
X78335095Y-100869380D01*
X78097000Y-100869380D01*
X77954142Y-100917000D01*
X77858904Y-101012238D01*
X77811285Y-101107476D01*
X77763666Y-101297952D01*
X77763666Y-101440809D01*
X77811285Y-101631285D01*
X77858904Y-101726523D01*
X77954142Y-101821761D01*
X78097000Y-101869380D01*
X78335095Y-101869380D01*
X76906523Y-101202714D02*
X76906523Y-101869380D01*
X77144619Y-100821761D02*
X77382714Y-101536047D01*
X76763666Y-101536047D01*
%TO.C,Y1*%
X99938453Y-112177547D02*
X100275171Y-112514265D01*
X99803766Y-111571456D02*
X99938453Y-112177547D01*
X99332362Y-112042860D01*
X99433377Y-113356058D02*
X99837438Y-112951997D01*
X99635407Y-113154028D02*
X98928301Y-112446921D01*
X99096659Y-112480593D01*
X99231346Y-112480593D01*
X99332362Y-112446921D01*
%TO.C,C3*%
X97303177Y-118689552D02*
X97303177Y-118622209D01*
X97235833Y-118487522D01*
X97168490Y-118420178D01*
X97033802Y-118352835D01*
X96899115Y-118352835D01*
X96798100Y-118386506D01*
X96629741Y-118487522D01*
X96528726Y-118588537D01*
X96427711Y-118756896D01*
X96394039Y-118857911D01*
X96394039Y-118992598D01*
X96461383Y-119127285D01*
X96528726Y-119194629D01*
X96663413Y-119261972D01*
X96730757Y-119261972D01*
X96899115Y-119565018D02*
X97336848Y-120002751D01*
X97370520Y-119497674D01*
X97471535Y-119598690D01*
X97572551Y-119632361D01*
X97639894Y-119632361D01*
X97740909Y-119598690D01*
X97909268Y-119430331D01*
X97942940Y-119329316D01*
X97942940Y-119261972D01*
X97909268Y-119160957D01*
X97707238Y-118958926D01*
X97606222Y-118925254D01*
X97538879Y-118925254D01*
%TO.C,C2*%
X106687687Y-109611610D02*
X106687687Y-109544267D01*
X106620343Y-109409580D01*
X106553000Y-109342236D01*
X106418312Y-109274893D01*
X106283625Y-109274893D01*
X106182610Y-109308564D01*
X106014251Y-109409580D01*
X105913236Y-109510595D01*
X105812221Y-109678954D01*
X105778549Y-109779969D01*
X105778549Y-109914656D01*
X105845893Y-110049343D01*
X105913236Y-110116687D01*
X106047923Y-110184030D01*
X106115267Y-110184030D01*
X106384641Y-110453404D02*
X106384641Y-110520748D01*
X106418312Y-110621763D01*
X106586671Y-110790122D01*
X106687687Y-110823793D01*
X106755030Y-110823793D01*
X106856045Y-110790122D01*
X106923389Y-110722778D01*
X106990732Y-110588091D01*
X106990732Y-109779969D01*
X107428465Y-110217702D01*
%TO.C,C4*%
X93207389Y-120530687D02*
X93274732Y-120530687D01*
X93409419Y-120463343D01*
X93476763Y-120396000D01*
X93544106Y-120261312D01*
X93544106Y-120126625D01*
X93510435Y-120025610D01*
X93409419Y-119857251D01*
X93308404Y-119756236D01*
X93140045Y-119655221D01*
X93039030Y-119621549D01*
X92904343Y-119621549D01*
X92769656Y-119688893D01*
X92702312Y-119756236D01*
X92634969Y-119890923D01*
X92634969Y-119958267D01*
X92197236Y-120732717D02*
X92668641Y-121204122D01*
X92096221Y-120294984D02*
X92769656Y-120631702D01*
X92331923Y-121069435D01*
%TO.C,R2*%
X102545732Y-100405030D02*
X102444717Y-99832610D01*
X102949793Y-100000969D02*
X102242687Y-99293862D01*
X101973312Y-99563236D01*
X101939641Y-99664251D01*
X101939641Y-99731595D01*
X101973312Y-99832610D01*
X102074328Y-99933625D01*
X102175343Y-99967297D01*
X102242687Y-99967297D01*
X102343702Y-99933625D01*
X102613076Y-99664251D01*
X101636595Y-100034641D02*
X101569251Y-100034641D01*
X101468236Y-100068312D01*
X101299877Y-100236671D01*
X101266206Y-100337687D01*
X101266206Y-100405030D01*
X101299877Y-100506045D01*
X101367221Y-100573389D01*
X101501908Y-100640732D01*
X102310030Y-100640732D01*
X101872297Y-101078465D01*
%TO.C,R1*%
X104069732Y-101929030D02*
X103968717Y-101356610D01*
X104473793Y-101524969D02*
X103766687Y-100817862D01*
X103497312Y-101087236D01*
X103463641Y-101188251D01*
X103463641Y-101255595D01*
X103497312Y-101356610D01*
X103598328Y-101457625D01*
X103699343Y-101491297D01*
X103766687Y-101491297D01*
X103867702Y-101457625D01*
X104137076Y-101188251D01*
X103396297Y-102602465D02*
X103800358Y-102198404D01*
X103598328Y-102400435D02*
X102891221Y-101693328D01*
X103059580Y-101727000D01*
X103194267Y-101727000D01*
X103295282Y-101693328D01*
D11*
%TO.C,C1*%
X96685005Y-99922903D02*
X97054471Y-99553437D01*
X97689097Y-100926995D02*
X98058563Y-100557529D01*
%TO.C,C6*%
X101852252Y-76783000D02*
X101329748Y-76783000D01*
X101852252Y-75363000D02*
X101329748Y-75363000D01*
%TO.C,C11*%
X71807000Y-98804253D02*
X71807000Y-98281749D01*
X73227000Y-98804253D02*
X73227000Y-98281749D01*
%TO.C,R3*%
X79831000Y-109203749D02*
X79831000Y-109726253D01*
X78411000Y-109203749D02*
X78411000Y-109726253D01*
%TO.C,R4*%
X87222903Y-116420995D02*
X86853437Y-116051529D01*
X88226995Y-115416903D02*
X87857529Y-115047437D01*
%TO.C,R5*%
X88698000Y-72406252D02*
X88698000Y-71883748D01*
X90118000Y-72406252D02*
X90118000Y-71883748D01*
%TO.C,R6*%
X95937000Y-72533252D02*
X95937000Y-72010748D01*
X97357000Y-72533252D02*
X97357000Y-72010748D01*
D10*
%TO.C,U2*%
X93741000Y-73459000D02*
X93741000Y-70559000D01*
X93741000Y-73459000D02*
X92441000Y-73459000D01*
X92441000Y-73459000D02*
X92441000Y-70559000D01*
X92441000Y-70559000D02*
X93741000Y-70559000D01*
%TO.C,U1*%
X93252555Y-104067041D02*
X93022745Y-104296851D01*
X88126031Y-109193565D02*
X88355841Y-108963755D01*
X98379079Y-109193565D02*
X98149269Y-108963755D01*
X98219980Y-109352664D02*
X99227607Y-110360291D01*
X98379079Y-109193565D02*
X98219980Y-109352664D01*
X93252555Y-114320089D02*
X93482365Y-114090279D01*
X88126031Y-109193565D02*
X88355841Y-109423375D01*
X93252555Y-104067041D02*
X93482365Y-104296851D01*
X93252555Y-114320089D02*
X93022745Y-114090279D01*
D11*
%TO.C,F1*%
X101857564Y-71734000D02*
X100653436Y-71734000D01*
X101857564Y-73554000D02*
X100653436Y-73554000D01*
D10*
%TO.C,SW1*%
X70627000Y-107708000D02*
X70627000Y-112908000D01*
X75827000Y-107708000D02*
X70627000Y-107708000D01*
X70627000Y-112908000D02*
X75827000Y-112908000D01*
X75827000Y-112908000D02*
X75827000Y-107708000D01*
X74227000Y-110308000D02*
G75*
G03*
X74227000Y-110308000I-1000000J0D01*
G01*
D11*
%TO.C,C5*%
X102982437Y-106198471D02*
X103351903Y-105829005D01*
X103986529Y-107202563D02*
X104355995Y-106833097D01*
%TO.C,D5*%
X104935000Y-95167000D02*
X112235000Y-95167000D01*
X112235000Y-95167000D02*
X112235000Y-96317000D01*
X104935000Y-100667000D02*
X112235000Y-100667000D01*
%TO.C,C10*%
X112828000Y-97661252D02*
X112828000Y-97138748D01*
X114248000Y-97661252D02*
X114248000Y-97138748D01*
%TO.C,D4*%
X73947000Y-95167000D02*
X81247000Y-95167000D01*
X73947000Y-100667000D02*
X81247000Y-100667000D01*
X81247000Y-95167000D02*
X81247000Y-96317000D01*
%TO.C,Y1*%
X105275427Y-114369579D02*
X101457050Y-118187956D01*
X102093446Y-111187598D02*
X105275427Y-114369579D01*
%TO.C,C3*%
X97648437Y-118210529D02*
X98017903Y-118579995D01*
X98652529Y-117206437D02*
X99021995Y-117575903D01*
%TO.C,C2*%
X105055471Y-111901563D02*
X104686005Y-111532097D01*
X106059563Y-110897471D02*
X105690097Y-110528005D01*
%TO.C,C4*%
X92290995Y-119533097D02*
X91921529Y-119902563D01*
X91286903Y-118529005D02*
X90917437Y-118898471D01*
%TO.C,R2*%
X99426437Y-101880471D02*
X99795903Y-101511005D01*
X100430529Y-102884563D02*
X100799995Y-102515097D01*
%TO.C,R1*%
X100950437Y-103404471D02*
X101319903Y-103035005D01*
X101954529Y-104408563D02*
X102323995Y-104039097D01*
%TD*%
%LPC*%
D12*
%TO.C,MX2*%
X89311000Y-85090000D03*
D13*
X93121000Y-87630000D03*
D12*
X95661000Y-82550000D03*
D14*
X98201000Y-87630000D03*
X88041000Y-87630000D03*
D15*
X86036000Y-85090000D03*
X98963000Y-82550000D03*
%TD*%
D14*
%TO.C,MX3*%
X68992000Y-87640000D03*
X79152000Y-87640000D03*
D13*
X74072000Y-87640000D03*
D12*
X70262000Y-85100000D03*
X76612000Y-82560000D03*
D15*
X66987000Y-85100000D03*
X79914000Y-82560000D03*
%TD*%
D13*
%TO.C,MX1*%
X112172000Y-87630000D03*
D14*
X117252000Y-87630000D03*
D12*
X108362000Y-85090000D03*
X114712000Y-82550000D03*
D14*
X107092000Y-87630000D03*
D15*
X105087000Y-85090000D03*
X118014000Y-82550000D03*
%TD*%
D16*
%TO.C,C1*%
X96647000Y-100965000D03*
X98096568Y-99515432D03*
%TD*%
D17*
%TO.C,C6*%
X102616000Y-76073000D03*
X100566000Y-76073000D03*
%TD*%
D18*
%TO.C,C11*%
X72517000Y-99568001D03*
X72517000Y-97518001D03*
%TD*%
D19*
%TO.C,R3*%
X79121000Y-108440001D03*
X79121000Y-110490001D03*
%TD*%
D20*
%TO.C,R4*%
X88265000Y-116459000D03*
X86815432Y-115009432D03*
%TD*%
D18*
%TO.C,R5*%
X89408000Y-73170000D03*
X89408000Y-71120000D03*
%TD*%
%TO.C,R6*%
X96647000Y-73297000D03*
X96647000Y-71247000D03*
%TD*%
D21*
%TO.C,U2*%
X92091000Y-72759000D03*
D22*
X92091000Y-71059000D03*
X94091000Y-71059000D03*
X94091000Y-72959000D03*
%TD*%
D23*
%TO.C,USB1*%
X96011000Y-65239000D03*
X90231000Y-65239000D03*
D24*
X89896000Y-67184000D03*
X90671000Y-67184000D03*
D25*
X91371000Y-67184000D03*
X91871000Y-67184000D03*
X92371000Y-67184000D03*
X92871000Y-67184000D03*
X93371000Y-67184000D03*
X93871000Y-67184000D03*
X94371000Y-67184000D03*
X94871000Y-67184000D03*
D24*
X95571000Y-67184000D03*
X96346000Y-67184000D03*
%TD*%
D26*
%TO.C,U1*%
X98237658Y-110218870D03*
X97671972Y-110784555D03*
X97106287Y-111350241D03*
X96540602Y-111915926D03*
X95974916Y-112481612D03*
X95409231Y-113047297D03*
X94843545Y-113612982D03*
X94277860Y-114178668D03*
D27*
X92227250Y-114178668D03*
X91661565Y-113612982D03*
X91095879Y-113047297D03*
X90530194Y-112481612D03*
X89964508Y-111915926D03*
X89398823Y-111350241D03*
X88833138Y-110784555D03*
X88267452Y-110218870D03*
D26*
X88267452Y-108168260D03*
X88833138Y-107602575D03*
X89398823Y-107036889D03*
X89964508Y-106471204D03*
X90530194Y-105905518D03*
X91095879Y-105339833D03*
X91661565Y-104774148D03*
X92227250Y-104208462D03*
D27*
X94277860Y-104208462D03*
X94843545Y-104774148D03*
X95409231Y-105339833D03*
X95974916Y-105905518D03*
X96540602Y-106471204D03*
X97106287Y-107036889D03*
X97671972Y-107602575D03*
X98237658Y-108168260D03*
%TD*%
D28*
%TO.C,F1*%
X102743000Y-72644000D03*
X99768000Y-72644000D03*
%TD*%
D29*
%TO.C,SW1*%
X70127000Y-112158000D03*
X76327000Y-108458000D03*
X70127000Y-108458000D03*
X76327000Y-112158000D03*
%TD*%
D16*
%TO.C,C5*%
X102944432Y-107240568D03*
X104394000Y-105791000D03*
%TD*%
D30*
%TO.C,D5*%
X106135000Y-99517000D03*
X106135000Y-96317000D03*
X111035000Y-96317000D03*
X111035000Y-99517000D03*
%TD*%
D18*
%TO.C,C10*%
X113538000Y-98425000D03*
X113538000Y-96375000D03*
%TD*%
D30*
%TO.C,D4*%
X75147000Y-99517000D03*
X75147000Y-96317000D03*
X80047000Y-96317000D03*
X80047000Y-99517000D03*
%TD*%
D31*
%TO.C,Y1*%
X103613726Y-114475645D03*
X101563116Y-116526255D03*
X99936770Y-114899909D03*
X101987380Y-112849299D03*
%TD*%
D32*
%TO.C,C3*%
X97610432Y-117168432D03*
X99060000Y-118618000D03*
%TD*%
D20*
%TO.C,C2*%
X106097568Y-111939568D03*
X104648000Y-110490000D03*
%TD*%
D33*
%TO.C,C4*%
X92329000Y-118491000D03*
X90879432Y-119940568D03*
%TD*%
D16*
%TO.C,R2*%
X99388432Y-102922568D03*
X100838000Y-101473000D03*
%TD*%
%TO.C,R1*%
X100912432Y-104446568D03*
X102362000Y-102997000D03*
%TD*%
M02*
