M48
; DRILL file {KiCad (6.0.5)} date Tue Jun 21 07:34:41 2022
; FORMAT={-:-/ absolute / inch / decimal}
; #@! TF.CreationDate,2022-06-21T07:34:41+08:00
; #@! TF.GenerationSoftware,Kicad,Pcbnew,(6.0.5)
; #@! TF.FileFunction,Plated,1,2,PTH
FMAT,2
INCH
; #@! TA.AperFunction,Plated,PTH,ViaDrill
T1C0.0157
; #@! TA.AperFunction,Plated,PTH,ComponentDrill
T2C0.0236
%
G90
G05
T1
X3.15Y-3.855
X3.295Y-4.35
X3.3453Y-3.5528
X3.365Y-3.855
X3.4161Y-3.5496
X3.445Y-4.405
X3.4732Y-3.8969
X3.5166Y-3.8945
X3.5559Y-3.8945
X3.585Y-4.055
X3.635Y-2.73
X3.715Y-2.73
X3.775Y-4.525
X3.795Y-2.73
X3.84Y-4.525
X3.885Y-2.73
X3.975Y-3.905
X4.0Y-4.175
X4.1646Y-3.5626
X4.27Y-3.905
T2
G00X3.4961Y-2.413
M15
G01X3.4961Y-2.4366
M16
G05
G00X3.4961Y-2.5677
M15
G01X3.4961Y-2.611
M16
G05
G00X3.8363Y-2.413
M15
G01X3.8363Y-2.4366
M16
G05
G00X3.8363Y-2.5677
M15
G01X3.8363Y-2.611
M16
G05
T0
M30
