G04 #@! TF.GenerationSoftware,KiCad,Pcbnew,(5.1.4)-1*
G04 #@! TF.CreationDate,2022-02-01T02:11:59+08:00*
G04 #@! TF.ProjectId,filled,66696c6c-6564-42e6-9b69-6361645f7063,rev?*
G04 #@! TF.SameCoordinates,Original*
G04 #@! TF.FileFunction,Copper,L1,Top*
G04 #@! TF.FilePolarity,Positive*
%FSLAX46Y46*%
G04 Gerber Fmt 4.6, Leading zero omitted, Abs format (unit mm)*
G04 Created by KiCad (PCBNEW (5.1.4)-1) date 2022-02-01 02:11:59*
%MOMM*%
%LPD*%
G04 APERTURE LIST*
%ADD10O,1.000000X2.100000*%
%ADD11O,1.000000X1.600000*%
%ADD12C,0.800000*%
%ADD13C,0.381000*%
%ADD14C,0.254000*%
G04 APERTURE END LIST*
D10*
X88801000Y-65769000D03*
X97441000Y-65769000D03*
D11*
X88801000Y-61589000D03*
X97441000Y-61589000D03*
D12*
X70104000Y-113792000D03*
X100330000Y-119888000D03*
X89535000Y-117729000D03*
X115443000Y-96393000D03*
X87249000Y-90170000D03*
X68199000Y-90170000D03*
X106299000Y-90297000D03*
X70866000Y-97536000D03*
X89662000Y-121158000D03*
X97536000Y-114935000D03*
X91059000Y-101219000D03*
X101092000Y-97155000D03*
X82296000Y-94107000D03*
X86487000Y-104521000D03*
X81661000Y-109601000D03*
X95885000Y-114935000D03*
X87503000Y-111887000D03*
X101600000Y-106045000D03*
X69850000Y-85217000D03*
X95758000Y-85217000D03*
X114681000Y-84455000D03*
X88935000Y-84490000D03*
X80010000Y-97917000D03*
X100965000Y-99187000D03*
X108458000Y-99187000D03*
X85471000Y-97917000D03*
X96392061Y-69342939D03*
X98679000Y-69342000D03*
X92329000Y-69342000D03*
X94361000Y-69342000D03*
X83693000Y-110490000D03*
X91059000Y-102997000D03*
X101092000Y-95123000D03*
X106045000Y-95123000D03*
D13*
X95885000Y-114935000D02*
X94043500Y-116776500D01*
X101581001Y-109238999D02*
X100393500Y-110426500D01*
X100393500Y-110426500D02*
X95885000Y-114935000D01*
X94043500Y-116776500D02*
X92392500Y-116776500D01*
X92392500Y-116776500D02*
X87503000Y-111887000D01*
X101581001Y-106063999D02*
X101581001Y-109238999D01*
D14*
X69850000Y-85217000D02*
X95758000Y-85217000D01*
X114646000Y-84490000D02*
X114681000Y-84455000D01*
X88935000Y-84490000D02*
X114646000Y-84490000D01*
X100965000Y-99187000D02*
X108458000Y-99187000D01*
X80010000Y-97917000D02*
X85471000Y-97917000D01*
D13*
X96392061Y-69342939D02*
X98678061Y-69342939D01*
X98678061Y-69342939D02*
X98679000Y-69342000D01*
D14*
X92329000Y-69342000D02*
X94361000Y-69342000D01*
X83693000Y-110490000D02*
X91059000Y-103124000D01*
X91059000Y-103124000D02*
X91059000Y-102997000D01*
X101092000Y-95123000D02*
X106045000Y-95123000D01*
G36*
X87800997Y-60737322D02*
G01*
X87712585Y-60943013D01*
X87666000Y-61162000D01*
X87666000Y-61462000D01*
X88674000Y-61462000D01*
X88674000Y-61442000D01*
X88928000Y-61442000D01*
X88928000Y-61462000D01*
X89936000Y-61462000D01*
X89936000Y-61162000D01*
X89889415Y-60943013D01*
X89801003Y-60737322D01*
X89796656Y-60731000D01*
X96445344Y-60731000D01*
X96440997Y-60737322D01*
X96352585Y-60943013D01*
X96306000Y-61162000D01*
X96306000Y-61462000D01*
X97314000Y-61462000D01*
X97314000Y-61442000D01*
X97568000Y-61442000D01*
X97568000Y-61462000D01*
X98576000Y-61462000D01*
X98576000Y-61162000D01*
X98529415Y-60943013D01*
X98441003Y-60737322D01*
X98436656Y-60731000D01*
X98781000Y-60731000D01*
X98781001Y-64737571D01*
X98777807Y-64770000D01*
X98790550Y-64899383D01*
X98828290Y-65023793D01*
X98889575Y-65138450D01*
X98972052Y-65238948D01*
X99072550Y-65321425D01*
X99187207Y-65382710D01*
X99311617Y-65420450D01*
X99408581Y-65430000D01*
X99441000Y-65433193D01*
X99473419Y-65430000D01*
X122149000Y-65430000D01*
X122149001Y-122410000D01*
X64160000Y-122410000D01*
X64160000Y-111785061D01*
X86468000Y-111785061D01*
X86468000Y-111988939D01*
X86507774Y-112188898D01*
X86585795Y-112377256D01*
X86699063Y-112546774D01*
X86843226Y-112690937D01*
X87012744Y-112804205D01*
X87201102Y-112882226D01*
X87362996Y-112914429D01*
X91780107Y-117331540D01*
X91805959Y-117363041D01*
X91870096Y-117415677D01*
X91931657Y-117466199D01*
X91981611Y-117492899D01*
X92075066Y-117542853D01*
X92230674Y-117590056D01*
X92351947Y-117602000D01*
X92351949Y-117602000D01*
X92392499Y-117605994D01*
X92433050Y-117602000D01*
X94002950Y-117602000D01*
X94043500Y-117605994D01*
X94084050Y-117602000D01*
X94084053Y-117602000D01*
X94205326Y-117590056D01*
X94360934Y-117542853D01*
X94504342Y-117466199D01*
X94630041Y-117363041D01*
X94655898Y-117331534D01*
X96025004Y-115962428D01*
X96186898Y-115930226D01*
X96375256Y-115852205D01*
X96544774Y-115738937D01*
X96688937Y-115594774D01*
X96802205Y-115425256D01*
X96880226Y-115236898D01*
X96912429Y-115075004D01*
X101005892Y-110981542D01*
X101005901Y-110981531D01*
X102136040Y-109851393D01*
X102167542Y-109825540D01*
X102240368Y-109736801D01*
X102270700Y-109699842D01*
X102347354Y-109556433D01*
X102378123Y-109455000D01*
X102394557Y-109400825D01*
X102406501Y-109279552D01*
X102406501Y-109279550D01*
X102410495Y-109239000D01*
X102406501Y-109198449D01*
X102406501Y-106700937D01*
X102517205Y-106535256D01*
X102595226Y-106346898D01*
X102635000Y-106146939D01*
X102635000Y-105943061D01*
X102595226Y-105743102D01*
X102517205Y-105554744D01*
X102403937Y-105385226D01*
X102259774Y-105241063D01*
X102090256Y-105127795D01*
X101901898Y-105049774D01*
X101701939Y-105010000D01*
X101498061Y-105010000D01*
X101298102Y-105049774D01*
X101109744Y-105127795D01*
X100940226Y-105241063D01*
X100796063Y-105385226D01*
X100682795Y-105554744D01*
X100604774Y-105743102D01*
X100565000Y-105943061D01*
X100565000Y-106146939D01*
X100604774Y-106346898D01*
X100682795Y-106535256D01*
X100755501Y-106644069D01*
X100755502Y-108897065D01*
X99838469Y-109814099D01*
X99838458Y-109814108D01*
X95744996Y-113907571D01*
X95583102Y-113939774D01*
X95394744Y-114017795D01*
X95225226Y-114131063D01*
X95081063Y-114275226D01*
X94967795Y-114444744D01*
X94889774Y-114633102D01*
X94857572Y-114794996D01*
X93701568Y-115951000D01*
X92734433Y-115951000D01*
X88530429Y-111746996D01*
X88498226Y-111585102D01*
X88420205Y-111396744D01*
X88306937Y-111227226D01*
X88162774Y-111083063D01*
X87993256Y-110969795D01*
X87804898Y-110891774D01*
X87604939Y-110852000D01*
X87401061Y-110852000D01*
X87201102Y-110891774D01*
X87012744Y-110969795D01*
X86843226Y-111083063D01*
X86699063Y-111227226D01*
X86585795Y-111396744D01*
X86507774Y-111585102D01*
X86468000Y-111785061D01*
X64160000Y-111785061D01*
X64160000Y-110388061D01*
X82658000Y-110388061D01*
X82658000Y-110591939D01*
X82697774Y-110791898D01*
X82775795Y-110980256D01*
X82889063Y-111149774D01*
X83033226Y-111293937D01*
X83202744Y-111407205D01*
X83391102Y-111485226D01*
X83591061Y-111525000D01*
X83794939Y-111525000D01*
X83994898Y-111485226D01*
X84183256Y-111407205D01*
X84352774Y-111293937D01*
X84496937Y-111149774D01*
X84610205Y-110980256D01*
X84688226Y-110791898D01*
X84728000Y-110591939D01*
X84728000Y-110532630D01*
X91245439Y-104015192D01*
X91360898Y-103992226D01*
X91549256Y-103914205D01*
X91718774Y-103800937D01*
X91862937Y-103656774D01*
X91976205Y-103487256D01*
X92054226Y-103298898D01*
X92094000Y-103098939D01*
X92094000Y-102895061D01*
X92054226Y-102695102D01*
X91976205Y-102506744D01*
X91862937Y-102337226D01*
X91718774Y-102193063D01*
X91549256Y-102079795D01*
X91360898Y-102001774D01*
X91160939Y-101962000D01*
X90957061Y-101962000D01*
X90757102Y-102001774D01*
X90568744Y-102079795D01*
X90399226Y-102193063D01*
X90255063Y-102337226D01*
X90141795Y-102506744D01*
X90063774Y-102695102D01*
X90024000Y-102895061D01*
X90024000Y-103081369D01*
X83650370Y-109455000D01*
X83591061Y-109455000D01*
X83391102Y-109494774D01*
X83202744Y-109572795D01*
X83033226Y-109686063D01*
X82889063Y-109830226D01*
X82775795Y-109999744D01*
X82697774Y-110188102D01*
X82658000Y-110388061D01*
X64160000Y-110388061D01*
X64160000Y-99085061D01*
X99930000Y-99085061D01*
X99930000Y-99288939D01*
X99969774Y-99488898D01*
X100047795Y-99677256D01*
X100161063Y-99846774D01*
X100305226Y-99990937D01*
X100474744Y-100104205D01*
X100663102Y-100182226D01*
X100863061Y-100222000D01*
X101066939Y-100222000D01*
X101266898Y-100182226D01*
X101455256Y-100104205D01*
X101624774Y-99990937D01*
X101666711Y-99949000D01*
X107756289Y-99949000D01*
X107798226Y-99990937D01*
X107967744Y-100104205D01*
X108156102Y-100182226D01*
X108356061Y-100222000D01*
X108559939Y-100222000D01*
X108759898Y-100182226D01*
X108948256Y-100104205D01*
X109117774Y-99990937D01*
X109261937Y-99846774D01*
X109375205Y-99677256D01*
X109453226Y-99488898D01*
X109493000Y-99288939D01*
X109493000Y-99085061D01*
X109453226Y-98885102D01*
X109375205Y-98696744D01*
X109261937Y-98527226D01*
X109117774Y-98383063D01*
X108948256Y-98269795D01*
X108759898Y-98191774D01*
X108559939Y-98152000D01*
X108356061Y-98152000D01*
X108156102Y-98191774D01*
X107967744Y-98269795D01*
X107798226Y-98383063D01*
X107756289Y-98425000D01*
X101666711Y-98425000D01*
X101624774Y-98383063D01*
X101455256Y-98269795D01*
X101266898Y-98191774D01*
X101066939Y-98152000D01*
X100863061Y-98152000D01*
X100663102Y-98191774D01*
X100474744Y-98269795D01*
X100305226Y-98383063D01*
X100161063Y-98527226D01*
X100047795Y-98696744D01*
X99969774Y-98885102D01*
X99930000Y-99085061D01*
X64160000Y-99085061D01*
X64160000Y-97815061D01*
X78975000Y-97815061D01*
X78975000Y-98018939D01*
X79014774Y-98218898D01*
X79092795Y-98407256D01*
X79206063Y-98576774D01*
X79350226Y-98720937D01*
X79519744Y-98834205D01*
X79708102Y-98912226D01*
X79908061Y-98952000D01*
X80111939Y-98952000D01*
X80311898Y-98912226D01*
X80500256Y-98834205D01*
X80669774Y-98720937D01*
X80711711Y-98679000D01*
X84769289Y-98679000D01*
X84811226Y-98720937D01*
X84980744Y-98834205D01*
X85169102Y-98912226D01*
X85369061Y-98952000D01*
X85572939Y-98952000D01*
X85772898Y-98912226D01*
X85961256Y-98834205D01*
X86130774Y-98720937D01*
X86274937Y-98576774D01*
X86388205Y-98407256D01*
X86466226Y-98218898D01*
X86506000Y-98018939D01*
X86506000Y-97815061D01*
X86466226Y-97615102D01*
X86388205Y-97426744D01*
X86274937Y-97257226D01*
X86130774Y-97113063D01*
X85961256Y-96999795D01*
X85772898Y-96921774D01*
X85572939Y-96882000D01*
X85369061Y-96882000D01*
X85169102Y-96921774D01*
X84980744Y-96999795D01*
X84811226Y-97113063D01*
X84769289Y-97155000D01*
X80711711Y-97155000D01*
X80669774Y-97113063D01*
X80500256Y-96999795D01*
X80311898Y-96921774D01*
X80111939Y-96882000D01*
X79908061Y-96882000D01*
X79708102Y-96921774D01*
X79519744Y-96999795D01*
X79350226Y-97113063D01*
X79206063Y-97257226D01*
X79092795Y-97426744D01*
X79014774Y-97615102D01*
X78975000Y-97815061D01*
X64160000Y-97815061D01*
X64160000Y-95021061D01*
X100057000Y-95021061D01*
X100057000Y-95224939D01*
X100096774Y-95424898D01*
X100174795Y-95613256D01*
X100288063Y-95782774D01*
X100432226Y-95926937D01*
X100601744Y-96040205D01*
X100790102Y-96118226D01*
X100990061Y-96158000D01*
X101193939Y-96158000D01*
X101393898Y-96118226D01*
X101582256Y-96040205D01*
X101751774Y-95926937D01*
X101793711Y-95885000D01*
X105343289Y-95885000D01*
X105385226Y-95926937D01*
X105554744Y-96040205D01*
X105743102Y-96118226D01*
X105943061Y-96158000D01*
X106146939Y-96158000D01*
X106346898Y-96118226D01*
X106535256Y-96040205D01*
X106704774Y-95926937D01*
X106848937Y-95782774D01*
X106962205Y-95613256D01*
X107040226Y-95424898D01*
X107080000Y-95224939D01*
X107080000Y-95021061D01*
X107040226Y-94821102D01*
X106962205Y-94632744D01*
X106848937Y-94463226D01*
X106704774Y-94319063D01*
X106535256Y-94205795D01*
X106346898Y-94127774D01*
X106146939Y-94088000D01*
X105943061Y-94088000D01*
X105743102Y-94127774D01*
X105554744Y-94205795D01*
X105385226Y-94319063D01*
X105343289Y-94361000D01*
X101793711Y-94361000D01*
X101751774Y-94319063D01*
X101582256Y-94205795D01*
X101393898Y-94127774D01*
X101193939Y-94088000D01*
X100990061Y-94088000D01*
X100790102Y-94127774D01*
X100601744Y-94205795D01*
X100432226Y-94319063D01*
X100288063Y-94463226D01*
X100174795Y-94632744D01*
X100096774Y-94821102D01*
X100057000Y-95021061D01*
X64160000Y-95021061D01*
X64160000Y-92499721D01*
X69395000Y-92499721D01*
X69395000Y-92920279D01*
X69477047Y-93332756D01*
X69637988Y-93721302D01*
X69871637Y-94070983D01*
X70169017Y-94368363D01*
X70518698Y-94602012D01*
X70907244Y-94762953D01*
X71319721Y-94845000D01*
X71740279Y-94845000D01*
X72152756Y-94762953D01*
X72541302Y-94602012D01*
X72890983Y-94368363D01*
X73188363Y-94070983D01*
X73422012Y-93721302D01*
X73582953Y-93332756D01*
X73665000Y-92920279D01*
X73665000Y-92499721D01*
X88446000Y-92499721D01*
X88446000Y-92920279D01*
X88528047Y-93332756D01*
X88688988Y-93721302D01*
X88922637Y-94070983D01*
X89220017Y-94368363D01*
X89569698Y-94602012D01*
X89958244Y-94762953D01*
X90370721Y-94845000D01*
X90791279Y-94845000D01*
X91203756Y-94762953D01*
X91592302Y-94602012D01*
X91941983Y-94368363D01*
X92239363Y-94070983D01*
X92473012Y-93721302D01*
X92633953Y-93332756D01*
X92716000Y-92920279D01*
X92716000Y-92499721D01*
X92714011Y-92489721D01*
X107495000Y-92489721D01*
X107495000Y-92910279D01*
X107577047Y-93322756D01*
X107737988Y-93711302D01*
X107971637Y-94060983D01*
X108269017Y-94358363D01*
X108618698Y-94592012D01*
X109007244Y-94752953D01*
X109419721Y-94835000D01*
X109840279Y-94835000D01*
X110252756Y-94752953D01*
X110641302Y-94592012D01*
X110990983Y-94358363D01*
X111288363Y-94060983D01*
X111522012Y-93711302D01*
X111682953Y-93322756D01*
X111765000Y-92910279D01*
X111765000Y-92489721D01*
X111682953Y-92077244D01*
X111522012Y-91688698D01*
X111288363Y-91339017D01*
X110990983Y-91041637D01*
X110641302Y-90807988D01*
X110252756Y-90647047D01*
X109840279Y-90565000D01*
X109419721Y-90565000D01*
X109007244Y-90647047D01*
X108618698Y-90807988D01*
X108269017Y-91041637D01*
X107971637Y-91339017D01*
X107737988Y-91688698D01*
X107577047Y-92077244D01*
X107495000Y-92489721D01*
X92714011Y-92489721D01*
X92633953Y-92087244D01*
X92473012Y-91698698D01*
X92239363Y-91349017D01*
X91941983Y-91051637D01*
X91592302Y-90817988D01*
X91203756Y-90657047D01*
X90791279Y-90575000D01*
X90370721Y-90575000D01*
X89958244Y-90657047D01*
X89569698Y-90817988D01*
X89220017Y-91051637D01*
X88922637Y-91349017D01*
X88688988Y-91698698D01*
X88528047Y-92087244D01*
X88446000Y-92499721D01*
X73665000Y-92499721D01*
X73582953Y-92087244D01*
X73422012Y-91698698D01*
X73188363Y-91349017D01*
X72890983Y-91051637D01*
X72541302Y-90817988D01*
X72152756Y-90657047D01*
X71740279Y-90575000D01*
X71319721Y-90575000D01*
X70907244Y-90657047D01*
X70518698Y-90817988D01*
X70169017Y-91051637D01*
X69871637Y-91349017D01*
X69637988Y-91698698D01*
X69477047Y-92087244D01*
X69395000Y-92499721D01*
X64160000Y-92499721D01*
X64160000Y-87481278D01*
X67480000Y-87481278D01*
X67480000Y-87778722D01*
X67538029Y-88070451D01*
X67651856Y-88345253D01*
X67817107Y-88592569D01*
X68027431Y-88802893D01*
X68274747Y-88968144D01*
X68549549Y-89081971D01*
X68841278Y-89140000D01*
X69138722Y-89140000D01*
X69430451Y-89081971D01*
X69705253Y-88968144D01*
X69952569Y-88802893D01*
X70162893Y-88592569D01*
X70328144Y-88345253D01*
X70441971Y-88070451D01*
X70500000Y-87778722D01*
X70500000Y-87481278D01*
X70441971Y-87189549D01*
X70328144Y-86914747D01*
X70162893Y-86667431D01*
X69952569Y-86457107D01*
X69705253Y-86291856D01*
X69430451Y-86178029D01*
X69138722Y-86120000D01*
X68841278Y-86120000D01*
X68549549Y-86178029D01*
X68274747Y-86291856D01*
X68027431Y-86457107D01*
X67817107Y-86667431D01*
X67651856Y-86914747D01*
X67538029Y-87189549D01*
X67480000Y-87481278D01*
X64160000Y-87481278D01*
X64160000Y-85115061D01*
X68815000Y-85115061D01*
X68815000Y-85318939D01*
X68854774Y-85518898D01*
X68932795Y-85707256D01*
X69046063Y-85876774D01*
X69190226Y-86020937D01*
X69359744Y-86134205D01*
X69548102Y-86212226D01*
X69748061Y-86252000D01*
X69951939Y-86252000D01*
X70151898Y-86212226D01*
X70340256Y-86134205D01*
X70509774Y-86020937D01*
X70551711Y-85979000D01*
X72011412Y-85979000D01*
X71740299Y-86384749D01*
X71542127Y-86863178D01*
X71441100Y-87371076D01*
X71441100Y-87888924D01*
X71542127Y-88396822D01*
X71740299Y-88875251D01*
X72028000Y-89305826D01*
X72394174Y-89672000D01*
X72824749Y-89959701D01*
X73303178Y-90157873D01*
X73811076Y-90258900D01*
X74328924Y-90258900D01*
X74836822Y-90157873D01*
X75315251Y-89959701D01*
X75745826Y-89672000D01*
X75816237Y-89601589D01*
X75745000Y-89959721D01*
X75745000Y-90380279D01*
X75827047Y-90792756D01*
X75987988Y-91181302D01*
X76221637Y-91530983D01*
X76519017Y-91828363D01*
X76868698Y-92062012D01*
X77257244Y-92222953D01*
X77669721Y-92305000D01*
X78090279Y-92305000D01*
X78502756Y-92222953D01*
X78891302Y-92062012D01*
X79240983Y-91828363D01*
X79538363Y-91530983D01*
X79772012Y-91181302D01*
X79932953Y-90792756D01*
X80015000Y-90380279D01*
X80015000Y-89959721D01*
X79932953Y-89547244D01*
X79772012Y-89158698D01*
X79692501Y-89039701D01*
X79865253Y-88968144D01*
X80112569Y-88802893D01*
X80322893Y-88592569D01*
X80488144Y-88345253D01*
X80601971Y-88070451D01*
X80660000Y-87778722D01*
X80660000Y-87481278D01*
X86531000Y-87481278D01*
X86531000Y-87778722D01*
X86589029Y-88070451D01*
X86702856Y-88345253D01*
X86868107Y-88592569D01*
X87078431Y-88802893D01*
X87325747Y-88968144D01*
X87600549Y-89081971D01*
X87892278Y-89140000D01*
X88189722Y-89140000D01*
X88481451Y-89081971D01*
X88756253Y-88968144D01*
X89003569Y-88802893D01*
X89213893Y-88592569D01*
X89379144Y-88345253D01*
X89492971Y-88070451D01*
X89551000Y-87778722D01*
X89551000Y-87481278D01*
X89492971Y-87189549D01*
X89379144Y-86914747D01*
X89213893Y-86667431D01*
X89003569Y-86457107D01*
X88756253Y-86291856D01*
X88481451Y-86178029D01*
X88189722Y-86120000D01*
X87892278Y-86120000D01*
X87600549Y-86178029D01*
X87325747Y-86291856D01*
X87078431Y-86457107D01*
X86868107Y-86667431D01*
X86702856Y-86914747D01*
X86589029Y-87189549D01*
X86531000Y-87481278D01*
X80660000Y-87481278D01*
X80601971Y-87189549D01*
X80488144Y-86914747D01*
X80322893Y-86667431D01*
X80112569Y-86457107D01*
X79865253Y-86291856D01*
X79590451Y-86178029D01*
X79298722Y-86120000D01*
X79001278Y-86120000D01*
X78709549Y-86178029D01*
X78434747Y-86291856D01*
X78187431Y-86457107D01*
X77977107Y-86667431D01*
X77811856Y-86914747D01*
X77698029Y-87189549D01*
X77640000Y-87481278D01*
X77640000Y-87778722D01*
X77690977Y-88035000D01*
X77669721Y-88035000D01*
X77257244Y-88117047D01*
X76868698Y-88277988D01*
X76562292Y-88482721D01*
X76597873Y-88396822D01*
X76698900Y-87888924D01*
X76698900Y-87371076D01*
X76597873Y-86863178D01*
X76399701Y-86384749D01*
X76128588Y-85979000D01*
X91062412Y-85979000D01*
X90791299Y-86384749D01*
X90593127Y-86863178D01*
X90492100Y-87371076D01*
X90492100Y-87888924D01*
X90593127Y-88396822D01*
X90791299Y-88875251D01*
X91079000Y-89305826D01*
X91445174Y-89672000D01*
X91875749Y-89959701D01*
X92354178Y-90157873D01*
X92862076Y-90258900D01*
X93379924Y-90258900D01*
X93887822Y-90157873D01*
X94366251Y-89959701D01*
X94796826Y-89672000D01*
X94867237Y-89601589D01*
X94796000Y-89959721D01*
X94796000Y-90380279D01*
X94878047Y-90792756D01*
X95038988Y-91181302D01*
X95272637Y-91530983D01*
X95570017Y-91828363D01*
X95919698Y-92062012D01*
X96308244Y-92222953D01*
X96720721Y-92305000D01*
X97141279Y-92305000D01*
X97553756Y-92222953D01*
X97942302Y-92062012D01*
X98291983Y-91828363D01*
X98589363Y-91530983D01*
X98823012Y-91181302D01*
X98983953Y-90792756D01*
X99066000Y-90380279D01*
X99066000Y-89959721D01*
X98983953Y-89547244D01*
X98823012Y-89158698D01*
X98743501Y-89039701D01*
X98916253Y-88968144D01*
X99163569Y-88802893D01*
X99373893Y-88592569D01*
X99539144Y-88345253D01*
X99652971Y-88070451D01*
X99711000Y-87778722D01*
X99711000Y-87481278D01*
X99709011Y-87471278D01*
X105580000Y-87471278D01*
X105580000Y-87768722D01*
X105638029Y-88060451D01*
X105751856Y-88335253D01*
X105917107Y-88582569D01*
X106127431Y-88792893D01*
X106374747Y-88958144D01*
X106649549Y-89071971D01*
X106941278Y-89130000D01*
X107238722Y-89130000D01*
X107530451Y-89071971D01*
X107805253Y-88958144D01*
X108052569Y-88792893D01*
X108262893Y-88582569D01*
X108428144Y-88335253D01*
X108541971Y-88060451D01*
X108600000Y-87768722D01*
X108600000Y-87471278D01*
X108541971Y-87179549D01*
X108428144Y-86904747D01*
X108262893Y-86657431D01*
X108052569Y-86447107D01*
X107805253Y-86281856D01*
X107530451Y-86168029D01*
X107238722Y-86110000D01*
X106941278Y-86110000D01*
X106649549Y-86168029D01*
X106374747Y-86281856D01*
X106127431Y-86447107D01*
X105917107Y-86657431D01*
X105751856Y-86904747D01*
X105638029Y-87179549D01*
X105580000Y-87471278D01*
X99709011Y-87471278D01*
X99652971Y-87189549D01*
X99539144Y-86914747D01*
X99373893Y-86667431D01*
X99163569Y-86457107D01*
X98916253Y-86291856D01*
X98641451Y-86178029D01*
X98349722Y-86120000D01*
X98052278Y-86120000D01*
X97760549Y-86178029D01*
X97485747Y-86291856D01*
X97238431Y-86457107D01*
X97028107Y-86667431D01*
X96862856Y-86914747D01*
X96749029Y-87189549D01*
X96691000Y-87481278D01*
X96691000Y-87778722D01*
X96741977Y-88035000D01*
X96720721Y-88035000D01*
X96308244Y-88117047D01*
X95919698Y-88277988D01*
X95613292Y-88482721D01*
X95648873Y-88396822D01*
X95749900Y-87888924D01*
X95749900Y-87371076D01*
X95648873Y-86863178D01*
X95450701Y-86384749D01*
X95289243Y-86143110D01*
X95456102Y-86212226D01*
X95656061Y-86252000D01*
X95859939Y-86252000D01*
X96059898Y-86212226D01*
X96248256Y-86134205D01*
X96417774Y-86020937D01*
X96561937Y-85876774D01*
X96675205Y-85707256D01*
X96753226Y-85518898D01*
X96793000Y-85318939D01*
X96793000Y-85252000D01*
X111017211Y-85252000D01*
X110924749Y-85290299D01*
X110494174Y-85578000D01*
X110128000Y-85944174D01*
X109840299Y-86374749D01*
X109642127Y-86853178D01*
X109541100Y-87361076D01*
X109541100Y-87878924D01*
X109642127Y-88386822D01*
X109840299Y-88865251D01*
X110128000Y-89295826D01*
X110494174Y-89662000D01*
X110924749Y-89949701D01*
X111403178Y-90147873D01*
X111911076Y-90248900D01*
X112428924Y-90248900D01*
X112936822Y-90147873D01*
X113415251Y-89949701D01*
X113845826Y-89662000D01*
X113916237Y-89591589D01*
X113845000Y-89949721D01*
X113845000Y-90370279D01*
X113927047Y-90782756D01*
X114087988Y-91171302D01*
X114321637Y-91520983D01*
X114619017Y-91818363D01*
X114968698Y-92052012D01*
X115357244Y-92212953D01*
X115769721Y-92295000D01*
X116190279Y-92295000D01*
X116602756Y-92212953D01*
X116991302Y-92052012D01*
X117340983Y-91818363D01*
X117638363Y-91520983D01*
X117872012Y-91171302D01*
X118032953Y-90782756D01*
X118115000Y-90370279D01*
X118115000Y-89949721D01*
X118032953Y-89537244D01*
X117872012Y-89148698D01*
X117792501Y-89029701D01*
X117965253Y-88958144D01*
X118212569Y-88792893D01*
X118422893Y-88582569D01*
X118588144Y-88335253D01*
X118701971Y-88060451D01*
X118760000Y-87768722D01*
X118760000Y-87471278D01*
X118701971Y-87179549D01*
X118588144Y-86904747D01*
X118422893Y-86657431D01*
X118212569Y-86447107D01*
X117965253Y-86281856D01*
X117690451Y-86168029D01*
X117398722Y-86110000D01*
X117101278Y-86110000D01*
X116809549Y-86168029D01*
X116534747Y-86281856D01*
X116287431Y-86447107D01*
X116077107Y-86657431D01*
X115911856Y-86904747D01*
X115798029Y-87179549D01*
X115740000Y-87471278D01*
X115740000Y-87768722D01*
X115790977Y-88025000D01*
X115769721Y-88025000D01*
X115357244Y-88107047D01*
X114968698Y-88267988D01*
X114662292Y-88472721D01*
X114697873Y-88386822D01*
X114798900Y-87878924D01*
X114798900Y-87361076D01*
X114697873Y-86853178D01*
X114499701Y-86374749D01*
X114212000Y-85944174D01*
X113845826Y-85578000D01*
X113415251Y-85290299D01*
X113322789Y-85252000D01*
X114014289Y-85252000D01*
X114021226Y-85258937D01*
X114190744Y-85372205D01*
X114379102Y-85450226D01*
X114579061Y-85490000D01*
X114782939Y-85490000D01*
X114982898Y-85450226D01*
X115171256Y-85372205D01*
X115340774Y-85258937D01*
X115484937Y-85114774D01*
X115598205Y-84945256D01*
X115676226Y-84756898D01*
X115716000Y-84556939D01*
X115716000Y-84353061D01*
X115676226Y-84153102D01*
X115598205Y-83964744D01*
X115484937Y-83795226D01*
X115340774Y-83651063D01*
X115171256Y-83537795D01*
X114982898Y-83459774D01*
X114782939Y-83420000D01*
X114579061Y-83420000D01*
X114545000Y-83426775D01*
X114545000Y-81074135D01*
X114548362Y-81040000D01*
X114534943Y-80903756D01*
X114495202Y-80772748D01*
X114430667Y-80652011D01*
X114343817Y-80546183D01*
X114237989Y-80459333D01*
X114117252Y-80394798D01*
X113986244Y-80355057D01*
X113884135Y-80345000D01*
X113850000Y-80341638D01*
X113815866Y-80345000D01*
X110484134Y-80345000D01*
X110450000Y-80341638D01*
X110415865Y-80345000D01*
X110313756Y-80355057D01*
X110182748Y-80394798D01*
X110062011Y-80459333D01*
X109956183Y-80546183D01*
X109869333Y-80652011D01*
X109804798Y-80772748D01*
X109765057Y-80903756D01*
X109751638Y-81040000D01*
X109755000Y-81074135D01*
X109755001Y-83728000D01*
X95545000Y-83728000D01*
X95545000Y-81084135D01*
X95548362Y-81050000D01*
X95534943Y-80913756D01*
X95495202Y-80782748D01*
X95430667Y-80662011D01*
X95343817Y-80556183D01*
X95237989Y-80469333D01*
X95117252Y-80404798D01*
X94986244Y-80365057D01*
X94884135Y-80355000D01*
X94850000Y-80351638D01*
X94815866Y-80355000D01*
X91484134Y-80355000D01*
X91450000Y-80351638D01*
X91415865Y-80355000D01*
X91313756Y-80365057D01*
X91182748Y-80404798D01*
X91062011Y-80469333D01*
X90956183Y-80556183D01*
X90869333Y-80662011D01*
X90804798Y-80782748D01*
X90765057Y-80913756D01*
X90751638Y-81050000D01*
X90755000Y-81084135D01*
X90755001Y-83728000D01*
X89636711Y-83728000D01*
X89594774Y-83686063D01*
X89425256Y-83572795D01*
X89236898Y-83494774D01*
X89036939Y-83455000D01*
X88833061Y-83455000D01*
X88633102Y-83494774D01*
X88444744Y-83572795D01*
X88275226Y-83686063D01*
X88131063Y-83830226D01*
X88017795Y-83999744D01*
X87939774Y-84188102D01*
X87900000Y-84388061D01*
X87900000Y-84455000D01*
X76286707Y-84455000D01*
X76300667Y-84437989D01*
X76365202Y-84317252D01*
X76404943Y-84186244D01*
X76418362Y-84050000D01*
X76415000Y-84015865D01*
X76415000Y-81084135D01*
X76418362Y-81050000D01*
X76404943Y-80913756D01*
X76365202Y-80782748D01*
X76300667Y-80662011D01*
X76213817Y-80556183D01*
X76107989Y-80469333D01*
X75987252Y-80404798D01*
X75856244Y-80365057D01*
X75754135Y-80355000D01*
X75720000Y-80351638D01*
X75685866Y-80355000D01*
X72354134Y-80355000D01*
X72320000Y-80351638D01*
X72285865Y-80355000D01*
X72183756Y-80365057D01*
X72052748Y-80404798D01*
X71932011Y-80469333D01*
X71826183Y-80556183D01*
X71739333Y-80662011D01*
X71674798Y-80782748D01*
X71635057Y-80913756D01*
X71621638Y-81050000D01*
X71625000Y-81084135D01*
X71625001Y-84015855D01*
X71621638Y-84050000D01*
X71635057Y-84186244D01*
X71674798Y-84317252D01*
X71739333Y-84437989D01*
X71753293Y-84455000D01*
X70551711Y-84455000D01*
X70509774Y-84413063D01*
X70340256Y-84299795D01*
X70151898Y-84221774D01*
X69951939Y-84182000D01*
X69748061Y-84182000D01*
X69548102Y-84221774D01*
X69359744Y-84299795D01*
X69190226Y-84413063D01*
X69046063Y-84557226D01*
X68932795Y-84726744D01*
X68854774Y-84915102D01*
X68815000Y-85115061D01*
X64160000Y-85115061D01*
X64160000Y-69240061D01*
X91294000Y-69240061D01*
X91294000Y-69443939D01*
X91333774Y-69643898D01*
X91411795Y-69832256D01*
X91525063Y-70001774D01*
X91669226Y-70145937D01*
X91838744Y-70259205D01*
X92027102Y-70337226D01*
X92227061Y-70377000D01*
X92430939Y-70377000D01*
X92630898Y-70337226D01*
X92819256Y-70259205D01*
X92988774Y-70145937D01*
X93030711Y-70104000D01*
X93659289Y-70104000D01*
X93701226Y-70145937D01*
X93870744Y-70259205D01*
X94059102Y-70337226D01*
X94259061Y-70377000D01*
X94462939Y-70377000D01*
X94662898Y-70337226D01*
X94851256Y-70259205D01*
X95020774Y-70145937D01*
X95164937Y-70001774D01*
X95278205Y-69832256D01*
X95356226Y-69643898D01*
X95376437Y-69542289D01*
X95396835Y-69644837D01*
X95474856Y-69833195D01*
X95588124Y-70002713D01*
X95732287Y-70146876D01*
X95901805Y-70260144D01*
X96090163Y-70338165D01*
X96290122Y-70377939D01*
X96494000Y-70377939D01*
X96693959Y-70338165D01*
X96882317Y-70260144D01*
X97019564Y-70168439D01*
X98052903Y-70168439D01*
X98188744Y-70259205D01*
X98377102Y-70337226D01*
X98577061Y-70377000D01*
X98780939Y-70377000D01*
X98980898Y-70337226D01*
X99169256Y-70259205D01*
X99338774Y-70145937D01*
X99482937Y-70001774D01*
X99596205Y-69832256D01*
X99674226Y-69643898D01*
X99714000Y-69443939D01*
X99714000Y-69240061D01*
X99674226Y-69040102D01*
X99596205Y-68851744D01*
X99482937Y-68682226D01*
X99338774Y-68538063D01*
X99169256Y-68424795D01*
X98980898Y-68346774D01*
X98780939Y-68307000D01*
X98577061Y-68307000D01*
X98377102Y-68346774D01*
X98188744Y-68424795D01*
X98050092Y-68517439D01*
X97019564Y-68517439D01*
X96882317Y-68425734D01*
X96693959Y-68347713D01*
X96494000Y-68307939D01*
X96290122Y-68307939D01*
X96090163Y-68347713D01*
X95901805Y-68425734D01*
X95732287Y-68539002D01*
X95588124Y-68683165D01*
X95474856Y-68852683D01*
X95396835Y-69041041D01*
X95376624Y-69142650D01*
X95356226Y-69040102D01*
X95278205Y-68851744D01*
X95164937Y-68682226D01*
X95020774Y-68538063D01*
X94851256Y-68424795D01*
X94662898Y-68346774D01*
X94462939Y-68307000D01*
X94259061Y-68307000D01*
X94059102Y-68346774D01*
X93870744Y-68424795D01*
X93701226Y-68538063D01*
X93659289Y-68580000D01*
X93030711Y-68580000D01*
X92988774Y-68538063D01*
X92819256Y-68424795D01*
X92630898Y-68346774D01*
X92430939Y-68307000D01*
X92227061Y-68307000D01*
X92027102Y-68346774D01*
X91838744Y-68424795D01*
X91669226Y-68538063D01*
X91525063Y-68682226D01*
X91411795Y-68851744D01*
X91333774Y-69040102D01*
X91294000Y-69240061D01*
X64160000Y-69240061D01*
X64160000Y-65896000D01*
X87666000Y-65896000D01*
X87666000Y-66446000D01*
X87712585Y-66664987D01*
X87800997Y-66870678D01*
X87927839Y-67055169D01*
X88088236Y-67211369D01*
X88276024Y-67333276D01*
X88499126Y-67413119D01*
X88674000Y-67286954D01*
X88674000Y-65896000D01*
X87666000Y-65896000D01*
X64160000Y-65896000D01*
X64160000Y-65430000D01*
X86835581Y-65430000D01*
X86868000Y-65433193D01*
X86900419Y-65430000D01*
X86997383Y-65420450D01*
X87121793Y-65382710D01*
X87236450Y-65321425D01*
X87336948Y-65238948D01*
X87419425Y-65138450D01*
X87444252Y-65092000D01*
X87666000Y-65092000D01*
X87666000Y-65642000D01*
X88674000Y-65642000D01*
X88674000Y-64251046D01*
X88928000Y-64251046D01*
X88928000Y-65642000D01*
X88948000Y-65642000D01*
X88948000Y-65896000D01*
X88928000Y-65896000D01*
X88928000Y-67286954D01*
X89102874Y-67413119D01*
X89325976Y-67333276D01*
X89513764Y-67211369D01*
X89674161Y-67055169D01*
X89801003Y-66870678D01*
X89889415Y-66664987D01*
X89936000Y-66446000D01*
X89936000Y-66155904D01*
X89950978Y-66162108D01*
X90136448Y-66199000D01*
X90325552Y-66199000D01*
X90511022Y-66162108D01*
X90685731Y-66089741D01*
X90842964Y-65984681D01*
X90976681Y-65850964D01*
X91081741Y-65693731D01*
X91154108Y-65519022D01*
X91191000Y-65333552D01*
X91191000Y-65144448D01*
X95051000Y-65144448D01*
X95051000Y-65333552D01*
X95087892Y-65519022D01*
X95160259Y-65693731D01*
X95265319Y-65850964D01*
X95399036Y-65984681D01*
X95556269Y-66089741D01*
X95730978Y-66162108D01*
X95916448Y-66199000D01*
X96105552Y-66199000D01*
X96291022Y-66162108D01*
X96306000Y-66155904D01*
X96306000Y-66446000D01*
X96352585Y-66664987D01*
X96440997Y-66870678D01*
X96567839Y-67055169D01*
X96728236Y-67211369D01*
X96916024Y-67333276D01*
X97139126Y-67413119D01*
X97314000Y-67286954D01*
X97314000Y-65896000D01*
X97568000Y-65896000D01*
X97568000Y-67286954D01*
X97742874Y-67413119D01*
X97965976Y-67333276D01*
X98153764Y-67211369D01*
X98314161Y-67055169D01*
X98441003Y-66870678D01*
X98529415Y-66664987D01*
X98576000Y-66446000D01*
X98576000Y-65896000D01*
X97568000Y-65896000D01*
X97314000Y-65896000D01*
X97294000Y-65896000D01*
X97294000Y-65642000D01*
X97314000Y-65642000D01*
X97314000Y-64251046D01*
X97568000Y-64251046D01*
X97568000Y-65642000D01*
X98576000Y-65642000D01*
X98576000Y-65092000D01*
X98529415Y-64873013D01*
X98441003Y-64667322D01*
X98314161Y-64482831D01*
X98153764Y-64326631D01*
X97965976Y-64204724D01*
X97742874Y-64124881D01*
X97568000Y-64251046D01*
X97314000Y-64251046D01*
X97139126Y-64124881D01*
X96916024Y-64204724D01*
X96728236Y-64326631D01*
X96583884Y-64467206D01*
X96465731Y-64388259D01*
X96291022Y-64315892D01*
X96105552Y-64279000D01*
X95916448Y-64279000D01*
X95730978Y-64315892D01*
X95556269Y-64388259D01*
X95399036Y-64493319D01*
X95265319Y-64627036D01*
X95160259Y-64784269D01*
X95087892Y-64958978D01*
X95051000Y-65144448D01*
X91191000Y-65144448D01*
X91154108Y-64958978D01*
X91081741Y-64784269D01*
X90976681Y-64627036D01*
X90842964Y-64493319D01*
X90685731Y-64388259D01*
X90511022Y-64315892D01*
X90325552Y-64279000D01*
X90136448Y-64279000D01*
X89950978Y-64315892D01*
X89776269Y-64388259D01*
X89658116Y-64467206D01*
X89513764Y-64326631D01*
X89325976Y-64204724D01*
X89102874Y-64124881D01*
X88928000Y-64251046D01*
X88674000Y-64251046D01*
X88499126Y-64124881D01*
X88276024Y-64204724D01*
X88088236Y-64326631D01*
X87927839Y-64482831D01*
X87800997Y-64667322D01*
X87712585Y-64873013D01*
X87666000Y-65092000D01*
X87444252Y-65092000D01*
X87480710Y-65023793D01*
X87518450Y-64899383D01*
X87531193Y-64770000D01*
X87528000Y-64737581D01*
X87528000Y-61716000D01*
X87666000Y-61716000D01*
X87666000Y-62016000D01*
X87712585Y-62234987D01*
X87800997Y-62440678D01*
X87927839Y-62625169D01*
X88088236Y-62781369D01*
X88276024Y-62903276D01*
X88499126Y-62983119D01*
X88674000Y-62856954D01*
X88674000Y-61716000D01*
X88928000Y-61716000D01*
X88928000Y-62856954D01*
X89102874Y-62983119D01*
X89325976Y-62903276D01*
X89513764Y-62781369D01*
X89674161Y-62625169D01*
X89801003Y-62440678D01*
X89889415Y-62234987D01*
X89936000Y-62016000D01*
X89936000Y-61716000D01*
X96306000Y-61716000D01*
X96306000Y-62016000D01*
X96352585Y-62234987D01*
X96440997Y-62440678D01*
X96567839Y-62625169D01*
X96728236Y-62781369D01*
X96916024Y-62903276D01*
X97139126Y-62983119D01*
X97314000Y-62856954D01*
X97314000Y-61716000D01*
X97568000Y-61716000D01*
X97568000Y-62856954D01*
X97742874Y-62983119D01*
X97965976Y-62903276D01*
X98153764Y-62781369D01*
X98314161Y-62625169D01*
X98441003Y-62440678D01*
X98529415Y-62234987D01*
X98576000Y-62016000D01*
X98576000Y-61716000D01*
X97568000Y-61716000D01*
X97314000Y-61716000D01*
X96306000Y-61716000D01*
X89936000Y-61716000D01*
X88928000Y-61716000D01*
X88674000Y-61716000D01*
X87666000Y-61716000D01*
X87528000Y-61716000D01*
X87528000Y-60731000D01*
X87805344Y-60731000D01*
X87800997Y-60737322D01*
X87800997Y-60737322D01*
G37*
X87800997Y-60737322D02*
X87712585Y-60943013D01*
X87666000Y-61162000D01*
X87666000Y-61462000D01*
X88674000Y-61462000D01*
X88674000Y-61442000D01*
X88928000Y-61442000D01*
X88928000Y-61462000D01*
X89936000Y-61462000D01*
X89936000Y-61162000D01*
X89889415Y-60943013D01*
X89801003Y-60737322D01*
X89796656Y-60731000D01*
X96445344Y-60731000D01*
X96440997Y-60737322D01*
X96352585Y-60943013D01*
X96306000Y-61162000D01*
X96306000Y-61462000D01*
X97314000Y-61462000D01*
X97314000Y-61442000D01*
X97568000Y-61442000D01*
X97568000Y-61462000D01*
X98576000Y-61462000D01*
X98576000Y-61162000D01*
X98529415Y-60943013D01*
X98441003Y-60737322D01*
X98436656Y-60731000D01*
X98781000Y-60731000D01*
X98781001Y-64737571D01*
X98777807Y-64770000D01*
X98790550Y-64899383D01*
X98828290Y-65023793D01*
X98889575Y-65138450D01*
X98972052Y-65238948D01*
X99072550Y-65321425D01*
X99187207Y-65382710D01*
X99311617Y-65420450D01*
X99408581Y-65430000D01*
X99441000Y-65433193D01*
X99473419Y-65430000D01*
X122149000Y-65430000D01*
X122149001Y-122410000D01*
X64160000Y-122410000D01*
X64160000Y-111785061D01*
X86468000Y-111785061D01*
X86468000Y-111988939D01*
X86507774Y-112188898D01*
X86585795Y-112377256D01*
X86699063Y-112546774D01*
X86843226Y-112690937D01*
X87012744Y-112804205D01*
X87201102Y-112882226D01*
X87362996Y-112914429D01*
X91780107Y-117331540D01*
X91805959Y-117363041D01*
X91870096Y-117415677D01*
X91931657Y-117466199D01*
X91981611Y-117492899D01*
X92075066Y-117542853D01*
X92230674Y-117590056D01*
X92351947Y-117602000D01*
X92351949Y-117602000D01*
X92392499Y-117605994D01*
X92433050Y-117602000D01*
X94002950Y-117602000D01*
X94043500Y-117605994D01*
X94084050Y-117602000D01*
X94084053Y-117602000D01*
X94205326Y-117590056D01*
X94360934Y-117542853D01*
X94504342Y-117466199D01*
X94630041Y-117363041D01*
X94655898Y-117331534D01*
X96025004Y-115962428D01*
X96186898Y-115930226D01*
X96375256Y-115852205D01*
X96544774Y-115738937D01*
X96688937Y-115594774D01*
X96802205Y-115425256D01*
X96880226Y-115236898D01*
X96912429Y-115075004D01*
X101005892Y-110981542D01*
X101005901Y-110981531D01*
X102136040Y-109851393D01*
X102167542Y-109825540D01*
X102240368Y-109736801D01*
X102270700Y-109699842D01*
X102347354Y-109556433D01*
X102378123Y-109455000D01*
X102394557Y-109400825D01*
X102406501Y-109279552D01*
X102406501Y-109279550D01*
X102410495Y-109239000D01*
X102406501Y-109198449D01*
X102406501Y-106700937D01*
X102517205Y-106535256D01*
X102595226Y-106346898D01*
X102635000Y-106146939D01*
X102635000Y-105943061D01*
X102595226Y-105743102D01*
X102517205Y-105554744D01*
X102403937Y-105385226D01*
X102259774Y-105241063D01*
X102090256Y-105127795D01*
X101901898Y-105049774D01*
X101701939Y-105010000D01*
X101498061Y-105010000D01*
X101298102Y-105049774D01*
X101109744Y-105127795D01*
X100940226Y-105241063D01*
X100796063Y-105385226D01*
X100682795Y-105554744D01*
X100604774Y-105743102D01*
X100565000Y-105943061D01*
X100565000Y-106146939D01*
X100604774Y-106346898D01*
X100682795Y-106535256D01*
X100755501Y-106644069D01*
X100755502Y-108897065D01*
X99838469Y-109814099D01*
X99838458Y-109814108D01*
X95744996Y-113907571D01*
X95583102Y-113939774D01*
X95394744Y-114017795D01*
X95225226Y-114131063D01*
X95081063Y-114275226D01*
X94967795Y-114444744D01*
X94889774Y-114633102D01*
X94857572Y-114794996D01*
X93701568Y-115951000D01*
X92734433Y-115951000D01*
X88530429Y-111746996D01*
X88498226Y-111585102D01*
X88420205Y-111396744D01*
X88306937Y-111227226D01*
X88162774Y-111083063D01*
X87993256Y-110969795D01*
X87804898Y-110891774D01*
X87604939Y-110852000D01*
X87401061Y-110852000D01*
X87201102Y-110891774D01*
X87012744Y-110969795D01*
X86843226Y-111083063D01*
X86699063Y-111227226D01*
X86585795Y-111396744D01*
X86507774Y-111585102D01*
X86468000Y-111785061D01*
X64160000Y-111785061D01*
X64160000Y-110388061D01*
X82658000Y-110388061D01*
X82658000Y-110591939D01*
X82697774Y-110791898D01*
X82775795Y-110980256D01*
X82889063Y-111149774D01*
X83033226Y-111293937D01*
X83202744Y-111407205D01*
X83391102Y-111485226D01*
X83591061Y-111525000D01*
X83794939Y-111525000D01*
X83994898Y-111485226D01*
X84183256Y-111407205D01*
X84352774Y-111293937D01*
X84496937Y-111149774D01*
X84610205Y-110980256D01*
X84688226Y-110791898D01*
X84728000Y-110591939D01*
X84728000Y-110532630D01*
X91245439Y-104015192D01*
X91360898Y-103992226D01*
X91549256Y-103914205D01*
X91718774Y-103800937D01*
X91862937Y-103656774D01*
X91976205Y-103487256D01*
X92054226Y-103298898D01*
X92094000Y-103098939D01*
X92094000Y-102895061D01*
X92054226Y-102695102D01*
X91976205Y-102506744D01*
X91862937Y-102337226D01*
X91718774Y-102193063D01*
X91549256Y-102079795D01*
X91360898Y-102001774D01*
X91160939Y-101962000D01*
X90957061Y-101962000D01*
X90757102Y-102001774D01*
X90568744Y-102079795D01*
X90399226Y-102193063D01*
X90255063Y-102337226D01*
X90141795Y-102506744D01*
X90063774Y-102695102D01*
X90024000Y-102895061D01*
X90024000Y-103081369D01*
X83650370Y-109455000D01*
X83591061Y-109455000D01*
X83391102Y-109494774D01*
X83202744Y-109572795D01*
X83033226Y-109686063D01*
X82889063Y-109830226D01*
X82775795Y-109999744D01*
X82697774Y-110188102D01*
X82658000Y-110388061D01*
X64160000Y-110388061D01*
X64160000Y-99085061D01*
X99930000Y-99085061D01*
X99930000Y-99288939D01*
X99969774Y-99488898D01*
X100047795Y-99677256D01*
X100161063Y-99846774D01*
X100305226Y-99990937D01*
X100474744Y-100104205D01*
X100663102Y-100182226D01*
X100863061Y-100222000D01*
X101066939Y-100222000D01*
X101266898Y-100182226D01*
X101455256Y-100104205D01*
X101624774Y-99990937D01*
X101666711Y-99949000D01*
X107756289Y-99949000D01*
X107798226Y-99990937D01*
X107967744Y-100104205D01*
X108156102Y-100182226D01*
X108356061Y-100222000D01*
X108559939Y-100222000D01*
X108759898Y-100182226D01*
X108948256Y-100104205D01*
X109117774Y-99990937D01*
X109261937Y-99846774D01*
X109375205Y-99677256D01*
X109453226Y-99488898D01*
X109493000Y-99288939D01*
X109493000Y-99085061D01*
X109453226Y-98885102D01*
X109375205Y-98696744D01*
X109261937Y-98527226D01*
X109117774Y-98383063D01*
X108948256Y-98269795D01*
X108759898Y-98191774D01*
X108559939Y-98152000D01*
X108356061Y-98152000D01*
X108156102Y-98191774D01*
X107967744Y-98269795D01*
X107798226Y-98383063D01*
X107756289Y-98425000D01*
X101666711Y-98425000D01*
X101624774Y-98383063D01*
X101455256Y-98269795D01*
X101266898Y-98191774D01*
X101066939Y-98152000D01*
X100863061Y-98152000D01*
X100663102Y-98191774D01*
X100474744Y-98269795D01*
X100305226Y-98383063D01*
X100161063Y-98527226D01*
X100047795Y-98696744D01*
X99969774Y-98885102D01*
X99930000Y-99085061D01*
X64160000Y-99085061D01*
X64160000Y-97815061D01*
X78975000Y-97815061D01*
X78975000Y-98018939D01*
X79014774Y-98218898D01*
X79092795Y-98407256D01*
X79206063Y-98576774D01*
X79350226Y-98720937D01*
X79519744Y-98834205D01*
X79708102Y-98912226D01*
X79908061Y-98952000D01*
X80111939Y-98952000D01*
X80311898Y-98912226D01*
X80500256Y-98834205D01*
X80669774Y-98720937D01*
X80711711Y-98679000D01*
X84769289Y-98679000D01*
X84811226Y-98720937D01*
X84980744Y-98834205D01*
X85169102Y-98912226D01*
X85369061Y-98952000D01*
X85572939Y-98952000D01*
X85772898Y-98912226D01*
X85961256Y-98834205D01*
X86130774Y-98720937D01*
X86274937Y-98576774D01*
X86388205Y-98407256D01*
X86466226Y-98218898D01*
X86506000Y-98018939D01*
X86506000Y-97815061D01*
X86466226Y-97615102D01*
X86388205Y-97426744D01*
X86274937Y-97257226D01*
X86130774Y-97113063D01*
X85961256Y-96999795D01*
X85772898Y-96921774D01*
X85572939Y-96882000D01*
X85369061Y-96882000D01*
X85169102Y-96921774D01*
X84980744Y-96999795D01*
X84811226Y-97113063D01*
X84769289Y-97155000D01*
X80711711Y-97155000D01*
X80669774Y-97113063D01*
X80500256Y-96999795D01*
X80311898Y-96921774D01*
X80111939Y-96882000D01*
X79908061Y-96882000D01*
X79708102Y-96921774D01*
X79519744Y-96999795D01*
X79350226Y-97113063D01*
X79206063Y-97257226D01*
X79092795Y-97426744D01*
X79014774Y-97615102D01*
X78975000Y-97815061D01*
X64160000Y-97815061D01*
X64160000Y-95021061D01*
X100057000Y-95021061D01*
X100057000Y-95224939D01*
X100096774Y-95424898D01*
X100174795Y-95613256D01*
X100288063Y-95782774D01*
X100432226Y-95926937D01*
X100601744Y-96040205D01*
X100790102Y-96118226D01*
X100990061Y-96158000D01*
X101193939Y-96158000D01*
X101393898Y-96118226D01*
X101582256Y-96040205D01*
X101751774Y-95926937D01*
X101793711Y-95885000D01*
X105343289Y-95885000D01*
X105385226Y-95926937D01*
X105554744Y-96040205D01*
X105743102Y-96118226D01*
X105943061Y-96158000D01*
X106146939Y-96158000D01*
X106346898Y-96118226D01*
X106535256Y-96040205D01*
X106704774Y-95926937D01*
X106848937Y-95782774D01*
X106962205Y-95613256D01*
X107040226Y-95424898D01*
X107080000Y-95224939D01*
X107080000Y-95021061D01*
X107040226Y-94821102D01*
X106962205Y-94632744D01*
X106848937Y-94463226D01*
X106704774Y-94319063D01*
X106535256Y-94205795D01*
X106346898Y-94127774D01*
X106146939Y-94088000D01*
X105943061Y-94088000D01*
X105743102Y-94127774D01*
X105554744Y-94205795D01*
X105385226Y-94319063D01*
X105343289Y-94361000D01*
X101793711Y-94361000D01*
X101751774Y-94319063D01*
X101582256Y-94205795D01*
X101393898Y-94127774D01*
X101193939Y-94088000D01*
X100990061Y-94088000D01*
X100790102Y-94127774D01*
X100601744Y-94205795D01*
X100432226Y-94319063D01*
X100288063Y-94463226D01*
X100174795Y-94632744D01*
X100096774Y-94821102D01*
X100057000Y-95021061D01*
X64160000Y-95021061D01*
X64160000Y-92499721D01*
X69395000Y-92499721D01*
X69395000Y-92920279D01*
X69477047Y-93332756D01*
X69637988Y-93721302D01*
X69871637Y-94070983D01*
X70169017Y-94368363D01*
X70518698Y-94602012D01*
X70907244Y-94762953D01*
X71319721Y-94845000D01*
X71740279Y-94845000D01*
X72152756Y-94762953D01*
X72541302Y-94602012D01*
X72890983Y-94368363D01*
X73188363Y-94070983D01*
X73422012Y-93721302D01*
X73582953Y-93332756D01*
X73665000Y-92920279D01*
X73665000Y-92499721D01*
X88446000Y-92499721D01*
X88446000Y-92920279D01*
X88528047Y-93332756D01*
X88688988Y-93721302D01*
X88922637Y-94070983D01*
X89220017Y-94368363D01*
X89569698Y-94602012D01*
X89958244Y-94762953D01*
X90370721Y-94845000D01*
X90791279Y-94845000D01*
X91203756Y-94762953D01*
X91592302Y-94602012D01*
X91941983Y-94368363D01*
X92239363Y-94070983D01*
X92473012Y-93721302D01*
X92633953Y-93332756D01*
X92716000Y-92920279D01*
X92716000Y-92499721D01*
X92714011Y-92489721D01*
X107495000Y-92489721D01*
X107495000Y-92910279D01*
X107577047Y-93322756D01*
X107737988Y-93711302D01*
X107971637Y-94060983D01*
X108269017Y-94358363D01*
X108618698Y-94592012D01*
X109007244Y-94752953D01*
X109419721Y-94835000D01*
X109840279Y-94835000D01*
X110252756Y-94752953D01*
X110641302Y-94592012D01*
X110990983Y-94358363D01*
X111288363Y-94060983D01*
X111522012Y-93711302D01*
X111682953Y-93322756D01*
X111765000Y-92910279D01*
X111765000Y-92489721D01*
X111682953Y-92077244D01*
X111522012Y-91688698D01*
X111288363Y-91339017D01*
X110990983Y-91041637D01*
X110641302Y-90807988D01*
X110252756Y-90647047D01*
X109840279Y-90565000D01*
X109419721Y-90565000D01*
X109007244Y-90647047D01*
X108618698Y-90807988D01*
X108269017Y-91041637D01*
X107971637Y-91339017D01*
X107737988Y-91688698D01*
X107577047Y-92077244D01*
X107495000Y-92489721D01*
X92714011Y-92489721D01*
X92633953Y-92087244D01*
X92473012Y-91698698D01*
X92239363Y-91349017D01*
X91941983Y-91051637D01*
X91592302Y-90817988D01*
X91203756Y-90657047D01*
X90791279Y-90575000D01*
X90370721Y-90575000D01*
X89958244Y-90657047D01*
X89569698Y-90817988D01*
X89220017Y-91051637D01*
X88922637Y-91349017D01*
X88688988Y-91698698D01*
X88528047Y-92087244D01*
X88446000Y-92499721D01*
X73665000Y-92499721D01*
X73582953Y-92087244D01*
X73422012Y-91698698D01*
X73188363Y-91349017D01*
X72890983Y-91051637D01*
X72541302Y-90817988D01*
X72152756Y-90657047D01*
X71740279Y-90575000D01*
X71319721Y-90575000D01*
X70907244Y-90657047D01*
X70518698Y-90817988D01*
X70169017Y-91051637D01*
X69871637Y-91349017D01*
X69637988Y-91698698D01*
X69477047Y-92087244D01*
X69395000Y-92499721D01*
X64160000Y-92499721D01*
X64160000Y-87481278D01*
X67480000Y-87481278D01*
X67480000Y-87778722D01*
X67538029Y-88070451D01*
X67651856Y-88345253D01*
X67817107Y-88592569D01*
X68027431Y-88802893D01*
X68274747Y-88968144D01*
X68549549Y-89081971D01*
X68841278Y-89140000D01*
X69138722Y-89140000D01*
X69430451Y-89081971D01*
X69705253Y-88968144D01*
X69952569Y-88802893D01*
X70162893Y-88592569D01*
X70328144Y-88345253D01*
X70441971Y-88070451D01*
X70500000Y-87778722D01*
X70500000Y-87481278D01*
X70441971Y-87189549D01*
X70328144Y-86914747D01*
X70162893Y-86667431D01*
X69952569Y-86457107D01*
X69705253Y-86291856D01*
X69430451Y-86178029D01*
X69138722Y-86120000D01*
X68841278Y-86120000D01*
X68549549Y-86178029D01*
X68274747Y-86291856D01*
X68027431Y-86457107D01*
X67817107Y-86667431D01*
X67651856Y-86914747D01*
X67538029Y-87189549D01*
X67480000Y-87481278D01*
X64160000Y-87481278D01*
X64160000Y-85115061D01*
X68815000Y-85115061D01*
X68815000Y-85318939D01*
X68854774Y-85518898D01*
X68932795Y-85707256D01*
X69046063Y-85876774D01*
X69190226Y-86020937D01*
X69359744Y-86134205D01*
X69548102Y-86212226D01*
X69748061Y-86252000D01*
X69951939Y-86252000D01*
X70151898Y-86212226D01*
X70340256Y-86134205D01*
X70509774Y-86020937D01*
X70551711Y-85979000D01*
X72011412Y-85979000D01*
X71740299Y-86384749D01*
X71542127Y-86863178D01*
X71441100Y-87371076D01*
X71441100Y-87888924D01*
X71542127Y-88396822D01*
X71740299Y-88875251D01*
X72028000Y-89305826D01*
X72394174Y-89672000D01*
X72824749Y-89959701D01*
X73303178Y-90157873D01*
X73811076Y-90258900D01*
X74328924Y-90258900D01*
X74836822Y-90157873D01*
X75315251Y-89959701D01*
X75745826Y-89672000D01*
X75816237Y-89601589D01*
X75745000Y-89959721D01*
X75745000Y-90380279D01*
X75827047Y-90792756D01*
X75987988Y-91181302D01*
X76221637Y-91530983D01*
X76519017Y-91828363D01*
X76868698Y-92062012D01*
X77257244Y-92222953D01*
X77669721Y-92305000D01*
X78090279Y-92305000D01*
X78502756Y-92222953D01*
X78891302Y-92062012D01*
X79240983Y-91828363D01*
X79538363Y-91530983D01*
X79772012Y-91181302D01*
X79932953Y-90792756D01*
X80015000Y-90380279D01*
X80015000Y-89959721D01*
X79932953Y-89547244D01*
X79772012Y-89158698D01*
X79692501Y-89039701D01*
X79865253Y-88968144D01*
X80112569Y-88802893D01*
X80322893Y-88592569D01*
X80488144Y-88345253D01*
X80601971Y-88070451D01*
X80660000Y-87778722D01*
X80660000Y-87481278D01*
X86531000Y-87481278D01*
X86531000Y-87778722D01*
X86589029Y-88070451D01*
X86702856Y-88345253D01*
X86868107Y-88592569D01*
X87078431Y-88802893D01*
X87325747Y-88968144D01*
X87600549Y-89081971D01*
X87892278Y-89140000D01*
X88189722Y-89140000D01*
X88481451Y-89081971D01*
X88756253Y-88968144D01*
X89003569Y-88802893D01*
X89213893Y-88592569D01*
X89379144Y-88345253D01*
X89492971Y-88070451D01*
X89551000Y-87778722D01*
X89551000Y-87481278D01*
X89492971Y-87189549D01*
X89379144Y-86914747D01*
X89213893Y-86667431D01*
X89003569Y-86457107D01*
X88756253Y-86291856D01*
X88481451Y-86178029D01*
X88189722Y-86120000D01*
X87892278Y-86120000D01*
X87600549Y-86178029D01*
X87325747Y-86291856D01*
X87078431Y-86457107D01*
X86868107Y-86667431D01*
X86702856Y-86914747D01*
X86589029Y-87189549D01*
X86531000Y-87481278D01*
X80660000Y-87481278D01*
X80601971Y-87189549D01*
X80488144Y-86914747D01*
X80322893Y-86667431D01*
X80112569Y-86457107D01*
X79865253Y-86291856D01*
X79590451Y-86178029D01*
X79298722Y-86120000D01*
X79001278Y-86120000D01*
X78709549Y-86178029D01*
X78434747Y-86291856D01*
X78187431Y-86457107D01*
X77977107Y-86667431D01*
X77811856Y-86914747D01*
X77698029Y-87189549D01*
X77640000Y-87481278D01*
X77640000Y-87778722D01*
X77690977Y-88035000D01*
X77669721Y-88035000D01*
X77257244Y-88117047D01*
X76868698Y-88277988D01*
X76562292Y-88482721D01*
X76597873Y-88396822D01*
X76698900Y-87888924D01*
X76698900Y-87371076D01*
X76597873Y-86863178D01*
X76399701Y-86384749D01*
X76128588Y-85979000D01*
X91062412Y-85979000D01*
X90791299Y-86384749D01*
X90593127Y-86863178D01*
X90492100Y-87371076D01*
X90492100Y-87888924D01*
X90593127Y-88396822D01*
X90791299Y-88875251D01*
X91079000Y-89305826D01*
X91445174Y-89672000D01*
X91875749Y-89959701D01*
X92354178Y-90157873D01*
X92862076Y-90258900D01*
X93379924Y-90258900D01*
X93887822Y-90157873D01*
X94366251Y-89959701D01*
X94796826Y-89672000D01*
X94867237Y-89601589D01*
X94796000Y-89959721D01*
X94796000Y-90380279D01*
X94878047Y-90792756D01*
X95038988Y-91181302D01*
X95272637Y-91530983D01*
X95570017Y-91828363D01*
X95919698Y-92062012D01*
X96308244Y-92222953D01*
X96720721Y-92305000D01*
X97141279Y-92305000D01*
X97553756Y-92222953D01*
X97942302Y-92062012D01*
X98291983Y-91828363D01*
X98589363Y-91530983D01*
X98823012Y-91181302D01*
X98983953Y-90792756D01*
X99066000Y-90380279D01*
X99066000Y-89959721D01*
X98983953Y-89547244D01*
X98823012Y-89158698D01*
X98743501Y-89039701D01*
X98916253Y-88968144D01*
X99163569Y-88802893D01*
X99373893Y-88592569D01*
X99539144Y-88345253D01*
X99652971Y-88070451D01*
X99711000Y-87778722D01*
X99711000Y-87481278D01*
X99709011Y-87471278D01*
X105580000Y-87471278D01*
X105580000Y-87768722D01*
X105638029Y-88060451D01*
X105751856Y-88335253D01*
X105917107Y-88582569D01*
X106127431Y-88792893D01*
X106374747Y-88958144D01*
X106649549Y-89071971D01*
X106941278Y-89130000D01*
X107238722Y-89130000D01*
X107530451Y-89071971D01*
X107805253Y-88958144D01*
X108052569Y-88792893D01*
X108262893Y-88582569D01*
X108428144Y-88335253D01*
X108541971Y-88060451D01*
X108600000Y-87768722D01*
X108600000Y-87471278D01*
X108541971Y-87179549D01*
X108428144Y-86904747D01*
X108262893Y-86657431D01*
X108052569Y-86447107D01*
X107805253Y-86281856D01*
X107530451Y-86168029D01*
X107238722Y-86110000D01*
X106941278Y-86110000D01*
X106649549Y-86168029D01*
X106374747Y-86281856D01*
X106127431Y-86447107D01*
X105917107Y-86657431D01*
X105751856Y-86904747D01*
X105638029Y-87179549D01*
X105580000Y-87471278D01*
X99709011Y-87471278D01*
X99652971Y-87189549D01*
X99539144Y-86914747D01*
X99373893Y-86667431D01*
X99163569Y-86457107D01*
X98916253Y-86291856D01*
X98641451Y-86178029D01*
X98349722Y-86120000D01*
X98052278Y-86120000D01*
X97760549Y-86178029D01*
X97485747Y-86291856D01*
X97238431Y-86457107D01*
X97028107Y-86667431D01*
X96862856Y-86914747D01*
X96749029Y-87189549D01*
X96691000Y-87481278D01*
X96691000Y-87778722D01*
X96741977Y-88035000D01*
X96720721Y-88035000D01*
X96308244Y-88117047D01*
X95919698Y-88277988D01*
X95613292Y-88482721D01*
X95648873Y-88396822D01*
X95749900Y-87888924D01*
X95749900Y-87371076D01*
X95648873Y-86863178D01*
X95450701Y-86384749D01*
X95289243Y-86143110D01*
X95456102Y-86212226D01*
X95656061Y-86252000D01*
X95859939Y-86252000D01*
X96059898Y-86212226D01*
X96248256Y-86134205D01*
X96417774Y-86020937D01*
X96561937Y-85876774D01*
X96675205Y-85707256D01*
X96753226Y-85518898D01*
X96793000Y-85318939D01*
X96793000Y-85252000D01*
X111017211Y-85252000D01*
X110924749Y-85290299D01*
X110494174Y-85578000D01*
X110128000Y-85944174D01*
X109840299Y-86374749D01*
X109642127Y-86853178D01*
X109541100Y-87361076D01*
X109541100Y-87878924D01*
X109642127Y-88386822D01*
X109840299Y-88865251D01*
X110128000Y-89295826D01*
X110494174Y-89662000D01*
X110924749Y-89949701D01*
X111403178Y-90147873D01*
X111911076Y-90248900D01*
X112428924Y-90248900D01*
X112936822Y-90147873D01*
X113415251Y-89949701D01*
X113845826Y-89662000D01*
X113916237Y-89591589D01*
X113845000Y-89949721D01*
X113845000Y-90370279D01*
X113927047Y-90782756D01*
X114087988Y-91171302D01*
X114321637Y-91520983D01*
X114619017Y-91818363D01*
X114968698Y-92052012D01*
X115357244Y-92212953D01*
X115769721Y-92295000D01*
X116190279Y-92295000D01*
X116602756Y-92212953D01*
X116991302Y-92052012D01*
X117340983Y-91818363D01*
X117638363Y-91520983D01*
X117872012Y-91171302D01*
X118032953Y-90782756D01*
X118115000Y-90370279D01*
X118115000Y-89949721D01*
X118032953Y-89537244D01*
X117872012Y-89148698D01*
X117792501Y-89029701D01*
X117965253Y-88958144D01*
X118212569Y-88792893D01*
X118422893Y-88582569D01*
X118588144Y-88335253D01*
X118701971Y-88060451D01*
X118760000Y-87768722D01*
X118760000Y-87471278D01*
X118701971Y-87179549D01*
X118588144Y-86904747D01*
X118422893Y-86657431D01*
X118212569Y-86447107D01*
X117965253Y-86281856D01*
X117690451Y-86168029D01*
X117398722Y-86110000D01*
X117101278Y-86110000D01*
X116809549Y-86168029D01*
X116534747Y-86281856D01*
X116287431Y-86447107D01*
X116077107Y-86657431D01*
X115911856Y-86904747D01*
X115798029Y-87179549D01*
X115740000Y-87471278D01*
X115740000Y-87768722D01*
X115790977Y-88025000D01*
X115769721Y-88025000D01*
X115357244Y-88107047D01*
X114968698Y-88267988D01*
X114662292Y-88472721D01*
X114697873Y-88386822D01*
X114798900Y-87878924D01*
X114798900Y-87361076D01*
X114697873Y-86853178D01*
X114499701Y-86374749D01*
X114212000Y-85944174D01*
X113845826Y-85578000D01*
X113415251Y-85290299D01*
X113322789Y-85252000D01*
X114014289Y-85252000D01*
X114021226Y-85258937D01*
X114190744Y-85372205D01*
X114379102Y-85450226D01*
X114579061Y-85490000D01*
X114782939Y-85490000D01*
X114982898Y-85450226D01*
X115171256Y-85372205D01*
X115340774Y-85258937D01*
X115484937Y-85114774D01*
X115598205Y-84945256D01*
X115676226Y-84756898D01*
X115716000Y-84556939D01*
X115716000Y-84353061D01*
X115676226Y-84153102D01*
X115598205Y-83964744D01*
X115484937Y-83795226D01*
X115340774Y-83651063D01*
X115171256Y-83537795D01*
X114982898Y-83459774D01*
X114782939Y-83420000D01*
X114579061Y-83420000D01*
X114545000Y-83426775D01*
X114545000Y-81074135D01*
X114548362Y-81040000D01*
X114534943Y-80903756D01*
X114495202Y-80772748D01*
X114430667Y-80652011D01*
X114343817Y-80546183D01*
X114237989Y-80459333D01*
X114117252Y-80394798D01*
X113986244Y-80355057D01*
X113884135Y-80345000D01*
X113850000Y-80341638D01*
X113815866Y-80345000D01*
X110484134Y-80345000D01*
X110450000Y-80341638D01*
X110415865Y-80345000D01*
X110313756Y-80355057D01*
X110182748Y-80394798D01*
X110062011Y-80459333D01*
X109956183Y-80546183D01*
X109869333Y-80652011D01*
X109804798Y-80772748D01*
X109765057Y-80903756D01*
X109751638Y-81040000D01*
X109755000Y-81074135D01*
X109755001Y-83728000D01*
X95545000Y-83728000D01*
X95545000Y-81084135D01*
X95548362Y-81050000D01*
X95534943Y-80913756D01*
X95495202Y-80782748D01*
X95430667Y-80662011D01*
X95343817Y-80556183D01*
X95237989Y-80469333D01*
X95117252Y-80404798D01*
X94986244Y-80365057D01*
X94884135Y-80355000D01*
X94850000Y-80351638D01*
X94815866Y-80355000D01*
X91484134Y-80355000D01*
X91450000Y-80351638D01*
X91415865Y-80355000D01*
X91313756Y-80365057D01*
X91182748Y-80404798D01*
X91062011Y-80469333D01*
X90956183Y-80556183D01*
X90869333Y-80662011D01*
X90804798Y-80782748D01*
X90765057Y-80913756D01*
X90751638Y-81050000D01*
X90755000Y-81084135D01*
X90755001Y-83728000D01*
X89636711Y-83728000D01*
X89594774Y-83686063D01*
X89425256Y-83572795D01*
X89236898Y-83494774D01*
X89036939Y-83455000D01*
X88833061Y-83455000D01*
X88633102Y-83494774D01*
X88444744Y-83572795D01*
X88275226Y-83686063D01*
X88131063Y-83830226D01*
X88017795Y-83999744D01*
X87939774Y-84188102D01*
X87900000Y-84388061D01*
X87900000Y-84455000D01*
X76286707Y-84455000D01*
X76300667Y-84437989D01*
X76365202Y-84317252D01*
X76404943Y-84186244D01*
X76418362Y-84050000D01*
X76415000Y-84015865D01*
X76415000Y-81084135D01*
X76418362Y-81050000D01*
X76404943Y-80913756D01*
X76365202Y-80782748D01*
X76300667Y-80662011D01*
X76213817Y-80556183D01*
X76107989Y-80469333D01*
X75987252Y-80404798D01*
X75856244Y-80365057D01*
X75754135Y-80355000D01*
X75720000Y-80351638D01*
X75685866Y-80355000D01*
X72354134Y-80355000D01*
X72320000Y-80351638D01*
X72285865Y-80355000D01*
X72183756Y-80365057D01*
X72052748Y-80404798D01*
X71932011Y-80469333D01*
X71826183Y-80556183D01*
X71739333Y-80662011D01*
X71674798Y-80782748D01*
X71635057Y-80913756D01*
X71621638Y-81050000D01*
X71625000Y-81084135D01*
X71625001Y-84015855D01*
X71621638Y-84050000D01*
X71635057Y-84186244D01*
X71674798Y-84317252D01*
X71739333Y-84437989D01*
X71753293Y-84455000D01*
X70551711Y-84455000D01*
X70509774Y-84413063D01*
X70340256Y-84299795D01*
X70151898Y-84221774D01*
X69951939Y-84182000D01*
X69748061Y-84182000D01*
X69548102Y-84221774D01*
X69359744Y-84299795D01*
X69190226Y-84413063D01*
X69046063Y-84557226D01*
X68932795Y-84726744D01*
X68854774Y-84915102D01*
X68815000Y-85115061D01*
X64160000Y-85115061D01*
X64160000Y-69240061D01*
X91294000Y-69240061D01*
X91294000Y-69443939D01*
X91333774Y-69643898D01*
X91411795Y-69832256D01*
X91525063Y-70001774D01*
X91669226Y-70145937D01*
X91838744Y-70259205D01*
X92027102Y-70337226D01*
X92227061Y-70377000D01*
X92430939Y-70377000D01*
X92630898Y-70337226D01*
X92819256Y-70259205D01*
X92988774Y-70145937D01*
X93030711Y-70104000D01*
X93659289Y-70104000D01*
X93701226Y-70145937D01*
X93870744Y-70259205D01*
X94059102Y-70337226D01*
X94259061Y-70377000D01*
X94462939Y-70377000D01*
X94662898Y-70337226D01*
X94851256Y-70259205D01*
X95020774Y-70145937D01*
X95164937Y-70001774D01*
X95278205Y-69832256D01*
X95356226Y-69643898D01*
X95376437Y-69542289D01*
X95396835Y-69644837D01*
X95474856Y-69833195D01*
X95588124Y-70002713D01*
X95732287Y-70146876D01*
X95901805Y-70260144D01*
X96090163Y-70338165D01*
X96290122Y-70377939D01*
X96494000Y-70377939D01*
X96693959Y-70338165D01*
X96882317Y-70260144D01*
X97019564Y-70168439D01*
X98052903Y-70168439D01*
X98188744Y-70259205D01*
X98377102Y-70337226D01*
X98577061Y-70377000D01*
X98780939Y-70377000D01*
X98980898Y-70337226D01*
X99169256Y-70259205D01*
X99338774Y-70145937D01*
X99482937Y-70001774D01*
X99596205Y-69832256D01*
X99674226Y-69643898D01*
X99714000Y-69443939D01*
X99714000Y-69240061D01*
X99674226Y-69040102D01*
X99596205Y-68851744D01*
X99482937Y-68682226D01*
X99338774Y-68538063D01*
X99169256Y-68424795D01*
X98980898Y-68346774D01*
X98780939Y-68307000D01*
X98577061Y-68307000D01*
X98377102Y-68346774D01*
X98188744Y-68424795D01*
X98050092Y-68517439D01*
X97019564Y-68517439D01*
X96882317Y-68425734D01*
X96693959Y-68347713D01*
X96494000Y-68307939D01*
X96290122Y-68307939D01*
X96090163Y-68347713D01*
X95901805Y-68425734D01*
X95732287Y-68539002D01*
X95588124Y-68683165D01*
X95474856Y-68852683D01*
X95396835Y-69041041D01*
X95376624Y-69142650D01*
X95356226Y-69040102D01*
X95278205Y-68851744D01*
X95164937Y-68682226D01*
X95020774Y-68538063D01*
X94851256Y-68424795D01*
X94662898Y-68346774D01*
X94462939Y-68307000D01*
X94259061Y-68307000D01*
X94059102Y-68346774D01*
X93870744Y-68424795D01*
X93701226Y-68538063D01*
X93659289Y-68580000D01*
X93030711Y-68580000D01*
X92988774Y-68538063D01*
X92819256Y-68424795D01*
X92630898Y-68346774D01*
X92430939Y-68307000D01*
X92227061Y-68307000D01*
X92027102Y-68346774D01*
X91838744Y-68424795D01*
X91669226Y-68538063D01*
X91525063Y-68682226D01*
X91411795Y-68851744D01*
X91333774Y-69040102D01*
X91294000Y-69240061D01*
X64160000Y-69240061D01*
X64160000Y-65896000D01*
X87666000Y-65896000D01*
X87666000Y-66446000D01*
X87712585Y-66664987D01*
X87800997Y-66870678D01*
X87927839Y-67055169D01*
X88088236Y-67211369D01*
X88276024Y-67333276D01*
X88499126Y-67413119D01*
X88674000Y-67286954D01*
X88674000Y-65896000D01*
X87666000Y-65896000D01*
X64160000Y-65896000D01*
X64160000Y-65430000D01*
X86835581Y-65430000D01*
X86868000Y-65433193D01*
X86900419Y-65430000D01*
X86997383Y-65420450D01*
X87121793Y-65382710D01*
X87236450Y-65321425D01*
X87336948Y-65238948D01*
X87419425Y-65138450D01*
X87444252Y-65092000D01*
X87666000Y-65092000D01*
X87666000Y-65642000D01*
X88674000Y-65642000D01*
X88674000Y-64251046D01*
X88928000Y-64251046D01*
X88928000Y-65642000D01*
X88948000Y-65642000D01*
X88948000Y-65896000D01*
X88928000Y-65896000D01*
X88928000Y-67286954D01*
X89102874Y-67413119D01*
X89325976Y-67333276D01*
X89513764Y-67211369D01*
X89674161Y-67055169D01*
X89801003Y-66870678D01*
X89889415Y-66664987D01*
X89936000Y-66446000D01*
X89936000Y-66155904D01*
X89950978Y-66162108D01*
X90136448Y-66199000D01*
X90325552Y-66199000D01*
X90511022Y-66162108D01*
X90685731Y-66089741D01*
X90842964Y-65984681D01*
X90976681Y-65850964D01*
X91081741Y-65693731D01*
X91154108Y-65519022D01*
X91191000Y-65333552D01*
X91191000Y-65144448D01*
X95051000Y-65144448D01*
X95051000Y-65333552D01*
X95087892Y-65519022D01*
X95160259Y-65693731D01*
X95265319Y-65850964D01*
X95399036Y-65984681D01*
X95556269Y-66089741D01*
X95730978Y-66162108D01*
X95916448Y-66199000D01*
X96105552Y-66199000D01*
X96291022Y-66162108D01*
X96306000Y-66155904D01*
X96306000Y-66446000D01*
X96352585Y-66664987D01*
X96440997Y-66870678D01*
X96567839Y-67055169D01*
X96728236Y-67211369D01*
X96916024Y-67333276D01*
X97139126Y-67413119D01*
X97314000Y-67286954D01*
X97314000Y-65896000D01*
X97568000Y-65896000D01*
X97568000Y-67286954D01*
X97742874Y-67413119D01*
X97965976Y-67333276D01*
X98153764Y-67211369D01*
X98314161Y-67055169D01*
X98441003Y-66870678D01*
X98529415Y-66664987D01*
X98576000Y-66446000D01*
X98576000Y-65896000D01*
X97568000Y-65896000D01*
X97314000Y-65896000D01*
X97294000Y-65896000D01*
X97294000Y-65642000D01*
X97314000Y-65642000D01*
X97314000Y-64251046D01*
X97568000Y-64251046D01*
X97568000Y-65642000D01*
X98576000Y-65642000D01*
X98576000Y-65092000D01*
X98529415Y-64873013D01*
X98441003Y-64667322D01*
X98314161Y-64482831D01*
X98153764Y-64326631D01*
X97965976Y-64204724D01*
X97742874Y-64124881D01*
X97568000Y-64251046D01*
X97314000Y-64251046D01*
X97139126Y-64124881D01*
X96916024Y-64204724D01*
X96728236Y-64326631D01*
X96583884Y-64467206D01*
X96465731Y-64388259D01*
X96291022Y-64315892D01*
X96105552Y-64279000D01*
X95916448Y-64279000D01*
X95730978Y-64315892D01*
X95556269Y-64388259D01*
X95399036Y-64493319D01*
X95265319Y-64627036D01*
X95160259Y-64784269D01*
X95087892Y-64958978D01*
X95051000Y-65144448D01*
X91191000Y-65144448D01*
X91154108Y-64958978D01*
X91081741Y-64784269D01*
X90976681Y-64627036D01*
X90842964Y-64493319D01*
X90685731Y-64388259D01*
X90511022Y-64315892D01*
X90325552Y-64279000D01*
X90136448Y-64279000D01*
X89950978Y-64315892D01*
X89776269Y-64388259D01*
X89658116Y-64467206D01*
X89513764Y-64326631D01*
X89325976Y-64204724D01*
X89102874Y-64124881D01*
X88928000Y-64251046D01*
X88674000Y-64251046D01*
X88499126Y-64124881D01*
X88276024Y-64204724D01*
X88088236Y-64326631D01*
X87927839Y-64482831D01*
X87800997Y-64667322D01*
X87712585Y-64873013D01*
X87666000Y-65092000D01*
X87444252Y-65092000D01*
X87480710Y-65023793D01*
X87518450Y-64899383D01*
X87531193Y-64770000D01*
X87528000Y-64737581D01*
X87528000Y-61716000D01*
X87666000Y-61716000D01*
X87666000Y-62016000D01*
X87712585Y-62234987D01*
X87800997Y-62440678D01*
X87927839Y-62625169D01*
X88088236Y-62781369D01*
X88276024Y-62903276D01*
X88499126Y-62983119D01*
X88674000Y-62856954D01*
X88674000Y-61716000D01*
X88928000Y-61716000D01*
X88928000Y-62856954D01*
X89102874Y-62983119D01*
X89325976Y-62903276D01*
X89513764Y-62781369D01*
X89674161Y-62625169D01*
X89801003Y-62440678D01*
X89889415Y-62234987D01*
X89936000Y-62016000D01*
X89936000Y-61716000D01*
X96306000Y-61716000D01*
X96306000Y-62016000D01*
X96352585Y-62234987D01*
X96440997Y-62440678D01*
X96567839Y-62625169D01*
X96728236Y-62781369D01*
X96916024Y-62903276D01*
X97139126Y-62983119D01*
X97314000Y-62856954D01*
X97314000Y-61716000D01*
X97568000Y-61716000D01*
X97568000Y-62856954D01*
X97742874Y-62983119D01*
X97965976Y-62903276D01*
X98153764Y-62781369D01*
X98314161Y-62625169D01*
X98441003Y-62440678D01*
X98529415Y-62234987D01*
X98576000Y-62016000D01*
X98576000Y-61716000D01*
X97568000Y-61716000D01*
X97314000Y-61716000D01*
X96306000Y-61716000D01*
X89936000Y-61716000D01*
X88928000Y-61716000D01*
X88674000Y-61716000D01*
X87666000Y-61716000D01*
X87528000Y-61716000D01*
X87528000Y-60731000D01*
X87805344Y-60731000D01*
X87800997Y-60737322D01*
M02*
