G04 #@! TF.GenerationSoftware,KiCad,Pcbnew,(5.1.4)-1*
G04 #@! TF.CreationDate,2022-02-01T02:11:59+08:00*
G04 #@! TF.ProjectId,filled,66696c6c-6564-42e6-9b69-6361645f7063,rev?*
G04 #@! TF.SameCoordinates,Original*
G04 #@! TF.FileFunction,Soldermask,Bot*
G04 #@! TF.FilePolarity,Negative*
%FSLAX46Y46*%
G04 Gerber Fmt 4.6, Leading zero omitted, Abs format (unit mm)*
G04 Created by KiCad (PCBNEW (5.1.4)-1) date 2022-02-01 02:11:59*
%MOMM*%
%LPD*%
G04 APERTURE LIST*
%ADD10C,0.100000*%
G04 APERTURE END LIST*
D10*
G36*
X90830239Y-119054820D02*
G01*
X90867932Y-119066254D01*
X90902668Y-119084821D01*
X90937881Y-119113719D01*
X91706281Y-119882119D01*
X91735179Y-119917332D01*
X91753746Y-119952068D01*
X91765180Y-119989761D01*
X91769040Y-120028956D01*
X91765180Y-120068151D01*
X91753746Y-120105844D01*
X91735179Y-120140580D01*
X91706281Y-120175793D01*
X91114657Y-120767417D01*
X91079444Y-120796315D01*
X91044708Y-120814882D01*
X91007015Y-120826316D01*
X90967820Y-120830176D01*
X90928625Y-120826316D01*
X90890932Y-120814882D01*
X90856196Y-120796315D01*
X90820983Y-120767417D01*
X90052583Y-119999017D01*
X90023685Y-119963804D01*
X90005118Y-119929068D01*
X89993684Y-119891375D01*
X89989824Y-119852180D01*
X89993684Y-119812985D01*
X90005118Y-119775292D01*
X90023685Y-119740556D01*
X90052583Y-119705343D01*
X90644207Y-119113719D01*
X90679420Y-119084821D01*
X90714156Y-119066254D01*
X90751849Y-119054820D01*
X90791044Y-119050960D01*
X90830239Y-119054820D01*
X90830239Y-119054820D01*
G37*
G36*
X99187583Y-117732252D02*
G01*
X99225276Y-117743686D01*
X99260012Y-117762253D01*
X99295225Y-117791151D01*
X99886849Y-118382775D01*
X99915747Y-118417988D01*
X99934314Y-118452724D01*
X99945748Y-118490417D01*
X99949608Y-118529612D01*
X99945748Y-118568807D01*
X99934314Y-118606500D01*
X99915747Y-118641236D01*
X99886849Y-118676449D01*
X99118449Y-119444849D01*
X99083236Y-119473747D01*
X99048500Y-119492314D01*
X99010807Y-119503748D01*
X98971612Y-119507608D01*
X98932417Y-119503748D01*
X98894724Y-119492314D01*
X98859988Y-119473747D01*
X98824775Y-119444849D01*
X98233151Y-118853225D01*
X98204253Y-118818012D01*
X98185686Y-118783276D01*
X98174252Y-118745583D01*
X98170392Y-118706388D01*
X98174252Y-118667193D01*
X98185686Y-118629500D01*
X98204253Y-118594764D01*
X98233151Y-118559551D01*
X99001551Y-117791151D01*
X99036764Y-117762253D01*
X99071500Y-117743686D01*
X99109193Y-117732252D01*
X99148388Y-117728392D01*
X99187583Y-117732252D01*
X99187583Y-117732252D01*
G37*
G36*
X92279807Y-117605252D02*
G01*
X92317500Y-117616686D01*
X92352236Y-117635253D01*
X92387449Y-117664151D01*
X93155849Y-118432551D01*
X93184747Y-118467764D01*
X93203314Y-118502500D01*
X93214748Y-118540193D01*
X93218608Y-118579388D01*
X93214748Y-118618583D01*
X93203314Y-118656276D01*
X93184747Y-118691012D01*
X93155849Y-118726225D01*
X92564225Y-119317849D01*
X92529012Y-119346747D01*
X92494276Y-119365314D01*
X92456583Y-119376748D01*
X92417388Y-119380608D01*
X92378193Y-119376748D01*
X92340500Y-119365314D01*
X92305764Y-119346747D01*
X92270551Y-119317849D01*
X91502151Y-118549449D01*
X91473253Y-118514236D01*
X91454686Y-118479500D01*
X91443252Y-118441807D01*
X91439392Y-118402612D01*
X91443252Y-118363417D01*
X91454686Y-118325724D01*
X91473253Y-118290988D01*
X91502151Y-118255775D01*
X92093775Y-117664151D01*
X92128988Y-117635253D01*
X92163724Y-117616686D01*
X92201417Y-117605252D01*
X92240612Y-117601392D01*
X92279807Y-117605252D01*
X92279807Y-117605252D01*
G37*
G36*
X97738015Y-116282684D02*
G01*
X97775708Y-116294118D01*
X97810444Y-116312685D01*
X97845657Y-116341583D01*
X98437281Y-116933207D01*
X98466179Y-116968420D01*
X98484746Y-117003156D01*
X98496180Y-117040849D01*
X98500040Y-117080044D01*
X98496180Y-117119239D01*
X98484746Y-117156932D01*
X98466179Y-117191668D01*
X98437281Y-117226881D01*
X97668881Y-117995281D01*
X97633668Y-118024179D01*
X97598932Y-118042746D01*
X97561239Y-118054180D01*
X97522044Y-118058040D01*
X97482849Y-118054180D01*
X97445156Y-118042746D01*
X97410420Y-118024179D01*
X97375207Y-117995281D01*
X96783583Y-117403657D01*
X96754685Y-117368444D01*
X96736118Y-117333708D01*
X96724684Y-117296015D01*
X96720824Y-117256820D01*
X96724684Y-117217625D01*
X96736118Y-117179932D01*
X96754685Y-117145196D01*
X96783583Y-117109983D01*
X97551983Y-116341583D01*
X97587196Y-116312685D01*
X97621932Y-116294118D01*
X97659625Y-116282684D01*
X97698820Y-116278824D01*
X97738015Y-116282684D01*
X97738015Y-116282684D01*
G37*
G36*
X103014099Y-116420189D02*
G01*
X101457050Y-117977238D01*
X100112133Y-116632321D01*
X101669182Y-115075272D01*
X103014099Y-116420189D01*
X103014099Y-116420189D01*
G37*
G36*
X88392583Y-115573252D02*
G01*
X88430276Y-115584686D01*
X88465012Y-115603253D01*
X88500225Y-115632151D01*
X89091849Y-116223775D01*
X89120747Y-116258988D01*
X89139314Y-116293724D01*
X89150748Y-116331417D01*
X89154608Y-116370612D01*
X89150748Y-116409807D01*
X89139314Y-116447500D01*
X89120747Y-116482236D01*
X89091849Y-116517449D01*
X88323449Y-117285849D01*
X88288236Y-117314747D01*
X88253500Y-117333314D01*
X88215807Y-117344748D01*
X88176612Y-117348608D01*
X88137417Y-117344748D01*
X88099724Y-117333314D01*
X88064988Y-117314747D01*
X88029775Y-117285849D01*
X87438151Y-116694225D01*
X87409253Y-116659012D01*
X87390686Y-116624276D01*
X87379252Y-116586583D01*
X87375392Y-116547388D01*
X87379252Y-116508193D01*
X87390686Y-116470500D01*
X87409253Y-116435764D01*
X87438151Y-116400551D01*
X88206551Y-115632151D01*
X88241764Y-115603253D01*
X88276500Y-115584686D01*
X88314193Y-115573252D01*
X88353388Y-115569392D01*
X88392583Y-115573252D01*
X88392583Y-115573252D01*
G37*
G36*
X101387753Y-114793843D02*
G01*
X99830704Y-116350892D01*
X98485787Y-115005975D01*
X100042836Y-113448926D01*
X101387753Y-114793843D01*
X101387753Y-114793843D01*
G37*
G36*
X105064709Y-114369579D02*
G01*
X103507660Y-115926628D01*
X102162743Y-114581711D01*
X103719792Y-113024662D01*
X105064709Y-114369579D01*
X105064709Y-114369579D01*
G37*
G36*
X86943015Y-114123684D02*
G01*
X86980708Y-114135118D01*
X87015444Y-114153685D01*
X87050657Y-114182583D01*
X87642281Y-114774207D01*
X87671179Y-114809420D01*
X87689746Y-114844156D01*
X87701180Y-114881849D01*
X87705040Y-114921044D01*
X87701180Y-114960239D01*
X87689746Y-114997932D01*
X87671179Y-115032668D01*
X87642281Y-115067881D01*
X86873881Y-115836281D01*
X86838668Y-115865179D01*
X86803932Y-115883746D01*
X86766239Y-115895180D01*
X86727044Y-115899040D01*
X86687849Y-115895180D01*
X86650156Y-115883746D01*
X86615420Y-115865179D01*
X86580207Y-115836281D01*
X85988583Y-115244657D01*
X85959685Y-115209444D01*
X85941118Y-115174708D01*
X85929684Y-115137015D01*
X85925824Y-115097820D01*
X85929684Y-115058625D01*
X85941118Y-115020932D01*
X85959685Y-114986196D01*
X85988583Y-114950983D01*
X86756983Y-114182583D01*
X86792196Y-114153685D01*
X86826932Y-114135118D01*
X86864625Y-114123684D01*
X86903820Y-114119824D01*
X86943015Y-114123684D01*
X86943015Y-114123684D01*
G37*
G36*
X89099717Y-109847639D02*
G01*
X89099717Y-109847640D01*
X89115981Y-109863904D01*
X89115987Y-109863909D01*
X89204369Y-109952291D01*
X89204369Y-109952290D01*
X89665403Y-110413324D01*
X89665403Y-110413325D01*
X89753785Y-110501707D01*
X89753790Y-110501713D01*
X89770054Y-110517977D01*
X89770054Y-110517976D01*
X90231088Y-110979010D01*
X90231088Y-110979011D01*
X90335739Y-111083662D01*
X90335739Y-111083661D01*
X90796773Y-111544695D01*
X90796773Y-111544696D01*
X90901425Y-111649348D01*
X90901425Y-111649347D01*
X91362459Y-112110381D01*
X91362459Y-112110382D01*
X91467110Y-112215033D01*
X91467110Y-112215032D01*
X91928144Y-112676066D01*
X91928144Y-112676067D01*
X91944408Y-112692331D01*
X91944414Y-112692336D01*
X92032796Y-112780718D01*
X92032796Y-112780717D01*
X92493830Y-113241751D01*
X92493830Y-113241752D01*
X92582212Y-113330134D01*
X92582217Y-113330140D01*
X92598481Y-113346404D01*
X92598481Y-113346403D01*
X93059515Y-113807437D01*
X91856019Y-115010933D01*
X91394985Y-114549899D01*
X91394986Y-114549899D01*
X91306604Y-114461517D01*
X91306599Y-114461511D01*
X91290335Y-114445247D01*
X91290334Y-114445247D01*
X90829300Y-113984213D01*
X90829301Y-113984213D01*
X90813037Y-113967949D01*
X90813031Y-113967944D01*
X90724649Y-113879562D01*
X90724648Y-113879562D01*
X90263614Y-113418528D01*
X90263615Y-113418528D01*
X90158964Y-113313877D01*
X90158963Y-113313877D01*
X89697929Y-112852843D01*
X89697930Y-112852843D01*
X89593278Y-112748191D01*
X89593277Y-112748191D01*
X89132243Y-112287157D01*
X89132244Y-112287157D01*
X89027593Y-112182506D01*
X89027592Y-112182506D01*
X88566558Y-111721472D01*
X88566559Y-111721472D01*
X88478177Y-111633090D01*
X88478172Y-111633084D01*
X88461908Y-111616820D01*
X88461907Y-111616820D01*
X88000873Y-111155786D01*
X88000874Y-111155786D01*
X87984610Y-111139522D01*
X87984604Y-111139517D01*
X87896222Y-111051135D01*
X87896221Y-111051135D01*
X87435187Y-110590101D01*
X88638683Y-109386605D01*
X89099717Y-109847639D01*
X89099717Y-109847639D01*
G37*
G36*
X99069923Y-110590101D02*
G01*
X98608889Y-111051135D01*
X98504237Y-111155786D01*
X98043203Y-111616820D01*
X97938552Y-111721472D01*
X95780462Y-113879562D01*
X95675810Y-113984213D01*
X95214776Y-114445247D01*
X95110125Y-114549899D01*
X94649091Y-115010933D01*
X93445595Y-113807437D01*
X93906629Y-113346403D01*
X93906630Y-113346404D01*
X93922894Y-113330140D01*
X93922903Y-113330129D01*
X94011281Y-113241752D01*
X94011280Y-113241751D01*
X94472314Y-112780717D01*
X94472315Y-112780718D01*
X94560692Y-112692340D01*
X94560703Y-112692331D01*
X94576967Y-112676067D01*
X94576966Y-112676066D01*
X95038000Y-112215032D01*
X95038001Y-112215033D01*
X95126388Y-112126645D01*
X95142652Y-112110382D01*
X95142651Y-112110381D01*
X95603685Y-111649347D01*
X95603686Y-111649348D01*
X95708338Y-111544696D01*
X95708337Y-111544695D01*
X96169371Y-111083661D01*
X96169372Y-111083662D01*
X96257759Y-110995274D01*
X96274023Y-110979011D01*
X96274022Y-110979010D01*
X96735056Y-110517976D01*
X96735057Y-110517977D01*
X96751321Y-110501713D01*
X96751330Y-110501702D01*
X96839708Y-110413325D01*
X96839707Y-110413324D01*
X97300741Y-109952290D01*
X97300742Y-109952291D01*
X97389119Y-109863913D01*
X97389130Y-109863904D01*
X97405394Y-109847640D01*
X97405393Y-109847639D01*
X97866427Y-109386605D01*
X99069923Y-110590101D01*
X99069923Y-110590101D01*
G37*
G36*
X103438363Y-112743233D02*
G01*
X101881314Y-114300282D01*
X100536397Y-112955365D01*
X102093446Y-111398316D01*
X103438363Y-112743233D01*
X103438363Y-112743233D01*
G37*
G36*
X106225151Y-111053820D02*
G01*
X106262844Y-111065254D01*
X106297580Y-111083821D01*
X106332793Y-111112719D01*
X106924417Y-111704343D01*
X106953315Y-111739556D01*
X106971882Y-111774292D01*
X106983316Y-111811985D01*
X106987176Y-111851180D01*
X106983316Y-111890375D01*
X106971882Y-111928068D01*
X106953315Y-111962804D01*
X106924417Y-111998017D01*
X106156017Y-112766417D01*
X106120804Y-112795315D01*
X106086068Y-112813882D01*
X106048375Y-112825316D01*
X106009180Y-112829176D01*
X105969985Y-112825316D01*
X105932292Y-112813882D01*
X105897556Y-112795315D01*
X105862343Y-112766417D01*
X105270719Y-112174793D01*
X105241821Y-112139580D01*
X105223254Y-112104844D01*
X105211820Y-112067151D01*
X105207960Y-112027956D01*
X105211820Y-111988761D01*
X105223254Y-111951068D01*
X105241821Y-111916332D01*
X105270719Y-111881119D01*
X106039119Y-111112719D01*
X106074332Y-111083821D01*
X106109068Y-111065254D01*
X106146761Y-111053820D01*
X106185956Y-111049960D01*
X106225151Y-111053820D01*
X106225151Y-111053820D01*
G37*
G36*
X71078000Y-112759000D02*
G01*
X69176000Y-112759000D01*
X69176000Y-111557000D01*
X71078000Y-111557000D01*
X71078000Y-112759000D01*
X71078000Y-112759000D01*
G37*
G36*
X77278000Y-112759000D02*
G01*
X75376000Y-112759000D01*
X75376000Y-111557000D01*
X77278000Y-111557000D01*
X77278000Y-112759000D01*
X77278000Y-112759000D01*
G37*
G36*
X104775583Y-109604252D02*
G01*
X104813276Y-109615686D01*
X104848012Y-109634253D01*
X104883225Y-109663151D01*
X105474849Y-110254775D01*
X105503747Y-110289988D01*
X105522314Y-110324724D01*
X105533748Y-110362417D01*
X105537608Y-110401612D01*
X105533748Y-110440807D01*
X105522314Y-110478500D01*
X105503747Y-110513236D01*
X105474849Y-110548449D01*
X104706449Y-111316849D01*
X104671236Y-111345747D01*
X104636500Y-111364314D01*
X104598807Y-111375748D01*
X104559612Y-111379608D01*
X104520417Y-111375748D01*
X104482724Y-111364314D01*
X104447988Y-111345747D01*
X104412775Y-111316849D01*
X103821151Y-110725225D01*
X103792253Y-110690012D01*
X103773686Y-110655276D01*
X103762252Y-110617583D01*
X103758392Y-110578388D01*
X103762252Y-110539193D01*
X103773686Y-110501500D01*
X103792253Y-110466764D01*
X103821151Y-110431551D01*
X104589551Y-109663151D01*
X104624764Y-109634253D01*
X104659500Y-109615686D01*
X104697193Y-109604252D01*
X104736388Y-109600392D01*
X104775583Y-109604252D01*
X104775583Y-109604252D01*
G37*
G36*
X79709674Y-109868466D02*
G01*
X79747367Y-109879900D01*
X79782103Y-109898467D01*
X79812548Y-109923453D01*
X79837534Y-109953898D01*
X79856101Y-109988634D01*
X79867535Y-110026327D01*
X79872000Y-110071662D01*
X79872000Y-110908340D01*
X79867535Y-110953675D01*
X79856101Y-110991368D01*
X79837534Y-111026104D01*
X79812548Y-111056549D01*
X79782103Y-111081535D01*
X79747367Y-111100102D01*
X79709674Y-111111536D01*
X79664339Y-111116001D01*
X78577661Y-111116001D01*
X78532326Y-111111536D01*
X78494633Y-111100102D01*
X78459897Y-111081535D01*
X78429452Y-111056549D01*
X78404466Y-111026104D01*
X78385899Y-110991368D01*
X78374465Y-110953675D01*
X78370000Y-110908340D01*
X78370000Y-110071662D01*
X78374465Y-110026327D01*
X78385899Y-109988634D01*
X78404466Y-109953898D01*
X78429452Y-109923453D01*
X78459897Y-109898467D01*
X78494633Y-109879900D01*
X78532326Y-109868466D01*
X78577661Y-109864001D01*
X79664339Y-109864001D01*
X79709674Y-109868466D01*
X79709674Y-109868466D01*
G37*
G36*
X79709674Y-107818466D02*
G01*
X79747367Y-107829900D01*
X79782103Y-107848467D01*
X79812548Y-107873453D01*
X79837534Y-107903898D01*
X79856101Y-107938634D01*
X79867535Y-107976327D01*
X79872000Y-108021662D01*
X79872000Y-108858340D01*
X79867535Y-108903675D01*
X79856101Y-108941368D01*
X79837534Y-108976104D01*
X79812548Y-109006549D01*
X79782103Y-109031535D01*
X79747367Y-109050102D01*
X79709674Y-109061536D01*
X79664339Y-109066001D01*
X78577661Y-109066001D01*
X78532326Y-109061536D01*
X78494633Y-109050102D01*
X78459897Y-109031535D01*
X78429452Y-109006549D01*
X78404466Y-108976104D01*
X78385899Y-108941368D01*
X78374465Y-108903675D01*
X78370000Y-108858340D01*
X78370000Y-108021662D01*
X78374465Y-107976327D01*
X78385899Y-107938634D01*
X78404466Y-107903898D01*
X78429452Y-107873453D01*
X78459897Y-107848467D01*
X78494633Y-107829900D01*
X78532326Y-107818466D01*
X78577661Y-107814001D01*
X79664339Y-107814001D01*
X79709674Y-107818466D01*
X79709674Y-107818466D01*
G37*
G36*
X71078000Y-109059000D02*
G01*
X69176000Y-109059000D01*
X69176000Y-107857000D01*
X71078000Y-107857000D01*
X71078000Y-109059000D01*
X71078000Y-109059000D01*
G37*
G36*
X77278000Y-109059000D02*
G01*
X75376000Y-109059000D01*
X75376000Y-107857000D01*
X77278000Y-107857000D01*
X77278000Y-109059000D01*
X77278000Y-109059000D01*
G37*
G36*
X95110125Y-103837231D02*
G01*
X95110125Y-103837232D01*
X95198507Y-103925614D01*
X95198512Y-103925620D01*
X95214776Y-103941884D01*
X95214776Y-103941883D01*
X95675810Y-104402917D01*
X95675810Y-104402918D01*
X95692074Y-104419182D01*
X95692080Y-104419187D01*
X95780462Y-104507569D01*
X95780462Y-104507568D01*
X96241496Y-104968602D01*
X96241496Y-104968603D01*
X96346147Y-105073254D01*
X96346147Y-105073253D01*
X96807181Y-105534287D01*
X96807181Y-105534288D01*
X96911833Y-105638940D01*
X96911833Y-105638939D01*
X97372867Y-106099973D01*
X97372867Y-106099974D01*
X97477518Y-106204625D01*
X97477518Y-106204624D01*
X97938552Y-106665658D01*
X97938552Y-106665659D01*
X98026934Y-106754041D01*
X98026939Y-106754047D01*
X98043203Y-106770311D01*
X98043203Y-106770310D01*
X98504237Y-107231344D01*
X98504237Y-107231345D01*
X98520501Y-107247609D01*
X98520507Y-107247614D01*
X98608889Y-107335996D01*
X98608889Y-107335995D01*
X99069923Y-107797029D01*
X97866427Y-109000525D01*
X97405393Y-108539491D01*
X97405394Y-108539491D01*
X97389130Y-108523227D01*
X97389124Y-108523222D01*
X97300742Y-108434840D01*
X97300741Y-108434840D01*
X96839707Y-107973806D01*
X96839708Y-107973806D01*
X96751326Y-107885424D01*
X96751321Y-107885418D01*
X96735057Y-107869154D01*
X96735056Y-107869154D01*
X96274022Y-107408120D01*
X96274023Y-107408120D01*
X96169372Y-107303469D01*
X96169371Y-107303469D01*
X95708337Y-106842435D01*
X95708338Y-106842435D01*
X95603686Y-106737783D01*
X95603685Y-106737783D01*
X95142651Y-106276749D01*
X95142652Y-106276749D01*
X95038001Y-106172098D01*
X95038000Y-106172098D01*
X94576966Y-105711064D01*
X94576967Y-105711064D01*
X94560703Y-105694800D01*
X94560697Y-105694795D01*
X94472315Y-105606413D01*
X94472314Y-105606413D01*
X94011280Y-105145379D01*
X94011281Y-105145379D01*
X93922899Y-105056997D01*
X93922894Y-105056991D01*
X93906630Y-105040727D01*
X93906629Y-105040727D01*
X93445595Y-104579693D01*
X94649091Y-103376197D01*
X95110125Y-103837231D01*
X95110125Y-103837231D01*
G37*
G36*
X93059515Y-104579693D02*
G01*
X92582217Y-105056991D01*
X92493830Y-105145379D01*
X92032796Y-105606413D01*
X91944408Y-105694800D01*
X91467110Y-106172098D01*
X91378722Y-106260485D01*
X91362459Y-106276749D01*
X90335739Y-107303469D01*
X90247351Y-107391856D01*
X90231088Y-107408120D01*
X89753790Y-107885418D01*
X89665403Y-107973806D01*
X89204369Y-108434840D01*
X89115981Y-108523227D01*
X88638683Y-109000525D01*
X87435187Y-107797029D01*
X87896221Y-107335995D01*
X87896222Y-107335996D01*
X87984599Y-107247618D01*
X87984610Y-107247609D01*
X88000874Y-107231345D01*
X88000873Y-107231344D01*
X88461907Y-106770310D01*
X88461908Y-106770311D01*
X88478172Y-106754047D01*
X88478181Y-106754036D01*
X88566559Y-106665659D01*
X88566558Y-106665658D01*
X89027592Y-106204624D01*
X89027593Y-106204625D01*
X89132244Y-106099974D01*
X89132243Y-106099973D01*
X89593277Y-105638939D01*
X89593278Y-105638940D01*
X89697930Y-105534288D01*
X89697929Y-105534287D01*
X90158963Y-105073253D01*
X90158964Y-105073254D01*
X90263615Y-104968603D01*
X90263614Y-104968602D01*
X90724648Y-104507568D01*
X90724649Y-104507569D01*
X90813026Y-104419191D01*
X90813037Y-104419182D01*
X90829301Y-104402918D01*
X90829300Y-104402917D01*
X91290334Y-103941883D01*
X91290335Y-103941884D01*
X91306599Y-103925620D01*
X91306608Y-103925609D01*
X91394986Y-103837232D01*
X91394985Y-103837231D01*
X91856019Y-103376197D01*
X93059515Y-104579693D01*
X93059515Y-104579693D01*
G37*
G36*
X102895239Y-106354820D02*
G01*
X102932932Y-106366254D01*
X102967668Y-106384821D01*
X103002881Y-106413719D01*
X103771281Y-107182119D01*
X103800179Y-107217332D01*
X103818746Y-107252068D01*
X103830180Y-107289761D01*
X103834040Y-107328956D01*
X103830180Y-107368151D01*
X103818746Y-107405844D01*
X103800179Y-107440580D01*
X103771281Y-107475793D01*
X103179657Y-108067417D01*
X103144444Y-108096315D01*
X103109708Y-108114882D01*
X103072015Y-108126316D01*
X103032820Y-108130176D01*
X102993625Y-108126316D01*
X102955932Y-108114882D01*
X102921196Y-108096315D01*
X102885983Y-108067417D01*
X102117583Y-107299017D01*
X102088685Y-107263804D01*
X102070118Y-107229068D01*
X102058684Y-107191375D01*
X102054824Y-107152180D01*
X102058684Y-107112985D01*
X102070118Y-107075292D01*
X102088685Y-107040556D01*
X102117583Y-107005343D01*
X102709207Y-106413719D01*
X102744420Y-106384821D01*
X102779156Y-106366254D01*
X102816849Y-106354820D01*
X102856044Y-106350960D01*
X102895239Y-106354820D01*
X102895239Y-106354820D01*
G37*
G36*
X104344807Y-104905252D02*
G01*
X104382500Y-104916686D01*
X104417236Y-104935253D01*
X104452449Y-104964151D01*
X105220849Y-105732551D01*
X105249747Y-105767764D01*
X105268314Y-105802500D01*
X105279748Y-105840193D01*
X105283608Y-105879388D01*
X105279748Y-105918583D01*
X105268314Y-105956276D01*
X105249747Y-105991012D01*
X105220849Y-106026225D01*
X104629225Y-106617849D01*
X104594012Y-106646747D01*
X104559276Y-106665314D01*
X104521583Y-106676748D01*
X104482388Y-106680608D01*
X104443193Y-106676748D01*
X104405500Y-106665314D01*
X104370764Y-106646747D01*
X104335551Y-106617849D01*
X103567151Y-105849449D01*
X103538253Y-105814236D01*
X103519686Y-105779500D01*
X103508252Y-105741807D01*
X103504392Y-105702612D01*
X103508252Y-105663417D01*
X103519686Y-105625724D01*
X103538253Y-105590988D01*
X103567151Y-105555775D01*
X104158775Y-104964151D01*
X104193988Y-104935253D01*
X104228724Y-104916686D01*
X104266417Y-104905252D01*
X104305612Y-104901392D01*
X104344807Y-104905252D01*
X104344807Y-104905252D01*
G37*
G36*
X100863239Y-103560820D02*
G01*
X100900932Y-103572254D01*
X100935668Y-103590821D01*
X100970881Y-103619719D01*
X101739281Y-104388119D01*
X101768179Y-104423332D01*
X101786746Y-104458068D01*
X101798180Y-104495761D01*
X101802040Y-104534956D01*
X101798180Y-104574151D01*
X101786746Y-104611844D01*
X101768179Y-104646580D01*
X101739281Y-104681793D01*
X101147657Y-105273417D01*
X101112444Y-105302315D01*
X101077708Y-105320882D01*
X101040015Y-105332316D01*
X101000820Y-105336176D01*
X100961625Y-105332316D01*
X100923932Y-105320882D01*
X100889196Y-105302315D01*
X100853983Y-105273417D01*
X100085583Y-104505017D01*
X100056685Y-104469804D01*
X100038118Y-104435068D01*
X100026684Y-104397375D01*
X100022824Y-104358180D01*
X100026684Y-104318985D01*
X100038118Y-104281292D01*
X100056685Y-104246556D01*
X100085583Y-104211343D01*
X100677207Y-103619719D01*
X100712420Y-103590821D01*
X100747156Y-103572254D01*
X100784849Y-103560820D01*
X100824044Y-103556960D01*
X100863239Y-103560820D01*
X100863239Y-103560820D01*
G37*
G36*
X102312807Y-102111252D02*
G01*
X102350500Y-102122686D01*
X102385236Y-102141253D01*
X102420449Y-102170151D01*
X103188849Y-102938551D01*
X103217747Y-102973764D01*
X103236314Y-103008500D01*
X103247748Y-103046193D01*
X103251608Y-103085388D01*
X103247748Y-103124583D01*
X103236314Y-103162276D01*
X103217747Y-103197012D01*
X103188849Y-103232225D01*
X102597225Y-103823849D01*
X102562012Y-103852747D01*
X102527276Y-103871314D01*
X102489583Y-103882748D01*
X102450388Y-103886608D01*
X102411193Y-103882748D01*
X102373500Y-103871314D01*
X102338764Y-103852747D01*
X102303551Y-103823849D01*
X101535151Y-103055449D01*
X101506253Y-103020236D01*
X101487686Y-102985500D01*
X101476252Y-102947807D01*
X101472392Y-102908612D01*
X101476252Y-102869417D01*
X101487686Y-102831724D01*
X101506253Y-102796988D01*
X101535151Y-102761775D01*
X102126775Y-102170151D01*
X102161988Y-102141253D01*
X102196724Y-102122686D01*
X102234417Y-102111252D01*
X102273612Y-102107392D01*
X102312807Y-102111252D01*
X102312807Y-102111252D01*
G37*
G36*
X99339239Y-102036820D02*
G01*
X99376932Y-102048254D01*
X99411668Y-102066821D01*
X99446881Y-102095719D01*
X100215281Y-102864119D01*
X100244179Y-102899332D01*
X100262746Y-102934068D01*
X100274180Y-102971761D01*
X100278040Y-103010956D01*
X100274180Y-103050151D01*
X100262746Y-103087844D01*
X100244179Y-103122580D01*
X100215281Y-103157793D01*
X99623657Y-103749417D01*
X99588444Y-103778315D01*
X99553708Y-103796882D01*
X99516015Y-103808316D01*
X99476820Y-103812176D01*
X99437625Y-103808316D01*
X99399932Y-103796882D01*
X99365196Y-103778315D01*
X99329983Y-103749417D01*
X98561583Y-102981017D01*
X98532685Y-102945804D01*
X98514118Y-102911068D01*
X98502684Y-102873375D01*
X98498824Y-102834180D01*
X98502684Y-102794985D01*
X98514118Y-102757292D01*
X98532685Y-102722556D01*
X98561583Y-102687343D01*
X99153207Y-102095719D01*
X99188420Y-102066821D01*
X99223156Y-102048254D01*
X99260849Y-102036820D01*
X99300044Y-102032960D01*
X99339239Y-102036820D01*
X99339239Y-102036820D01*
G37*
G36*
X100788807Y-100587252D02*
G01*
X100826500Y-100598686D01*
X100861236Y-100617253D01*
X100896449Y-100646151D01*
X101664849Y-101414551D01*
X101693747Y-101449764D01*
X101712314Y-101484500D01*
X101723748Y-101522193D01*
X101727608Y-101561388D01*
X101723748Y-101600583D01*
X101712314Y-101638276D01*
X101693747Y-101673012D01*
X101664849Y-101708225D01*
X101073225Y-102299849D01*
X101038012Y-102328747D01*
X101003276Y-102347314D01*
X100965583Y-102358748D01*
X100926388Y-102362608D01*
X100887193Y-102358748D01*
X100849500Y-102347314D01*
X100814764Y-102328747D01*
X100779551Y-102299849D01*
X100011151Y-101531449D01*
X99982253Y-101496236D01*
X99963686Y-101461500D01*
X99952252Y-101423807D01*
X99948392Y-101384612D01*
X99952252Y-101345417D01*
X99963686Y-101307724D01*
X99982253Y-101272988D01*
X100011151Y-101237775D01*
X100602775Y-100646151D01*
X100637988Y-100617253D01*
X100672724Y-100598686D01*
X100710417Y-100587252D01*
X100749612Y-100583392D01*
X100788807Y-100587252D01*
X100788807Y-100587252D01*
G37*
G36*
X96597807Y-100079252D02*
G01*
X96635500Y-100090686D01*
X96670236Y-100109253D01*
X96705449Y-100138151D01*
X97473849Y-100906551D01*
X97502747Y-100941764D01*
X97521314Y-100976500D01*
X97532748Y-101014193D01*
X97536608Y-101053388D01*
X97532748Y-101092583D01*
X97521314Y-101130276D01*
X97502747Y-101165012D01*
X97473849Y-101200225D01*
X96882225Y-101791849D01*
X96847012Y-101820747D01*
X96812276Y-101839314D01*
X96774583Y-101850748D01*
X96735388Y-101854608D01*
X96696193Y-101850748D01*
X96658500Y-101839314D01*
X96623764Y-101820747D01*
X96588551Y-101791849D01*
X95820151Y-101023449D01*
X95791253Y-100988236D01*
X95772686Y-100953500D01*
X95761252Y-100915807D01*
X95757392Y-100876612D01*
X95761252Y-100837417D01*
X95772686Y-100799724D01*
X95791253Y-100764988D01*
X95820151Y-100729775D01*
X96411775Y-100138151D01*
X96446988Y-100109253D01*
X96481724Y-100090686D01*
X96519417Y-100079252D01*
X96558612Y-100075392D01*
X96597807Y-100079252D01*
X96597807Y-100079252D01*
G37*
G36*
X98047375Y-98629684D02*
G01*
X98085068Y-98641118D01*
X98119804Y-98659685D01*
X98155017Y-98688583D01*
X98923417Y-99456983D01*
X98952315Y-99492196D01*
X98970882Y-99526932D01*
X98982316Y-99564625D01*
X98986176Y-99603820D01*
X98982316Y-99643015D01*
X98970882Y-99680708D01*
X98952315Y-99715444D01*
X98923417Y-99750657D01*
X98331793Y-100342281D01*
X98296580Y-100371179D01*
X98261844Y-100389746D01*
X98224151Y-100401180D01*
X98184956Y-100405040D01*
X98145761Y-100401180D01*
X98108068Y-100389746D01*
X98073332Y-100371179D01*
X98038119Y-100342281D01*
X97269719Y-99573881D01*
X97240821Y-99538668D01*
X97222254Y-99503932D01*
X97210820Y-99466239D01*
X97206960Y-99427044D01*
X97210820Y-99387849D01*
X97222254Y-99350156D01*
X97240821Y-99315420D01*
X97269719Y-99280207D01*
X97861343Y-98688583D01*
X97896556Y-98659685D01*
X97931292Y-98641118D01*
X97968985Y-98629684D01*
X98008180Y-98625824D01*
X98047375Y-98629684D01*
X98047375Y-98629684D01*
G37*
G36*
X73105674Y-98946466D02*
G01*
X73143367Y-98957900D01*
X73178103Y-98976467D01*
X73208548Y-99001453D01*
X73233534Y-99031898D01*
X73252101Y-99066634D01*
X73263535Y-99104327D01*
X73268000Y-99149662D01*
X73268000Y-99986340D01*
X73263535Y-100031675D01*
X73252101Y-100069368D01*
X73233534Y-100104104D01*
X73208548Y-100134549D01*
X73178103Y-100159535D01*
X73143367Y-100178102D01*
X73105674Y-100189536D01*
X73060339Y-100194001D01*
X71973661Y-100194001D01*
X71928326Y-100189536D01*
X71890633Y-100178102D01*
X71855897Y-100159535D01*
X71825452Y-100134549D01*
X71800466Y-100104104D01*
X71781899Y-100069368D01*
X71770465Y-100031675D01*
X71766000Y-99986340D01*
X71766000Y-99149662D01*
X71770465Y-99104327D01*
X71781899Y-99066634D01*
X71800466Y-99031898D01*
X71825452Y-99001453D01*
X71855897Y-98976467D01*
X71890633Y-98957900D01*
X71928326Y-98946466D01*
X71973661Y-98942001D01*
X73060339Y-98942001D01*
X73105674Y-98946466D01*
X73105674Y-98946466D01*
G37*
G36*
X80848000Y-100068000D02*
G01*
X79246000Y-100068000D01*
X79246000Y-98966000D01*
X80848000Y-98966000D01*
X80848000Y-100068000D01*
X80848000Y-100068000D01*
G37*
G36*
X106936000Y-100068000D02*
G01*
X105334000Y-100068000D01*
X105334000Y-98966000D01*
X106936000Y-98966000D01*
X106936000Y-100068000D01*
X106936000Y-100068000D01*
G37*
G36*
X75948000Y-100068000D02*
G01*
X74346000Y-100068000D01*
X74346000Y-98966000D01*
X75948000Y-98966000D01*
X75948000Y-100068000D01*
X75948000Y-100068000D01*
G37*
G36*
X111836000Y-100068000D02*
G01*
X110234000Y-100068000D01*
X110234000Y-98966000D01*
X111836000Y-98966000D01*
X111836000Y-100068000D01*
X111836000Y-100068000D01*
G37*
G36*
X114126674Y-97803465D02*
G01*
X114164367Y-97814899D01*
X114199103Y-97833466D01*
X114229548Y-97858452D01*
X114254534Y-97888897D01*
X114273101Y-97923633D01*
X114284535Y-97961326D01*
X114289000Y-98006661D01*
X114289000Y-98843339D01*
X114284535Y-98888674D01*
X114273101Y-98926367D01*
X114254534Y-98961103D01*
X114229548Y-98991548D01*
X114199103Y-99016534D01*
X114164367Y-99035101D01*
X114126674Y-99046535D01*
X114081339Y-99051000D01*
X112994661Y-99051000D01*
X112949326Y-99046535D01*
X112911633Y-99035101D01*
X112876897Y-99016534D01*
X112846452Y-98991548D01*
X112821466Y-98961103D01*
X112802899Y-98926367D01*
X112791465Y-98888674D01*
X112787000Y-98843339D01*
X112787000Y-98006661D01*
X112791465Y-97961326D01*
X112802899Y-97923633D01*
X112821466Y-97888897D01*
X112846452Y-97858452D01*
X112876897Y-97833466D01*
X112911633Y-97814899D01*
X112949326Y-97803465D01*
X112994661Y-97799000D01*
X114081339Y-97799000D01*
X114126674Y-97803465D01*
X114126674Y-97803465D01*
G37*
G36*
X73105674Y-96896466D02*
G01*
X73143367Y-96907900D01*
X73178103Y-96926467D01*
X73208548Y-96951453D01*
X73233534Y-96981898D01*
X73252101Y-97016634D01*
X73263535Y-97054327D01*
X73268000Y-97099662D01*
X73268000Y-97936340D01*
X73263535Y-97981675D01*
X73252101Y-98019368D01*
X73233534Y-98054104D01*
X73208548Y-98084549D01*
X73178103Y-98109535D01*
X73143367Y-98128102D01*
X73105674Y-98139536D01*
X73060339Y-98144001D01*
X71973661Y-98144001D01*
X71928326Y-98139536D01*
X71890633Y-98128102D01*
X71855897Y-98109535D01*
X71825452Y-98084549D01*
X71800466Y-98054104D01*
X71781899Y-98019368D01*
X71770465Y-97981675D01*
X71766000Y-97936340D01*
X71766000Y-97099662D01*
X71770465Y-97054327D01*
X71781899Y-97016634D01*
X71800466Y-96981898D01*
X71825452Y-96951453D01*
X71855897Y-96926467D01*
X71890633Y-96907900D01*
X71928326Y-96896466D01*
X71973661Y-96892001D01*
X73060339Y-96892001D01*
X73105674Y-96896466D01*
X73105674Y-96896466D01*
G37*
G36*
X114126674Y-95753465D02*
G01*
X114164367Y-95764899D01*
X114199103Y-95783466D01*
X114229548Y-95808452D01*
X114254534Y-95838897D01*
X114273101Y-95873633D01*
X114284535Y-95911326D01*
X114289000Y-95956661D01*
X114289000Y-96793339D01*
X114284535Y-96838674D01*
X114273101Y-96876367D01*
X114254534Y-96911103D01*
X114229548Y-96941548D01*
X114199103Y-96966534D01*
X114164367Y-96985101D01*
X114126674Y-96996535D01*
X114081339Y-97001000D01*
X112994661Y-97001000D01*
X112949326Y-96996535D01*
X112911633Y-96985101D01*
X112876897Y-96966534D01*
X112846452Y-96941548D01*
X112821466Y-96911103D01*
X112802899Y-96876367D01*
X112791465Y-96838674D01*
X112787000Y-96793339D01*
X112787000Y-95956661D01*
X112791465Y-95911326D01*
X112802899Y-95873633D01*
X112821466Y-95838897D01*
X112846452Y-95808452D01*
X112876897Y-95783466D01*
X112911633Y-95764899D01*
X112949326Y-95753465D01*
X112994661Y-95749000D01*
X114081339Y-95749000D01*
X114126674Y-95753465D01*
X114126674Y-95753465D01*
G37*
G36*
X75948000Y-96868000D02*
G01*
X74346000Y-96868000D01*
X74346000Y-95766000D01*
X75948000Y-95766000D01*
X75948000Y-96868000D01*
X75948000Y-96868000D01*
G37*
G36*
X111836000Y-96868000D02*
G01*
X110234000Y-96868000D01*
X110234000Y-95766000D01*
X111836000Y-95766000D01*
X111836000Y-96868000D01*
X111836000Y-96868000D01*
G37*
G36*
X80848000Y-96868000D02*
G01*
X79246000Y-96868000D01*
X79246000Y-95766000D01*
X80848000Y-95766000D01*
X80848000Y-96868000D01*
X80848000Y-96868000D01*
G37*
G36*
X106936000Y-96868000D02*
G01*
X105334000Y-96868000D01*
X105334000Y-95766000D01*
X106936000Y-95766000D01*
X106936000Y-96868000D01*
X106936000Y-96868000D01*
G37*
G36*
X71832585Y-91188802D02*
G01*
X71982410Y-91218604D01*
X72264674Y-91335521D01*
X72518705Y-91505259D01*
X72734741Y-91721295D01*
X72904479Y-91975326D01*
X73021396Y-92257590D01*
X73081000Y-92557240D01*
X73081000Y-92862760D01*
X73021396Y-93162410D01*
X72904479Y-93444674D01*
X72734741Y-93698705D01*
X72518705Y-93914741D01*
X72264674Y-94084479D01*
X71982410Y-94201396D01*
X71832585Y-94231198D01*
X71682761Y-94261000D01*
X71377239Y-94261000D01*
X71227415Y-94231198D01*
X71077590Y-94201396D01*
X70795326Y-94084479D01*
X70541295Y-93914741D01*
X70325259Y-93698705D01*
X70155521Y-93444674D01*
X70038604Y-93162410D01*
X69979000Y-92862760D01*
X69979000Y-92557240D01*
X70038604Y-92257590D01*
X70155521Y-91975326D01*
X70325259Y-91721295D01*
X70541295Y-91505259D01*
X70795326Y-91335521D01*
X71077590Y-91218604D01*
X71227415Y-91188802D01*
X71377239Y-91159000D01*
X71682761Y-91159000D01*
X71832585Y-91188802D01*
X71832585Y-91188802D01*
G37*
G36*
X90883585Y-91188802D02*
G01*
X91033410Y-91218604D01*
X91315674Y-91335521D01*
X91569705Y-91505259D01*
X91785741Y-91721295D01*
X91955479Y-91975326D01*
X92072396Y-92257590D01*
X92132000Y-92557240D01*
X92132000Y-92862760D01*
X92072396Y-93162410D01*
X91955479Y-93444674D01*
X91785741Y-93698705D01*
X91569705Y-93914741D01*
X91315674Y-94084479D01*
X91033410Y-94201396D01*
X90883585Y-94231198D01*
X90733761Y-94261000D01*
X90428239Y-94261000D01*
X90278415Y-94231198D01*
X90128590Y-94201396D01*
X89846326Y-94084479D01*
X89592295Y-93914741D01*
X89376259Y-93698705D01*
X89206521Y-93444674D01*
X89089604Y-93162410D01*
X89030000Y-92862760D01*
X89030000Y-92557240D01*
X89089604Y-92257590D01*
X89206521Y-91975326D01*
X89376259Y-91721295D01*
X89592295Y-91505259D01*
X89846326Y-91335521D01*
X90128590Y-91218604D01*
X90278415Y-91188802D01*
X90428239Y-91159000D01*
X90733761Y-91159000D01*
X90883585Y-91188802D01*
X90883585Y-91188802D01*
G37*
G36*
X109932585Y-91178802D02*
G01*
X110082410Y-91208604D01*
X110364674Y-91325521D01*
X110618705Y-91495259D01*
X110834741Y-91711295D01*
X111004479Y-91965326D01*
X111121396Y-92247590D01*
X111181000Y-92547240D01*
X111181000Y-92852760D01*
X111121396Y-93152410D01*
X111004479Y-93434674D01*
X110834741Y-93688705D01*
X110618705Y-93904741D01*
X110364674Y-94074479D01*
X110082410Y-94191396D01*
X109932585Y-94221198D01*
X109782761Y-94251000D01*
X109477239Y-94251000D01*
X109327415Y-94221198D01*
X109177590Y-94191396D01*
X108895326Y-94074479D01*
X108641295Y-93904741D01*
X108425259Y-93688705D01*
X108255521Y-93434674D01*
X108138604Y-93152410D01*
X108079000Y-92852760D01*
X108079000Y-92547240D01*
X108138604Y-92247590D01*
X108255521Y-91965326D01*
X108425259Y-91711295D01*
X108641295Y-91495259D01*
X108895326Y-91325521D01*
X109177590Y-91208604D01*
X109327415Y-91178802D01*
X109477239Y-91149000D01*
X109782761Y-91149000D01*
X109932585Y-91178802D01*
X109932585Y-91178802D01*
G37*
G36*
X88605000Y-94011000D02*
G01*
X85953000Y-94011000D01*
X85953000Y-91409000D01*
X88605000Y-91409000D01*
X88605000Y-94011000D01*
X88605000Y-94011000D01*
G37*
G36*
X69554000Y-94011000D02*
G01*
X66902000Y-94011000D01*
X66902000Y-91409000D01*
X69554000Y-91409000D01*
X69554000Y-94011000D01*
X69554000Y-94011000D01*
G37*
G36*
X107654000Y-94001000D02*
G01*
X105002000Y-94001000D01*
X105002000Y-91399000D01*
X107654000Y-91399000D01*
X107654000Y-94001000D01*
X107654000Y-94001000D01*
G37*
G36*
X78182585Y-88648802D02*
G01*
X78332410Y-88678604D01*
X78614674Y-88795521D01*
X78868705Y-88965259D01*
X79084741Y-89181295D01*
X79254479Y-89435326D01*
X79371396Y-89717590D01*
X79431000Y-90017240D01*
X79431000Y-90322760D01*
X79371396Y-90622410D01*
X79254479Y-90904674D01*
X79084741Y-91158705D01*
X78868705Y-91374741D01*
X78614674Y-91544479D01*
X78332410Y-91661396D01*
X78182585Y-91691198D01*
X78032761Y-91721000D01*
X77727239Y-91721000D01*
X77577415Y-91691198D01*
X77427590Y-91661396D01*
X77145326Y-91544479D01*
X76891295Y-91374741D01*
X76675259Y-91158705D01*
X76505521Y-90904674D01*
X76388604Y-90622410D01*
X76329000Y-90322760D01*
X76329000Y-90017240D01*
X76388604Y-89717590D01*
X76505521Y-89435326D01*
X76675259Y-89181295D01*
X76891295Y-88965259D01*
X77145326Y-88795521D01*
X77427590Y-88678604D01*
X77577415Y-88648802D01*
X77727239Y-88619000D01*
X78032761Y-88619000D01*
X78182585Y-88648802D01*
X78182585Y-88648802D01*
G37*
G36*
X97233585Y-88648802D02*
G01*
X97383410Y-88678604D01*
X97665674Y-88795521D01*
X97919705Y-88965259D01*
X98135741Y-89181295D01*
X98305479Y-89435326D01*
X98422396Y-89717590D01*
X98482000Y-90017240D01*
X98482000Y-90322760D01*
X98422396Y-90622410D01*
X98305479Y-90904674D01*
X98135741Y-91158705D01*
X97919705Y-91374741D01*
X97665674Y-91544479D01*
X97383410Y-91661396D01*
X97233585Y-91691198D01*
X97083761Y-91721000D01*
X96778239Y-91721000D01*
X96628415Y-91691198D01*
X96478590Y-91661396D01*
X96196326Y-91544479D01*
X95942295Y-91374741D01*
X95726259Y-91158705D01*
X95556521Y-90904674D01*
X95439604Y-90622410D01*
X95380000Y-90322760D01*
X95380000Y-90017240D01*
X95439604Y-89717590D01*
X95556521Y-89435326D01*
X95726259Y-89181295D01*
X95942295Y-88965259D01*
X96196326Y-88795521D01*
X96478590Y-88678604D01*
X96628415Y-88648802D01*
X96778239Y-88619000D01*
X97083761Y-88619000D01*
X97233585Y-88648802D01*
X97233585Y-88648802D01*
G37*
G36*
X116282585Y-88638802D02*
G01*
X116432410Y-88668604D01*
X116714674Y-88785521D01*
X116968705Y-88955259D01*
X117184741Y-89171295D01*
X117354479Y-89425326D01*
X117471396Y-89707590D01*
X117531000Y-90007240D01*
X117531000Y-90312760D01*
X117471396Y-90612410D01*
X117354479Y-90894674D01*
X117184741Y-91148705D01*
X116968705Y-91364741D01*
X116714674Y-91534479D01*
X116432410Y-91651396D01*
X116282585Y-91681198D01*
X116132761Y-91711000D01*
X115827239Y-91711000D01*
X115677415Y-91681198D01*
X115527590Y-91651396D01*
X115245326Y-91534479D01*
X114991295Y-91364741D01*
X114775259Y-91148705D01*
X114605521Y-90894674D01*
X114488604Y-90612410D01*
X114429000Y-90312760D01*
X114429000Y-90007240D01*
X114488604Y-89707590D01*
X114605521Y-89425326D01*
X114775259Y-89171295D01*
X114991295Y-88955259D01*
X115245326Y-88785521D01*
X115527590Y-88668604D01*
X115677415Y-88638802D01*
X115827239Y-88609000D01*
X116132761Y-88609000D01*
X116282585Y-88638802D01*
X116282585Y-88638802D01*
G37*
G36*
X82481000Y-91471000D02*
G01*
X79829000Y-91471000D01*
X79829000Y-88869000D01*
X82481000Y-88869000D01*
X82481000Y-91471000D01*
X82481000Y-91471000D01*
G37*
G36*
X101532000Y-91471000D02*
G01*
X98880000Y-91471000D01*
X98880000Y-88869000D01*
X101532000Y-88869000D01*
X101532000Y-91471000D01*
X101532000Y-91471000D01*
G37*
G36*
X120581000Y-91461000D02*
G01*
X117929000Y-91461000D01*
X117929000Y-88859000D01*
X120581000Y-88859000D01*
X120581000Y-91461000D01*
X120581000Y-91461000D01*
G37*
G36*
X74666474Y-85663684D02*
G01*
X74884474Y-85753983D01*
X75038623Y-85817833D01*
X75373548Y-86041623D01*
X75658377Y-86326452D01*
X75882167Y-86661377D01*
X75914562Y-86739586D01*
X76036316Y-87033526D01*
X76114900Y-87428594D01*
X76114900Y-87831406D01*
X76036316Y-88226474D01*
X75985451Y-88349272D01*
X75882167Y-88598623D01*
X75658377Y-88933548D01*
X75373548Y-89218377D01*
X75038623Y-89442167D01*
X74884474Y-89506017D01*
X74666474Y-89596316D01*
X74271406Y-89674900D01*
X73868594Y-89674900D01*
X73473526Y-89596316D01*
X73255526Y-89506017D01*
X73101377Y-89442167D01*
X72766452Y-89218377D01*
X72481623Y-88933548D01*
X72257833Y-88598623D01*
X72154549Y-88349272D01*
X72103684Y-88226474D01*
X72025100Y-87831406D01*
X72025100Y-87428594D01*
X72103684Y-87033526D01*
X72225438Y-86739586D01*
X72257833Y-86661377D01*
X72481623Y-86326452D01*
X72766452Y-86041623D01*
X73101377Y-85817833D01*
X73255526Y-85753983D01*
X73473526Y-85663684D01*
X73868594Y-85585100D01*
X74271406Y-85585100D01*
X74666474Y-85663684D01*
X74666474Y-85663684D01*
G37*
G36*
X93717474Y-85663684D02*
G01*
X93935474Y-85753983D01*
X94089623Y-85817833D01*
X94424548Y-86041623D01*
X94709377Y-86326452D01*
X94933167Y-86661377D01*
X94965562Y-86739586D01*
X95087316Y-87033526D01*
X95165900Y-87428594D01*
X95165900Y-87831406D01*
X95087316Y-88226474D01*
X95036451Y-88349272D01*
X94933167Y-88598623D01*
X94709377Y-88933548D01*
X94424548Y-89218377D01*
X94089623Y-89442167D01*
X93935474Y-89506017D01*
X93717474Y-89596316D01*
X93322406Y-89674900D01*
X92919594Y-89674900D01*
X92524526Y-89596316D01*
X92306526Y-89506017D01*
X92152377Y-89442167D01*
X91817452Y-89218377D01*
X91532623Y-88933548D01*
X91308833Y-88598623D01*
X91205549Y-88349272D01*
X91154684Y-88226474D01*
X91076100Y-87831406D01*
X91076100Y-87428594D01*
X91154684Y-87033526D01*
X91276438Y-86739586D01*
X91308833Y-86661377D01*
X91532623Y-86326452D01*
X91817452Y-86041623D01*
X92152377Y-85817833D01*
X92306526Y-85753983D01*
X92524526Y-85663684D01*
X92919594Y-85585100D01*
X93322406Y-85585100D01*
X93717474Y-85663684D01*
X93717474Y-85663684D01*
G37*
G36*
X112766474Y-85653684D02*
G01*
X112984474Y-85743983D01*
X113138623Y-85807833D01*
X113473548Y-86031623D01*
X113758377Y-86316452D01*
X113982167Y-86651377D01*
X114014562Y-86729586D01*
X114136316Y-87023526D01*
X114214900Y-87418594D01*
X114214900Y-87821406D01*
X114136316Y-88216474D01*
X114081309Y-88349272D01*
X113982167Y-88588623D01*
X113758377Y-88923548D01*
X113473548Y-89208377D01*
X113138623Y-89432167D01*
X112984474Y-89496017D01*
X112766474Y-89586316D01*
X112371406Y-89664900D01*
X111968594Y-89664900D01*
X111573526Y-89586316D01*
X111355526Y-89496017D01*
X111201377Y-89432167D01*
X110866452Y-89208377D01*
X110581623Y-88923548D01*
X110357833Y-88588623D01*
X110258691Y-88349272D01*
X110203684Y-88216474D01*
X110125100Y-87821406D01*
X110125100Y-87418594D01*
X110203684Y-87023526D01*
X110325438Y-86729586D01*
X110357833Y-86651377D01*
X110581623Y-86316452D01*
X110866452Y-86031623D01*
X111201377Y-85807833D01*
X111355526Y-85743983D01*
X111573526Y-85653684D01*
X111968594Y-85575100D01*
X112371406Y-85575100D01*
X112766474Y-85653684D01*
X112766474Y-85653684D01*
G37*
G36*
X69260104Y-86739585D02*
G01*
X69428626Y-86809389D01*
X69580291Y-86910728D01*
X69709272Y-87039709D01*
X69810611Y-87191374D01*
X69880415Y-87359896D01*
X69916000Y-87538797D01*
X69916000Y-87721203D01*
X69880415Y-87900104D01*
X69810611Y-88068626D01*
X69709272Y-88220291D01*
X69580291Y-88349272D01*
X69428626Y-88450611D01*
X69260104Y-88520415D01*
X69081203Y-88556000D01*
X68898797Y-88556000D01*
X68719896Y-88520415D01*
X68551374Y-88450611D01*
X68399709Y-88349272D01*
X68270728Y-88220291D01*
X68169389Y-88068626D01*
X68099585Y-87900104D01*
X68064000Y-87721203D01*
X68064000Y-87538797D01*
X68099585Y-87359896D01*
X68169389Y-87191374D01*
X68270728Y-87039709D01*
X68399709Y-86910728D01*
X68551374Y-86809389D01*
X68719896Y-86739585D01*
X68898797Y-86704000D01*
X69081203Y-86704000D01*
X69260104Y-86739585D01*
X69260104Y-86739585D01*
G37*
G36*
X79420104Y-86739585D02*
G01*
X79588626Y-86809389D01*
X79740291Y-86910728D01*
X79869272Y-87039709D01*
X79970611Y-87191374D01*
X80040415Y-87359896D01*
X80076000Y-87538797D01*
X80076000Y-87721203D01*
X80040415Y-87900104D01*
X79970611Y-88068626D01*
X79869272Y-88220291D01*
X79740291Y-88349272D01*
X79588626Y-88450611D01*
X79420104Y-88520415D01*
X79241203Y-88556000D01*
X79058797Y-88556000D01*
X78879896Y-88520415D01*
X78711374Y-88450611D01*
X78559709Y-88349272D01*
X78430728Y-88220291D01*
X78329389Y-88068626D01*
X78259585Y-87900104D01*
X78224000Y-87721203D01*
X78224000Y-87538797D01*
X78259585Y-87359896D01*
X78329389Y-87191374D01*
X78430728Y-87039709D01*
X78559709Y-86910728D01*
X78711374Y-86809389D01*
X78879896Y-86739585D01*
X79058797Y-86704000D01*
X79241203Y-86704000D01*
X79420104Y-86739585D01*
X79420104Y-86739585D01*
G37*
G36*
X98471104Y-86739585D02*
G01*
X98639626Y-86809389D01*
X98791291Y-86910728D01*
X98920272Y-87039709D01*
X99021611Y-87191374D01*
X99091415Y-87359896D01*
X99127000Y-87538797D01*
X99127000Y-87721203D01*
X99091415Y-87900104D01*
X99021611Y-88068626D01*
X98920272Y-88220291D01*
X98791291Y-88349272D01*
X98639626Y-88450611D01*
X98471104Y-88520415D01*
X98292203Y-88556000D01*
X98109797Y-88556000D01*
X97930896Y-88520415D01*
X97762374Y-88450611D01*
X97610709Y-88349272D01*
X97481728Y-88220291D01*
X97380389Y-88068626D01*
X97310585Y-87900104D01*
X97275000Y-87721203D01*
X97275000Y-87538797D01*
X97310585Y-87359896D01*
X97380389Y-87191374D01*
X97481728Y-87039709D01*
X97610709Y-86910728D01*
X97762374Y-86809389D01*
X97930896Y-86739585D01*
X98109797Y-86704000D01*
X98292203Y-86704000D01*
X98471104Y-86739585D01*
X98471104Y-86739585D01*
G37*
G36*
X88311104Y-86739585D02*
G01*
X88479626Y-86809389D01*
X88631291Y-86910728D01*
X88760272Y-87039709D01*
X88861611Y-87191374D01*
X88931415Y-87359896D01*
X88967000Y-87538797D01*
X88967000Y-87721203D01*
X88931415Y-87900104D01*
X88861611Y-88068626D01*
X88760272Y-88220291D01*
X88631291Y-88349272D01*
X88479626Y-88450611D01*
X88311104Y-88520415D01*
X88132203Y-88556000D01*
X87949797Y-88556000D01*
X87770896Y-88520415D01*
X87602374Y-88450611D01*
X87450709Y-88349272D01*
X87321728Y-88220291D01*
X87220389Y-88068626D01*
X87150585Y-87900104D01*
X87115000Y-87721203D01*
X87115000Y-87538797D01*
X87150585Y-87359896D01*
X87220389Y-87191374D01*
X87321728Y-87039709D01*
X87450709Y-86910728D01*
X87602374Y-86809389D01*
X87770896Y-86739585D01*
X87949797Y-86704000D01*
X88132203Y-86704000D01*
X88311104Y-86739585D01*
X88311104Y-86739585D01*
G37*
G36*
X107360104Y-86729585D02*
G01*
X107528626Y-86799389D01*
X107680291Y-86900728D01*
X107809272Y-87029709D01*
X107910611Y-87181374D01*
X107980415Y-87349896D01*
X108016000Y-87528797D01*
X108016000Y-87711203D01*
X107980415Y-87890104D01*
X107910611Y-88058626D01*
X107809272Y-88210291D01*
X107680291Y-88339272D01*
X107528626Y-88440611D01*
X107360104Y-88510415D01*
X107181203Y-88546000D01*
X106998797Y-88546000D01*
X106819896Y-88510415D01*
X106651374Y-88440611D01*
X106499709Y-88339272D01*
X106370728Y-88210291D01*
X106269389Y-88058626D01*
X106199585Y-87890104D01*
X106164000Y-87711203D01*
X106164000Y-87528797D01*
X106199585Y-87349896D01*
X106269389Y-87181374D01*
X106370728Y-87029709D01*
X106499709Y-86900728D01*
X106651374Y-86799389D01*
X106819896Y-86729585D01*
X106998797Y-86694000D01*
X107181203Y-86694000D01*
X107360104Y-86729585D01*
X107360104Y-86729585D01*
G37*
G36*
X117520104Y-86729585D02*
G01*
X117688626Y-86799389D01*
X117840291Y-86900728D01*
X117969272Y-87029709D01*
X118070611Y-87181374D01*
X118140415Y-87349896D01*
X118176000Y-87528797D01*
X118176000Y-87711203D01*
X118140415Y-87890104D01*
X118070611Y-88058626D01*
X117969272Y-88210291D01*
X117840291Y-88339272D01*
X117688626Y-88440611D01*
X117520104Y-88510415D01*
X117341203Y-88546000D01*
X117158797Y-88546000D01*
X116979896Y-88510415D01*
X116811374Y-88440611D01*
X116659709Y-88339272D01*
X116530728Y-88210291D01*
X116429389Y-88058626D01*
X116359585Y-87890104D01*
X116324000Y-87711203D01*
X116324000Y-87528797D01*
X116359585Y-87349896D01*
X116429389Y-87181374D01*
X116530728Y-87029709D01*
X116659709Y-86900728D01*
X116811374Y-86799389D01*
X116979896Y-86729585D01*
X117158797Y-86694000D01*
X117341203Y-86694000D01*
X117520104Y-86729585D01*
X117520104Y-86729585D01*
G37*
G36*
X91501000Y-83761000D02*
G01*
X89699000Y-83761000D01*
X89699000Y-82839000D01*
X91501000Y-82839000D01*
X91501000Y-83761000D01*
X91501000Y-83761000D01*
G37*
G36*
X77335657Y-82842821D02*
G01*
X77367062Y-82852348D01*
X77395999Y-82867815D01*
X77421367Y-82888633D01*
X77442185Y-82914001D01*
X77457652Y-82942938D01*
X77467179Y-82974343D01*
X77471000Y-83013140D01*
X77471000Y-83586860D01*
X77467179Y-83625657D01*
X77457652Y-83657062D01*
X77442185Y-83685999D01*
X77421367Y-83711367D01*
X77395999Y-83732185D01*
X77367062Y-83747652D01*
X77335657Y-83757179D01*
X77296860Y-83761000D01*
X75843140Y-83761000D01*
X75804343Y-83757179D01*
X75772938Y-83747652D01*
X75744001Y-83732185D01*
X75718633Y-83711367D01*
X75697815Y-83685999D01*
X75682348Y-83657062D01*
X75672821Y-83625657D01*
X75669000Y-83586860D01*
X75669000Y-83013140D01*
X75672821Y-82974343D01*
X75682348Y-82942938D01*
X75697815Y-82914001D01*
X75718633Y-82888633D01*
X75744001Y-82867815D01*
X75772938Y-82852348D01*
X75804343Y-82842821D01*
X75843140Y-82839000D01*
X77296860Y-82839000D01*
X77335657Y-82842821D01*
X77335657Y-82842821D01*
G37*
G36*
X72371000Y-83761000D02*
G01*
X70569000Y-83761000D01*
X70569000Y-82839000D01*
X72371000Y-82839000D01*
X72371000Y-83761000D01*
X72371000Y-83761000D01*
G37*
G36*
X96465657Y-82842821D02*
G01*
X96497062Y-82852348D01*
X96525999Y-82867815D01*
X96551367Y-82888633D01*
X96572185Y-82914001D01*
X96587652Y-82942938D01*
X96597179Y-82974343D01*
X96601000Y-83013140D01*
X96601000Y-83586860D01*
X96597179Y-83625657D01*
X96587652Y-83657062D01*
X96572185Y-83685999D01*
X96551367Y-83711367D01*
X96525999Y-83732185D01*
X96497062Y-83747652D01*
X96465657Y-83757179D01*
X96426860Y-83761000D01*
X94973140Y-83761000D01*
X94934343Y-83757179D01*
X94902938Y-83747652D01*
X94874001Y-83732185D01*
X94848633Y-83711367D01*
X94827815Y-83685999D01*
X94812348Y-83657062D01*
X94802821Y-83625657D01*
X94799000Y-83586860D01*
X94799000Y-83013140D01*
X94802821Y-82974343D01*
X94812348Y-82942938D01*
X94827815Y-82914001D01*
X94848633Y-82888633D01*
X94874001Y-82867815D01*
X94902938Y-82852348D01*
X94934343Y-82842821D01*
X94973140Y-82839000D01*
X96426860Y-82839000D01*
X96465657Y-82842821D01*
X96465657Y-82842821D01*
G37*
G36*
X110501000Y-83751000D02*
G01*
X108699000Y-83751000D01*
X108699000Y-82829000D01*
X110501000Y-82829000D01*
X110501000Y-83751000D01*
X110501000Y-83751000D01*
G37*
G36*
X115465657Y-82832821D02*
G01*
X115497062Y-82842348D01*
X115525999Y-82857815D01*
X115551367Y-82878633D01*
X115572185Y-82904001D01*
X115587652Y-82932938D01*
X115597179Y-82964343D01*
X115601000Y-83003140D01*
X115601000Y-83576860D01*
X115597179Y-83615657D01*
X115587652Y-83647062D01*
X115572185Y-83675999D01*
X115551367Y-83701367D01*
X115525999Y-83722185D01*
X115497062Y-83737652D01*
X115465657Y-83747179D01*
X115426860Y-83751000D01*
X113973140Y-83751000D01*
X113934343Y-83747179D01*
X113902938Y-83737652D01*
X113874001Y-83722185D01*
X113848633Y-83701367D01*
X113827815Y-83675999D01*
X113812348Y-83647062D01*
X113802821Y-83615657D01*
X113799000Y-83576860D01*
X113799000Y-83003140D01*
X113802821Y-82964343D01*
X113812348Y-82932938D01*
X113827815Y-82904001D01*
X113848633Y-82878633D01*
X113874001Y-82857815D01*
X113902938Y-82842348D01*
X113934343Y-82832821D01*
X113973140Y-82829000D01*
X115426860Y-82829000D01*
X115465657Y-82832821D01*
X115465657Y-82832821D01*
G37*
G36*
X107522674Y-81946465D02*
G01*
X107560367Y-81957899D01*
X107595103Y-81976466D01*
X107625548Y-82001452D01*
X107650534Y-82031897D01*
X107669101Y-82066633D01*
X107680535Y-82104326D01*
X107685000Y-82149661D01*
X107685000Y-82986339D01*
X107680535Y-83031674D01*
X107669101Y-83069367D01*
X107650534Y-83104103D01*
X107625548Y-83134548D01*
X107595103Y-83159534D01*
X107560367Y-83178101D01*
X107522674Y-83189535D01*
X107477339Y-83194000D01*
X106390661Y-83194000D01*
X106345326Y-83189535D01*
X106307633Y-83178101D01*
X106272897Y-83159534D01*
X106242452Y-83134548D01*
X106217466Y-83104103D01*
X106198899Y-83069367D01*
X106187465Y-83031674D01*
X106183000Y-82986339D01*
X106183000Y-82149661D01*
X106187465Y-82104326D01*
X106198899Y-82066633D01*
X106217466Y-82031897D01*
X106242452Y-82001452D01*
X106272897Y-81976466D01*
X106307633Y-81957899D01*
X106345326Y-81946465D01*
X106390661Y-81942000D01*
X107477339Y-81942000D01*
X107522674Y-81946465D01*
X107522674Y-81946465D01*
G37*
G36*
X68787674Y-81946465D02*
G01*
X68825367Y-81957899D01*
X68860103Y-81976466D01*
X68890548Y-82001452D01*
X68915534Y-82031897D01*
X68934101Y-82066633D01*
X68945535Y-82104326D01*
X68950000Y-82149661D01*
X68950000Y-82986339D01*
X68945535Y-83031674D01*
X68934101Y-83069367D01*
X68915534Y-83104103D01*
X68890548Y-83134548D01*
X68860103Y-83159534D01*
X68825367Y-83178101D01*
X68787674Y-83189535D01*
X68742339Y-83194000D01*
X67655661Y-83194000D01*
X67610326Y-83189535D01*
X67572633Y-83178101D01*
X67537897Y-83159534D01*
X67507452Y-83134548D01*
X67482466Y-83104103D01*
X67463899Y-83069367D01*
X67452465Y-83031674D01*
X67448000Y-82986339D01*
X67448000Y-82149661D01*
X67452465Y-82104326D01*
X67463899Y-82066633D01*
X67482466Y-82031897D01*
X67507452Y-82001452D01*
X67537897Y-81976466D01*
X67572633Y-81957899D01*
X67610326Y-81946465D01*
X67655661Y-81942000D01*
X68742339Y-81942000D01*
X68787674Y-81946465D01*
X68787674Y-81946465D01*
G37*
G36*
X87837674Y-81946465D02*
G01*
X87875367Y-81957899D01*
X87910103Y-81976466D01*
X87940548Y-82001452D01*
X87965534Y-82031897D01*
X87984101Y-82066633D01*
X87995535Y-82104326D01*
X88000000Y-82149661D01*
X88000000Y-82986339D01*
X87995535Y-83031674D01*
X87984101Y-83069367D01*
X87965534Y-83104103D01*
X87940548Y-83134548D01*
X87910103Y-83159534D01*
X87875367Y-83178101D01*
X87837674Y-83189535D01*
X87792339Y-83194000D01*
X86705661Y-83194000D01*
X86660326Y-83189535D01*
X86622633Y-83178101D01*
X86587897Y-83159534D01*
X86557452Y-83134548D01*
X86532466Y-83104103D01*
X86513899Y-83069367D01*
X86502465Y-83031674D01*
X86498000Y-82986339D01*
X86498000Y-82149661D01*
X86502465Y-82104326D01*
X86513899Y-82066633D01*
X86532466Y-82031897D01*
X86557452Y-82001452D01*
X86587897Y-81976466D01*
X86622633Y-81957899D01*
X86660326Y-81946465D01*
X86705661Y-81942000D01*
X87792339Y-81942000D01*
X87837674Y-81946465D01*
X87837674Y-81946465D01*
G37*
G36*
X77471000Y-82261000D02*
G01*
X75669000Y-82261000D01*
X75669000Y-81339000D01*
X77471000Y-81339000D01*
X77471000Y-82261000D01*
X77471000Y-82261000D01*
G37*
G36*
X91501000Y-82261000D02*
G01*
X89699000Y-82261000D01*
X89699000Y-81339000D01*
X91501000Y-81339000D01*
X91501000Y-82261000D01*
X91501000Y-82261000D01*
G37*
G36*
X96601000Y-82261000D02*
G01*
X94799000Y-82261000D01*
X94799000Y-81339000D01*
X96601000Y-81339000D01*
X96601000Y-82261000D01*
X96601000Y-82261000D01*
G37*
G36*
X72371000Y-82261000D02*
G01*
X70569000Y-82261000D01*
X70569000Y-81339000D01*
X72371000Y-81339000D01*
X72371000Y-82261000D01*
X72371000Y-82261000D01*
G37*
G36*
X110501000Y-82251000D02*
G01*
X108699000Y-82251000D01*
X108699000Y-81329000D01*
X110501000Y-81329000D01*
X110501000Y-82251000D01*
X110501000Y-82251000D01*
G37*
G36*
X115601000Y-82251000D02*
G01*
X113799000Y-82251000D01*
X113799000Y-81329000D01*
X115601000Y-81329000D01*
X115601000Y-82251000D01*
X115601000Y-82251000D01*
G37*
G36*
X68787674Y-79896465D02*
G01*
X68825367Y-79907899D01*
X68860103Y-79926466D01*
X68890548Y-79951452D01*
X68915534Y-79981897D01*
X68934101Y-80016633D01*
X68945535Y-80054326D01*
X68950000Y-80099661D01*
X68950000Y-80936339D01*
X68945535Y-80981674D01*
X68934101Y-81019367D01*
X68915534Y-81054103D01*
X68890548Y-81084548D01*
X68860103Y-81109534D01*
X68825367Y-81128101D01*
X68787674Y-81139535D01*
X68742339Y-81144000D01*
X67655661Y-81144000D01*
X67610326Y-81139535D01*
X67572633Y-81128101D01*
X67537897Y-81109534D01*
X67507452Y-81084548D01*
X67482466Y-81054103D01*
X67463899Y-81019367D01*
X67452465Y-80981674D01*
X67448000Y-80936339D01*
X67448000Y-80099661D01*
X67452465Y-80054326D01*
X67463899Y-80016633D01*
X67482466Y-79981897D01*
X67507452Y-79951452D01*
X67537897Y-79926466D01*
X67572633Y-79907899D01*
X67610326Y-79896465D01*
X67655661Y-79892000D01*
X68742339Y-79892000D01*
X68787674Y-79896465D01*
X68787674Y-79896465D01*
G37*
G36*
X107522674Y-79896465D02*
G01*
X107560367Y-79907899D01*
X107595103Y-79926466D01*
X107625548Y-79951452D01*
X107650534Y-79981897D01*
X107669101Y-80016633D01*
X107680535Y-80054326D01*
X107685000Y-80099661D01*
X107685000Y-80936339D01*
X107680535Y-80981674D01*
X107669101Y-81019367D01*
X107650534Y-81054103D01*
X107625548Y-81084548D01*
X107595103Y-81109534D01*
X107560367Y-81128101D01*
X107522674Y-81139535D01*
X107477339Y-81144000D01*
X106390661Y-81144000D01*
X106345326Y-81139535D01*
X106307633Y-81128101D01*
X106272897Y-81109534D01*
X106242452Y-81084548D01*
X106217466Y-81054103D01*
X106198899Y-81019367D01*
X106187465Y-80981674D01*
X106183000Y-80936339D01*
X106183000Y-80099661D01*
X106187465Y-80054326D01*
X106198899Y-80016633D01*
X106217466Y-79981897D01*
X106242452Y-79951452D01*
X106272897Y-79926466D01*
X106307633Y-79907899D01*
X106345326Y-79896465D01*
X106390661Y-79892000D01*
X107477339Y-79892000D01*
X107522674Y-79896465D01*
X107522674Y-79896465D01*
G37*
G36*
X87837674Y-79896465D02*
G01*
X87875367Y-79907899D01*
X87910103Y-79926466D01*
X87940548Y-79951452D01*
X87965534Y-79981897D01*
X87984101Y-80016633D01*
X87995535Y-80054326D01*
X88000000Y-80099661D01*
X88000000Y-80936339D01*
X87995535Y-80981674D01*
X87984101Y-81019367D01*
X87965534Y-81054103D01*
X87940548Y-81084548D01*
X87910103Y-81109534D01*
X87875367Y-81128101D01*
X87837674Y-81139535D01*
X87792339Y-81144000D01*
X86705661Y-81144000D01*
X86660326Y-81139535D01*
X86622633Y-81128101D01*
X86587897Y-81109534D01*
X86557452Y-81084548D01*
X86532466Y-81054103D01*
X86513899Y-81019367D01*
X86502465Y-80981674D01*
X86498000Y-80936339D01*
X86498000Y-80099661D01*
X86502465Y-80054326D01*
X86513899Y-80016633D01*
X86532466Y-79981897D01*
X86557452Y-79951452D01*
X86587897Y-79926466D01*
X86622633Y-79907899D01*
X86660326Y-79896465D01*
X86705661Y-79892000D01*
X87792339Y-79892000D01*
X87837674Y-79896465D01*
X87837674Y-79896465D01*
G37*
G36*
X103079674Y-75326465D02*
G01*
X103117367Y-75337899D01*
X103152103Y-75356466D01*
X103182548Y-75381452D01*
X103207534Y-75411897D01*
X103226101Y-75446633D01*
X103237535Y-75484326D01*
X103242000Y-75529661D01*
X103242000Y-76616339D01*
X103237535Y-76661674D01*
X103226101Y-76699367D01*
X103207534Y-76734103D01*
X103182548Y-76764548D01*
X103152103Y-76789534D01*
X103117367Y-76808101D01*
X103079674Y-76819535D01*
X103034339Y-76824000D01*
X102197661Y-76824000D01*
X102152326Y-76819535D01*
X102114633Y-76808101D01*
X102079897Y-76789534D01*
X102049452Y-76764548D01*
X102024466Y-76734103D01*
X102005899Y-76699367D01*
X101994465Y-76661674D01*
X101990000Y-76616339D01*
X101990000Y-75529661D01*
X101994465Y-75484326D01*
X102005899Y-75446633D01*
X102024466Y-75411897D01*
X102049452Y-75381452D01*
X102079897Y-75356466D01*
X102114633Y-75337899D01*
X102152326Y-75326465D01*
X102197661Y-75322000D01*
X103034339Y-75322000D01*
X103079674Y-75326465D01*
X103079674Y-75326465D01*
G37*
G36*
X101029674Y-75326465D02*
G01*
X101067367Y-75337899D01*
X101102103Y-75356466D01*
X101132548Y-75381452D01*
X101157534Y-75411897D01*
X101176101Y-75446633D01*
X101187535Y-75484326D01*
X101192000Y-75529661D01*
X101192000Y-76616339D01*
X101187535Y-76661674D01*
X101176101Y-76699367D01*
X101157534Y-76734103D01*
X101132548Y-76764548D01*
X101102103Y-76789534D01*
X101067367Y-76808101D01*
X101029674Y-76819535D01*
X100984339Y-76824000D01*
X100147661Y-76824000D01*
X100102326Y-76819535D01*
X100064633Y-76808101D01*
X100029897Y-76789534D01*
X99999452Y-76764548D01*
X99974466Y-76734103D01*
X99955899Y-76699367D01*
X99944465Y-76661674D01*
X99940000Y-76616339D01*
X99940000Y-75529661D01*
X99944465Y-75484326D01*
X99955899Y-75446633D01*
X99974466Y-75411897D01*
X99999452Y-75381452D01*
X100029897Y-75356466D01*
X100064633Y-75337899D01*
X100102326Y-75326465D01*
X100147661Y-75322000D01*
X100984339Y-75322000D01*
X101029674Y-75326465D01*
X101029674Y-75326465D01*
G37*
G36*
X97235674Y-72675465D02*
G01*
X97273367Y-72686899D01*
X97308103Y-72705466D01*
X97338548Y-72730452D01*
X97363534Y-72760897D01*
X97382101Y-72795633D01*
X97393535Y-72833326D01*
X97398000Y-72878661D01*
X97398000Y-73715339D01*
X97393535Y-73760674D01*
X97382101Y-73798367D01*
X97363534Y-73833103D01*
X97338548Y-73863548D01*
X97308103Y-73888534D01*
X97273367Y-73907101D01*
X97235674Y-73918535D01*
X97190339Y-73923000D01*
X96103661Y-73923000D01*
X96058326Y-73918535D01*
X96020633Y-73907101D01*
X95985897Y-73888534D01*
X95955452Y-73863548D01*
X95930466Y-73833103D01*
X95911899Y-73798367D01*
X95900465Y-73760674D01*
X95896000Y-73715339D01*
X95896000Y-72878661D01*
X95900465Y-72833326D01*
X95911899Y-72795633D01*
X95930466Y-72760897D01*
X95955452Y-72730452D01*
X95985897Y-72705466D01*
X96020633Y-72686899D01*
X96058326Y-72675465D01*
X96103661Y-72671000D01*
X97190339Y-72671000D01*
X97235674Y-72675465D01*
X97235674Y-72675465D01*
G37*
G36*
X89996674Y-72548465D02*
G01*
X90034367Y-72559899D01*
X90069103Y-72578466D01*
X90099548Y-72603452D01*
X90124534Y-72633897D01*
X90143101Y-72668633D01*
X90154535Y-72706326D01*
X90159000Y-72751661D01*
X90159000Y-73588339D01*
X90154535Y-73633674D01*
X90143101Y-73671367D01*
X90124534Y-73706103D01*
X90099548Y-73736548D01*
X90069103Y-73761534D01*
X90034367Y-73780101D01*
X89996674Y-73791535D01*
X89951339Y-73796000D01*
X88864661Y-73796000D01*
X88819326Y-73791535D01*
X88781633Y-73780101D01*
X88746897Y-73761534D01*
X88716452Y-73736548D01*
X88691466Y-73706103D01*
X88672899Y-73671367D01*
X88661465Y-73633674D01*
X88657000Y-73588339D01*
X88657000Y-72751661D01*
X88661465Y-72706326D01*
X88672899Y-72668633D01*
X88691466Y-72633897D01*
X88716452Y-72603452D01*
X88746897Y-72578466D01*
X88781633Y-72559899D01*
X88819326Y-72548465D01*
X88864661Y-72544000D01*
X89951339Y-72544000D01*
X89996674Y-72548465D01*
X89996674Y-72548465D01*
G37*
G36*
X103356062Y-71722181D02*
G01*
X103390981Y-71732774D01*
X103423163Y-71749976D01*
X103451373Y-71773127D01*
X103474524Y-71801337D01*
X103491726Y-71833519D01*
X103502319Y-71868438D01*
X103506500Y-71910895D01*
X103506500Y-73377105D01*
X103502319Y-73419562D01*
X103491726Y-73454481D01*
X103474524Y-73486663D01*
X103451373Y-73514873D01*
X103423163Y-73538024D01*
X103390981Y-73555226D01*
X103356062Y-73565819D01*
X103313605Y-73570000D01*
X102172395Y-73570000D01*
X102129938Y-73565819D01*
X102095019Y-73555226D01*
X102062837Y-73538024D01*
X102034627Y-73514873D01*
X102011476Y-73486663D01*
X101994274Y-73454481D01*
X101983681Y-73419562D01*
X101979500Y-73377105D01*
X101979500Y-71910895D01*
X101983681Y-71868438D01*
X101994274Y-71833519D01*
X102011476Y-71801337D01*
X102034627Y-71773127D01*
X102062837Y-71749976D01*
X102095019Y-71732774D01*
X102129938Y-71722181D01*
X102172395Y-71718000D01*
X103313605Y-71718000D01*
X103356062Y-71722181D01*
X103356062Y-71722181D01*
G37*
G36*
X100381062Y-71722181D02*
G01*
X100415981Y-71732774D01*
X100448163Y-71749976D01*
X100476373Y-71773127D01*
X100499524Y-71801337D01*
X100516726Y-71833519D01*
X100527319Y-71868438D01*
X100531500Y-71910895D01*
X100531500Y-73377105D01*
X100527319Y-73419562D01*
X100516726Y-73454481D01*
X100499524Y-73486663D01*
X100476373Y-73514873D01*
X100448163Y-73538024D01*
X100415981Y-73555226D01*
X100381062Y-73565819D01*
X100338605Y-73570000D01*
X99197395Y-73570000D01*
X99154938Y-73565819D01*
X99120019Y-73555226D01*
X99087837Y-73538024D01*
X99059627Y-73514873D01*
X99036476Y-73486663D01*
X99019274Y-73454481D01*
X99008681Y-73419562D01*
X99004500Y-73377105D01*
X99004500Y-71910895D01*
X99008681Y-71868438D01*
X99019274Y-71833519D01*
X99036476Y-71801337D01*
X99059627Y-71773127D01*
X99087837Y-71749976D01*
X99120019Y-71732774D01*
X99154938Y-71722181D01*
X99197395Y-71718000D01*
X100338605Y-71718000D01*
X100381062Y-71722181D01*
X100381062Y-71722181D01*
G37*
G36*
X94492000Y-73310000D02*
G01*
X93690000Y-73310000D01*
X93690000Y-72608000D01*
X94492000Y-72608000D01*
X94492000Y-73310000D01*
X94492000Y-73310000D01*
G37*
G36*
X92492000Y-73310000D02*
G01*
X91690000Y-73310000D01*
X91690000Y-72208000D01*
X92492000Y-72208000D01*
X92492000Y-73310000D01*
X92492000Y-73310000D01*
G37*
G36*
X97235674Y-70625465D02*
G01*
X97273367Y-70636899D01*
X97308103Y-70655466D01*
X97338548Y-70680452D01*
X97363534Y-70710897D01*
X97382101Y-70745633D01*
X97393535Y-70783326D01*
X97398000Y-70828661D01*
X97398000Y-71665339D01*
X97393535Y-71710674D01*
X97382101Y-71748367D01*
X97363534Y-71783103D01*
X97338548Y-71813548D01*
X97308103Y-71838534D01*
X97273367Y-71857101D01*
X97235674Y-71868535D01*
X97190339Y-71873000D01*
X96103661Y-71873000D01*
X96058326Y-71868535D01*
X96020633Y-71857101D01*
X95985897Y-71838534D01*
X95955452Y-71813548D01*
X95930466Y-71783103D01*
X95911899Y-71748367D01*
X95900465Y-71710674D01*
X95896000Y-71665339D01*
X95896000Y-70828661D01*
X95900465Y-70783326D01*
X95911899Y-70745633D01*
X95930466Y-70710897D01*
X95955452Y-70680452D01*
X95985897Y-70655466D01*
X96020633Y-70636899D01*
X96058326Y-70625465D01*
X96103661Y-70621000D01*
X97190339Y-70621000D01*
X97235674Y-70625465D01*
X97235674Y-70625465D01*
G37*
G36*
X89996674Y-70498465D02*
G01*
X90034367Y-70509899D01*
X90069103Y-70528466D01*
X90099548Y-70553452D01*
X90124534Y-70583897D01*
X90143101Y-70618633D01*
X90154535Y-70656326D01*
X90159000Y-70701661D01*
X90159000Y-71538339D01*
X90154535Y-71583674D01*
X90143101Y-71621367D01*
X90124534Y-71656103D01*
X90099548Y-71686548D01*
X90069103Y-71711534D01*
X90034367Y-71730101D01*
X89996674Y-71741535D01*
X89951339Y-71746000D01*
X88864661Y-71746000D01*
X88819326Y-71741535D01*
X88781633Y-71730101D01*
X88746897Y-71711534D01*
X88716452Y-71686548D01*
X88691466Y-71656103D01*
X88672899Y-71621367D01*
X88661465Y-71583674D01*
X88657000Y-71538339D01*
X88657000Y-70701661D01*
X88661465Y-70656326D01*
X88672899Y-70618633D01*
X88691466Y-70583897D01*
X88716452Y-70553452D01*
X88746897Y-70528466D01*
X88781633Y-70509899D01*
X88819326Y-70498465D01*
X88864661Y-70494000D01*
X89951339Y-70494000D01*
X89996674Y-70498465D01*
X89996674Y-70498465D01*
G37*
G36*
X94492000Y-71410000D02*
G01*
X93690000Y-71410000D01*
X93690000Y-70708000D01*
X94492000Y-70708000D01*
X94492000Y-71410000D01*
X94492000Y-71410000D01*
G37*
G36*
X92492000Y-71410000D02*
G01*
X91690000Y-71410000D01*
X91690000Y-70708000D01*
X92492000Y-70708000D01*
X92492000Y-71410000D01*
X92492000Y-71410000D01*
G37*
G36*
X96697000Y-68460000D02*
G01*
X89545000Y-68460000D01*
X89545000Y-65908000D01*
X96697000Y-65908000D01*
X96697000Y-68460000D01*
X96697000Y-68460000D01*
G37*
G36*
X90340672Y-64877449D02*
G01*
X90340674Y-64877450D01*
X90340675Y-64877450D01*
X90409103Y-64905793D01*
X90470686Y-64946942D01*
X90523058Y-64999314D01*
X90564207Y-65060897D01*
X90592550Y-65129325D01*
X90607000Y-65201967D01*
X90607000Y-65276033D01*
X90592550Y-65348675D01*
X90564207Y-65417103D01*
X90523058Y-65478686D01*
X90470686Y-65531058D01*
X90409103Y-65572207D01*
X90340675Y-65600550D01*
X90340674Y-65600550D01*
X90340672Y-65600551D01*
X90268034Y-65615000D01*
X90193966Y-65615000D01*
X90121328Y-65600551D01*
X90121326Y-65600550D01*
X90121325Y-65600550D01*
X90052897Y-65572207D01*
X89991314Y-65531058D01*
X89938942Y-65478686D01*
X89897793Y-65417103D01*
X89869450Y-65348675D01*
X89855000Y-65276033D01*
X89855000Y-65201967D01*
X89869450Y-65129325D01*
X89897793Y-65060897D01*
X89938942Y-64999314D01*
X89991314Y-64946942D01*
X90052897Y-64905793D01*
X90121325Y-64877450D01*
X90121326Y-64877450D01*
X90121328Y-64877449D01*
X90193966Y-64863000D01*
X90268034Y-64863000D01*
X90340672Y-64877449D01*
X90340672Y-64877449D01*
G37*
G36*
X96120672Y-64877449D02*
G01*
X96120674Y-64877450D01*
X96120675Y-64877450D01*
X96189103Y-64905793D01*
X96250686Y-64946942D01*
X96303058Y-64999314D01*
X96344207Y-65060897D01*
X96372550Y-65129325D01*
X96387000Y-65201967D01*
X96387000Y-65276033D01*
X96372550Y-65348675D01*
X96344207Y-65417103D01*
X96303058Y-65478686D01*
X96250686Y-65531058D01*
X96189103Y-65572207D01*
X96120675Y-65600550D01*
X96120674Y-65600550D01*
X96120672Y-65600551D01*
X96048034Y-65615000D01*
X95973966Y-65615000D01*
X95901328Y-65600551D01*
X95901326Y-65600550D01*
X95901325Y-65600550D01*
X95832897Y-65572207D01*
X95771314Y-65531058D01*
X95718942Y-65478686D01*
X95677793Y-65417103D01*
X95649450Y-65348675D01*
X95635000Y-65276033D01*
X95635000Y-65201967D01*
X95649450Y-65129325D01*
X95677793Y-65060897D01*
X95718942Y-64999314D01*
X95771314Y-64946942D01*
X95832897Y-64905793D01*
X95901325Y-64877450D01*
X95901326Y-64877450D01*
X95901328Y-64877449D01*
X95973966Y-64863000D01*
X96048034Y-64863000D01*
X96120672Y-64877449D01*
X96120672Y-64877449D01*
G37*
M02*
