G04 #@! TF.GenerationSoftware,KiCad,Pcbnew,(5.1.4)-1*
G04 #@! TF.CreationDate,2022-02-01T02:11:59+08:00*
G04 #@! TF.ProjectId,filled,66696c6c-6564-42e6-9b69-6361645f7063,rev?*
G04 #@! TF.SameCoordinates,Original*
G04 #@! TF.FileFunction,Profile,NP*
%FSLAX46Y46*%
G04 Gerber Fmt 4.6, Leading zero omitted, Abs format (unit mm)*
G04 Created by KiCad (PCBNEW (5.1.4)-1) date 2022-02-01 02:11:59*
%MOMM*%
%LPD*%
G04 APERTURE LIST*
%ADD10C,0.050000*%
%ADD11C,0.120000*%
G04 APERTURE END LIST*
D10*
X63500000Y-64770000D02*
X63500000Y-123070000D01*
X122809000Y-64770000D02*
X122809000Y-123070000D01*
X122810000Y-123070000D02*
X63500000Y-123070000D01*
X63500000Y-64770000D02*
X86868000Y-64770000D01*
X99441000Y-64770000D02*
X122809000Y-64770000D01*
X99441000Y-60071000D02*
X99441000Y-64770000D01*
X86868000Y-60071000D02*
X99441000Y-60071000D01*
X86868000Y-64770000D02*
X86868000Y-60071000D01*
D11*
X110450000Y-84040000D02*
X113850000Y-84040000D01*
X110450000Y-81040000D02*
X110450000Y-84040000D01*
X113850000Y-81040000D02*
X110450000Y-81040000D01*
X113850000Y-84040000D02*
X113850000Y-81040000D01*
X72320000Y-84050000D02*
X75720000Y-84050000D01*
X72320000Y-81050000D02*
X72320000Y-84050000D01*
X75720000Y-81050000D02*
X72320000Y-81050000D01*
X75720000Y-84050000D02*
X75720000Y-81050000D01*
X91450000Y-84050000D02*
X94850000Y-84050000D01*
X91450000Y-81050000D02*
X91450000Y-84050000D01*
X94850000Y-81050000D02*
X91450000Y-81050000D01*
X94850000Y-84050000D02*
X94850000Y-81050000D01*
M02*
