M48
; DRILL file {KiCad (5.1.4)-1} date 02/01/22 02:12:02
; FORMAT={-:-/ absolute / inch / decimal}
; #@! TF.CreationDate,2022-02-01T02:12:02+08:00
; #@! TF.GenerationSoftware,Kicad,Pcbnew,(5.1.4)-1
; #@! TF.FileFunction,Plated,1,2,PTH
FMAT,2
INCH
T1C0.0157
T2C0.0236
%
G90
G05
T1
X2.685Y-3.55
X2.75Y-3.355
X2.76Y-4.48
X2.79Y-3.84
X3.15Y-3.855
X3.215Y-4.315
X3.24Y-3.705
X3.295Y-4.35
X3.365Y-3.855
X3.405Y-4.115
X3.435Y-3.55
X3.445Y-4.405
X3.5014Y-3.3264
X3.525Y-4.635
X3.53Y-4.77
X3.585Y-3.985
X3.585Y-4.055
X3.635Y-2.73
X3.715Y-2.73
X3.77Y-3.355
X3.775Y-4.525
X3.795Y-2.73
X3.84Y-4.525
X3.885Y-2.73
X3.95Y-4.72
X3.975Y-3.905
X3.98Y-3.745
X3.98Y-3.825
X4.0Y-4.175
X4.175Y-3.745
X4.185Y-3.555
X4.27Y-3.905
X4.515Y-3.325
X4.545Y-3.795
T2
G00X3.4961Y-2.413
M15
G01X3.4961Y-2.4366
M16
G05
G00X3.4961Y-2.5677
M15
G01X3.4961Y-2.611
M16
G05
G00X3.8363Y-2.413
M15
G01X3.8363Y-2.4366
M16
G05
G00X3.8363Y-2.5677
M15
G01X3.8363Y-2.611
M16
G05
T0
M30
